G04 #@! TF.GenerationSoftware,KiCad,Pcbnew,(5.1.2)-2*
G04 #@! TF.CreationDate,2021-11-10T11:21:05-03:00*
G04 #@! TF.ProjectId,MAG_Plus,4d41475f-506c-4757-932e-6b696361645f,rev?*
G04 #@! TF.SameCoordinates,Original*
G04 #@! TF.FileFunction,Legend,Top*
G04 #@! TF.FilePolarity,Positive*
%FSLAX46Y46*%
G04 Gerber Fmt 4.6, Leading zero omitted, Abs format (unit mm)*
G04 Created by KiCad (PCBNEW (5.1.2)-2) date 2021-11-10 11:21:05*
%MOMM*%
%LPD*%
G04 APERTURE LIST*
%ADD10C,0.150000*%
%ADD11C,0.300000*%
%ADD12C,0.100000*%
%ADD13C,0.120000*%
G04 APERTURE END LIST*
D10*
X141425714Y-185112380D02*
X140854285Y-185112380D01*
X141140000Y-185112380D02*
X141140000Y-184112380D01*
X141044761Y-184255238D01*
X140949523Y-184350476D01*
X140854285Y-184398095D01*
X140759047Y-186381428D02*
X141520952Y-186381428D01*
X141092380Y-187412380D02*
X141187619Y-187412380D01*
X141282857Y-187460000D01*
X141330476Y-187507619D01*
X141378095Y-187602857D01*
X141425714Y-187793333D01*
X141425714Y-188031428D01*
X141378095Y-188221904D01*
X141330476Y-188317142D01*
X141282857Y-188364761D01*
X141187619Y-188412380D01*
X141092380Y-188412380D01*
X140997142Y-188364761D01*
X140949523Y-188317142D01*
X140901904Y-188221904D01*
X140854285Y-188031428D01*
X140854285Y-187793333D01*
X140901904Y-187602857D01*
X140949523Y-187507619D01*
X140997142Y-187460000D01*
X141092380Y-187412380D01*
X138605714Y-177672380D02*
X138034285Y-177672380D01*
X138320000Y-177672380D02*
X138320000Y-176672380D01*
X138224761Y-176815238D01*
X138129523Y-176910476D01*
X138034285Y-176958095D01*
X137939047Y-178941428D02*
X138700952Y-178941428D01*
X138272380Y-179972380D02*
X138367619Y-179972380D01*
X138462857Y-180020000D01*
X138510476Y-180067619D01*
X138558095Y-180162857D01*
X138605714Y-180353333D01*
X138605714Y-180591428D01*
X138558095Y-180781904D01*
X138510476Y-180877142D01*
X138462857Y-180924761D01*
X138367619Y-180972380D01*
X138272380Y-180972380D01*
X138177142Y-180924761D01*
X138129523Y-180877142D01*
X138081904Y-180781904D01*
X138034285Y-180591428D01*
X138034285Y-180353333D01*
X138081904Y-180162857D01*
X138129523Y-180067619D01*
X138177142Y-180020000D01*
X138272380Y-179972380D01*
D11*
X140985714Y-170113571D02*
X141842857Y-170113571D01*
X141414285Y-171613571D02*
X141414285Y-170113571D01*
X142342857Y-170827857D02*
X142842857Y-170827857D01*
X143057142Y-171613571D02*
X142342857Y-171613571D01*
X142342857Y-170113571D01*
X143057142Y-170113571D01*
X143700000Y-171613571D02*
X143700000Y-170113571D01*
X144200000Y-171185000D01*
X144700000Y-170113571D01*
X144700000Y-171613571D01*
X145414285Y-171613571D02*
X145414285Y-170113571D01*
X145985714Y-170113571D01*
X146128571Y-170185000D01*
X146200000Y-170256428D01*
X146271428Y-170399285D01*
X146271428Y-170613571D01*
X146200000Y-170756428D01*
X146128571Y-170827857D01*
X145985714Y-170899285D01*
X145414285Y-170899285D01*
X140414285Y-172806428D02*
X140485714Y-172735000D01*
X140628571Y-172663571D01*
X140985714Y-172663571D01*
X141128571Y-172735000D01*
X141200000Y-172806428D01*
X141271428Y-172949285D01*
X141271428Y-173092142D01*
X141200000Y-173306428D01*
X140342857Y-174163571D01*
X141271428Y-174163571D01*
X142271428Y-174663571D02*
X142271428Y-172520714D01*
X144128571Y-174163571D02*
X143271428Y-174163571D01*
X143700000Y-174163571D02*
X143700000Y-172663571D01*
X143557142Y-172877857D01*
X143414285Y-173020714D01*
X143271428Y-173092142D01*
X145128571Y-174663571D02*
X145128571Y-172520714D01*
X146485714Y-172663571D02*
X146628571Y-172663571D01*
X146771428Y-172735000D01*
X146842857Y-172806428D01*
X146914285Y-172949285D01*
X146985714Y-173235000D01*
X146985714Y-173592142D01*
X146914285Y-173877857D01*
X146842857Y-174020714D01*
X146771428Y-174092142D01*
X146628571Y-174163571D01*
X146485714Y-174163571D01*
X146342857Y-174092142D01*
X146271428Y-174020714D01*
X146200000Y-173877857D01*
X146128571Y-173592142D01*
X146128571Y-173235000D01*
X146200000Y-172949285D01*
X146271428Y-172806428D01*
X146342857Y-172735000D01*
X146485714Y-172663571D01*
X143317142Y-190183571D02*
X143317142Y-188683571D01*
X143817142Y-189755000D01*
X144317142Y-188683571D01*
X144317142Y-190183571D01*
X144960000Y-189755000D02*
X145674285Y-189755000D01*
X144817142Y-190183571D02*
X145317142Y-188683571D01*
X145817142Y-190183571D01*
X147102857Y-188755000D02*
X146960000Y-188683571D01*
X146745714Y-188683571D01*
X146531428Y-188755000D01*
X146388571Y-188897857D01*
X146317142Y-189040714D01*
X146245714Y-189326428D01*
X146245714Y-189540714D01*
X146317142Y-189826428D01*
X146388571Y-189969285D01*
X146531428Y-190112142D01*
X146745714Y-190183571D01*
X146888571Y-190183571D01*
X147102857Y-190112142D01*
X147174285Y-190040714D01*
X147174285Y-189540714D01*
X146888571Y-189540714D01*
X144210000Y-192733571D02*
X143352857Y-192733571D01*
X143781428Y-192733571D02*
X143781428Y-191233571D01*
X143638571Y-191447857D01*
X143495714Y-191590714D01*
X143352857Y-191662142D01*
X145210000Y-193233571D02*
X145210000Y-191090714D01*
X146567142Y-191233571D02*
X146710000Y-191233571D01*
X146852857Y-191305000D01*
X146924285Y-191376428D01*
X146995714Y-191519285D01*
X147067142Y-191805000D01*
X147067142Y-192162142D01*
X146995714Y-192447857D01*
X146924285Y-192590714D01*
X146852857Y-192662142D01*
X146710000Y-192733571D01*
X146567142Y-192733571D01*
X146424285Y-192662142D01*
X146352857Y-192590714D01*
X146281428Y-192447857D01*
X146210000Y-192162142D01*
X146210000Y-191805000D01*
X146281428Y-191519285D01*
X146352857Y-191376428D01*
X146424285Y-191305000D01*
X146567142Y-191233571D01*
D12*
G36*
X132290000Y-166660000D02*
G01*
X127290000Y-166660000D01*
X127290000Y-161660000D01*
X132290000Y-161660000D01*
X132290000Y-166660000D01*
G37*
X132290000Y-166660000D02*
X127290000Y-166660000D01*
X127290000Y-161660000D01*
X132290000Y-161660000D01*
X132290000Y-166660000D01*
G36*
X132290000Y-160660000D02*
G01*
X127290000Y-160660000D01*
X127290000Y-155660000D01*
X132290000Y-155660000D01*
X132290000Y-160660000D01*
G37*
X132290000Y-160660000D02*
X127290000Y-160660000D01*
X127290000Y-155660000D01*
X132290000Y-155660000D01*
X132290000Y-160660000D01*
G36*
X132290000Y-172660000D02*
G01*
X127290000Y-172660000D01*
X127290000Y-167660000D01*
X132290000Y-167660000D01*
X132290000Y-172660000D01*
G37*
X132290000Y-172660000D02*
X127290000Y-172660000D01*
X127290000Y-167660000D01*
X132290000Y-167660000D01*
X132290000Y-172660000D01*
G36*
X132290000Y-154660000D02*
G01*
X127290000Y-154660000D01*
X127290000Y-149660000D01*
X132290000Y-149660000D01*
X132290000Y-154660000D01*
G37*
X132290000Y-154660000D02*
X127290000Y-154660000D01*
X127290000Y-149660000D01*
X132290000Y-149660000D01*
X132290000Y-154660000D01*
D10*
X126344761Y-174443333D02*
X126392380Y-174300476D01*
X126392380Y-174062380D01*
X126344761Y-173967142D01*
X126297142Y-173919523D01*
X126201904Y-173871904D01*
X126106666Y-173871904D01*
X126011428Y-173919523D01*
X125963809Y-173967142D01*
X125916190Y-174062380D01*
X125868571Y-174252857D01*
X125820952Y-174348095D01*
X125773333Y-174395714D01*
X125678095Y-174443333D01*
X125582857Y-174443333D01*
X125487619Y-174395714D01*
X125440000Y-174348095D01*
X125392380Y-174252857D01*
X125392380Y-174014761D01*
X125440000Y-173871904D01*
X126392380Y-173443333D02*
X125392380Y-173443333D01*
X125392380Y-173062380D01*
X125440000Y-172967142D01*
X125487619Y-172919523D01*
X125582857Y-172871904D01*
X125725714Y-172871904D01*
X125820952Y-172919523D01*
X125868571Y-172967142D01*
X125916190Y-173062380D01*
X125916190Y-173443333D01*
X125868571Y-172443333D02*
X125868571Y-172110000D01*
X126392380Y-171967142D02*
X126392380Y-172443333D01*
X125392380Y-172443333D01*
X125392380Y-171967142D01*
X126392380Y-171062380D02*
X126392380Y-171538571D01*
X125392380Y-171538571D01*
X126011428Y-169967142D02*
X126011428Y-169205238D01*
X125392380Y-167967142D02*
X126201904Y-167967142D01*
X126297142Y-167919523D01*
X126344761Y-167871904D01*
X126392380Y-167776666D01*
X126392380Y-167586190D01*
X126344761Y-167490952D01*
X126297142Y-167443333D01*
X126201904Y-167395714D01*
X125392380Y-167395714D01*
X125725714Y-166919523D02*
X126392380Y-166919523D01*
X125820952Y-166919523D02*
X125773333Y-166871904D01*
X125725714Y-166776666D01*
X125725714Y-166633809D01*
X125773333Y-166538571D01*
X125868571Y-166490952D01*
X126392380Y-166490952D01*
X126392380Y-166014761D02*
X125725714Y-166014761D01*
X125392380Y-166014761D02*
X125440000Y-166062380D01*
X125487619Y-166014761D01*
X125440000Y-165967142D01*
X125392380Y-166014761D01*
X125487619Y-166014761D01*
X125725714Y-165633809D02*
X126392380Y-165395714D01*
X125725714Y-165157619D01*
X126344761Y-164395714D02*
X126392380Y-164490952D01*
X126392380Y-164681428D01*
X126344761Y-164776666D01*
X126249523Y-164824285D01*
X125868571Y-164824285D01*
X125773333Y-164776666D01*
X125725714Y-164681428D01*
X125725714Y-164490952D01*
X125773333Y-164395714D01*
X125868571Y-164348095D01*
X125963809Y-164348095D01*
X126059047Y-164824285D01*
X126392380Y-163919523D02*
X125725714Y-163919523D01*
X125916190Y-163919523D02*
X125820952Y-163871904D01*
X125773333Y-163824285D01*
X125725714Y-163729047D01*
X125725714Y-163633809D01*
X126344761Y-163348095D02*
X126392380Y-163252857D01*
X126392380Y-163062380D01*
X126344761Y-162967142D01*
X126249523Y-162919523D01*
X126201904Y-162919523D01*
X126106666Y-162967142D01*
X126059047Y-163062380D01*
X126059047Y-163205238D01*
X126011428Y-163300476D01*
X125916190Y-163348095D01*
X125868571Y-163348095D01*
X125773333Y-163300476D01*
X125725714Y-163205238D01*
X125725714Y-163062380D01*
X125773333Y-162967142D01*
X126392380Y-162490952D02*
X125725714Y-162490952D01*
X125392380Y-162490952D02*
X125440000Y-162538571D01*
X125487619Y-162490952D01*
X125440000Y-162443333D01*
X125392380Y-162490952D01*
X125487619Y-162490952D01*
X125725714Y-162157619D02*
X125725714Y-161776666D01*
X125392380Y-162014761D02*
X126249523Y-162014761D01*
X126344761Y-161967142D01*
X126392380Y-161871904D01*
X126392380Y-161776666D01*
X125725714Y-161538571D02*
X126392380Y-161300476D01*
X125725714Y-161062380D02*
X126392380Y-161300476D01*
X126630476Y-161395714D01*
X126678095Y-161443333D01*
X126725714Y-161538571D01*
X126392380Y-159776666D02*
X126344761Y-159871904D01*
X126297142Y-159919523D01*
X126201904Y-159967142D01*
X125916190Y-159967142D01*
X125820952Y-159919523D01*
X125773333Y-159871904D01*
X125725714Y-159776666D01*
X125725714Y-159633809D01*
X125773333Y-159538571D01*
X125820952Y-159490952D01*
X125916190Y-159443333D01*
X126201904Y-159443333D01*
X126297142Y-159490952D01*
X126344761Y-159538571D01*
X126392380Y-159633809D01*
X126392380Y-159776666D01*
X125725714Y-159157619D02*
X125725714Y-158776666D01*
X126392380Y-159014761D02*
X125535238Y-159014761D01*
X125440000Y-158967142D01*
X125392380Y-158871904D01*
X125392380Y-158776666D01*
X126297142Y-157110000D02*
X126344761Y-157157619D01*
X126392380Y-157300476D01*
X126392380Y-157395714D01*
X126344761Y-157538571D01*
X126249523Y-157633809D01*
X126154285Y-157681428D01*
X125963809Y-157729047D01*
X125820952Y-157729047D01*
X125630476Y-157681428D01*
X125535238Y-157633809D01*
X125440000Y-157538571D01*
X125392380Y-157395714D01*
X125392380Y-157300476D01*
X125440000Y-157157619D01*
X125487619Y-157110000D01*
X126392380Y-156681428D02*
X125392380Y-156681428D01*
X126392380Y-156252857D02*
X125868571Y-156252857D01*
X125773333Y-156300476D01*
X125725714Y-156395714D01*
X125725714Y-156538571D01*
X125773333Y-156633809D01*
X125820952Y-156681428D01*
X126392380Y-155776666D02*
X125725714Y-155776666D01*
X125392380Y-155776666D02*
X125440000Y-155824285D01*
X125487619Y-155776666D01*
X125440000Y-155729047D01*
X125392380Y-155776666D01*
X125487619Y-155776666D01*
X126392380Y-155157619D02*
X126344761Y-155252857D01*
X126249523Y-155300476D01*
X125392380Y-155300476D01*
X126344761Y-154395714D02*
X126392380Y-154490952D01*
X126392380Y-154681428D01*
X126344761Y-154776666D01*
X126249523Y-154824285D01*
X125868571Y-154824285D01*
X125773333Y-154776666D01*
X125725714Y-154681428D01*
X125725714Y-154490952D01*
X125773333Y-154395714D01*
X125868571Y-154348095D01*
X125963809Y-154348095D01*
X126059047Y-154824285D01*
X126011428Y-153157619D02*
X126011428Y-152395714D01*
X125487619Y-151205238D02*
X125440000Y-151157619D01*
X125392380Y-151062380D01*
X125392380Y-150824285D01*
X125440000Y-150729047D01*
X125487619Y-150681428D01*
X125582857Y-150633809D01*
X125678095Y-150633809D01*
X125820952Y-150681428D01*
X126392380Y-151252857D01*
X126392380Y-150633809D01*
X125392380Y-150014761D02*
X125392380Y-149919523D01*
X125440000Y-149824285D01*
X125487619Y-149776666D01*
X125582857Y-149729047D01*
X125773333Y-149681428D01*
X126011428Y-149681428D01*
X126201904Y-149729047D01*
X126297142Y-149776666D01*
X126344761Y-149824285D01*
X126392380Y-149919523D01*
X126392380Y-150014761D01*
X126344761Y-150110000D01*
X126297142Y-150157619D01*
X126201904Y-150205238D01*
X126011428Y-150252857D01*
X125773333Y-150252857D01*
X125582857Y-150205238D01*
X125487619Y-150157619D01*
X125440000Y-150110000D01*
X125392380Y-150014761D01*
X125487619Y-149300476D02*
X125440000Y-149252857D01*
X125392380Y-149157619D01*
X125392380Y-148919523D01*
X125440000Y-148824285D01*
X125487619Y-148776666D01*
X125582857Y-148729047D01*
X125678095Y-148729047D01*
X125820952Y-148776666D01*
X126392380Y-149348095D01*
X126392380Y-148729047D01*
X126392380Y-147776666D02*
X126392380Y-148348095D01*
X126392380Y-148062380D02*
X125392380Y-148062380D01*
X125535238Y-148157619D01*
X125630476Y-148252857D01*
X125678095Y-148348095D01*
X134094761Y-176090952D02*
X134142380Y-175948095D01*
X134142380Y-175710000D01*
X134094761Y-175614761D01*
X134047142Y-175567142D01*
X133951904Y-175519523D01*
X133856666Y-175519523D01*
X133761428Y-175567142D01*
X133713809Y-175614761D01*
X133666190Y-175710000D01*
X133618571Y-175900476D01*
X133570952Y-175995714D01*
X133523333Y-176043333D01*
X133428095Y-176090952D01*
X133332857Y-176090952D01*
X133237619Y-176043333D01*
X133190000Y-175995714D01*
X133142380Y-175900476D01*
X133142380Y-175662380D01*
X133190000Y-175519523D01*
X134094761Y-174710000D02*
X134142380Y-174805238D01*
X134142380Y-174995714D01*
X134094761Y-175090952D01*
X133999523Y-175138571D01*
X133618571Y-175138571D01*
X133523333Y-175090952D01*
X133475714Y-174995714D01*
X133475714Y-174805238D01*
X133523333Y-174710000D01*
X133618571Y-174662380D01*
X133713809Y-174662380D01*
X133809047Y-175138571D01*
X133475714Y-174233809D02*
X134142380Y-174233809D01*
X133570952Y-174233809D02*
X133523333Y-174186190D01*
X133475714Y-174090952D01*
X133475714Y-173948095D01*
X133523333Y-173852857D01*
X133618571Y-173805238D01*
X134142380Y-173805238D01*
X134094761Y-173376666D02*
X134142380Y-173281428D01*
X134142380Y-173090952D01*
X134094761Y-172995714D01*
X133999523Y-172948095D01*
X133951904Y-172948095D01*
X133856666Y-172995714D01*
X133809047Y-173090952D01*
X133809047Y-173233809D01*
X133761428Y-173329047D01*
X133666190Y-173376666D01*
X133618571Y-173376666D01*
X133523333Y-173329047D01*
X133475714Y-173233809D01*
X133475714Y-173090952D01*
X133523333Y-172995714D01*
X134142380Y-172376666D02*
X134094761Y-172471904D01*
X134047142Y-172519523D01*
X133951904Y-172567142D01*
X133666190Y-172567142D01*
X133570952Y-172519523D01*
X133523333Y-172471904D01*
X133475714Y-172376666D01*
X133475714Y-172233809D01*
X133523333Y-172138571D01*
X133570952Y-172090952D01*
X133666190Y-172043333D01*
X133951904Y-172043333D01*
X134047142Y-172090952D01*
X134094761Y-172138571D01*
X134142380Y-172233809D01*
X134142380Y-172376666D01*
X134142380Y-171614761D02*
X133475714Y-171614761D01*
X133666190Y-171614761D02*
X133570952Y-171567142D01*
X133523333Y-171519523D01*
X133475714Y-171424285D01*
X133475714Y-171329047D01*
X133618571Y-169900476D02*
X133666190Y-169757619D01*
X133713809Y-169710000D01*
X133809047Y-169662380D01*
X133951904Y-169662380D01*
X134047142Y-169710000D01*
X134094761Y-169757619D01*
X134142380Y-169852857D01*
X134142380Y-170233809D01*
X133142380Y-170233809D01*
X133142380Y-169900476D01*
X133190000Y-169805238D01*
X133237619Y-169757619D01*
X133332857Y-169710000D01*
X133428095Y-169710000D01*
X133523333Y-169757619D01*
X133570952Y-169805238D01*
X133618571Y-169900476D01*
X133618571Y-170233809D01*
X134142380Y-169090952D02*
X134094761Y-169186190D01*
X134047142Y-169233809D01*
X133951904Y-169281428D01*
X133666190Y-169281428D01*
X133570952Y-169233809D01*
X133523333Y-169186190D01*
X133475714Y-169090952D01*
X133475714Y-168948095D01*
X133523333Y-168852857D01*
X133570952Y-168805238D01*
X133666190Y-168757619D01*
X133951904Y-168757619D01*
X134047142Y-168805238D01*
X134094761Y-168852857D01*
X134142380Y-168948095D01*
X134142380Y-169090952D01*
X134142380Y-167900476D02*
X133618571Y-167900476D01*
X133523333Y-167948095D01*
X133475714Y-168043333D01*
X133475714Y-168233809D01*
X133523333Y-168329047D01*
X134094761Y-167900476D02*
X134142380Y-167995714D01*
X134142380Y-168233809D01*
X134094761Y-168329047D01*
X133999523Y-168376666D01*
X133904285Y-168376666D01*
X133809047Y-168329047D01*
X133761428Y-168233809D01*
X133761428Y-167995714D01*
X133713809Y-167900476D01*
X134142380Y-167424285D02*
X133475714Y-167424285D01*
X133666190Y-167424285D02*
X133570952Y-167376666D01*
X133523333Y-167329047D01*
X133475714Y-167233809D01*
X133475714Y-167138571D01*
X134142380Y-166376666D02*
X133142380Y-166376666D01*
X134094761Y-166376666D02*
X134142380Y-166471904D01*
X134142380Y-166662380D01*
X134094761Y-166757619D01*
X134047142Y-166805238D01*
X133951904Y-166852857D01*
X133666190Y-166852857D01*
X133570952Y-166805238D01*
X133523333Y-166757619D01*
X133475714Y-166662380D01*
X133475714Y-166471904D01*
X133523333Y-166376666D01*
X134142380Y-165138571D02*
X133142380Y-165138571D01*
X133142380Y-164757619D01*
X133190000Y-164662380D01*
X133237619Y-164614761D01*
X133332857Y-164567142D01*
X133475714Y-164567142D01*
X133570952Y-164614761D01*
X133618571Y-164662380D01*
X133666190Y-164757619D01*
X133666190Y-165138571D01*
X134142380Y-163710000D02*
X133618571Y-163710000D01*
X133523333Y-163757619D01*
X133475714Y-163852857D01*
X133475714Y-164043333D01*
X133523333Y-164138571D01*
X134094761Y-163710000D02*
X134142380Y-163805238D01*
X134142380Y-164043333D01*
X134094761Y-164138571D01*
X133999523Y-164186190D01*
X133904285Y-164186190D01*
X133809047Y-164138571D01*
X133761428Y-164043333D01*
X133761428Y-163805238D01*
X133713809Y-163710000D01*
X133475714Y-163233809D02*
X134142380Y-163233809D01*
X133570952Y-163233809D02*
X133523333Y-163186190D01*
X133475714Y-163090952D01*
X133475714Y-162948095D01*
X133523333Y-162852857D01*
X133618571Y-162805238D01*
X134142380Y-162805238D01*
X134094761Y-161948095D02*
X134142380Y-162043333D01*
X134142380Y-162233809D01*
X134094761Y-162329047D01*
X133999523Y-162376666D01*
X133618571Y-162376666D01*
X133523333Y-162329047D01*
X133475714Y-162233809D01*
X133475714Y-162043333D01*
X133523333Y-161948095D01*
X133618571Y-161900476D01*
X133713809Y-161900476D01*
X133809047Y-162376666D01*
X134142380Y-161329047D02*
X134094761Y-161424285D01*
X133999523Y-161471904D01*
X133142380Y-161471904D01*
X133856666Y-160233809D02*
X133856666Y-159757619D01*
X134142380Y-160329047D02*
X133142380Y-159995714D01*
X134142380Y-159662380D01*
X134094761Y-158614761D02*
X134142380Y-158471904D01*
X134142380Y-158233809D01*
X134094761Y-158138571D01*
X134047142Y-158090952D01*
X133951904Y-158043333D01*
X133856666Y-158043333D01*
X133761428Y-158090952D01*
X133713809Y-158138571D01*
X133666190Y-158233809D01*
X133618571Y-158424285D01*
X133570952Y-158519523D01*
X133523333Y-158567142D01*
X133428095Y-158614761D01*
X133332857Y-158614761D01*
X133237619Y-158567142D01*
X133190000Y-158519523D01*
X133142380Y-158424285D01*
X133142380Y-158186190D01*
X133190000Y-158043333D01*
X133237619Y-157662380D02*
X133190000Y-157614761D01*
X133142380Y-157519523D01*
X133142380Y-157281428D01*
X133190000Y-157186190D01*
X133237619Y-157138571D01*
X133332857Y-157090952D01*
X133428095Y-157090952D01*
X133570952Y-157138571D01*
X134142380Y-157710000D01*
X134142380Y-157090952D01*
X133618571Y-155900476D02*
X133618571Y-155567142D01*
X134142380Y-155424285D02*
X134142380Y-155900476D01*
X133142380Y-155900476D01*
X133142380Y-155424285D01*
X133142380Y-154376666D02*
X134142380Y-154043333D01*
X133142380Y-153710000D01*
X134142380Y-152852857D02*
X134142380Y-153424285D01*
X134142380Y-153138571D02*
X133142380Y-153138571D01*
X133285238Y-153233809D01*
X133380476Y-153329047D01*
X133428095Y-153424285D01*
X134047142Y-152424285D02*
X134094761Y-152376666D01*
X134142380Y-152424285D01*
X134094761Y-152471904D01*
X134047142Y-152424285D01*
X134142380Y-152424285D01*
X134142380Y-151424285D02*
X134142380Y-151995714D01*
X134142380Y-151710000D02*
X133142380Y-151710000D01*
X133285238Y-151805238D01*
X133380476Y-151900476D01*
X133428095Y-151995714D01*
X134094761Y-150281428D02*
X134142380Y-150138571D01*
X134142380Y-149900476D01*
X134094761Y-149805238D01*
X134047142Y-149757619D01*
X133951904Y-149710000D01*
X133856666Y-149710000D01*
X133761428Y-149757619D01*
X133713809Y-149805238D01*
X133666190Y-149900476D01*
X133618571Y-150090952D01*
X133570952Y-150186190D01*
X133523333Y-150233809D01*
X133428095Y-150281428D01*
X133332857Y-150281428D01*
X133237619Y-150233809D01*
X133190000Y-150186190D01*
X133142380Y-150090952D01*
X133142380Y-149852857D01*
X133190000Y-149710000D01*
X134094761Y-148900476D02*
X134142380Y-148995714D01*
X134142380Y-149186190D01*
X134094761Y-149281428D01*
X133999523Y-149329047D01*
X133618571Y-149329047D01*
X133523333Y-149281428D01*
X133475714Y-149186190D01*
X133475714Y-148995714D01*
X133523333Y-148900476D01*
X133618571Y-148852857D01*
X133713809Y-148852857D01*
X133809047Y-149329047D01*
X134142380Y-148424285D02*
X133475714Y-148424285D01*
X133666190Y-148424285D02*
X133570952Y-148376666D01*
X133523333Y-148329047D01*
X133475714Y-148233809D01*
X133475714Y-148138571D01*
X134142380Y-147805238D02*
X133475714Y-147805238D01*
X133142380Y-147805238D02*
X133190000Y-147852857D01*
X133237619Y-147805238D01*
X133190000Y-147757619D01*
X133142380Y-147805238D01*
X133237619Y-147805238D01*
X134142380Y-146900476D02*
X133618571Y-146900476D01*
X133523333Y-146948095D01*
X133475714Y-147043333D01*
X133475714Y-147233809D01*
X133523333Y-147329047D01*
X134094761Y-146900476D02*
X134142380Y-146995714D01*
X134142380Y-147233809D01*
X134094761Y-147329047D01*
X133999523Y-147376666D01*
X133904285Y-147376666D01*
X133809047Y-147329047D01*
X133761428Y-147233809D01*
X133761428Y-146995714D01*
X133713809Y-146900476D01*
X134142380Y-146281428D02*
X134094761Y-146376666D01*
X133999523Y-146424285D01*
X133142380Y-146424285D01*
D13*
X190400000Y-227600000D02*
X190400000Y-232600000D01*
X135400000Y-227600000D02*
X135400000Y-232600000D01*
X140860000Y-230100000D02*
G75*
G03X140860000Y-230100000I-1250000J0D01*
G01*
X188690000Y-230100000D02*
G75*
G03X188690000Y-230100000I-1250000J0D01*
G01*
X151400000Y-188099978D02*
X151400000Y-171700000D01*
X174400000Y-188100000D02*
X174400000Y-171700000D01*
X175600000Y-167200000D02*
X150200000Y-167200000D01*
X150200000Y-192600000D02*
X150200000Y-167200000D01*
X175600000Y-192600000D02*
X175600000Y-167200000D01*
X129000000Y-195090000D02*
G75*
G03X129000000Y-195090000I-1250000J0D01*
G01*
X199320040Y-195089967D02*
G75*
G03X199320040Y-195089967I-1250040J0D01*
G01*
X201000000Y-198500000D02*
X124800000Y-198500000D01*
X201000000Y-227600000D02*
X124800000Y-227600000D01*
X201000000Y-193500000D02*
X124800000Y-193200000D01*
X202250000Y-235800000D02*
G75*
G03X202250000Y-235800000I-1250000J0D01*
G01*
X126050000Y-235800000D02*
G75*
G03X126050000Y-235800000I-1250000J0D01*
G01*
X126050000Y-144200000D02*
G75*
G03X126050000Y-144200000I-1250000J0D01*
G01*
X202250000Y-144200000D02*
G75*
G03X202250000Y-144200000I-1250000J0D01*
G01*
X201000000Y-147400000D02*
X201000000Y-232600000D01*
X124800000Y-232600000D02*
X124800000Y-147400000D01*
X121600000Y-232600000D02*
X204200000Y-232600000D01*
X204200000Y-147400000D02*
X121600000Y-147400000D01*
X189555000Y-159525000D02*
X188605000Y-159525000D01*
X188605000Y-159525000D02*
X188605000Y-158625000D01*
X188605000Y-158625000D02*
X187105000Y-158625000D01*
X194705000Y-159525000D02*
X195655000Y-159525000D01*
X195655000Y-159525000D02*
X195655000Y-158625000D01*
X195655000Y-158625000D02*
X197155000Y-158625000D01*
X195105000Y-155525000D02*
X189155000Y-155525000D01*
X194705000Y-159525000D02*
X194705000Y-160275000D01*
X175730000Y-174060000D02*
X175730000Y-170950000D01*
X175730000Y-179140000D02*
X175730000Y-175580000D01*
X175730000Y-184220000D02*
X175730000Y-180660000D01*
X175730000Y-171520000D02*
X175730000Y-170950000D01*
X173070000Y-188850000D02*
X173070000Y-188280000D01*
X173070000Y-188280000D02*
X171550000Y-188280000D01*
X175730000Y-188850000D02*
X175730000Y-185740000D01*
X173070000Y-176600000D02*
X173070000Y-173040000D01*
X173070000Y-181680000D02*
X173070000Y-178120000D01*
X173070000Y-186760000D02*
X173070000Y-183200000D01*
X175730000Y-170950000D02*
X173070000Y-170950000D01*
X175730000Y-188850000D02*
X173070000Y-188850000D01*
X150070000Y-170930000D02*
X152730000Y-170930000D01*
X150070000Y-188830000D02*
X152730000Y-188830000D01*
X152730000Y-173020000D02*
X152730000Y-176580000D01*
X152730000Y-178100000D02*
X152730000Y-181660000D01*
X152730000Y-183180000D02*
X152730000Y-186740000D01*
X150070000Y-170930000D02*
X150070000Y-174040000D01*
X152730000Y-171500000D02*
X154250000Y-171500000D01*
X152730000Y-170930000D02*
X152730000Y-171500000D01*
X150070000Y-188260000D02*
X150070000Y-188830000D01*
X150070000Y-175560000D02*
X150070000Y-179120000D01*
X150070000Y-180640000D02*
X150070000Y-184200000D01*
X150070000Y-185720000D02*
X150070000Y-188830000D01*
X145290000Y-185020000D02*
X144990000Y-185320000D01*
X144990000Y-184720000D02*
X144990000Y-185320000D01*
X145290000Y-185020000D02*
X144990000Y-184720000D01*
X146190000Y-184170000D02*
X146790000Y-184170000D01*
X145490000Y-187620000D02*
X145490000Y-184820000D01*
X146790000Y-188270000D02*
X146190000Y-188270000D01*
X147490000Y-184820000D02*
X147490000Y-187620000D01*
X147490000Y-187570000D02*
G75*
G02X146790000Y-188270000I-700000J0D01*
G01*
X146190000Y-188270000D02*
G75*
G02X145490000Y-187570000I0J700000D01*
G01*
X145490000Y-184870000D02*
G75*
G02X146190000Y-184170000I700000J0D01*
G01*
X146790000Y-184170000D02*
G75*
G02X147490000Y-184870000I0J-700000D01*
G01*
X143920000Y-184150000D02*
G75*
G02X144620000Y-184850000I0J-700000D01*
G01*
X142620000Y-184850000D02*
G75*
G02X143320000Y-184150000I700000J0D01*
G01*
X143320000Y-188250000D02*
G75*
G02X142620000Y-187550000I0J700000D01*
G01*
X144620000Y-187550000D02*
G75*
G02X143920000Y-188250000I-700000J0D01*
G01*
X144620000Y-184800000D02*
X144620000Y-187600000D01*
X143920000Y-188250000D02*
X143320000Y-188250000D01*
X142620000Y-187600000D02*
X142620000Y-184800000D01*
X143320000Y-184150000D02*
X143920000Y-184150000D01*
X142420000Y-185000000D02*
X142120000Y-184700000D01*
X142120000Y-184700000D02*
X142120000Y-185300000D01*
X142420000Y-185000000D02*
X142120000Y-185300000D01*
X179030000Y-187000000D02*
X178530000Y-187000000D01*
X178530000Y-188060000D02*
X179030000Y-188060000D01*
X178520000Y-182970000D02*
X179020000Y-182970000D01*
X179020000Y-181910000D02*
X178520000Y-181910000D01*
X145380000Y-177450000D02*
X145080000Y-177750000D01*
X145080000Y-177150000D02*
X145080000Y-177750000D01*
X145380000Y-177450000D02*
X145080000Y-177150000D01*
X146280000Y-176600000D02*
X146880000Y-176600000D01*
X145580000Y-180050000D02*
X145580000Y-177250000D01*
X146880000Y-180700000D02*
X146280000Y-180700000D01*
X147580000Y-177250000D02*
X147580000Y-180050000D01*
X147580000Y-180000000D02*
G75*
G02X146880000Y-180700000I-700000J0D01*
G01*
X146280000Y-180700000D02*
G75*
G02X145580000Y-180000000I0J700000D01*
G01*
X145580000Y-177300000D02*
G75*
G02X146280000Y-176600000I700000J0D01*
G01*
X146880000Y-176600000D02*
G75*
G02X147580000Y-177300000I0J-700000D01*
G01*
X141120000Y-176620000D02*
G75*
G02X141820000Y-177320000I0J-700000D01*
G01*
X139820000Y-177320000D02*
G75*
G02X140520000Y-176620000I700000J0D01*
G01*
X140520000Y-180720000D02*
G75*
G02X139820000Y-180020000I0J700000D01*
G01*
X141820000Y-180020000D02*
G75*
G02X141120000Y-180720000I-700000J0D01*
G01*
X141820000Y-177270000D02*
X141820000Y-180070000D01*
X141120000Y-180720000D02*
X140520000Y-180720000D01*
X139820000Y-180070000D02*
X139820000Y-177270000D01*
X140520000Y-176620000D02*
X141120000Y-176620000D01*
X139620000Y-177470000D02*
X139320000Y-177170000D01*
X139320000Y-177170000D02*
X139320000Y-177770000D01*
X139620000Y-177470000D02*
X139320000Y-177770000D01*
X142500000Y-177450000D02*
X142200000Y-177750000D01*
X142200000Y-177150000D02*
X142200000Y-177750000D01*
X142500000Y-177450000D02*
X142200000Y-177150000D01*
X143400000Y-176600000D02*
X144000000Y-176600000D01*
X142700000Y-180050000D02*
X142700000Y-177250000D01*
X144000000Y-180700000D02*
X143400000Y-180700000D01*
X144700000Y-177250000D02*
X144700000Y-180050000D01*
X144700000Y-180000000D02*
G75*
G02X144000000Y-180700000I-700000J0D01*
G01*
X143400000Y-180700000D02*
G75*
G02X142700000Y-180000000I0J700000D01*
G01*
X142700000Y-177300000D02*
G75*
G02X143400000Y-176600000I700000J0D01*
G01*
X144000000Y-176600000D02*
G75*
G02X144700000Y-177300000I0J-700000D01*
G01*
D10*
X164335000Y-181230000D02*
X164335000Y-181055000D01*
X160985000Y-181230000D02*
X160985000Y-180980000D01*
X160985000Y-177880000D02*
X160985000Y-178130000D01*
X164335000Y-177880000D02*
X164335000Y-178130000D01*
X164335000Y-181230000D02*
X160985000Y-181230000D01*
X164335000Y-177880000D02*
X160985000Y-177880000D01*
X164335000Y-181055000D02*
X165585000Y-181055000D01*
X194616666Y-220452380D02*
X194283333Y-219976190D01*
X194045238Y-220452380D02*
X194045238Y-219452380D01*
X194426190Y-219452380D01*
X194521428Y-219500000D01*
X194569047Y-219547619D01*
X194616666Y-219642857D01*
X194616666Y-219785714D01*
X194569047Y-219880952D01*
X194521428Y-219928571D01*
X194426190Y-219976190D01*
X194045238Y-219976190D01*
X195045238Y-219928571D02*
X195378571Y-219928571D01*
X195521428Y-220452380D02*
X195045238Y-220452380D01*
X195045238Y-219452380D01*
X195521428Y-219452380D01*
X196283333Y-219928571D02*
X195950000Y-219928571D01*
X195950000Y-220452380D02*
X195950000Y-219452380D01*
X196426190Y-219452380D01*
X196950000Y-219452380D02*
X196950000Y-219690476D01*
X196711904Y-219595238D02*
X196950000Y-219690476D01*
X197188095Y-219595238D01*
X196807142Y-219880952D02*
X196950000Y-219690476D01*
X197092857Y-219880952D01*
X197711904Y-219452380D02*
X197711904Y-219690476D01*
X197473809Y-219595238D02*
X197711904Y-219690476D01*
X197950000Y-219595238D01*
X197569047Y-219880952D02*
X197711904Y-219690476D01*
X197854761Y-219880952D01*
X128516666Y-220452380D02*
X128183333Y-219976190D01*
X127945238Y-220452380D02*
X127945238Y-219452380D01*
X128326190Y-219452380D01*
X128421428Y-219500000D01*
X128469047Y-219547619D01*
X128516666Y-219642857D01*
X128516666Y-219785714D01*
X128469047Y-219880952D01*
X128421428Y-219928571D01*
X128326190Y-219976190D01*
X127945238Y-219976190D01*
X128945238Y-219928571D02*
X129278571Y-219928571D01*
X129421428Y-220452380D02*
X128945238Y-220452380D01*
X128945238Y-219452380D01*
X129421428Y-219452380D01*
X130183333Y-219928571D02*
X129850000Y-219928571D01*
X129850000Y-220452380D02*
X129850000Y-219452380D01*
X130326190Y-219452380D01*
X130850000Y-219452380D02*
X130850000Y-219690476D01*
X130611904Y-219595238D02*
X130850000Y-219690476D01*
X131088095Y-219595238D01*
X130707142Y-219880952D02*
X130850000Y-219690476D01*
X130992857Y-219880952D01*
X131611904Y-219452380D02*
X131611904Y-219690476D01*
X131373809Y-219595238D02*
X131611904Y-219690476D01*
X131850000Y-219595238D01*
X131469047Y-219880952D02*
X131611904Y-219690476D01*
X131754761Y-219880952D01*
X194616666Y-200652380D02*
X194283333Y-200176190D01*
X194045238Y-200652380D02*
X194045238Y-199652380D01*
X194426190Y-199652380D01*
X194521428Y-199700000D01*
X194569047Y-199747619D01*
X194616666Y-199842857D01*
X194616666Y-199985714D01*
X194569047Y-200080952D01*
X194521428Y-200128571D01*
X194426190Y-200176190D01*
X194045238Y-200176190D01*
X195045238Y-200128571D02*
X195378571Y-200128571D01*
X195521428Y-200652380D02*
X195045238Y-200652380D01*
X195045238Y-199652380D01*
X195521428Y-199652380D01*
X196283333Y-200128571D02*
X195950000Y-200128571D01*
X195950000Y-200652380D02*
X195950000Y-199652380D01*
X196426190Y-199652380D01*
X196950000Y-199652380D02*
X196950000Y-199890476D01*
X196711904Y-199795238D02*
X196950000Y-199890476D01*
X197188095Y-199795238D01*
X196807142Y-200080952D02*
X196950000Y-199890476D01*
X197092857Y-200080952D01*
X197711904Y-199652380D02*
X197711904Y-199890476D01*
X197473809Y-199795238D02*
X197711904Y-199890476D01*
X197950000Y-199795238D01*
X197569047Y-200080952D02*
X197711904Y-199890476D01*
X197854761Y-200080952D01*
X128516666Y-200652380D02*
X128183333Y-200176190D01*
X127945238Y-200652380D02*
X127945238Y-199652380D01*
X128326190Y-199652380D01*
X128421428Y-199700000D01*
X128469047Y-199747619D01*
X128516666Y-199842857D01*
X128516666Y-199985714D01*
X128469047Y-200080952D01*
X128421428Y-200128571D01*
X128326190Y-200176190D01*
X127945238Y-200176190D01*
X128945238Y-200128571D02*
X129278571Y-200128571D01*
X129421428Y-200652380D02*
X128945238Y-200652380D01*
X128945238Y-199652380D01*
X129421428Y-199652380D01*
X130183333Y-200128571D02*
X129850000Y-200128571D01*
X129850000Y-200652380D02*
X129850000Y-199652380D01*
X130326190Y-199652380D01*
X130850000Y-199652380D02*
X130850000Y-199890476D01*
X130611904Y-199795238D02*
X130850000Y-199890476D01*
X131088095Y-199795238D01*
X130707142Y-200080952D02*
X130850000Y-199890476D01*
X130992857Y-200080952D01*
X131611904Y-199652380D02*
X131611904Y-199890476D01*
X131373809Y-199795238D02*
X131611904Y-199890476D01*
X131850000Y-199795238D01*
X131469047Y-200080952D02*
X131611904Y-199890476D01*
X131754761Y-200080952D01*
X185816666Y-227202380D02*
X185483333Y-226726190D01*
X185245238Y-227202380D02*
X185245238Y-226202380D01*
X185626190Y-226202380D01*
X185721428Y-226250000D01*
X185769047Y-226297619D01*
X185816666Y-226392857D01*
X185816666Y-226535714D01*
X185769047Y-226630952D01*
X185721428Y-226678571D01*
X185626190Y-226726190D01*
X185245238Y-226726190D01*
X186245238Y-226678571D02*
X186578571Y-226678571D01*
X186721428Y-227202380D02*
X186245238Y-227202380D01*
X186245238Y-226202380D01*
X186721428Y-226202380D01*
X187483333Y-226678571D02*
X187150000Y-226678571D01*
X187150000Y-227202380D02*
X187150000Y-226202380D01*
X187626190Y-226202380D01*
X188150000Y-226202380D02*
X188150000Y-226440476D01*
X187911904Y-226345238D02*
X188150000Y-226440476D01*
X188388095Y-226345238D01*
X188007142Y-226630952D02*
X188150000Y-226440476D01*
X188292857Y-226630952D01*
X188911904Y-226202380D02*
X188911904Y-226440476D01*
X188673809Y-226345238D02*
X188911904Y-226440476D01*
X189150000Y-226345238D01*
X188769047Y-226630952D02*
X188911904Y-226440476D01*
X189054761Y-226630952D01*
X137316666Y-227202380D02*
X136983333Y-226726190D01*
X136745238Y-227202380D02*
X136745238Y-226202380D01*
X137126190Y-226202380D01*
X137221428Y-226250000D01*
X137269047Y-226297619D01*
X137316666Y-226392857D01*
X137316666Y-226535714D01*
X137269047Y-226630952D01*
X137221428Y-226678571D01*
X137126190Y-226726190D01*
X136745238Y-226726190D01*
X137745238Y-226678571D02*
X138078571Y-226678571D01*
X138221428Y-227202380D02*
X137745238Y-227202380D01*
X137745238Y-226202380D01*
X138221428Y-226202380D01*
X138983333Y-226678571D02*
X138650000Y-226678571D01*
X138650000Y-227202380D02*
X138650000Y-226202380D01*
X139126190Y-226202380D01*
X139650000Y-226202380D02*
X139650000Y-226440476D01*
X139411904Y-226345238D02*
X139650000Y-226440476D01*
X139888095Y-226345238D01*
X139507142Y-226630952D02*
X139650000Y-226440476D01*
X139792857Y-226630952D01*
X140411904Y-226202380D02*
X140411904Y-226440476D01*
X140173809Y-226345238D02*
X140411904Y-226440476D01*
X140650000Y-226345238D01*
X140269047Y-226630952D02*
X140411904Y-226440476D01*
X140554761Y-226630952D01*
X196716666Y-193202380D02*
X196383333Y-192726190D01*
X196145238Y-193202380D02*
X196145238Y-192202380D01*
X196526190Y-192202380D01*
X196621428Y-192250000D01*
X196669047Y-192297619D01*
X196716666Y-192392857D01*
X196716666Y-192535714D01*
X196669047Y-192630952D01*
X196621428Y-192678571D01*
X196526190Y-192726190D01*
X196145238Y-192726190D01*
X197145238Y-192678571D02*
X197478571Y-192678571D01*
X197621428Y-193202380D02*
X197145238Y-193202380D01*
X197145238Y-192202380D01*
X197621428Y-192202380D01*
X198383333Y-192678571D02*
X198050000Y-192678571D01*
X198050000Y-193202380D02*
X198050000Y-192202380D01*
X198526190Y-192202380D01*
X199050000Y-192202380D02*
X199050000Y-192440476D01*
X198811904Y-192345238D02*
X199050000Y-192440476D01*
X199288095Y-192345238D01*
X198907142Y-192630952D02*
X199050000Y-192440476D01*
X199192857Y-192630952D01*
X199811904Y-192202380D02*
X199811904Y-192440476D01*
X199573809Y-192345238D02*
X199811904Y-192440476D01*
X200050000Y-192345238D01*
X199669047Y-192630952D02*
X199811904Y-192440476D01*
X199954761Y-192630952D01*
X126416666Y-193202380D02*
X126083333Y-192726190D01*
X125845238Y-193202380D02*
X125845238Y-192202380D01*
X126226190Y-192202380D01*
X126321428Y-192250000D01*
X126369047Y-192297619D01*
X126416666Y-192392857D01*
X126416666Y-192535714D01*
X126369047Y-192630952D01*
X126321428Y-192678571D01*
X126226190Y-192726190D01*
X125845238Y-192726190D01*
X126845238Y-192678571D02*
X127178571Y-192678571D01*
X127321428Y-193202380D02*
X126845238Y-193202380D01*
X126845238Y-192202380D01*
X127321428Y-192202380D01*
X128083333Y-192678571D02*
X127750000Y-192678571D01*
X127750000Y-193202380D02*
X127750000Y-192202380D01*
X128226190Y-192202380D01*
X128750000Y-192202380D02*
X128750000Y-192440476D01*
X128511904Y-192345238D02*
X128750000Y-192440476D01*
X128988095Y-192345238D01*
X128607142Y-192630952D02*
X128750000Y-192440476D01*
X128892857Y-192630952D01*
X129511904Y-192202380D02*
X129511904Y-192440476D01*
X129273809Y-192345238D02*
X129511904Y-192440476D01*
X129750000Y-192345238D01*
X129369047Y-192630952D02*
X129511904Y-192440476D01*
X129654761Y-192630952D01*
X199656666Y-233012380D02*
X199323333Y-232536190D01*
X199085238Y-233012380D02*
X199085238Y-232012380D01*
X199466190Y-232012380D01*
X199561428Y-232060000D01*
X199609047Y-232107619D01*
X199656666Y-232202857D01*
X199656666Y-232345714D01*
X199609047Y-232440952D01*
X199561428Y-232488571D01*
X199466190Y-232536190D01*
X199085238Y-232536190D01*
X200085238Y-232488571D02*
X200418571Y-232488571D01*
X200561428Y-233012380D02*
X200085238Y-233012380D01*
X200085238Y-232012380D01*
X200561428Y-232012380D01*
X201323333Y-232488571D02*
X200990000Y-232488571D01*
X200990000Y-233012380D02*
X200990000Y-232012380D01*
X201466190Y-232012380D01*
X201990000Y-232012380D02*
X201990000Y-232250476D01*
X201751904Y-232155238D02*
X201990000Y-232250476D01*
X202228095Y-232155238D01*
X201847142Y-232440952D02*
X201990000Y-232250476D01*
X202132857Y-232440952D01*
X202751904Y-232012380D02*
X202751904Y-232250476D01*
X202513809Y-232155238D02*
X202751904Y-232250476D01*
X202990000Y-232155238D01*
X202609047Y-232440952D02*
X202751904Y-232250476D01*
X202894761Y-232440952D01*
X123466666Y-233022380D02*
X123133333Y-232546190D01*
X122895238Y-233022380D02*
X122895238Y-232022380D01*
X123276190Y-232022380D01*
X123371428Y-232070000D01*
X123419047Y-232117619D01*
X123466666Y-232212857D01*
X123466666Y-232355714D01*
X123419047Y-232450952D01*
X123371428Y-232498571D01*
X123276190Y-232546190D01*
X122895238Y-232546190D01*
X123895238Y-232498571D02*
X124228571Y-232498571D01*
X124371428Y-233022380D02*
X123895238Y-233022380D01*
X123895238Y-232022380D01*
X124371428Y-232022380D01*
X125133333Y-232498571D02*
X124800000Y-232498571D01*
X124800000Y-233022380D02*
X124800000Y-232022380D01*
X125276190Y-232022380D01*
X125800000Y-232022380D02*
X125800000Y-232260476D01*
X125561904Y-232165238D02*
X125800000Y-232260476D01*
X126038095Y-232165238D01*
X125657142Y-232450952D02*
X125800000Y-232260476D01*
X125942857Y-232450952D01*
X126561904Y-232022380D02*
X126561904Y-232260476D01*
X126323809Y-232165238D02*
X126561904Y-232260476D01*
X126800000Y-232165238D01*
X126419047Y-232450952D02*
X126561904Y-232260476D01*
X126704761Y-232450952D01*
X199666666Y-141412380D02*
X199333333Y-140936190D01*
X199095238Y-141412380D02*
X199095238Y-140412380D01*
X199476190Y-140412380D01*
X199571428Y-140460000D01*
X199619047Y-140507619D01*
X199666666Y-140602857D01*
X199666666Y-140745714D01*
X199619047Y-140840952D01*
X199571428Y-140888571D01*
X199476190Y-140936190D01*
X199095238Y-140936190D01*
X200095238Y-140888571D02*
X200428571Y-140888571D01*
X200571428Y-141412380D02*
X200095238Y-141412380D01*
X200095238Y-140412380D01*
X200571428Y-140412380D01*
X201333333Y-140888571D02*
X201000000Y-140888571D01*
X201000000Y-141412380D02*
X201000000Y-140412380D01*
X201476190Y-140412380D01*
X202000000Y-140412380D02*
X202000000Y-140650476D01*
X201761904Y-140555238D02*
X202000000Y-140650476D01*
X202238095Y-140555238D01*
X201857142Y-140840952D02*
X202000000Y-140650476D01*
X202142857Y-140840952D01*
X202761904Y-140412380D02*
X202761904Y-140650476D01*
X202523809Y-140555238D02*
X202761904Y-140650476D01*
X203000000Y-140555238D01*
X202619047Y-140840952D02*
X202761904Y-140650476D01*
X202904761Y-140840952D01*
X123466666Y-141402380D02*
X123133333Y-140926190D01*
X122895238Y-141402380D02*
X122895238Y-140402380D01*
X123276190Y-140402380D01*
X123371428Y-140450000D01*
X123419047Y-140497619D01*
X123466666Y-140592857D01*
X123466666Y-140735714D01*
X123419047Y-140830952D01*
X123371428Y-140878571D01*
X123276190Y-140926190D01*
X122895238Y-140926190D01*
X123895238Y-140878571D02*
X124228571Y-140878571D01*
X124371428Y-141402380D02*
X123895238Y-141402380D01*
X123895238Y-140402380D01*
X124371428Y-140402380D01*
X125133333Y-140878571D02*
X124800000Y-140878571D01*
X124800000Y-141402380D02*
X124800000Y-140402380D01*
X125276190Y-140402380D01*
X125800000Y-140402380D02*
X125800000Y-140640476D01*
X125561904Y-140545238D02*
X125800000Y-140640476D01*
X126038095Y-140545238D01*
X125657142Y-140830952D02*
X125800000Y-140640476D01*
X125942857Y-140830952D01*
X126561904Y-140402380D02*
X126561904Y-140640476D01*
X126323809Y-140545238D02*
X126561904Y-140640476D01*
X126800000Y-140545238D01*
X126419047Y-140830952D02*
X126561904Y-140640476D01*
X126704761Y-140830952D01*
X191320476Y-160852380D02*
X191320476Y-161566666D01*
X191272857Y-161709523D01*
X191177619Y-161804761D01*
X191034761Y-161852380D01*
X190939523Y-161852380D01*
X192320476Y-161852380D02*
X191749047Y-161852380D01*
X192034761Y-161852380D02*
X192034761Y-160852380D01*
X191939523Y-160995238D01*
X191844285Y-161090476D01*
X191749047Y-161138095D01*
X193272857Y-161852380D02*
X192701428Y-161852380D01*
X192987142Y-161852380D02*
X192987142Y-160852380D01*
X192891904Y-160995238D01*
X192796666Y-161090476D01*
X192701428Y-161138095D01*
X173590476Y-189302380D02*
X173590476Y-190016666D01*
X173542857Y-190159523D01*
X173447619Y-190254761D01*
X173304761Y-190302380D01*
X173209523Y-190302380D01*
X174590476Y-190302380D02*
X174019047Y-190302380D01*
X174304761Y-190302380D02*
X174304761Y-189302380D01*
X174209523Y-189445238D01*
X174114285Y-189540476D01*
X174019047Y-189588095D01*
X174923809Y-189302380D02*
X175542857Y-189302380D01*
X175209523Y-189683333D01*
X175352380Y-189683333D01*
X175447619Y-189730952D01*
X175495238Y-189778571D01*
X175542857Y-189873809D01*
X175542857Y-190111904D01*
X175495238Y-190207142D01*
X175447619Y-190254761D01*
X175352380Y-190302380D01*
X175066666Y-190302380D01*
X174971428Y-190254761D01*
X174923809Y-190207142D01*
X150590476Y-169382380D02*
X150590476Y-170096666D01*
X150542857Y-170239523D01*
X150447619Y-170334761D01*
X150304761Y-170382380D01*
X150209523Y-170382380D01*
X151590476Y-170382380D02*
X151019047Y-170382380D01*
X151304761Y-170382380D02*
X151304761Y-169382380D01*
X151209523Y-169525238D01*
X151114285Y-169620476D01*
X151019047Y-169668095D01*
X152495238Y-169382380D02*
X152019047Y-169382380D01*
X151971428Y-169858571D01*
X152019047Y-169810952D01*
X152114285Y-169763333D01*
X152352380Y-169763333D01*
X152447619Y-169810952D01*
X152495238Y-169858571D01*
X152542857Y-169953809D01*
X152542857Y-170191904D01*
X152495238Y-170287142D01*
X152447619Y-170334761D01*
X152352380Y-170382380D01*
X152114285Y-170382380D01*
X152019047Y-170334761D01*
X151971428Y-170287142D01*
X145952380Y-183369523D02*
X146666666Y-183369523D01*
X146809523Y-183417142D01*
X146904761Y-183512380D01*
X146952380Y-183655238D01*
X146952380Y-183750476D01*
X146952380Y-182893333D02*
X145952380Y-182893333D01*
X145952380Y-182512380D01*
X146000000Y-182417142D01*
X146047619Y-182369523D01*
X146142857Y-182321904D01*
X146285714Y-182321904D01*
X146380952Y-182369523D01*
X146428571Y-182417142D01*
X146476190Y-182512380D01*
X146476190Y-182893333D01*
X146047619Y-181940952D02*
X146000000Y-181893333D01*
X145952380Y-181798095D01*
X145952380Y-181560000D01*
X146000000Y-181464761D01*
X146047619Y-181417142D01*
X146142857Y-181369523D01*
X146238095Y-181369523D01*
X146380952Y-181417142D01*
X146952380Y-181988571D01*
X146952380Y-181369523D01*
X145952380Y-180750476D02*
X145952380Y-180655238D01*
X146000000Y-180560000D01*
X146047619Y-180512380D01*
X146142857Y-180464761D01*
X146333333Y-180417142D01*
X146571428Y-180417142D01*
X146761904Y-180464761D01*
X146857142Y-180512380D01*
X146904761Y-180560000D01*
X146952380Y-180655238D01*
X146952380Y-180750476D01*
X146904761Y-180845714D01*
X146857142Y-180893333D01*
X146761904Y-180940952D01*
X146571428Y-180988571D01*
X146333333Y-180988571D01*
X146142857Y-180940952D01*
X146047619Y-180893333D01*
X146000000Y-180845714D01*
X145952380Y-180750476D01*
X142882380Y-183299523D02*
X143596666Y-183299523D01*
X143739523Y-183347142D01*
X143834761Y-183442380D01*
X143882380Y-183585238D01*
X143882380Y-183680476D01*
X143882380Y-182823333D02*
X142882380Y-182823333D01*
X142882380Y-182442380D01*
X142930000Y-182347142D01*
X142977619Y-182299523D01*
X143072857Y-182251904D01*
X143215714Y-182251904D01*
X143310952Y-182299523D01*
X143358571Y-182347142D01*
X143406190Y-182442380D01*
X143406190Y-182823333D01*
X142977619Y-181870952D02*
X142930000Y-181823333D01*
X142882380Y-181728095D01*
X142882380Y-181490000D01*
X142930000Y-181394761D01*
X142977619Y-181347142D01*
X143072857Y-181299523D01*
X143168095Y-181299523D01*
X143310952Y-181347142D01*
X143882380Y-181918571D01*
X143882380Y-181299523D01*
X142977619Y-180918571D02*
X142930000Y-180870952D01*
X142882380Y-180775714D01*
X142882380Y-180537619D01*
X142930000Y-180442380D01*
X142977619Y-180394761D01*
X143072857Y-180347142D01*
X143168095Y-180347142D01*
X143310952Y-180394761D01*
X143882380Y-180966190D01*
X143882380Y-180347142D01*
X178137142Y-189332380D02*
X177803809Y-188856190D01*
X177565714Y-189332380D02*
X177565714Y-188332380D01*
X177946666Y-188332380D01*
X178041904Y-188380000D01*
X178089523Y-188427619D01*
X178137142Y-188522857D01*
X178137142Y-188665714D01*
X178089523Y-188760952D01*
X178041904Y-188808571D01*
X177946666Y-188856190D01*
X177565714Y-188856190D01*
X179089523Y-189332380D02*
X178518095Y-189332380D01*
X178803809Y-189332380D02*
X178803809Y-188332380D01*
X178708571Y-188475238D01*
X178613333Y-188570476D01*
X178518095Y-188618095D01*
X179946666Y-188332380D02*
X179756190Y-188332380D01*
X179660952Y-188380000D01*
X179613333Y-188427619D01*
X179518095Y-188570476D01*
X179470476Y-188760952D01*
X179470476Y-189141904D01*
X179518095Y-189237142D01*
X179565714Y-189284761D01*
X179660952Y-189332380D01*
X179851428Y-189332380D01*
X179946666Y-189284761D01*
X179994285Y-189237142D01*
X180041904Y-189141904D01*
X180041904Y-188903809D01*
X179994285Y-188808571D01*
X179946666Y-188760952D01*
X179851428Y-188713333D01*
X179660952Y-188713333D01*
X179565714Y-188760952D01*
X179518095Y-188808571D01*
X179470476Y-188903809D01*
X178127142Y-184242380D02*
X177793809Y-183766190D01*
X177555714Y-184242380D02*
X177555714Y-183242380D01*
X177936666Y-183242380D01*
X178031904Y-183290000D01*
X178079523Y-183337619D01*
X178127142Y-183432857D01*
X178127142Y-183575714D01*
X178079523Y-183670952D01*
X178031904Y-183718571D01*
X177936666Y-183766190D01*
X177555714Y-183766190D01*
X179079523Y-184242380D02*
X178508095Y-184242380D01*
X178793809Y-184242380D02*
X178793809Y-183242380D01*
X178698571Y-183385238D01*
X178603333Y-183480476D01*
X178508095Y-183528095D01*
X179650952Y-183670952D02*
X179555714Y-183623333D01*
X179508095Y-183575714D01*
X179460476Y-183480476D01*
X179460476Y-183432857D01*
X179508095Y-183337619D01*
X179555714Y-183290000D01*
X179650952Y-183242380D01*
X179841428Y-183242380D01*
X179936666Y-183290000D01*
X179984285Y-183337619D01*
X180031904Y-183432857D01*
X180031904Y-183480476D01*
X179984285Y-183575714D01*
X179936666Y-183623333D01*
X179841428Y-183670952D01*
X179650952Y-183670952D01*
X179555714Y-183718571D01*
X179508095Y-183766190D01*
X179460476Y-183861428D01*
X179460476Y-184051904D01*
X179508095Y-184147142D01*
X179555714Y-184194761D01*
X179650952Y-184242380D01*
X179841428Y-184242380D01*
X179936666Y-184194761D01*
X179984285Y-184147142D01*
X180031904Y-184051904D01*
X180031904Y-183861428D01*
X179984285Y-183766190D01*
X179936666Y-183718571D01*
X179841428Y-183670952D01*
X148302380Y-178669523D02*
X149016666Y-178669523D01*
X149159523Y-178717142D01*
X149254761Y-178812380D01*
X149302380Y-178955238D01*
X149302380Y-179050476D01*
X149302380Y-178193333D02*
X148302380Y-178193333D01*
X148302380Y-177812380D01*
X148350000Y-177717142D01*
X148397619Y-177669523D01*
X148492857Y-177621904D01*
X148635714Y-177621904D01*
X148730952Y-177669523D01*
X148778571Y-177717142D01*
X148826190Y-177812380D01*
X148826190Y-178193333D01*
X148397619Y-177240952D02*
X148350000Y-177193333D01*
X148302380Y-177098095D01*
X148302380Y-176860000D01*
X148350000Y-176764761D01*
X148397619Y-176717142D01*
X148492857Y-176669523D01*
X148588095Y-176669523D01*
X148730952Y-176717142D01*
X149302380Y-177288571D01*
X149302380Y-176669523D01*
X148302380Y-176336190D02*
X148302380Y-175717142D01*
X148683333Y-176050476D01*
X148683333Y-175907619D01*
X148730952Y-175812380D01*
X148778571Y-175764761D01*
X148873809Y-175717142D01*
X149111904Y-175717142D01*
X149207142Y-175764761D01*
X149254761Y-175812380D01*
X149302380Y-175907619D01*
X149302380Y-176193333D01*
X149254761Y-176288571D01*
X149207142Y-176336190D01*
X138592380Y-176409523D02*
X139306666Y-176409523D01*
X139449523Y-176457142D01*
X139544761Y-176552380D01*
X139592380Y-176695238D01*
X139592380Y-176790476D01*
X139592380Y-175933333D02*
X138592380Y-175933333D01*
X138592380Y-175552380D01*
X138640000Y-175457142D01*
X138687619Y-175409523D01*
X138782857Y-175361904D01*
X138925714Y-175361904D01*
X139020952Y-175409523D01*
X139068571Y-175457142D01*
X139116190Y-175552380D01*
X139116190Y-175933333D01*
X138687619Y-174980952D02*
X138640000Y-174933333D01*
X138592380Y-174838095D01*
X138592380Y-174600000D01*
X138640000Y-174504761D01*
X138687619Y-174457142D01*
X138782857Y-174409523D01*
X138878095Y-174409523D01*
X139020952Y-174457142D01*
X139592380Y-175028571D01*
X139592380Y-174409523D01*
X138925714Y-173552380D02*
X139592380Y-173552380D01*
X138544761Y-173790476D02*
X139259047Y-174028571D01*
X139259047Y-173409523D01*
X141860476Y-174952380D02*
X141860476Y-175666666D01*
X141812857Y-175809523D01*
X141717619Y-175904761D01*
X141574761Y-175952380D01*
X141479523Y-175952380D01*
X142336666Y-175952380D02*
X142336666Y-174952380D01*
X142717619Y-174952380D01*
X142812857Y-175000000D01*
X142860476Y-175047619D01*
X142908095Y-175142857D01*
X142908095Y-175285714D01*
X142860476Y-175380952D01*
X142812857Y-175428571D01*
X142717619Y-175476190D01*
X142336666Y-175476190D01*
X143289047Y-175047619D02*
X143336666Y-175000000D01*
X143431904Y-174952380D01*
X143670000Y-174952380D01*
X143765238Y-175000000D01*
X143812857Y-175047619D01*
X143860476Y-175142857D01*
X143860476Y-175238095D01*
X143812857Y-175380952D01*
X143241428Y-175952380D01*
X143860476Y-175952380D01*
X144193809Y-174952380D02*
X144860476Y-174952380D01*
X144431904Y-175952380D01*
X161421904Y-181607380D02*
X161421904Y-182416904D01*
X161469523Y-182512142D01*
X161517142Y-182559761D01*
X161612380Y-182607380D01*
X161802857Y-182607380D01*
X161898095Y-182559761D01*
X161945714Y-182512142D01*
X161993333Y-182416904D01*
X161993333Y-181607380D01*
X162993333Y-182607380D02*
X162421904Y-182607380D01*
X162707619Y-182607380D02*
X162707619Y-181607380D01*
X162612380Y-181750238D01*
X162517142Y-181845476D01*
X162421904Y-181893095D01*
X163564761Y-182035952D02*
X163469523Y-181988333D01*
X163421904Y-181940714D01*
X163374285Y-181845476D01*
X163374285Y-181797857D01*
X163421904Y-181702619D01*
X163469523Y-181655000D01*
X163564761Y-181607380D01*
X163755238Y-181607380D01*
X163850476Y-181655000D01*
X163898095Y-181702619D01*
X163945714Y-181797857D01*
X163945714Y-181845476D01*
X163898095Y-181940714D01*
X163850476Y-181988333D01*
X163755238Y-182035952D01*
X163564761Y-182035952D01*
X163469523Y-182083571D01*
X163421904Y-182131190D01*
X163374285Y-182226428D01*
X163374285Y-182416904D01*
X163421904Y-182512142D01*
X163469523Y-182559761D01*
X163564761Y-182607380D01*
X163755238Y-182607380D01*
X163850476Y-182559761D01*
X163898095Y-182512142D01*
X163945714Y-182416904D01*
X163945714Y-182226428D01*
X163898095Y-182131190D01*
X163850476Y-182083571D01*
X163755238Y-182035952D01*
M02*
