G04 #@! TF.GenerationSoftware,KiCad,Pcbnew,(5.1.2)-2*
G04 #@! TF.CreationDate,2021-08-27T15:03:54-04:00*
G04 #@! TF.ProjectId,MAG_Plus,4d41475f-506c-4757-932e-6b696361645f,rev?*
G04 #@! TF.SameCoordinates,Original*
G04 #@! TF.FileFunction,Soldermask,Bot*
G04 #@! TF.FilePolarity,Negative*
%FSLAX46Y46*%
G04 Gerber Fmt 4.6, Leading zero omitted, Abs format (unit mm)*
G04 Created by KiCad (PCBNEW (5.1.2)-2) date 2021-08-27 15:03:54*
%MOMM*%
%LPD*%
G04 APERTURE LIST*
%ADD10C,0.100000*%
G04 APERTURE END LIST*
D10*
G36*
X125248903Y-233563213D02*
G01*
X125471177Y-233607426D01*
X125889932Y-233780880D01*
X126266802Y-234032696D01*
X126587304Y-234353198D01*
X126839120Y-234730068D01*
X127012574Y-235148823D01*
X127101000Y-235593371D01*
X127101000Y-236046629D01*
X127012574Y-236491177D01*
X126839120Y-236909932D01*
X126587304Y-237286802D01*
X126266802Y-237607304D01*
X125889932Y-237859120D01*
X125471177Y-238032574D01*
X125248903Y-238076787D01*
X125026630Y-238121000D01*
X124573370Y-238121000D01*
X124351097Y-238076787D01*
X124128823Y-238032574D01*
X123710068Y-237859120D01*
X123333198Y-237607304D01*
X123012696Y-237286802D01*
X122760880Y-236909932D01*
X122587426Y-236491177D01*
X122499000Y-236046629D01*
X122499000Y-235593371D01*
X122587426Y-235148823D01*
X122760880Y-234730068D01*
X123012696Y-234353198D01*
X123333198Y-234032696D01*
X123710068Y-233780880D01*
X124128823Y-233607426D01*
X124351097Y-233563213D01*
X124573370Y-233519000D01*
X125026630Y-233519000D01*
X125248903Y-233563213D01*
X125248903Y-233563213D01*
G37*
G36*
X201438903Y-233553213D02*
G01*
X201661177Y-233597426D01*
X202079932Y-233770880D01*
X202456802Y-234022696D01*
X202777304Y-234343198D01*
X203029120Y-234720068D01*
X203202574Y-235138823D01*
X203291000Y-235583371D01*
X203291000Y-236036629D01*
X203202574Y-236481177D01*
X203029120Y-236899932D01*
X202777304Y-237276802D01*
X202456802Y-237597304D01*
X202079932Y-237849120D01*
X201661177Y-238022574D01*
X201438903Y-238066787D01*
X201216630Y-238111000D01*
X200763370Y-238111000D01*
X200541097Y-238066787D01*
X200318823Y-238022574D01*
X199900068Y-237849120D01*
X199523198Y-237597304D01*
X199202696Y-237276802D01*
X198950880Y-236899932D01*
X198777426Y-236481177D01*
X198689000Y-236036629D01*
X198689000Y-235583371D01*
X198777426Y-235138823D01*
X198950880Y-234720068D01*
X199202696Y-234343198D01*
X199523198Y-234022696D01*
X199900068Y-233770880D01*
X200318823Y-233597426D01*
X200541097Y-233553213D01*
X200763370Y-233509000D01*
X201216630Y-233509000D01*
X201438903Y-233553213D01*
X201438903Y-233553213D01*
G37*
G36*
X187898903Y-227843213D02*
G01*
X188121177Y-227887426D01*
X188539932Y-228060880D01*
X188916802Y-228312696D01*
X189237304Y-228633198D01*
X189489120Y-229010068D01*
X189662574Y-229428823D01*
X189751000Y-229873371D01*
X189751000Y-230326629D01*
X189662574Y-230771177D01*
X189489120Y-231189932D01*
X189237304Y-231566802D01*
X188916802Y-231887304D01*
X188539932Y-232139120D01*
X188121177Y-232312574D01*
X187898903Y-232356787D01*
X187676630Y-232401000D01*
X187223370Y-232401000D01*
X187001097Y-232356787D01*
X186778823Y-232312574D01*
X186360068Y-232139120D01*
X185983198Y-231887304D01*
X185662696Y-231566802D01*
X185410880Y-231189932D01*
X185237426Y-230771177D01*
X185149000Y-230326629D01*
X185149000Y-229873371D01*
X185237426Y-229428823D01*
X185410880Y-229010068D01*
X185662696Y-228633198D01*
X185983198Y-228312696D01*
X186360068Y-228060880D01*
X186778823Y-227887426D01*
X187001097Y-227843213D01*
X187223370Y-227799000D01*
X187676630Y-227799000D01*
X187898903Y-227843213D01*
X187898903Y-227843213D01*
G37*
G36*
X139398903Y-227843213D02*
G01*
X139621177Y-227887426D01*
X140039932Y-228060880D01*
X140416802Y-228312696D01*
X140737304Y-228633198D01*
X140989120Y-229010068D01*
X141162574Y-229428823D01*
X141251000Y-229873371D01*
X141251000Y-230326629D01*
X141162574Y-230771177D01*
X140989120Y-231189932D01*
X140737304Y-231566802D01*
X140416802Y-231887304D01*
X140039932Y-232139120D01*
X139621177Y-232312574D01*
X139398903Y-232356787D01*
X139176630Y-232401000D01*
X138723370Y-232401000D01*
X138501097Y-232356787D01*
X138278823Y-232312574D01*
X137860068Y-232139120D01*
X137483198Y-231887304D01*
X137162696Y-231566802D01*
X136910880Y-231189932D01*
X136737426Y-230771177D01*
X136649000Y-230326629D01*
X136649000Y-229873371D01*
X136737426Y-229428823D01*
X136910880Y-229010068D01*
X137162696Y-228633198D01*
X137483198Y-228312696D01*
X137860068Y-228060880D01*
X138278823Y-227887426D01*
X138501097Y-227843213D01*
X138723370Y-227799000D01*
X139176630Y-227799000D01*
X139398903Y-227843213D01*
X139398903Y-227843213D01*
G37*
G36*
X198518903Y-193743213D02*
G01*
X198741177Y-193787426D01*
X199159932Y-193960880D01*
X199536802Y-194212696D01*
X199857304Y-194533198D01*
X200109120Y-194910068D01*
X200282574Y-195328823D01*
X200371000Y-195773371D01*
X200371000Y-196226629D01*
X200282574Y-196671177D01*
X200109120Y-197089932D01*
X199857304Y-197466802D01*
X199536802Y-197787304D01*
X199159932Y-198039120D01*
X198741177Y-198212574D01*
X198518903Y-198256787D01*
X198296630Y-198301000D01*
X197843370Y-198301000D01*
X197621097Y-198256787D01*
X197398823Y-198212574D01*
X196980068Y-198039120D01*
X196603198Y-197787304D01*
X196282696Y-197466802D01*
X196030880Y-197089932D01*
X195857426Y-196671177D01*
X195769000Y-196226629D01*
X195769000Y-195773371D01*
X195857426Y-195328823D01*
X196030880Y-194910068D01*
X196282696Y-194533198D01*
X196603198Y-194212696D01*
X196980068Y-193960880D01*
X197398823Y-193787426D01*
X197621097Y-193743213D01*
X197843370Y-193699000D01*
X198296630Y-193699000D01*
X198518903Y-193743213D01*
X198518903Y-193743213D01*
G37*
G36*
X128198903Y-193743213D02*
G01*
X128421177Y-193787426D01*
X128839932Y-193960880D01*
X129216802Y-194212696D01*
X129537304Y-194533198D01*
X129789120Y-194910068D01*
X129962574Y-195328823D01*
X130051000Y-195773371D01*
X130051000Y-196226629D01*
X129962574Y-196671177D01*
X129789120Y-197089932D01*
X129537304Y-197466802D01*
X129216802Y-197787304D01*
X128839932Y-198039120D01*
X128421177Y-198212574D01*
X128198903Y-198256787D01*
X127976630Y-198301000D01*
X127523370Y-198301000D01*
X127301097Y-198256787D01*
X127078823Y-198212574D01*
X126660068Y-198039120D01*
X126283198Y-197787304D01*
X125962696Y-197466802D01*
X125710880Y-197089932D01*
X125537426Y-196671177D01*
X125449000Y-196226629D01*
X125449000Y-195773371D01*
X125537426Y-195328823D01*
X125710880Y-194910068D01*
X125962696Y-194533198D01*
X126283198Y-194212696D01*
X126660068Y-193960880D01*
X127078823Y-193787426D01*
X127301097Y-193743213D01*
X127523370Y-193699000D01*
X127976630Y-193699000D01*
X128198903Y-193743213D01*
X128198903Y-193743213D01*
G37*
G36*
X201448903Y-141953213D02*
G01*
X201671177Y-141997426D01*
X202089932Y-142170880D01*
X202466802Y-142422696D01*
X202787304Y-142743198D01*
X203039120Y-143120068D01*
X203212574Y-143538823D01*
X203301000Y-143983371D01*
X203301000Y-144436629D01*
X203212574Y-144881177D01*
X203039120Y-145299932D01*
X202787304Y-145676802D01*
X202466802Y-145997304D01*
X202089932Y-146249120D01*
X201671177Y-146422574D01*
X201448903Y-146466787D01*
X201226630Y-146511000D01*
X200773370Y-146511000D01*
X200551097Y-146466787D01*
X200328823Y-146422574D01*
X199910068Y-146249120D01*
X199533198Y-145997304D01*
X199212696Y-145676802D01*
X198960880Y-145299932D01*
X198787426Y-144881177D01*
X198699000Y-144436629D01*
X198699000Y-143983371D01*
X198787426Y-143538823D01*
X198960880Y-143120068D01*
X199212696Y-142743198D01*
X199533198Y-142422696D01*
X199910068Y-142170880D01*
X200328823Y-141997426D01*
X200551097Y-141953213D01*
X200773370Y-141909000D01*
X201226630Y-141909000D01*
X201448903Y-141953213D01*
X201448903Y-141953213D01*
G37*
G36*
X125248903Y-141943213D02*
G01*
X125471177Y-141987426D01*
X125889932Y-142160880D01*
X126266802Y-142412696D01*
X126587304Y-142733198D01*
X126839120Y-143110068D01*
X127012574Y-143528823D01*
X127101000Y-143973371D01*
X127101000Y-144426629D01*
X127012574Y-144871177D01*
X126839120Y-145289932D01*
X126587304Y-145666802D01*
X126266802Y-145987304D01*
X125889932Y-146239120D01*
X125471177Y-146412574D01*
X125248903Y-146456787D01*
X125026630Y-146501000D01*
X124573370Y-146501000D01*
X124351097Y-146456787D01*
X124128823Y-146412574D01*
X123710068Y-146239120D01*
X123333198Y-145987304D01*
X123012696Y-145666802D01*
X122760880Y-145289932D01*
X122587426Y-144871177D01*
X122499000Y-144426629D01*
X122499000Y-143973371D01*
X122587426Y-143528823D01*
X122760880Y-143110068D01*
X123012696Y-142733198D01*
X123333198Y-142412696D01*
X123710068Y-142160880D01*
X124128823Y-141987426D01*
X124351097Y-141943213D01*
X124573370Y-141899000D01*
X125026630Y-141899000D01*
X125248903Y-141943213D01*
X125248903Y-141943213D01*
G37*
M02*
