M48
; DRILL file {KiCad (5.1.2)-2} date 10/11/2021 11:20:56
; FORMAT={-:-/ absolute / metric / decimal}
; #@! TF.CreationDate,2021-11-10T11:20:56-03:00
; #@! TF.GenerationSoftware,Kicad,Pcbnew,(5.1.2)-2
FMAT,2
METRIC
T1C0.400
T2C2.700
T3C1.800
%
G90
G05
T1
X138.43Y-182.66
X143.95Y-189.67
X144.65Y-175.67
X145.17Y-182.52
X148.88Y-176.935
X156.65Y-187.89
X167.92Y-177.1
X170.63Y-174.39
X175.49Y-183.055
X184.575Y-180.29
T2
X127.75Y-196.0
X198.05Y-196.0
X124.8Y-235.82
X187.15Y-230.0
X138.65Y-230.0
X124.8Y-144.2
X201.0Y-144.21
X200.99Y-235.81
T3
X129.85Y-203.1
X195.95Y-203.1
X129.85Y-222.9
X195.95Y-222.9
T0
M30
