G04 #@! TF.GenerationSoftware,KiCad,Pcbnew,(5.1.2)-2*
G04 #@! TF.CreationDate,2021-08-27T14:50:56-04:00*
G04 #@! TF.ProjectId,MAG_Plus,4d41475f-506c-4757-932e-6b696361645f,rev?*
G04 #@! TF.SameCoordinates,Original*
G04 #@! TF.FileFunction,Paste,Top*
G04 #@! TF.FilePolarity,Positive*
%FSLAX46Y46*%
G04 Gerber Fmt 4.6, Leading zero omitted, Abs format (unit mm)*
G04 Created by KiCad (PCBNEW (5.1.2)-2) date 2021-08-27 14:50:56*
%MOMM*%
%LPD*%
G04 APERTURE LIST*
%ADD10R,0.400000X0.600000*%
%ADD11R,1.550000X0.600000*%
%ADD12R,0.500000X0.600000*%
%ADD13R,0.600000X0.500000*%
%ADD14R,0.450000X1.450000*%
%ADD15R,1.050000X2.200000*%
%ADD16R,1.000000X1.050000*%
%ADD17C,0.800000*%
%ADD18C,0.100000*%
%ADD19R,0.350000X0.350000*%
%ADD20R,2.200000X3.100000*%
%ADD21R,0.800000X1.700000*%
%ADD22R,0.600000X1.500000*%
%ADD23R,1.500000X0.600000*%
%ADD24R,1.100000X1.800000*%
%ADD25R,2.000000X0.600000*%
%ADD26R,2.200000X1.000000*%
%ADD27R,1.800000X3.400000*%
%ADD28R,1.400000X0.300000*%
G04 APERTURE END LIST*
D10*
X70200000Y-56200000D03*
X71100000Y-56200000D03*
X71100000Y-58700000D03*
X70200000Y-58700000D03*
D11*
X55450000Y-63195000D03*
X55450000Y-64465000D03*
X55450000Y-65735000D03*
X55450000Y-67005000D03*
X50050000Y-67005000D03*
X50050000Y-65735000D03*
X50050000Y-64465000D03*
X50050000Y-63195000D03*
D10*
X46800000Y-66500000D03*
X47700000Y-66500000D03*
X47750000Y-63900000D03*
X46850000Y-63900000D03*
X53500000Y-68700000D03*
X52600000Y-68700000D03*
X52650000Y-70000000D03*
X53550000Y-70000000D03*
D12*
X60350000Y-50250000D03*
X60350000Y-51350000D03*
X62150000Y-51350000D03*
X62150000Y-50250000D03*
X70250000Y-48250000D03*
X70250000Y-49350000D03*
D13*
X48950000Y-61910000D03*
X50050000Y-61910000D03*
X55470000Y-61940000D03*
X56570000Y-61940000D03*
D14*
X94800000Y-109750000D03*
X95450000Y-109750000D03*
X96100000Y-109750000D03*
X96750000Y-109750000D03*
X97400000Y-109750000D03*
X98050000Y-109750000D03*
X98700000Y-109750000D03*
X98700000Y-115650000D03*
X98050000Y-115650000D03*
X97400000Y-115650000D03*
X96750000Y-115650000D03*
X96100000Y-115650000D03*
X95450000Y-115650000D03*
X94800000Y-115650000D03*
D15*
X92975000Y-128175000D03*
D16*
X94450000Y-126650000D03*
D15*
X95925000Y-128175000D03*
X103725000Y-128175000D03*
D16*
X102250000Y-126650000D03*
D15*
X100775000Y-128175000D03*
X52275000Y-127975000D03*
D16*
X53750000Y-126450000D03*
D15*
X55225000Y-127975000D03*
X63325000Y-127975000D03*
D16*
X61850000Y-126450000D03*
D15*
X60375000Y-127975000D03*
D13*
X88900000Y-114000000D03*
X90000000Y-114000000D03*
D12*
X96750000Y-119250000D03*
X96750000Y-118150000D03*
D13*
X63200000Y-115500000D03*
X64300000Y-115500000D03*
D12*
X55750000Y-118150000D03*
X55750000Y-119250000D03*
X92850000Y-119250000D03*
X92850000Y-118150000D03*
X93950000Y-118150000D03*
X93950000Y-119250000D03*
X99550000Y-119250000D03*
X99550000Y-118150000D03*
X100650000Y-118150000D03*
X100650000Y-119250000D03*
X52050000Y-118150000D03*
X52050000Y-119250000D03*
X53150000Y-119250000D03*
X53150000Y-118150000D03*
X59150000Y-118150000D03*
X59150000Y-119250000D03*
X60250000Y-119250000D03*
X60250000Y-118150000D03*
D13*
X93400000Y-109800000D03*
X92300000Y-109800000D03*
X101200000Y-109800000D03*
X100100000Y-109800000D03*
X51300000Y-109500000D03*
X52400000Y-109500000D03*
X59100000Y-109600000D03*
X60200000Y-109600000D03*
D10*
X93700000Y-120500000D03*
X92800000Y-120500000D03*
X101500000Y-120500000D03*
X100600000Y-120500000D03*
X53000000Y-120600000D03*
X52100000Y-120600000D03*
X61100000Y-120500000D03*
X60200000Y-120500000D03*
X91200000Y-114000000D03*
X92100000Y-114000000D03*
X62100000Y-115500000D03*
X61200000Y-115500000D03*
D14*
X53800000Y-109550000D03*
X54450000Y-109550000D03*
X55100000Y-109550000D03*
X55750000Y-109550000D03*
X56400000Y-109550000D03*
X57050000Y-109550000D03*
X57700000Y-109550000D03*
X57700000Y-115450000D03*
X57050000Y-115450000D03*
X56400000Y-115450000D03*
X55750000Y-115450000D03*
X55100000Y-115450000D03*
X54450000Y-115450000D03*
X53800000Y-115450000D03*
D17*
X93050000Y-123900000D03*
D18*
G36*
X94050975Y-122695096D02*
G01*
X94051913Y-122695381D01*
X94052778Y-122695843D01*
X94053536Y-122696464D01*
X94054157Y-122697222D01*
X94054619Y-122698087D01*
X94054904Y-122699025D01*
X94055000Y-122700000D01*
X94055000Y-123900000D01*
X94054904Y-123900975D01*
X94054619Y-123901913D01*
X94054157Y-123902778D01*
X94053536Y-123903536D01*
X94052778Y-123904157D01*
X94051913Y-123904619D01*
X94050975Y-123904904D01*
X94050000Y-123905000D01*
X93455000Y-123905000D01*
X93455000Y-124500000D01*
X93454904Y-124500975D01*
X93454619Y-124501913D01*
X93454157Y-124502778D01*
X93453536Y-124503536D01*
X93452778Y-124504157D01*
X93451913Y-124504619D01*
X93450975Y-124504904D01*
X93450000Y-124505000D01*
X92650000Y-124505000D01*
X92649025Y-124504904D01*
X92648087Y-124504619D01*
X92647222Y-124504157D01*
X92646464Y-124503536D01*
X92645843Y-124502778D01*
X92645381Y-124501913D01*
X92645096Y-124500975D01*
X92645000Y-124500000D01*
X92645000Y-123300000D01*
X92645096Y-123299025D01*
X92645381Y-123298087D01*
X92645843Y-123297222D01*
X92646464Y-123296464D01*
X92647222Y-123295843D01*
X92648087Y-123295381D01*
X92649025Y-123295096D01*
X92650000Y-123295000D01*
X93147928Y-123295000D01*
X93245000Y-123197928D01*
X93245000Y-122700000D01*
X93245096Y-122699025D01*
X93245381Y-122698087D01*
X93245843Y-122697222D01*
X93246464Y-122696464D01*
X93247222Y-122695843D01*
X93248087Y-122695381D01*
X93249025Y-122695096D01*
X93250000Y-122695000D01*
X94050000Y-122695000D01*
X94050975Y-122695096D01*
X94050975Y-122695096D01*
G37*
D19*
X92820000Y-122870000D03*
X93880000Y-124330000D03*
X53180000Y-124130000D03*
X52120000Y-122670000D03*
D17*
X52350000Y-123700000D03*
D18*
G36*
X53350975Y-122495096D02*
G01*
X53351913Y-122495381D01*
X53352778Y-122495843D01*
X53353536Y-122496464D01*
X53354157Y-122497222D01*
X53354619Y-122498087D01*
X53354904Y-122499025D01*
X53355000Y-122500000D01*
X53355000Y-123700000D01*
X53354904Y-123700975D01*
X53354619Y-123701913D01*
X53354157Y-123702778D01*
X53353536Y-123703536D01*
X53352778Y-123704157D01*
X53351913Y-123704619D01*
X53350975Y-123704904D01*
X53350000Y-123705000D01*
X52755000Y-123705000D01*
X52755000Y-124300000D01*
X52754904Y-124300975D01*
X52754619Y-124301913D01*
X52754157Y-124302778D01*
X52753536Y-124303536D01*
X52752778Y-124304157D01*
X52751913Y-124304619D01*
X52750975Y-124304904D01*
X52750000Y-124305000D01*
X51950000Y-124305000D01*
X51949025Y-124304904D01*
X51948087Y-124304619D01*
X51947222Y-124304157D01*
X51946464Y-124303536D01*
X51945843Y-124302778D01*
X51945381Y-124301913D01*
X51945096Y-124300975D01*
X51945000Y-124300000D01*
X51945000Y-123100000D01*
X51945096Y-123099025D01*
X51945381Y-123098087D01*
X51945843Y-123097222D01*
X51946464Y-123096464D01*
X51947222Y-123095843D01*
X51948087Y-123095381D01*
X51949025Y-123095096D01*
X51950000Y-123095000D01*
X52447928Y-123095000D01*
X52545000Y-122997928D01*
X52545000Y-122500000D01*
X52545096Y-122499025D01*
X52545381Y-122498087D01*
X52545843Y-122497222D01*
X52546464Y-122496464D01*
X52547222Y-122495843D01*
X52548087Y-122495381D01*
X52549025Y-122495096D01*
X52550000Y-122495000D01*
X53350000Y-122495000D01*
X53350975Y-122495096D01*
X53350975Y-122495096D01*
G37*
D17*
X60450000Y-123700000D03*
D18*
G36*
X61450975Y-122495096D02*
G01*
X61451913Y-122495381D01*
X61452778Y-122495843D01*
X61453536Y-122496464D01*
X61454157Y-122497222D01*
X61454619Y-122498087D01*
X61454904Y-122499025D01*
X61455000Y-122500000D01*
X61455000Y-123700000D01*
X61454904Y-123700975D01*
X61454619Y-123701913D01*
X61454157Y-123702778D01*
X61453536Y-123703536D01*
X61452778Y-123704157D01*
X61451913Y-123704619D01*
X61450975Y-123704904D01*
X61450000Y-123705000D01*
X60855000Y-123705000D01*
X60855000Y-124300000D01*
X60854904Y-124300975D01*
X60854619Y-124301913D01*
X60854157Y-124302778D01*
X60853536Y-124303536D01*
X60852778Y-124304157D01*
X60851913Y-124304619D01*
X60850975Y-124304904D01*
X60850000Y-124305000D01*
X60050000Y-124305000D01*
X60049025Y-124304904D01*
X60048087Y-124304619D01*
X60047222Y-124304157D01*
X60046464Y-124303536D01*
X60045843Y-124302778D01*
X60045381Y-124301913D01*
X60045096Y-124300975D01*
X60045000Y-124300000D01*
X60045000Y-123100000D01*
X60045096Y-123099025D01*
X60045381Y-123098087D01*
X60045843Y-123097222D01*
X60046464Y-123096464D01*
X60047222Y-123095843D01*
X60048087Y-123095381D01*
X60049025Y-123095096D01*
X60050000Y-123095000D01*
X60547928Y-123095000D01*
X60645000Y-122997928D01*
X60645000Y-122500000D01*
X60645096Y-122499025D01*
X60645381Y-122498087D01*
X60645843Y-122497222D01*
X60646464Y-122496464D01*
X60647222Y-122495843D01*
X60648087Y-122495381D01*
X60649025Y-122495096D01*
X60650000Y-122495000D01*
X61450000Y-122495000D01*
X61450975Y-122495096D01*
X61450975Y-122495096D01*
G37*
D19*
X60220000Y-122670000D03*
X61280000Y-124130000D03*
X101680000Y-124330000D03*
X100620000Y-122870000D03*
D17*
X100850000Y-123900000D03*
D18*
G36*
X101850975Y-122695096D02*
G01*
X101851913Y-122695381D01*
X101852778Y-122695843D01*
X101853536Y-122696464D01*
X101854157Y-122697222D01*
X101854619Y-122698087D01*
X101854904Y-122699025D01*
X101855000Y-122700000D01*
X101855000Y-123900000D01*
X101854904Y-123900975D01*
X101854619Y-123901913D01*
X101854157Y-123902778D01*
X101853536Y-123903536D01*
X101852778Y-123904157D01*
X101851913Y-123904619D01*
X101850975Y-123904904D01*
X101850000Y-123905000D01*
X101255000Y-123905000D01*
X101255000Y-124500000D01*
X101254904Y-124500975D01*
X101254619Y-124501913D01*
X101254157Y-124502778D01*
X101253536Y-124503536D01*
X101252778Y-124504157D01*
X101251913Y-124504619D01*
X101250975Y-124504904D01*
X101250000Y-124505000D01*
X100450000Y-124505000D01*
X100449025Y-124504904D01*
X100448087Y-124504619D01*
X100447222Y-124504157D01*
X100446464Y-124503536D01*
X100445843Y-124502778D01*
X100445381Y-124501913D01*
X100445096Y-124500975D01*
X100445000Y-124500000D01*
X100445000Y-123300000D01*
X100445096Y-123299025D01*
X100445381Y-123298087D01*
X100445843Y-123297222D01*
X100446464Y-123296464D01*
X100447222Y-123295843D01*
X100448087Y-123295381D01*
X100449025Y-123295096D01*
X100450000Y-123295000D01*
X100947928Y-123295000D01*
X101045000Y-123197928D01*
X101045000Y-122700000D01*
X101045096Y-122699025D01*
X101045381Y-122698087D01*
X101045843Y-122697222D01*
X101046464Y-122696464D01*
X101047222Y-122695843D01*
X101048087Y-122695381D01*
X101049025Y-122695096D01*
X101050000Y-122695000D01*
X101850000Y-122695000D01*
X101850975Y-122695096D01*
X101850975Y-122695096D01*
G37*
D20*
X98925000Y-47410000D03*
X117675000Y-47410000D03*
D21*
X101425000Y-50310000D03*
X102675000Y-50310000D03*
X103925000Y-50310000D03*
X105175000Y-50310000D03*
X106425000Y-50310000D03*
X107675000Y-50310000D03*
X108925000Y-50310000D03*
X110175000Y-50310000D03*
X111425000Y-50310000D03*
X112675000Y-50310000D03*
X113925000Y-50310000D03*
X115175000Y-50310000D03*
D22*
X73105000Y-118750000D03*
X74375000Y-118750000D03*
X75645000Y-118750000D03*
X76915000Y-118750000D03*
X78185000Y-118750000D03*
X79455000Y-118750000D03*
X80725000Y-118750000D03*
X81995000Y-118750000D03*
X81995000Y-128050000D03*
X80725000Y-128050000D03*
X79455000Y-128050000D03*
X78185000Y-128050000D03*
X76915000Y-128050000D03*
X75645000Y-128050000D03*
X74375000Y-128050000D03*
X73105000Y-128050000D03*
D23*
X105600000Y-64755000D03*
X105600000Y-66025000D03*
X105600000Y-67295000D03*
X105600000Y-68565000D03*
X105600000Y-69835000D03*
X105600000Y-71105000D03*
X105600000Y-72375000D03*
X105600000Y-73645000D03*
X96300000Y-73645000D03*
X96300000Y-72375000D03*
X96300000Y-71105000D03*
X96300000Y-69835000D03*
X96300000Y-68565000D03*
X96300000Y-67295000D03*
X96300000Y-66025000D03*
X96300000Y-64755000D03*
D12*
X74960000Y-116660000D03*
X74960000Y-115560000D03*
X72460000Y-115390000D03*
X72460000Y-116490000D03*
X71590000Y-118640000D03*
X71590000Y-117540000D03*
X71280000Y-129160000D03*
X71280000Y-128060000D03*
D13*
X106680000Y-63180000D03*
X105580000Y-63180000D03*
X96240000Y-63030000D03*
X95140000Y-63030000D03*
X53160000Y-91730000D03*
X54260000Y-91730000D03*
D10*
X51650000Y-91750000D03*
X50750000Y-91750000D03*
D24*
X121590000Y-79390000D03*
X121590000Y-85590000D03*
X117890000Y-79390000D03*
X117890000Y-85590000D03*
D25*
X50680000Y-89270000D03*
X50680000Y-88000000D03*
X50680000Y-86730000D03*
X50680000Y-85460000D03*
X50680000Y-84190000D03*
X50680000Y-82920000D03*
X50680000Y-81650000D03*
X50680000Y-80380000D03*
X50680000Y-79110000D03*
X60080000Y-79110000D03*
X60080000Y-80380000D03*
X60080000Y-81650000D03*
X60080000Y-82920000D03*
X60080000Y-84190000D03*
X60080000Y-85460000D03*
X60080000Y-86730000D03*
X60080000Y-88000000D03*
X60080000Y-89270000D03*
D13*
X101300000Y-94650000D03*
X102400000Y-94650000D03*
X102400000Y-93250000D03*
X101300000Y-93250000D03*
X101350000Y-87050000D03*
X102450000Y-87050000D03*
X102500000Y-85700000D03*
X101400000Y-85700000D03*
X106660000Y-112070000D03*
X105560000Y-112070000D03*
X102350000Y-108720000D03*
X103450000Y-108720000D03*
X48210000Y-103680000D03*
X49310000Y-103680000D03*
X48260000Y-95170000D03*
X49360000Y-95170000D03*
D26*
X104500000Y-94650000D03*
X104500000Y-91650000D03*
D27*
X110800000Y-92400000D03*
D26*
X104500000Y-93150000D03*
X104500000Y-90150000D03*
X104500000Y-82500000D03*
X104500000Y-85500000D03*
D27*
X110800000Y-84750000D03*
D26*
X104500000Y-84000000D03*
X104500000Y-87000000D03*
X105560000Y-110200000D03*
X105560000Y-107200000D03*
D27*
X111860000Y-107950000D03*
D26*
X105560000Y-108700000D03*
X105560000Y-105700000D03*
X48220000Y-97220000D03*
X48220000Y-100220000D03*
D27*
X54520000Y-99470000D03*
D26*
X48220000Y-98720000D03*
X48220000Y-101720000D03*
D28*
X79370000Y-112160000D03*
X79370000Y-112660000D03*
X79370000Y-113160000D03*
X79370000Y-113660000D03*
X79370000Y-114160000D03*
X74970000Y-114160000D03*
X74970000Y-113660000D03*
X74970000Y-113160000D03*
X74970000Y-112660000D03*
X74970000Y-112160000D03*
M02*
