G04 #@! TF.GenerationSoftware,KiCad,Pcbnew,(5.1.2)-2*
G04 #@! TF.CreationDate,2021-11-10T11:23:53-03:00*
G04 #@! TF.ProjectId,MAG_Plus,4d41475f-506c-4757-932e-6b696361645f,rev?*
G04 #@! TF.SameCoordinates,Original*
G04 #@! TF.FileFunction,Copper,L1,Top*
G04 #@! TF.FilePolarity,Positive*
%FSLAX46Y46*%
G04 Gerber Fmt 4.6, Leading zero omitted, Abs format (unit mm)*
G04 Created by KiCad (PCBNEW (5.1.2)-2) date 2021-11-10 11:23:53*
%MOMM*%
%LPD*%
G04 APERTURE LIST*
%ADD10C,5.300000*%
%ADD11C,4.500000*%
%ADD12C,3.200000*%
%ADD13R,2.200000X3.100000*%
%ADD14R,0.800000X1.500000*%
%ADD15R,1.000000X2.510000*%
%ADD16R,1.000000X1.500000*%
%ADD17C,0.500000*%
%ADD18C,0.100000*%
%ADD19R,0.600000X0.400000*%
%ADD20R,0.450000X1.450000*%
%ADD21C,0.800000*%
%ADD22C,0.250000*%
%ADD23C,0.254000*%
G04 APERTURE END LIST*
D10*
X283860000Y-108360000D03*
D11*
X255100000Y-107800000D03*
X346600000Y-46800000D03*
X255100000Y-46790000D03*
X346600000Y-107800000D03*
D12*
X336100000Y-45990000D03*
X293510000Y-108610000D03*
X293510000Y-45990000D03*
X336100000Y-108610000D03*
D13*
X292125000Y-54875000D03*
X283375000Y-54875000D03*
D14*
X289625000Y-52125000D03*
X288375000Y-52125000D03*
X287125000Y-52125000D03*
X285875000Y-52125000D03*
D15*
X308180000Y-64135000D03*
X303100000Y-64135000D03*
X298020000Y-64135000D03*
X292940000Y-64135000D03*
X305640000Y-67445000D03*
X300560000Y-67445000D03*
X295480000Y-67445000D03*
X305600000Y-87115000D03*
X300520000Y-87115000D03*
X295440000Y-87115000D03*
X308140000Y-90425000D03*
X303060000Y-90425000D03*
X297980000Y-90425000D03*
X292900000Y-90425000D03*
D16*
X306850000Y-93610000D03*
D17*
X308150000Y-93610000D03*
D18*
G36*
X308150000Y-92860602D02*
G01*
X308174534Y-92860602D01*
X308223365Y-92865412D01*
X308271490Y-92874984D01*
X308318445Y-92889228D01*
X308363778Y-92908005D01*
X308407051Y-92931136D01*
X308447850Y-92958396D01*
X308485779Y-92989524D01*
X308520476Y-93024221D01*
X308551604Y-93062150D01*
X308578864Y-93102949D01*
X308601995Y-93146222D01*
X308620772Y-93191555D01*
X308635016Y-93238510D01*
X308644588Y-93286635D01*
X308649398Y-93335466D01*
X308649398Y-93360000D01*
X308650000Y-93360000D01*
X308650000Y-93860000D01*
X308649398Y-93860000D01*
X308649398Y-93884534D01*
X308644588Y-93933365D01*
X308635016Y-93981490D01*
X308620772Y-94028445D01*
X308601995Y-94073778D01*
X308578864Y-94117051D01*
X308551604Y-94157850D01*
X308520476Y-94195779D01*
X308485779Y-94230476D01*
X308447850Y-94261604D01*
X308407051Y-94288864D01*
X308363778Y-94311995D01*
X308318445Y-94330772D01*
X308271490Y-94345016D01*
X308223365Y-94354588D01*
X308174534Y-94359398D01*
X308150000Y-94359398D01*
X308150000Y-94360000D01*
X307600000Y-94360000D01*
X307600000Y-92860000D01*
X308150000Y-92860000D01*
X308150000Y-92860602D01*
X308150000Y-92860602D01*
G37*
D17*
X305550000Y-93610000D03*
D18*
G36*
X306100000Y-94360000D02*
G01*
X305550000Y-94360000D01*
X305550000Y-94359398D01*
X305525466Y-94359398D01*
X305476635Y-94354588D01*
X305428510Y-94345016D01*
X305381555Y-94330772D01*
X305336222Y-94311995D01*
X305292949Y-94288864D01*
X305252150Y-94261604D01*
X305214221Y-94230476D01*
X305179524Y-94195779D01*
X305148396Y-94157850D01*
X305121136Y-94117051D01*
X305098005Y-94073778D01*
X305079228Y-94028445D01*
X305064984Y-93981490D01*
X305055412Y-93933365D01*
X305050602Y-93884534D01*
X305050602Y-93860000D01*
X305050000Y-93860000D01*
X305050000Y-93360000D01*
X305050602Y-93360000D01*
X305050602Y-93335466D01*
X305055412Y-93286635D01*
X305064984Y-93238510D01*
X305079228Y-93191555D01*
X305098005Y-93146222D01*
X305121136Y-93102949D01*
X305148396Y-93062150D01*
X305179524Y-93024221D01*
X305214221Y-92989524D01*
X305252150Y-92958396D01*
X305292949Y-92931136D01*
X305336222Y-92908005D01*
X305381555Y-92889228D01*
X305428510Y-92874984D01*
X305476635Y-92865412D01*
X305525466Y-92860602D01*
X305550000Y-92860602D01*
X305550000Y-92860000D01*
X306100000Y-92860000D01*
X306100000Y-94360000D01*
X306100000Y-94360000D01*
G37*
D17*
X305530000Y-96510000D03*
D18*
G36*
X306080000Y-97260000D02*
G01*
X305530000Y-97260000D01*
X305530000Y-97259398D01*
X305505466Y-97259398D01*
X305456635Y-97254588D01*
X305408510Y-97245016D01*
X305361555Y-97230772D01*
X305316222Y-97211995D01*
X305272949Y-97188864D01*
X305232150Y-97161604D01*
X305194221Y-97130476D01*
X305159524Y-97095779D01*
X305128396Y-97057850D01*
X305101136Y-97017051D01*
X305078005Y-96973778D01*
X305059228Y-96928445D01*
X305044984Y-96881490D01*
X305035412Y-96833365D01*
X305030602Y-96784534D01*
X305030602Y-96760000D01*
X305030000Y-96760000D01*
X305030000Y-96260000D01*
X305030602Y-96260000D01*
X305030602Y-96235466D01*
X305035412Y-96186635D01*
X305044984Y-96138510D01*
X305059228Y-96091555D01*
X305078005Y-96046222D01*
X305101136Y-96002949D01*
X305128396Y-95962150D01*
X305159524Y-95924221D01*
X305194221Y-95889524D01*
X305232150Y-95858396D01*
X305272949Y-95831136D01*
X305316222Y-95808005D01*
X305361555Y-95789228D01*
X305408510Y-95774984D01*
X305456635Y-95765412D01*
X305505466Y-95760602D01*
X305530000Y-95760602D01*
X305530000Y-95760000D01*
X306080000Y-95760000D01*
X306080000Y-97260000D01*
X306080000Y-97260000D01*
G37*
D17*
X308130000Y-96510000D03*
D18*
G36*
X308130000Y-95760602D02*
G01*
X308154534Y-95760602D01*
X308203365Y-95765412D01*
X308251490Y-95774984D01*
X308298445Y-95789228D01*
X308343778Y-95808005D01*
X308387051Y-95831136D01*
X308427850Y-95858396D01*
X308465779Y-95889524D01*
X308500476Y-95924221D01*
X308531604Y-95962150D01*
X308558864Y-96002949D01*
X308581995Y-96046222D01*
X308600772Y-96091555D01*
X308615016Y-96138510D01*
X308624588Y-96186635D01*
X308629398Y-96235466D01*
X308629398Y-96260000D01*
X308630000Y-96260000D01*
X308630000Y-96760000D01*
X308629398Y-96760000D01*
X308629398Y-96784534D01*
X308624588Y-96833365D01*
X308615016Y-96881490D01*
X308600772Y-96928445D01*
X308581995Y-96973778D01*
X308558864Y-97017051D01*
X308531604Y-97057850D01*
X308500476Y-97095779D01*
X308465779Y-97130476D01*
X308427850Y-97161604D01*
X308387051Y-97188864D01*
X308343778Y-97211995D01*
X308298445Y-97230772D01*
X308251490Y-97245016D01*
X308203365Y-97254588D01*
X308154534Y-97259398D01*
X308130000Y-97259398D01*
X308130000Y-97260000D01*
X307580000Y-97260000D01*
X307580000Y-95760000D01*
X308130000Y-95760000D01*
X308130000Y-95760602D01*
X308130000Y-95760602D01*
G37*
D16*
X306830000Y-96510000D03*
D19*
X308210000Y-61860000D03*
X308210000Y-60960000D03*
X303090000Y-60950000D03*
X303090000Y-61850000D03*
D16*
X299270000Y-93600000D03*
D17*
X300570000Y-93600000D03*
D18*
G36*
X300570000Y-92850602D02*
G01*
X300594534Y-92850602D01*
X300643365Y-92855412D01*
X300691490Y-92864984D01*
X300738445Y-92879228D01*
X300783778Y-92898005D01*
X300827051Y-92921136D01*
X300867850Y-92948396D01*
X300905779Y-92979524D01*
X300940476Y-93014221D01*
X300971604Y-93052150D01*
X300998864Y-93092949D01*
X301021995Y-93136222D01*
X301040772Y-93181555D01*
X301055016Y-93228510D01*
X301064588Y-93276635D01*
X301069398Y-93325466D01*
X301069398Y-93350000D01*
X301070000Y-93350000D01*
X301070000Y-93850000D01*
X301069398Y-93850000D01*
X301069398Y-93874534D01*
X301064588Y-93923365D01*
X301055016Y-93971490D01*
X301040772Y-94018445D01*
X301021995Y-94063778D01*
X300998864Y-94107051D01*
X300971604Y-94147850D01*
X300940476Y-94185779D01*
X300905779Y-94220476D01*
X300867850Y-94251604D01*
X300827051Y-94278864D01*
X300783778Y-94301995D01*
X300738445Y-94320772D01*
X300691490Y-94335016D01*
X300643365Y-94344588D01*
X300594534Y-94349398D01*
X300570000Y-94349398D01*
X300570000Y-94350000D01*
X300020000Y-94350000D01*
X300020000Y-92850000D01*
X300570000Y-92850000D01*
X300570000Y-92850602D01*
X300570000Y-92850602D01*
G37*
D17*
X297970000Y-93600000D03*
D18*
G36*
X298520000Y-94350000D02*
G01*
X297970000Y-94350000D01*
X297970000Y-94349398D01*
X297945466Y-94349398D01*
X297896635Y-94344588D01*
X297848510Y-94335016D01*
X297801555Y-94320772D01*
X297756222Y-94301995D01*
X297712949Y-94278864D01*
X297672150Y-94251604D01*
X297634221Y-94220476D01*
X297599524Y-94185779D01*
X297568396Y-94147850D01*
X297541136Y-94107051D01*
X297518005Y-94063778D01*
X297499228Y-94018445D01*
X297484984Y-93971490D01*
X297475412Y-93923365D01*
X297470602Y-93874534D01*
X297470602Y-93850000D01*
X297470000Y-93850000D01*
X297470000Y-93350000D01*
X297470602Y-93350000D01*
X297470602Y-93325466D01*
X297475412Y-93276635D01*
X297484984Y-93228510D01*
X297499228Y-93181555D01*
X297518005Y-93136222D01*
X297541136Y-93092949D01*
X297568396Y-93052150D01*
X297599524Y-93014221D01*
X297634221Y-92979524D01*
X297672150Y-92948396D01*
X297712949Y-92921136D01*
X297756222Y-92898005D01*
X297801555Y-92879228D01*
X297848510Y-92864984D01*
X297896635Y-92855412D01*
X297945466Y-92850602D01*
X297970000Y-92850602D01*
X297970000Y-92850000D01*
X298520000Y-92850000D01*
X298520000Y-94350000D01*
X298520000Y-94350000D01*
G37*
D17*
X297990000Y-99350000D03*
D18*
G36*
X298540000Y-100100000D02*
G01*
X297990000Y-100100000D01*
X297990000Y-100099398D01*
X297965466Y-100099398D01*
X297916635Y-100094588D01*
X297868510Y-100085016D01*
X297821555Y-100070772D01*
X297776222Y-100051995D01*
X297732949Y-100028864D01*
X297692150Y-100001604D01*
X297654221Y-99970476D01*
X297619524Y-99935779D01*
X297588396Y-99897850D01*
X297561136Y-99857051D01*
X297538005Y-99813778D01*
X297519228Y-99768445D01*
X297504984Y-99721490D01*
X297495412Y-99673365D01*
X297490602Y-99624534D01*
X297490602Y-99600000D01*
X297490000Y-99600000D01*
X297490000Y-99100000D01*
X297490602Y-99100000D01*
X297490602Y-99075466D01*
X297495412Y-99026635D01*
X297504984Y-98978510D01*
X297519228Y-98931555D01*
X297538005Y-98886222D01*
X297561136Y-98842949D01*
X297588396Y-98802150D01*
X297619524Y-98764221D01*
X297654221Y-98729524D01*
X297692150Y-98698396D01*
X297732949Y-98671136D01*
X297776222Y-98648005D01*
X297821555Y-98629228D01*
X297868510Y-98614984D01*
X297916635Y-98605412D01*
X297965466Y-98600602D01*
X297990000Y-98600602D01*
X297990000Y-98600000D01*
X298540000Y-98600000D01*
X298540000Y-100100000D01*
X298540000Y-100100000D01*
G37*
D17*
X300590000Y-99350000D03*
D18*
G36*
X300590000Y-98600602D02*
G01*
X300614534Y-98600602D01*
X300663365Y-98605412D01*
X300711490Y-98614984D01*
X300758445Y-98629228D01*
X300803778Y-98648005D01*
X300847051Y-98671136D01*
X300887850Y-98698396D01*
X300925779Y-98729524D01*
X300960476Y-98764221D01*
X300991604Y-98802150D01*
X301018864Y-98842949D01*
X301041995Y-98886222D01*
X301060772Y-98931555D01*
X301075016Y-98978510D01*
X301084588Y-99026635D01*
X301089398Y-99075466D01*
X301089398Y-99100000D01*
X301090000Y-99100000D01*
X301090000Y-99600000D01*
X301089398Y-99600000D01*
X301089398Y-99624534D01*
X301084588Y-99673365D01*
X301075016Y-99721490D01*
X301060772Y-99768445D01*
X301041995Y-99813778D01*
X301018864Y-99857051D01*
X300991604Y-99897850D01*
X300960476Y-99935779D01*
X300925779Y-99970476D01*
X300887850Y-100001604D01*
X300847051Y-100028864D01*
X300803778Y-100051995D01*
X300758445Y-100070772D01*
X300711490Y-100085016D01*
X300663365Y-100094588D01*
X300614534Y-100099398D01*
X300590000Y-100099398D01*
X300590000Y-100100000D01*
X300040000Y-100100000D01*
X300040000Y-98600000D01*
X300590000Y-98600000D01*
X300590000Y-98600602D01*
X300590000Y-98600602D01*
G37*
D16*
X299290000Y-99350000D03*
X299250000Y-96470000D03*
D17*
X300550000Y-96470000D03*
D18*
G36*
X300550000Y-95720602D02*
G01*
X300574534Y-95720602D01*
X300623365Y-95725412D01*
X300671490Y-95734984D01*
X300718445Y-95749228D01*
X300763778Y-95768005D01*
X300807051Y-95791136D01*
X300847850Y-95818396D01*
X300885779Y-95849524D01*
X300920476Y-95884221D01*
X300951604Y-95922150D01*
X300978864Y-95962949D01*
X301001995Y-96006222D01*
X301020772Y-96051555D01*
X301035016Y-96098510D01*
X301044588Y-96146635D01*
X301049398Y-96195466D01*
X301049398Y-96220000D01*
X301050000Y-96220000D01*
X301050000Y-96720000D01*
X301049398Y-96720000D01*
X301049398Y-96744534D01*
X301044588Y-96793365D01*
X301035016Y-96841490D01*
X301020772Y-96888445D01*
X301001995Y-96933778D01*
X300978864Y-96977051D01*
X300951604Y-97017850D01*
X300920476Y-97055779D01*
X300885779Y-97090476D01*
X300847850Y-97121604D01*
X300807051Y-97148864D01*
X300763778Y-97171995D01*
X300718445Y-97190772D01*
X300671490Y-97205016D01*
X300623365Y-97214588D01*
X300574534Y-97219398D01*
X300550000Y-97219398D01*
X300550000Y-97220000D01*
X300000000Y-97220000D01*
X300000000Y-95720000D01*
X300550000Y-95720000D01*
X300550000Y-95720602D01*
X300550000Y-95720602D01*
G37*
D17*
X297950000Y-96470000D03*
D18*
G36*
X298500000Y-97220000D02*
G01*
X297950000Y-97220000D01*
X297950000Y-97219398D01*
X297925466Y-97219398D01*
X297876635Y-97214588D01*
X297828510Y-97205016D01*
X297781555Y-97190772D01*
X297736222Y-97171995D01*
X297692949Y-97148864D01*
X297652150Y-97121604D01*
X297614221Y-97090476D01*
X297579524Y-97055779D01*
X297548396Y-97017850D01*
X297521136Y-96977051D01*
X297498005Y-96933778D01*
X297479228Y-96888445D01*
X297464984Y-96841490D01*
X297455412Y-96793365D01*
X297450602Y-96744534D01*
X297450602Y-96720000D01*
X297450000Y-96720000D01*
X297450000Y-96220000D01*
X297450602Y-96220000D01*
X297450602Y-96195466D01*
X297455412Y-96146635D01*
X297464984Y-96098510D01*
X297479228Y-96051555D01*
X297498005Y-96006222D01*
X297521136Y-95962949D01*
X297548396Y-95922150D01*
X297579524Y-95884221D01*
X297614221Y-95849524D01*
X297652150Y-95818396D01*
X297692949Y-95791136D01*
X297736222Y-95768005D01*
X297781555Y-95749228D01*
X297828510Y-95734984D01*
X297876635Y-95725412D01*
X297925466Y-95720602D01*
X297950000Y-95720602D01*
X297950000Y-95720000D01*
X298500000Y-95720000D01*
X298500000Y-97220000D01*
X298500000Y-97220000D01*
G37*
D20*
X301585000Y-79720000D03*
X300935000Y-79720000D03*
X300285000Y-79720000D03*
X299635000Y-79720000D03*
X299635000Y-75320000D03*
X300285000Y-75320000D03*
X300935000Y-75320000D03*
X301585000Y-75320000D03*
D21*
X303899998Y-59750000D03*
X304999998Y-62050000D03*
X289950000Y-48650000D03*
X301400000Y-61600000D03*
X308190000Y-85500000D03*
X302600000Y-99340000D03*
X302540000Y-96590000D03*
X309260000Y-97620000D03*
X302540000Y-101930000D03*
X310474990Y-94970000D03*
X295980000Y-95270000D03*
X297400000Y-88000000D03*
D22*
X308210000Y-64105000D02*
X308180000Y-64135000D01*
X308210000Y-61860000D02*
X308210000Y-64105000D01*
X307430000Y-64135000D02*
X308180000Y-64135000D01*
X305849999Y-65715001D02*
X307430000Y-64135000D01*
X299949997Y-65715001D02*
X305849999Y-65715001D01*
X299330000Y-66334998D02*
X299949997Y-65715001D01*
X299330000Y-70050000D02*
X299330000Y-66334998D01*
X300935000Y-76295000D02*
X301570000Y-76930000D01*
X300935000Y-75320000D02*
X300935000Y-76295000D01*
X301570000Y-76930000D02*
X302480000Y-76930000D01*
X302480000Y-76930000D02*
X303110000Y-76300000D01*
X303110000Y-76300000D02*
X303110000Y-73830000D01*
X303110000Y-73830000D02*
X299330000Y-70050000D01*
X293924997Y-49774999D02*
X303499999Y-59350001D01*
X303499999Y-59350001D02*
X303899998Y-59750000D01*
X289725001Y-49774999D02*
X293924997Y-49774999D01*
X288375000Y-52125000D02*
X288375000Y-51125000D01*
X288375000Y-51125000D02*
X289725001Y-49774999D01*
X305799998Y-62850000D02*
X304999998Y-62050000D01*
X307200000Y-62850000D02*
X305799998Y-62850000D01*
X308180000Y-64135000D02*
X308180000Y-63830000D01*
X308180000Y-63830000D02*
X307200000Y-62850000D01*
X303090000Y-64125000D02*
X303100000Y-64135000D01*
X303090000Y-61850000D02*
X303090000Y-64125000D01*
X298879989Y-66148598D02*
X298879989Y-70689989D01*
X303100000Y-64135000D02*
X300893587Y-64135000D01*
X301585000Y-74345000D02*
X301585000Y-75320000D01*
X300893587Y-64135000D02*
X298879989Y-66148598D01*
X301585000Y-73395000D02*
X301585000Y-74345000D01*
X298879989Y-70689989D02*
X301585000Y-73395000D01*
X289950000Y-48650000D02*
X289900000Y-48600000D01*
X287125000Y-49975000D02*
X287125000Y-52125000D01*
X288500000Y-48600000D02*
X287125000Y-49975000D01*
X289900000Y-48600000D02*
X288500000Y-48600000D01*
X303100000Y-64135000D02*
X303100000Y-63380000D01*
X301400000Y-61680000D02*
X301400000Y-61600000D01*
X303100000Y-63380000D02*
X301400000Y-61680000D01*
X308190000Y-90375000D02*
X308140000Y-90425000D01*
X308190000Y-85500000D02*
X308190000Y-90375000D01*
X300590000Y-99350000D02*
X302590000Y-99350000D01*
X302590000Y-99350000D02*
X302600000Y-99340000D01*
X300670000Y-96590000D02*
X300550000Y-96470000D01*
X302540000Y-96590000D02*
X300670000Y-96590000D01*
X308130000Y-96510000D02*
X308150000Y-96510000D01*
X308150000Y-96510000D02*
X309260000Y-97620000D01*
X300590000Y-99980000D02*
X300590000Y-99350000D01*
X302540000Y-101930000D02*
X300590000Y-99980000D01*
X310074991Y-95369999D02*
X310474990Y-94970000D01*
X308934990Y-96510000D02*
X310074991Y-95369999D01*
X308130000Y-96510000D02*
X308934990Y-96510000D01*
X297970000Y-90435000D02*
X297980000Y-90425000D01*
X297970000Y-93600000D02*
X297970000Y-90435000D01*
X297990000Y-96510000D02*
X297950000Y-96470000D01*
X297990000Y-99350000D02*
X297990000Y-96510000D01*
X305530000Y-93630000D02*
X305550000Y-93610000D01*
X305530000Y-96510000D02*
X305530000Y-93630000D01*
X305550000Y-87165000D02*
X305600000Y-87115000D01*
X305550000Y-93610000D02*
X305550000Y-87165000D01*
X303060000Y-88920000D02*
X303060000Y-90425000D01*
X303060000Y-88905000D02*
X303060000Y-88920000D01*
X304850000Y-87115000D02*
X303060000Y-88905000D01*
X305600000Y-87115000D02*
X304850000Y-87115000D01*
X297950000Y-96470000D02*
X297180000Y-96470000D01*
X297180000Y-96470000D02*
X295980000Y-95270000D01*
X297980000Y-90425000D02*
X297980000Y-88580000D01*
X297799999Y-88399999D02*
X297400000Y-88000000D01*
X297980000Y-88580000D02*
X297799999Y-88399999D01*
X297950000Y-97317592D02*
X298552408Y-97920000D01*
X297950000Y-96470000D02*
X297950000Y-97317592D01*
X304120000Y-97920000D02*
X305530000Y-96510000D01*
X298552408Y-97920000D02*
X304120000Y-97920000D01*
X308200000Y-60950000D02*
X308210000Y-60960000D01*
X303090000Y-60950000D02*
X308200000Y-60950000D01*
X301585000Y-82345000D02*
X301585000Y-79720000D01*
X305600000Y-87115000D02*
X305600000Y-86360000D01*
X305600000Y-86360000D02*
X301585000Y-82345000D01*
X289625000Y-51375000D02*
X289625000Y-52125000D01*
X303090000Y-60950000D02*
X302990000Y-60950000D01*
X299835000Y-57795000D02*
X299795000Y-57795000D01*
X299795000Y-57795000D02*
X292800000Y-50800000D01*
X302990000Y-60950000D02*
X299835000Y-57795000D01*
X292800000Y-50800000D02*
X290200000Y-50800000D01*
X290200000Y-50800000D02*
X289625000Y-51375000D01*
X305530000Y-97357592D02*
X305530000Y-96510000D01*
X306552408Y-98380000D02*
X305530000Y-97357592D01*
X310100000Y-98380000D02*
X306552408Y-98380000D01*
X311200000Y-97280000D02*
X310100000Y-98380000D01*
X311200000Y-63400000D02*
X311200000Y-97280000D01*
X308210000Y-60960000D02*
X308760000Y-60960000D01*
X308760000Y-60960000D02*
X311200000Y-63400000D01*
X306830000Y-96050364D02*
X307740364Y-95140000D01*
X306830000Y-96510000D02*
X306830000Y-96050364D01*
X307740364Y-95140000D02*
X308630000Y-95140000D01*
X308630000Y-95140000D02*
X309270000Y-94500000D01*
X309270000Y-94500000D02*
X309270000Y-74240000D01*
X305640000Y-70610000D02*
X305640000Y-67445000D01*
X309270000Y-74240000D02*
X305640000Y-70610000D01*
X306850000Y-93610000D02*
X306850000Y-76630000D01*
X300560000Y-70340000D02*
X300560000Y-67445000D01*
X306850000Y-76630000D02*
X300560000Y-70340000D01*
X300935000Y-82285000D02*
X300935000Y-79720000D01*
X299310000Y-83910000D02*
X300935000Y-82285000D01*
X299310000Y-93490000D02*
X299310000Y-83910000D01*
X299270000Y-93600000D02*
X299420000Y-93600000D01*
X299420000Y-93600000D02*
X299310000Y-93490000D01*
X299290000Y-100350000D02*
X298280000Y-101360000D01*
X299290000Y-99350000D02*
X299290000Y-100350000D01*
X298280000Y-101360000D02*
X296980000Y-101360000D01*
X296980000Y-101360000D02*
X294240000Y-98620000D01*
X299635000Y-80695000D02*
X299635000Y-79720000D01*
X294240000Y-86090000D02*
X299635000Y-80695000D01*
X294240000Y-98620000D02*
X294240000Y-86090000D01*
X300285000Y-80695000D02*
X300285000Y-79720000D01*
X299250000Y-95470000D02*
X298840000Y-95060000D01*
X298840000Y-95060000D02*
X297260000Y-95060000D01*
X300285000Y-81655000D02*
X300285000Y-80695000D01*
X297260000Y-95060000D02*
X296660000Y-94460000D01*
X296660000Y-94460000D02*
X296660000Y-85280000D01*
X299250000Y-96470000D02*
X299250000Y-95470000D01*
X296660000Y-85280000D02*
X300285000Y-81655000D01*
D23*
G36*
X349140001Y-45408517D02*
G01*
X348840926Y-44960920D01*
X348439080Y-44559074D01*
X347966560Y-44243346D01*
X347441523Y-44025869D01*
X346884148Y-43915000D01*
X346315852Y-43915000D01*
X345758477Y-44025869D01*
X345233440Y-44243346D01*
X344760920Y-44559074D01*
X344359074Y-44960920D01*
X344043346Y-45433440D01*
X343825869Y-45958477D01*
X343715000Y-46515852D01*
X343715000Y-47084148D01*
X343825869Y-47641523D01*
X344043346Y-48166560D01*
X344359074Y-48639080D01*
X344760920Y-49040926D01*
X345233440Y-49356654D01*
X345758477Y-49574131D01*
X346315852Y-49685000D01*
X346884148Y-49685000D01*
X347441523Y-49574131D01*
X347966560Y-49356654D01*
X348439080Y-49040926D01*
X348840926Y-48639080D01*
X349140001Y-48191483D01*
X349140000Y-106408516D01*
X348840926Y-105960920D01*
X348439080Y-105559074D01*
X347966560Y-105243346D01*
X347441523Y-105025869D01*
X346884148Y-104915000D01*
X346315852Y-104915000D01*
X345758477Y-105025869D01*
X345233440Y-105243346D01*
X344760920Y-105559074D01*
X344359074Y-105960920D01*
X344043346Y-106433440D01*
X343825869Y-106958477D01*
X343715000Y-107515852D01*
X343715000Y-108084148D01*
X343825869Y-108641523D01*
X344043346Y-109166560D01*
X344359074Y-109639080D01*
X344760920Y-110040926D01*
X345233440Y-110356654D01*
X345758477Y-110574131D01*
X346315852Y-110685000D01*
X346884148Y-110685000D01*
X347441523Y-110574131D01*
X347966560Y-110356654D01*
X348439080Y-110040926D01*
X348840926Y-109639080D01*
X349140000Y-109191484D01*
X349140000Y-117940000D01*
X252500000Y-117940000D01*
X252500000Y-109061913D01*
X252543346Y-109166560D01*
X252859074Y-109639080D01*
X253260920Y-110040926D01*
X253733440Y-110356654D01*
X254258477Y-110574131D01*
X254815852Y-110685000D01*
X255384148Y-110685000D01*
X255941523Y-110574131D01*
X256466560Y-110356654D01*
X256939080Y-110040926D01*
X257340926Y-109639080D01*
X257656654Y-109166560D01*
X257874131Y-108641523D01*
X257985000Y-108084148D01*
X257985000Y-108036456D01*
X280575000Y-108036456D01*
X280575000Y-108683544D01*
X280701240Y-109318199D01*
X280948871Y-109916031D01*
X281308374Y-110454066D01*
X281765934Y-110911626D01*
X282303969Y-111271129D01*
X282901801Y-111518760D01*
X283536456Y-111645000D01*
X284183544Y-111645000D01*
X284818199Y-111518760D01*
X285416031Y-111271129D01*
X285954066Y-110911626D01*
X286411626Y-110454066D01*
X286771129Y-109916031D01*
X287018760Y-109318199D01*
X287145000Y-108683544D01*
X287145000Y-108389872D01*
X291275000Y-108389872D01*
X291275000Y-108830128D01*
X291360890Y-109261925D01*
X291529369Y-109668669D01*
X291773962Y-110034729D01*
X292085271Y-110346038D01*
X292451331Y-110590631D01*
X292858075Y-110759110D01*
X293289872Y-110845000D01*
X293730128Y-110845000D01*
X294161925Y-110759110D01*
X294568669Y-110590631D01*
X294934729Y-110346038D01*
X295246038Y-110034729D01*
X295490631Y-109668669D01*
X295659110Y-109261925D01*
X295745000Y-108830128D01*
X295745000Y-108389872D01*
X295659110Y-107958075D01*
X295490631Y-107551331D01*
X295246038Y-107185271D01*
X294934729Y-106873962D01*
X294568669Y-106629369D01*
X294161925Y-106460890D01*
X293730128Y-106375000D01*
X293289872Y-106375000D01*
X292858075Y-106460890D01*
X292451331Y-106629369D01*
X292085271Y-106873962D01*
X291773962Y-107185271D01*
X291529369Y-107551331D01*
X291360890Y-107958075D01*
X291275000Y-108389872D01*
X287145000Y-108389872D01*
X287145000Y-108036456D01*
X287018760Y-107401801D01*
X286771129Y-106803969D01*
X286411626Y-106265934D01*
X285954066Y-105808374D01*
X285416031Y-105448871D01*
X284818199Y-105201240D01*
X284183544Y-105075000D01*
X283536456Y-105075000D01*
X282901801Y-105201240D01*
X282303969Y-105448871D01*
X281765934Y-105808374D01*
X281308374Y-106265934D01*
X280948871Y-106803969D01*
X280701240Y-107401801D01*
X280575000Y-108036456D01*
X257985000Y-108036456D01*
X257985000Y-107515852D01*
X257874131Y-106958477D01*
X257656654Y-106433440D01*
X257340926Y-105960920D01*
X256939080Y-105559074D01*
X256466560Y-105243346D01*
X255941523Y-105025869D01*
X255384148Y-104915000D01*
X254815852Y-104915000D01*
X254258477Y-105025869D01*
X253733440Y-105243346D01*
X253260920Y-105559074D01*
X252859074Y-105960920D01*
X252543346Y-106433440D01*
X252500000Y-106538087D01*
X252500000Y-103980000D01*
X281307581Y-103980000D01*
X281340000Y-103983193D01*
X281372419Y-103980000D01*
X281469383Y-103970450D01*
X281593793Y-103932710D01*
X281708450Y-103871425D01*
X281808948Y-103788948D01*
X281891425Y-103688450D01*
X281952710Y-103573793D01*
X281990450Y-103449383D01*
X282003193Y-103320000D01*
X282000000Y-103287581D01*
X282000000Y-66190000D01*
X294341928Y-66190000D01*
X294341928Y-68700000D01*
X294354188Y-68824482D01*
X294390498Y-68944180D01*
X294449463Y-69054494D01*
X294528815Y-69151185D01*
X294625506Y-69230537D01*
X294735820Y-69289502D01*
X294855518Y-69325812D01*
X294980000Y-69338072D01*
X295980000Y-69338072D01*
X296104482Y-69325812D01*
X296224180Y-69289502D01*
X296334494Y-69230537D01*
X296431185Y-69151185D01*
X296510537Y-69054494D01*
X296569502Y-68944180D01*
X296605812Y-68824482D01*
X296618072Y-68700000D01*
X296618072Y-66190000D01*
X296605812Y-66065518D01*
X296569502Y-65945820D01*
X296510537Y-65835506D01*
X296431185Y-65738815D01*
X296334494Y-65659463D01*
X296224180Y-65600498D01*
X296104482Y-65564188D01*
X295980000Y-65551928D01*
X294980000Y-65551928D01*
X294855518Y-65564188D01*
X294735820Y-65600498D01*
X294625506Y-65659463D01*
X294528815Y-65738815D01*
X294449463Y-65835506D01*
X294390498Y-65945820D01*
X294354188Y-66065518D01*
X294341928Y-66190000D01*
X282000000Y-66190000D01*
X282000000Y-65390000D01*
X291801928Y-65390000D01*
X291814188Y-65514482D01*
X291850498Y-65634180D01*
X291909463Y-65744494D01*
X291988815Y-65841185D01*
X292085506Y-65920537D01*
X292195820Y-65979502D01*
X292315518Y-66015812D01*
X292440000Y-66028072D01*
X292654250Y-66025000D01*
X292813000Y-65866250D01*
X292813000Y-64262000D01*
X293067000Y-64262000D01*
X293067000Y-65866250D01*
X293225750Y-66025000D01*
X293440000Y-66028072D01*
X293564482Y-66015812D01*
X293684180Y-65979502D01*
X293794494Y-65920537D01*
X293891185Y-65841185D01*
X293970537Y-65744494D01*
X294029502Y-65634180D01*
X294065812Y-65514482D01*
X294078072Y-65390000D01*
X294075000Y-64420750D01*
X293916250Y-64262000D01*
X293067000Y-64262000D01*
X292813000Y-64262000D01*
X291963750Y-64262000D01*
X291805000Y-64420750D01*
X291801928Y-65390000D01*
X282000000Y-65390000D01*
X282000000Y-62880000D01*
X291801928Y-62880000D01*
X291805000Y-63849250D01*
X291963750Y-64008000D01*
X292813000Y-64008000D01*
X292813000Y-62403750D01*
X293067000Y-62403750D01*
X293067000Y-64008000D01*
X293916250Y-64008000D01*
X294075000Y-63849250D01*
X294078072Y-62880000D01*
X294065812Y-62755518D01*
X294029502Y-62635820D01*
X293970537Y-62525506D01*
X293891185Y-62428815D01*
X293794494Y-62349463D01*
X293684180Y-62290498D01*
X293564482Y-62254188D01*
X293440000Y-62241928D01*
X293225750Y-62245000D01*
X293067000Y-62403750D01*
X292813000Y-62403750D01*
X292654250Y-62245000D01*
X292440000Y-62241928D01*
X292315518Y-62254188D01*
X292195820Y-62290498D01*
X292085506Y-62349463D01*
X291988815Y-62428815D01*
X291909463Y-62525506D01*
X291850498Y-62635820D01*
X291814188Y-62755518D01*
X291801928Y-62880000D01*
X282000000Y-62880000D01*
X282000000Y-56998028D01*
X282030820Y-57014502D01*
X282150518Y-57050812D01*
X282275000Y-57063072D01*
X284475000Y-57063072D01*
X284599482Y-57050812D01*
X284719180Y-57014502D01*
X284829494Y-56955537D01*
X284926185Y-56876185D01*
X285005537Y-56779494D01*
X285064502Y-56669180D01*
X285100812Y-56549482D01*
X285113072Y-56425000D01*
X285113072Y-53399436D01*
X285120506Y-53405537D01*
X285230820Y-53464502D01*
X285350518Y-53500812D01*
X285475000Y-53513072D01*
X285589250Y-53510000D01*
X285748000Y-53351250D01*
X285748000Y-52252000D01*
X284998750Y-52252000D01*
X284840000Y-52410750D01*
X284837418Y-52800966D01*
X284829494Y-52794463D01*
X284719180Y-52735498D01*
X284599482Y-52699188D01*
X284475000Y-52686928D01*
X282275000Y-52686928D01*
X282150518Y-52699188D01*
X282030820Y-52735498D01*
X282000000Y-52751972D01*
X282000000Y-51375000D01*
X284836928Y-51375000D01*
X284840000Y-51839250D01*
X284998750Y-51998000D01*
X285748000Y-51998000D01*
X285748000Y-50898750D01*
X286002000Y-50898750D01*
X286002000Y-51998000D01*
X286022000Y-51998000D01*
X286022000Y-52252000D01*
X286002000Y-52252000D01*
X286002000Y-53351250D01*
X286160750Y-53510000D01*
X286275000Y-53513072D01*
X286399482Y-53500812D01*
X286500000Y-53470320D01*
X286600518Y-53500812D01*
X286725000Y-53513072D01*
X287525000Y-53513072D01*
X287649482Y-53500812D01*
X287750000Y-53470320D01*
X287850518Y-53500812D01*
X287975000Y-53513072D01*
X288775000Y-53513072D01*
X288899482Y-53500812D01*
X289000000Y-53470320D01*
X289100518Y-53500812D01*
X289225000Y-53513072D01*
X290025000Y-53513072D01*
X290149482Y-53500812D01*
X290269180Y-53464502D01*
X290379494Y-53405537D01*
X290386928Y-53399436D01*
X290386928Y-56425000D01*
X290399188Y-56549482D01*
X290435498Y-56669180D01*
X290494463Y-56779494D01*
X290573815Y-56876185D01*
X290670506Y-56955537D01*
X290780820Y-57014502D01*
X290900518Y-57050812D01*
X291025000Y-57063072D01*
X293225000Y-57063072D01*
X293349482Y-57050812D01*
X293469180Y-57014502D01*
X293579494Y-56955537D01*
X293676185Y-56876185D01*
X293755537Y-56779494D01*
X293814502Y-56669180D01*
X293850812Y-56549482D01*
X293863072Y-56425000D01*
X293863072Y-53325000D01*
X293850812Y-53200518D01*
X293814502Y-53080820D01*
X293755537Y-52970506D01*
X293676185Y-52873815D01*
X293579494Y-52794463D01*
X293469180Y-52735498D01*
X293349482Y-52699188D01*
X293225000Y-52686928D01*
X291025000Y-52686928D01*
X290900518Y-52699188D01*
X290780820Y-52735498D01*
X290670506Y-52794463D01*
X290663072Y-52800564D01*
X290663072Y-51560000D01*
X292485199Y-51560000D01*
X299231200Y-58306002D01*
X299254999Y-58335001D01*
X299370724Y-58429974D01*
X299423248Y-58458049D01*
X301537215Y-60572017D01*
X301501939Y-60565000D01*
X301298061Y-60565000D01*
X301098102Y-60604774D01*
X300909744Y-60682795D01*
X300740226Y-60796063D01*
X300596063Y-60940226D01*
X300482795Y-61109744D01*
X300404774Y-61298102D01*
X300365000Y-61498061D01*
X300365000Y-61701939D01*
X300404774Y-61901898D01*
X300482795Y-62090256D01*
X300596063Y-62259774D01*
X300740226Y-62403937D01*
X300909744Y-62517205D01*
X301098102Y-62595226D01*
X301275764Y-62630565D01*
X301961928Y-63316730D01*
X301961928Y-63375000D01*
X300930920Y-63375000D01*
X300893587Y-63371323D01*
X300856254Y-63375000D01*
X300744601Y-63385997D01*
X300601340Y-63429454D01*
X300469311Y-63500026D01*
X300353586Y-63594999D01*
X300329788Y-63623997D01*
X299158072Y-64795714D01*
X299158072Y-62880000D01*
X299145812Y-62755518D01*
X299109502Y-62635820D01*
X299050537Y-62525506D01*
X298971185Y-62428815D01*
X298874494Y-62349463D01*
X298764180Y-62290498D01*
X298644482Y-62254188D01*
X298520000Y-62241928D01*
X297520000Y-62241928D01*
X297395518Y-62254188D01*
X297275820Y-62290498D01*
X297165506Y-62349463D01*
X297068815Y-62428815D01*
X296989463Y-62525506D01*
X296930498Y-62635820D01*
X296894188Y-62755518D01*
X296881928Y-62880000D01*
X296881928Y-65390000D01*
X296894188Y-65514482D01*
X296930498Y-65634180D01*
X296989463Y-65744494D01*
X297068815Y-65841185D01*
X297165506Y-65920537D01*
X297275820Y-65979502D01*
X297395518Y-66015812D01*
X297520000Y-66028072D01*
X298128183Y-66028072D01*
X298119989Y-66111266D01*
X298119989Y-66111276D01*
X298116313Y-66148598D01*
X298119989Y-66185921D01*
X298119990Y-70652657D01*
X298116313Y-70689989D01*
X298119990Y-70727322D01*
X298130987Y-70838975D01*
X298143432Y-70880001D01*
X298174443Y-70982235D01*
X298245015Y-71114265D01*
X298316190Y-71200991D01*
X298339989Y-71229990D01*
X298368987Y-71253788D01*
X300825000Y-73709802D01*
X300825001Y-73956928D01*
X300710000Y-73956928D01*
X300610000Y-73966777D01*
X300510000Y-73956928D01*
X300060000Y-73956928D01*
X299956773Y-73967095D01*
X299891750Y-73960000D01*
X299859503Y-73992247D01*
X299815820Y-74005498D01*
X299705506Y-74064463D01*
X299608815Y-74143815D01*
X299537000Y-74231322D01*
X299537000Y-74118750D01*
X299378250Y-73960000D01*
X299276004Y-73971156D01*
X299156873Y-74009285D01*
X299047469Y-74069922D01*
X298951997Y-74150737D01*
X298874126Y-74248625D01*
X298816849Y-74359825D01*
X298782366Y-74480061D01*
X298772002Y-74604715D01*
X298775000Y-75034250D01*
X298933750Y-75193000D01*
X299421928Y-75193000D01*
X299421928Y-75447000D01*
X298933750Y-75447000D01*
X298775000Y-75605750D01*
X298772002Y-76035285D01*
X298782366Y-76159939D01*
X298816849Y-76280175D01*
X298874126Y-76391375D01*
X298951997Y-76489263D01*
X299047469Y-76570078D01*
X299156873Y-76630715D01*
X299276004Y-76668844D01*
X299378250Y-76680000D01*
X299537000Y-76521250D01*
X299537000Y-76408678D01*
X299608815Y-76496185D01*
X299705506Y-76575537D01*
X299815820Y-76634502D01*
X299859503Y-76647753D01*
X299891750Y-76680000D01*
X299956773Y-76672905D01*
X300060000Y-76683072D01*
X300280674Y-76683072D01*
X300300026Y-76719276D01*
X300371201Y-76806002D01*
X300395000Y-76835001D01*
X300423998Y-76858799D01*
X301006200Y-77441002D01*
X301029999Y-77470001D01*
X301058997Y-77493799D01*
X301145724Y-77564974D01*
X301277753Y-77635546D01*
X301421014Y-77679003D01*
X301570000Y-77693677D01*
X301607333Y-77690000D01*
X302442678Y-77690000D01*
X302480000Y-77693676D01*
X302517322Y-77690000D01*
X302517333Y-77690000D01*
X302628986Y-77679003D01*
X302772247Y-77635546D01*
X302904276Y-77564974D01*
X303020001Y-77470001D01*
X303043803Y-77440998D01*
X303621004Y-76863798D01*
X303650001Y-76840001D01*
X303744974Y-76724276D01*
X303815546Y-76592247D01*
X303859003Y-76448986D01*
X303870000Y-76337333D01*
X303870000Y-76337332D01*
X303873677Y-76300000D01*
X303870000Y-76262667D01*
X303870000Y-74724802D01*
X306090001Y-76944803D01*
X306090000Y-85221928D01*
X305536731Y-85221928D01*
X302345000Y-82030199D01*
X302345000Y-80791144D01*
X302399502Y-80689180D01*
X302435812Y-80569482D01*
X302448072Y-80445000D01*
X302448072Y-78995000D01*
X302435812Y-78870518D01*
X302399502Y-78750820D01*
X302340537Y-78640506D01*
X302261185Y-78543815D01*
X302164494Y-78464463D01*
X302054180Y-78405498D01*
X301934482Y-78369188D01*
X301810000Y-78356928D01*
X301360000Y-78356928D01*
X301260000Y-78366777D01*
X301160000Y-78356928D01*
X300710000Y-78356928D01*
X300610000Y-78366777D01*
X300510000Y-78356928D01*
X300060000Y-78356928D01*
X299960000Y-78366777D01*
X299860000Y-78356928D01*
X299410000Y-78356928D01*
X299285518Y-78369188D01*
X299165820Y-78405498D01*
X299055506Y-78464463D01*
X298958815Y-78543815D01*
X298879463Y-78640506D01*
X298820498Y-78750820D01*
X298784188Y-78870518D01*
X298771928Y-78995000D01*
X298771928Y-80445000D01*
X298775359Y-80479839D01*
X293728998Y-85526201D01*
X293700000Y-85549999D01*
X293676202Y-85578997D01*
X293676201Y-85578998D01*
X293605026Y-85665724D01*
X293534454Y-85797754D01*
X293490998Y-85941015D01*
X293476324Y-86090000D01*
X293480001Y-86127332D01*
X293480001Y-88539807D01*
X293400000Y-88531928D01*
X292400000Y-88531928D01*
X292275518Y-88544188D01*
X292155820Y-88580498D01*
X292045506Y-88639463D01*
X291948815Y-88718815D01*
X291869463Y-88815506D01*
X291810498Y-88925820D01*
X291774188Y-89045518D01*
X291761928Y-89170000D01*
X291761928Y-91680000D01*
X291774188Y-91804482D01*
X291810498Y-91924180D01*
X291869463Y-92034494D01*
X291948815Y-92131185D01*
X292045506Y-92210537D01*
X292155820Y-92269502D01*
X292275518Y-92305812D01*
X292400000Y-92318072D01*
X293400000Y-92318072D01*
X293480001Y-92310193D01*
X293480000Y-98582678D01*
X293476324Y-98620000D01*
X293480000Y-98657322D01*
X293480000Y-98657332D01*
X293490997Y-98768985D01*
X293509620Y-98830377D01*
X293534454Y-98912246D01*
X293605026Y-99044276D01*
X293630692Y-99075550D01*
X293699999Y-99160001D01*
X293729003Y-99183804D01*
X296416201Y-101871003D01*
X296439999Y-101900001D01*
X296555724Y-101994974D01*
X296687753Y-102065546D01*
X296831014Y-102109003D01*
X296942667Y-102120000D01*
X296942676Y-102120000D01*
X296979999Y-102123676D01*
X297017322Y-102120000D01*
X298242678Y-102120000D01*
X298280000Y-102123676D01*
X298317322Y-102120000D01*
X298317333Y-102120000D01*
X298428986Y-102109003D01*
X298572247Y-102065546D01*
X298704276Y-101994974D01*
X298820001Y-101900001D01*
X298843804Y-101870998D01*
X299801003Y-100913799D01*
X299830001Y-100890001D01*
X299924974Y-100774276D01*
X299957923Y-100712634D01*
X300034180Y-100689502D01*
X300144494Y-100630537D01*
X300241185Y-100551185D01*
X300320537Y-100454494D01*
X300379502Y-100344180D01*
X300415812Y-100224482D01*
X300428072Y-100100000D01*
X300428072Y-98680000D01*
X304082678Y-98680000D01*
X304120000Y-98683676D01*
X304157322Y-98680000D01*
X304157333Y-98680000D01*
X304268986Y-98669003D01*
X304412247Y-98625546D01*
X304544276Y-98554974D01*
X304660001Y-98460001D01*
X304683804Y-98430997D01*
X305106204Y-98008597D01*
X305988609Y-98891003D01*
X306012407Y-98920001D01*
X306128132Y-99014974D01*
X306260161Y-99085546D01*
X306403422Y-99129003D01*
X306515075Y-99140000D01*
X306515084Y-99140000D01*
X306552407Y-99143676D01*
X306589730Y-99140000D01*
X310062678Y-99140000D01*
X310100000Y-99143676D01*
X310137322Y-99140000D01*
X310137333Y-99140000D01*
X310248986Y-99129003D01*
X310392247Y-99085546D01*
X310524276Y-99014974D01*
X310640001Y-98920001D01*
X310663804Y-98890998D01*
X311490000Y-98064801D01*
X311490001Y-110470663D01*
X311486836Y-110506197D01*
X311493489Y-110567838D01*
X311499551Y-110629383D01*
X311500454Y-110632359D01*
X311500788Y-110635456D01*
X311519329Y-110694581D01*
X311537291Y-110753793D01*
X311538758Y-110756537D01*
X311539689Y-110759507D01*
X311569393Y-110813853D01*
X311598576Y-110868450D01*
X311600550Y-110870855D01*
X311602043Y-110873587D01*
X311641802Y-110921121D01*
X311681053Y-110968948D01*
X311683456Y-110970920D01*
X311685455Y-110973310D01*
X311733713Y-111012165D01*
X311781551Y-111051425D01*
X311784296Y-111052892D01*
X311786720Y-111054844D01*
X311841600Y-111083522D01*
X311896208Y-111112710D01*
X311899186Y-111113614D01*
X311901945Y-111115055D01*
X311961332Y-111132465D01*
X312020618Y-111150450D01*
X312023719Y-111150755D01*
X312026702Y-111151630D01*
X312088337Y-111157120D01*
X312150000Y-111163193D01*
X312185496Y-111159697D01*
X317470656Y-111110303D01*
X317500000Y-111113193D01*
X317535497Y-111109697D01*
X317538585Y-111109668D01*
X317567728Y-111106522D01*
X317629382Y-111100450D01*
X317632362Y-111099546D01*
X317635456Y-111099212D01*
X317694527Y-111080688D01*
X317753792Y-111062710D01*
X317756538Y-111061243D01*
X317759508Y-111060311D01*
X317813838Y-111030615D01*
X317868449Y-111001425D01*
X317870856Y-110999450D01*
X317873587Y-110997957D01*
X317921082Y-110958230D01*
X317968948Y-110918948D01*
X317970923Y-110916542D01*
X317973310Y-110914545D01*
X318012122Y-110866340D01*
X318051425Y-110818450D01*
X318052894Y-110815702D01*
X318054844Y-110813280D01*
X318083498Y-110758445D01*
X318112710Y-110703793D01*
X318113614Y-110700812D01*
X318115055Y-110698055D01*
X318132471Y-110638651D01*
X318150450Y-110579383D01*
X318150755Y-110576286D01*
X318151631Y-110573298D01*
X318157125Y-110511605D01*
X318160000Y-110482419D01*
X318160000Y-110479329D01*
X318163164Y-110443803D01*
X318160000Y-110414490D01*
X318160000Y-108389872D01*
X333865000Y-108389872D01*
X333865000Y-108830128D01*
X333950890Y-109261925D01*
X334119369Y-109668669D01*
X334363962Y-110034729D01*
X334675271Y-110346038D01*
X335041331Y-110590631D01*
X335448075Y-110759110D01*
X335879872Y-110845000D01*
X336320128Y-110845000D01*
X336751925Y-110759110D01*
X337158669Y-110590631D01*
X337524729Y-110346038D01*
X337836038Y-110034729D01*
X338080631Y-109668669D01*
X338249110Y-109261925D01*
X338335000Y-108830128D01*
X338335000Y-108389872D01*
X338249110Y-107958075D01*
X338080631Y-107551331D01*
X337836038Y-107185271D01*
X337524729Y-106873962D01*
X337158669Y-106629369D01*
X336751925Y-106460890D01*
X336320128Y-106375000D01*
X335879872Y-106375000D01*
X335448075Y-106460890D01*
X335041331Y-106629369D01*
X334675271Y-106873962D01*
X334363962Y-107185271D01*
X334119369Y-107551331D01*
X333950890Y-107958075D01*
X333865000Y-108389872D01*
X318160000Y-108389872D01*
X318160000Y-90082419D01*
X318163193Y-90050000D01*
X318150450Y-89920617D01*
X318112710Y-89796207D01*
X318051425Y-89681550D01*
X317968948Y-89581052D01*
X317868450Y-89498575D01*
X317753793Y-89437290D01*
X317629383Y-89399550D01*
X317532419Y-89390000D01*
X317500000Y-89386807D01*
X317467581Y-89390000D01*
X312182419Y-89390000D01*
X312150000Y-89386807D01*
X312117581Y-89390000D01*
X312020617Y-89399550D01*
X311960000Y-89417938D01*
X311960000Y-65182075D01*
X311961332Y-65182465D01*
X312020618Y-65200450D01*
X312023719Y-65200755D01*
X312026702Y-65201630D01*
X312088337Y-65207120D01*
X312150000Y-65213193D01*
X312185496Y-65209697D01*
X317470656Y-65160303D01*
X317500000Y-65163193D01*
X317535497Y-65159697D01*
X317538585Y-65159668D01*
X317567728Y-65156522D01*
X317629382Y-65150450D01*
X317632362Y-65149546D01*
X317635456Y-65149212D01*
X317694527Y-65130688D01*
X317753792Y-65112710D01*
X317756538Y-65111243D01*
X317759508Y-65110311D01*
X317813838Y-65080615D01*
X317868449Y-65051425D01*
X317870856Y-65049450D01*
X317873587Y-65047957D01*
X317921082Y-65008230D01*
X317968948Y-64968948D01*
X317970923Y-64966542D01*
X317973310Y-64964545D01*
X318012122Y-64916340D01*
X318051425Y-64868450D01*
X318052894Y-64865702D01*
X318054844Y-64863280D01*
X318083498Y-64808445D01*
X318112710Y-64753793D01*
X318113614Y-64750812D01*
X318115055Y-64748055D01*
X318132471Y-64688651D01*
X318150450Y-64629383D01*
X318150755Y-64626286D01*
X318151631Y-64623298D01*
X318157125Y-64561605D01*
X318160000Y-64532419D01*
X318160000Y-64529329D01*
X318163164Y-64493803D01*
X318160000Y-64464490D01*
X318160000Y-45769872D01*
X333865000Y-45769872D01*
X333865000Y-46210128D01*
X333950890Y-46641925D01*
X334119369Y-47048669D01*
X334363962Y-47414729D01*
X334675271Y-47726038D01*
X335041331Y-47970631D01*
X335448075Y-48139110D01*
X335879872Y-48225000D01*
X336320128Y-48225000D01*
X336751925Y-48139110D01*
X337158669Y-47970631D01*
X337524729Y-47726038D01*
X337836038Y-47414729D01*
X338080631Y-47048669D01*
X338249110Y-46641925D01*
X338335000Y-46210128D01*
X338335000Y-45769872D01*
X338249110Y-45338075D01*
X338080631Y-44931331D01*
X337836038Y-44565271D01*
X337524729Y-44253962D01*
X337158669Y-44009369D01*
X336751925Y-43840890D01*
X336320128Y-43755000D01*
X335879872Y-43755000D01*
X335448075Y-43840890D01*
X335041331Y-44009369D01*
X334675271Y-44253962D01*
X334363962Y-44565271D01*
X334119369Y-44931331D01*
X333950890Y-45338075D01*
X333865000Y-45769872D01*
X318160000Y-45769872D01*
X318160000Y-44238317D01*
X318163086Y-44211840D01*
X318160000Y-44173501D01*
X318160000Y-44167581D01*
X318157392Y-44141103D01*
X318152655Y-44082251D01*
X318151033Y-44076540D01*
X318150450Y-44070617D01*
X318133274Y-44013998D01*
X318117143Y-43957187D01*
X318114437Y-43951899D01*
X318112710Y-43946207D01*
X318084826Y-43894040D01*
X318057915Y-43841455D01*
X318054230Y-43836797D01*
X318051425Y-43831550D01*
X318013886Y-43785809D01*
X317977245Y-43739500D01*
X317972723Y-43735651D01*
X317968948Y-43731052D01*
X317923214Y-43693519D01*
X317878236Y-43655242D01*
X317873049Y-43652349D01*
X317868450Y-43648575D01*
X317816282Y-43620691D01*
X317764691Y-43591919D01*
X317759037Y-43590093D01*
X317753793Y-43587290D01*
X317697207Y-43570124D01*
X317640975Y-43551964D01*
X317635073Y-43551276D01*
X317629383Y-43549550D01*
X317570505Y-43543751D01*
X317544197Y-43540685D01*
X317538306Y-43540580D01*
X317500000Y-43536807D01*
X317473453Y-43539422D01*
X314738301Y-43490579D01*
X314732419Y-43490000D01*
X314705859Y-43490000D01*
X314679371Y-43489527D01*
X314673494Y-43490000D01*
X312182419Y-43490000D01*
X312150000Y-43486807D01*
X312117581Y-43490000D01*
X312020617Y-43499550D01*
X311896207Y-43537290D01*
X311781550Y-43598575D01*
X311681052Y-43681052D01*
X311598575Y-43781550D01*
X311537290Y-43896207D01*
X311499550Y-44020617D01*
X311486807Y-44150000D01*
X311490000Y-44182419D01*
X311490001Y-62615199D01*
X309323804Y-60449003D01*
X309300001Y-60419999D01*
X309184276Y-60325026D01*
X309052247Y-60254454D01*
X308908986Y-60210997D01*
X308812093Y-60201454D01*
X308754180Y-60170498D01*
X308634482Y-60134188D01*
X308510000Y-60121928D01*
X307910000Y-60121928D01*
X307785518Y-60134188D01*
X307665820Y-60170498D01*
X307629335Y-60190000D01*
X304838020Y-60190000D01*
X304895224Y-60051898D01*
X304934998Y-59851939D01*
X304934998Y-59648061D01*
X304895224Y-59448102D01*
X304817203Y-59259744D01*
X304703935Y-59090226D01*
X304559772Y-58946063D01*
X304390254Y-58832795D01*
X304201896Y-58754774D01*
X304001937Y-58715000D01*
X303939800Y-58715000D01*
X294488801Y-49264002D01*
X294464998Y-49234998D01*
X294349273Y-49140025D01*
X294217244Y-49069453D01*
X294073983Y-49025996D01*
X293962330Y-49014999D01*
X293962319Y-49014999D01*
X293924997Y-49011323D01*
X293887675Y-49014999D01*
X290919089Y-49014999D01*
X290945226Y-48951898D01*
X290985000Y-48751939D01*
X290985000Y-48548061D01*
X290945226Y-48348102D01*
X290867205Y-48159744D01*
X290753937Y-47990226D01*
X290609774Y-47846063D01*
X290440256Y-47732795D01*
X290251898Y-47654774D01*
X290051939Y-47615000D01*
X289848061Y-47615000D01*
X289648102Y-47654774D01*
X289459744Y-47732795D01*
X289299300Y-47840000D01*
X288537325Y-47840000D01*
X288500000Y-47836324D01*
X288462675Y-47840000D01*
X288462667Y-47840000D01*
X288351014Y-47850997D01*
X288207753Y-47894454D01*
X288075724Y-47965026D01*
X287959999Y-48059999D01*
X287936201Y-48088997D01*
X286614003Y-49411196D01*
X286584999Y-49434999D01*
X286545809Y-49482753D01*
X286490026Y-49550724D01*
X286439513Y-49645226D01*
X286419454Y-49682754D01*
X286375997Y-49826015D01*
X286365000Y-49937668D01*
X286365000Y-49937678D01*
X286361324Y-49975000D01*
X286365000Y-50012323D01*
X286365000Y-50745792D01*
X286275000Y-50736928D01*
X286160750Y-50740000D01*
X286002000Y-50898750D01*
X285748000Y-50898750D01*
X285589250Y-50740000D01*
X285475000Y-50736928D01*
X285350518Y-50749188D01*
X285230820Y-50785498D01*
X285120506Y-50844463D01*
X285023815Y-50923815D01*
X284944463Y-51020506D01*
X284885498Y-51130820D01*
X284849188Y-51250518D01*
X284836928Y-51375000D01*
X282000000Y-51375000D01*
X282000000Y-51312419D01*
X282003193Y-51280000D01*
X281990450Y-51150617D01*
X281952710Y-51026207D01*
X281891425Y-50911550D01*
X281808948Y-50811052D01*
X281708450Y-50728575D01*
X281593793Y-50667290D01*
X281469383Y-50629550D01*
X281372419Y-50620000D01*
X281340000Y-50616807D01*
X281307581Y-50620000D01*
X252550431Y-50620000D01*
X252552035Y-48169564D01*
X252859074Y-48629080D01*
X253260920Y-49030926D01*
X253733440Y-49346654D01*
X254258477Y-49564131D01*
X254815852Y-49675000D01*
X255384148Y-49675000D01*
X255941523Y-49564131D01*
X256466560Y-49346654D01*
X256939080Y-49030926D01*
X257340926Y-48629080D01*
X257656654Y-48156560D01*
X257874131Y-47631523D01*
X257985000Y-47074148D01*
X257985000Y-46505852D01*
X257874131Y-45948477D01*
X257800151Y-45769872D01*
X291275000Y-45769872D01*
X291275000Y-46210128D01*
X291360890Y-46641925D01*
X291529369Y-47048669D01*
X291773962Y-47414729D01*
X292085271Y-47726038D01*
X292451331Y-47970631D01*
X292858075Y-48139110D01*
X293289872Y-48225000D01*
X293730128Y-48225000D01*
X294161925Y-48139110D01*
X294568669Y-47970631D01*
X294934729Y-47726038D01*
X295246038Y-47414729D01*
X295490631Y-47048669D01*
X295659110Y-46641925D01*
X295745000Y-46210128D01*
X295745000Y-45769872D01*
X295659110Y-45338075D01*
X295490631Y-44931331D01*
X295246038Y-44565271D01*
X294934729Y-44253962D01*
X294568669Y-44009369D01*
X294161925Y-43840890D01*
X293730128Y-43755000D01*
X293289872Y-43755000D01*
X292858075Y-43840890D01*
X292451331Y-44009369D01*
X292085271Y-44253962D01*
X291773962Y-44565271D01*
X291529369Y-44931331D01*
X291360890Y-45338075D01*
X291275000Y-45769872D01*
X257800151Y-45769872D01*
X257656654Y-45423440D01*
X257340926Y-44950920D01*
X256939080Y-44549074D01*
X256466560Y-44233346D01*
X255941523Y-44015869D01*
X255384148Y-43905000D01*
X254815852Y-43905000D01*
X254258477Y-44015869D01*
X253733440Y-44233346D01*
X253260920Y-44549074D01*
X252859074Y-44950920D01*
X252553843Y-45407730D01*
X252559568Y-36660000D01*
X349140001Y-36660000D01*
X349140001Y-45408517D01*
X349140001Y-45408517D01*
G37*
X349140001Y-45408517D02*
X348840926Y-44960920D01*
X348439080Y-44559074D01*
X347966560Y-44243346D01*
X347441523Y-44025869D01*
X346884148Y-43915000D01*
X346315852Y-43915000D01*
X345758477Y-44025869D01*
X345233440Y-44243346D01*
X344760920Y-44559074D01*
X344359074Y-44960920D01*
X344043346Y-45433440D01*
X343825869Y-45958477D01*
X343715000Y-46515852D01*
X343715000Y-47084148D01*
X343825869Y-47641523D01*
X344043346Y-48166560D01*
X344359074Y-48639080D01*
X344760920Y-49040926D01*
X345233440Y-49356654D01*
X345758477Y-49574131D01*
X346315852Y-49685000D01*
X346884148Y-49685000D01*
X347441523Y-49574131D01*
X347966560Y-49356654D01*
X348439080Y-49040926D01*
X348840926Y-48639080D01*
X349140001Y-48191483D01*
X349140000Y-106408516D01*
X348840926Y-105960920D01*
X348439080Y-105559074D01*
X347966560Y-105243346D01*
X347441523Y-105025869D01*
X346884148Y-104915000D01*
X346315852Y-104915000D01*
X345758477Y-105025869D01*
X345233440Y-105243346D01*
X344760920Y-105559074D01*
X344359074Y-105960920D01*
X344043346Y-106433440D01*
X343825869Y-106958477D01*
X343715000Y-107515852D01*
X343715000Y-108084148D01*
X343825869Y-108641523D01*
X344043346Y-109166560D01*
X344359074Y-109639080D01*
X344760920Y-110040926D01*
X345233440Y-110356654D01*
X345758477Y-110574131D01*
X346315852Y-110685000D01*
X346884148Y-110685000D01*
X347441523Y-110574131D01*
X347966560Y-110356654D01*
X348439080Y-110040926D01*
X348840926Y-109639080D01*
X349140000Y-109191484D01*
X349140000Y-117940000D01*
X252500000Y-117940000D01*
X252500000Y-109061913D01*
X252543346Y-109166560D01*
X252859074Y-109639080D01*
X253260920Y-110040926D01*
X253733440Y-110356654D01*
X254258477Y-110574131D01*
X254815852Y-110685000D01*
X255384148Y-110685000D01*
X255941523Y-110574131D01*
X256466560Y-110356654D01*
X256939080Y-110040926D01*
X257340926Y-109639080D01*
X257656654Y-109166560D01*
X257874131Y-108641523D01*
X257985000Y-108084148D01*
X257985000Y-108036456D01*
X280575000Y-108036456D01*
X280575000Y-108683544D01*
X280701240Y-109318199D01*
X280948871Y-109916031D01*
X281308374Y-110454066D01*
X281765934Y-110911626D01*
X282303969Y-111271129D01*
X282901801Y-111518760D01*
X283536456Y-111645000D01*
X284183544Y-111645000D01*
X284818199Y-111518760D01*
X285416031Y-111271129D01*
X285954066Y-110911626D01*
X286411626Y-110454066D01*
X286771129Y-109916031D01*
X287018760Y-109318199D01*
X287145000Y-108683544D01*
X287145000Y-108389872D01*
X291275000Y-108389872D01*
X291275000Y-108830128D01*
X291360890Y-109261925D01*
X291529369Y-109668669D01*
X291773962Y-110034729D01*
X292085271Y-110346038D01*
X292451331Y-110590631D01*
X292858075Y-110759110D01*
X293289872Y-110845000D01*
X293730128Y-110845000D01*
X294161925Y-110759110D01*
X294568669Y-110590631D01*
X294934729Y-110346038D01*
X295246038Y-110034729D01*
X295490631Y-109668669D01*
X295659110Y-109261925D01*
X295745000Y-108830128D01*
X295745000Y-108389872D01*
X295659110Y-107958075D01*
X295490631Y-107551331D01*
X295246038Y-107185271D01*
X294934729Y-106873962D01*
X294568669Y-106629369D01*
X294161925Y-106460890D01*
X293730128Y-106375000D01*
X293289872Y-106375000D01*
X292858075Y-106460890D01*
X292451331Y-106629369D01*
X292085271Y-106873962D01*
X291773962Y-107185271D01*
X291529369Y-107551331D01*
X291360890Y-107958075D01*
X291275000Y-108389872D01*
X287145000Y-108389872D01*
X287145000Y-108036456D01*
X287018760Y-107401801D01*
X286771129Y-106803969D01*
X286411626Y-106265934D01*
X285954066Y-105808374D01*
X285416031Y-105448871D01*
X284818199Y-105201240D01*
X284183544Y-105075000D01*
X283536456Y-105075000D01*
X282901801Y-105201240D01*
X282303969Y-105448871D01*
X281765934Y-105808374D01*
X281308374Y-106265934D01*
X280948871Y-106803969D01*
X280701240Y-107401801D01*
X280575000Y-108036456D01*
X257985000Y-108036456D01*
X257985000Y-107515852D01*
X257874131Y-106958477D01*
X257656654Y-106433440D01*
X257340926Y-105960920D01*
X256939080Y-105559074D01*
X256466560Y-105243346D01*
X255941523Y-105025869D01*
X255384148Y-104915000D01*
X254815852Y-104915000D01*
X254258477Y-105025869D01*
X253733440Y-105243346D01*
X253260920Y-105559074D01*
X252859074Y-105960920D01*
X252543346Y-106433440D01*
X252500000Y-106538087D01*
X252500000Y-103980000D01*
X281307581Y-103980000D01*
X281340000Y-103983193D01*
X281372419Y-103980000D01*
X281469383Y-103970450D01*
X281593793Y-103932710D01*
X281708450Y-103871425D01*
X281808948Y-103788948D01*
X281891425Y-103688450D01*
X281952710Y-103573793D01*
X281990450Y-103449383D01*
X282003193Y-103320000D01*
X282000000Y-103287581D01*
X282000000Y-66190000D01*
X294341928Y-66190000D01*
X294341928Y-68700000D01*
X294354188Y-68824482D01*
X294390498Y-68944180D01*
X294449463Y-69054494D01*
X294528815Y-69151185D01*
X294625506Y-69230537D01*
X294735820Y-69289502D01*
X294855518Y-69325812D01*
X294980000Y-69338072D01*
X295980000Y-69338072D01*
X296104482Y-69325812D01*
X296224180Y-69289502D01*
X296334494Y-69230537D01*
X296431185Y-69151185D01*
X296510537Y-69054494D01*
X296569502Y-68944180D01*
X296605812Y-68824482D01*
X296618072Y-68700000D01*
X296618072Y-66190000D01*
X296605812Y-66065518D01*
X296569502Y-65945820D01*
X296510537Y-65835506D01*
X296431185Y-65738815D01*
X296334494Y-65659463D01*
X296224180Y-65600498D01*
X296104482Y-65564188D01*
X295980000Y-65551928D01*
X294980000Y-65551928D01*
X294855518Y-65564188D01*
X294735820Y-65600498D01*
X294625506Y-65659463D01*
X294528815Y-65738815D01*
X294449463Y-65835506D01*
X294390498Y-65945820D01*
X294354188Y-66065518D01*
X294341928Y-66190000D01*
X282000000Y-66190000D01*
X282000000Y-65390000D01*
X291801928Y-65390000D01*
X291814188Y-65514482D01*
X291850498Y-65634180D01*
X291909463Y-65744494D01*
X291988815Y-65841185D01*
X292085506Y-65920537D01*
X292195820Y-65979502D01*
X292315518Y-66015812D01*
X292440000Y-66028072D01*
X292654250Y-66025000D01*
X292813000Y-65866250D01*
X292813000Y-64262000D01*
X293067000Y-64262000D01*
X293067000Y-65866250D01*
X293225750Y-66025000D01*
X293440000Y-66028072D01*
X293564482Y-66015812D01*
X293684180Y-65979502D01*
X293794494Y-65920537D01*
X293891185Y-65841185D01*
X293970537Y-65744494D01*
X294029502Y-65634180D01*
X294065812Y-65514482D01*
X294078072Y-65390000D01*
X294075000Y-64420750D01*
X293916250Y-64262000D01*
X293067000Y-64262000D01*
X292813000Y-64262000D01*
X291963750Y-64262000D01*
X291805000Y-64420750D01*
X291801928Y-65390000D01*
X282000000Y-65390000D01*
X282000000Y-62880000D01*
X291801928Y-62880000D01*
X291805000Y-63849250D01*
X291963750Y-64008000D01*
X292813000Y-64008000D01*
X292813000Y-62403750D01*
X293067000Y-62403750D01*
X293067000Y-64008000D01*
X293916250Y-64008000D01*
X294075000Y-63849250D01*
X294078072Y-62880000D01*
X294065812Y-62755518D01*
X294029502Y-62635820D01*
X293970537Y-62525506D01*
X293891185Y-62428815D01*
X293794494Y-62349463D01*
X293684180Y-62290498D01*
X293564482Y-62254188D01*
X293440000Y-62241928D01*
X293225750Y-62245000D01*
X293067000Y-62403750D01*
X292813000Y-62403750D01*
X292654250Y-62245000D01*
X292440000Y-62241928D01*
X292315518Y-62254188D01*
X292195820Y-62290498D01*
X292085506Y-62349463D01*
X291988815Y-62428815D01*
X291909463Y-62525506D01*
X291850498Y-62635820D01*
X291814188Y-62755518D01*
X291801928Y-62880000D01*
X282000000Y-62880000D01*
X282000000Y-56998028D01*
X282030820Y-57014502D01*
X282150518Y-57050812D01*
X282275000Y-57063072D01*
X284475000Y-57063072D01*
X284599482Y-57050812D01*
X284719180Y-57014502D01*
X284829494Y-56955537D01*
X284926185Y-56876185D01*
X285005537Y-56779494D01*
X285064502Y-56669180D01*
X285100812Y-56549482D01*
X285113072Y-56425000D01*
X285113072Y-53399436D01*
X285120506Y-53405537D01*
X285230820Y-53464502D01*
X285350518Y-53500812D01*
X285475000Y-53513072D01*
X285589250Y-53510000D01*
X285748000Y-53351250D01*
X285748000Y-52252000D01*
X284998750Y-52252000D01*
X284840000Y-52410750D01*
X284837418Y-52800966D01*
X284829494Y-52794463D01*
X284719180Y-52735498D01*
X284599482Y-52699188D01*
X284475000Y-52686928D01*
X282275000Y-52686928D01*
X282150518Y-52699188D01*
X282030820Y-52735498D01*
X282000000Y-52751972D01*
X282000000Y-51375000D01*
X284836928Y-51375000D01*
X284840000Y-51839250D01*
X284998750Y-51998000D01*
X285748000Y-51998000D01*
X285748000Y-50898750D01*
X286002000Y-50898750D01*
X286002000Y-51998000D01*
X286022000Y-51998000D01*
X286022000Y-52252000D01*
X286002000Y-52252000D01*
X286002000Y-53351250D01*
X286160750Y-53510000D01*
X286275000Y-53513072D01*
X286399482Y-53500812D01*
X286500000Y-53470320D01*
X286600518Y-53500812D01*
X286725000Y-53513072D01*
X287525000Y-53513072D01*
X287649482Y-53500812D01*
X287750000Y-53470320D01*
X287850518Y-53500812D01*
X287975000Y-53513072D01*
X288775000Y-53513072D01*
X288899482Y-53500812D01*
X289000000Y-53470320D01*
X289100518Y-53500812D01*
X289225000Y-53513072D01*
X290025000Y-53513072D01*
X290149482Y-53500812D01*
X290269180Y-53464502D01*
X290379494Y-53405537D01*
X290386928Y-53399436D01*
X290386928Y-56425000D01*
X290399188Y-56549482D01*
X290435498Y-56669180D01*
X290494463Y-56779494D01*
X290573815Y-56876185D01*
X290670506Y-56955537D01*
X290780820Y-57014502D01*
X290900518Y-57050812D01*
X291025000Y-57063072D01*
X293225000Y-57063072D01*
X293349482Y-57050812D01*
X293469180Y-57014502D01*
X293579494Y-56955537D01*
X293676185Y-56876185D01*
X293755537Y-56779494D01*
X293814502Y-56669180D01*
X293850812Y-56549482D01*
X293863072Y-56425000D01*
X293863072Y-53325000D01*
X293850812Y-53200518D01*
X293814502Y-53080820D01*
X293755537Y-52970506D01*
X293676185Y-52873815D01*
X293579494Y-52794463D01*
X293469180Y-52735498D01*
X293349482Y-52699188D01*
X293225000Y-52686928D01*
X291025000Y-52686928D01*
X290900518Y-52699188D01*
X290780820Y-52735498D01*
X290670506Y-52794463D01*
X290663072Y-52800564D01*
X290663072Y-51560000D01*
X292485199Y-51560000D01*
X299231200Y-58306002D01*
X299254999Y-58335001D01*
X299370724Y-58429974D01*
X299423248Y-58458049D01*
X301537215Y-60572017D01*
X301501939Y-60565000D01*
X301298061Y-60565000D01*
X301098102Y-60604774D01*
X300909744Y-60682795D01*
X300740226Y-60796063D01*
X300596063Y-60940226D01*
X300482795Y-61109744D01*
X300404774Y-61298102D01*
X300365000Y-61498061D01*
X300365000Y-61701939D01*
X300404774Y-61901898D01*
X300482795Y-62090256D01*
X300596063Y-62259774D01*
X300740226Y-62403937D01*
X300909744Y-62517205D01*
X301098102Y-62595226D01*
X301275764Y-62630565D01*
X301961928Y-63316730D01*
X301961928Y-63375000D01*
X300930920Y-63375000D01*
X300893587Y-63371323D01*
X300856254Y-63375000D01*
X300744601Y-63385997D01*
X300601340Y-63429454D01*
X300469311Y-63500026D01*
X300353586Y-63594999D01*
X300329788Y-63623997D01*
X299158072Y-64795714D01*
X299158072Y-62880000D01*
X299145812Y-62755518D01*
X299109502Y-62635820D01*
X299050537Y-62525506D01*
X298971185Y-62428815D01*
X298874494Y-62349463D01*
X298764180Y-62290498D01*
X298644482Y-62254188D01*
X298520000Y-62241928D01*
X297520000Y-62241928D01*
X297395518Y-62254188D01*
X297275820Y-62290498D01*
X297165506Y-62349463D01*
X297068815Y-62428815D01*
X296989463Y-62525506D01*
X296930498Y-62635820D01*
X296894188Y-62755518D01*
X296881928Y-62880000D01*
X296881928Y-65390000D01*
X296894188Y-65514482D01*
X296930498Y-65634180D01*
X296989463Y-65744494D01*
X297068815Y-65841185D01*
X297165506Y-65920537D01*
X297275820Y-65979502D01*
X297395518Y-66015812D01*
X297520000Y-66028072D01*
X298128183Y-66028072D01*
X298119989Y-66111266D01*
X298119989Y-66111276D01*
X298116313Y-66148598D01*
X298119989Y-66185921D01*
X298119990Y-70652657D01*
X298116313Y-70689989D01*
X298119990Y-70727322D01*
X298130987Y-70838975D01*
X298143432Y-70880001D01*
X298174443Y-70982235D01*
X298245015Y-71114265D01*
X298316190Y-71200991D01*
X298339989Y-71229990D01*
X298368987Y-71253788D01*
X300825000Y-73709802D01*
X300825001Y-73956928D01*
X300710000Y-73956928D01*
X300610000Y-73966777D01*
X300510000Y-73956928D01*
X300060000Y-73956928D01*
X299956773Y-73967095D01*
X299891750Y-73960000D01*
X299859503Y-73992247D01*
X299815820Y-74005498D01*
X299705506Y-74064463D01*
X299608815Y-74143815D01*
X299537000Y-74231322D01*
X299537000Y-74118750D01*
X299378250Y-73960000D01*
X299276004Y-73971156D01*
X299156873Y-74009285D01*
X299047469Y-74069922D01*
X298951997Y-74150737D01*
X298874126Y-74248625D01*
X298816849Y-74359825D01*
X298782366Y-74480061D01*
X298772002Y-74604715D01*
X298775000Y-75034250D01*
X298933750Y-75193000D01*
X299421928Y-75193000D01*
X299421928Y-75447000D01*
X298933750Y-75447000D01*
X298775000Y-75605750D01*
X298772002Y-76035285D01*
X298782366Y-76159939D01*
X298816849Y-76280175D01*
X298874126Y-76391375D01*
X298951997Y-76489263D01*
X299047469Y-76570078D01*
X299156873Y-76630715D01*
X299276004Y-76668844D01*
X299378250Y-76680000D01*
X299537000Y-76521250D01*
X299537000Y-76408678D01*
X299608815Y-76496185D01*
X299705506Y-76575537D01*
X299815820Y-76634502D01*
X299859503Y-76647753D01*
X299891750Y-76680000D01*
X299956773Y-76672905D01*
X300060000Y-76683072D01*
X300280674Y-76683072D01*
X300300026Y-76719276D01*
X300371201Y-76806002D01*
X300395000Y-76835001D01*
X300423998Y-76858799D01*
X301006200Y-77441002D01*
X301029999Y-77470001D01*
X301058997Y-77493799D01*
X301145724Y-77564974D01*
X301277753Y-77635546D01*
X301421014Y-77679003D01*
X301570000Y-77693677D01*
X301607333Y-77690000D01*
X302442678Y-77690000D01*
X302480000Y-77693676D01*
X302517322Y-77690000D01*
X302517333Y-77690000D01*
X302628986Y-77679003D01*
X302772247Y-77635546D01*
X302904276Y-77564974D01*
X303020001Y-77470001D01*
X303043803Y-77440998D01*
X303621004Y-76863798D01*
X303650001Y-76840001D01*
X303744974Y-76724276D01*
X303815546Y-76592247D01*
X303859003Y-76448986D01*
X303870000Y-76337333D01*
X303870000Y-76337332D01*
X303873677Y-76300000D01*
X303870000Y-76262667D01*
X303870000Y-74724802D01*
X306090001Y-76944803D01*
X306090000Y-85221928D01*
X305536731Y-85221928D01*
X302345000Y-82030199D01*
X302345000Y-80791144D01*
X302399502Y-80689180D01*
X302435812Y-80569482D01*
X302448072Y-80445000D01*
X302448072Y-78995000D01*
X302435812Y-78870518D01*
X302399502Y-78750820D01*
X302340537Y-78640506D01*
X302261185Y-78543815D01*
X302164494Y-78464463D01*
X302054180Y-78405498D01*
X301934482Y-78369188D01*
X301810000Y-78356928D01*
X301360000Y-78356928D01*
X301260000Y-78366777D01*
X301160000Y-78356928D01*
X300710000Y-78356928D01*
X300610000Y-78366777D01*
X300510000Y-78356928D01*
X300060000Y-78356928D01*
X299960000Y-78366777D01*
X299860000Y-78356928D01*
X299410000Y-78356928D01*
X299285518Y-78369188D01*
X299165820Y-78405498D01*
X299055506Y-78464463D01*
X298958815Y-78543815D01*
X298879463Y-78640506D01*
X298820498Y-78750820D01*
X298784188Y-78870518D01*
X298771928Y-78995000D01*
X298771928Y-80445000D01*
X298775359Y-80479839D01*
X293728998Y-85526201D01*
X293700000Y-85549999D01*
X293676202Y-85578997D01*
X293676201Y-85578998D01*
X293605026Y-85665724D01*
X293534454Y-85797754D01*
X293490998Y-85941015D01*
X293476324Y-86090000D01*
X293480001Y-86127332D01*
X293480001Y-88539807D01*
X293400000Y-88531928D01*
X292400000Y-88531928D01*
X292275518Y-88544188D01*
X292155820Y-88580498D01*
X292045506Y-88639463D01*
X291948815Y-88718815D01*
X291869463Y-88815506D01*
X291810498Y-88925820D01*
X291774188Y-89045518D01*
X291761928Y-89170000D01*
X291761928Y-91680000D01*
X291774188Y-91804482D01*
X291810498Y-91924180D01*
X291869463Y-92034494D01*
X291948815Y-92131185D01*
X292045506Y-92210537D01*
X292155820Y-92269502D01*
X292275518Y-92305812D01*
X292400000Y-92318072D01*
X293400000Y-92318072D01*
X293480001Y-92310193D01*
X293480000Y-98582678D01*
X293476324Y-98620000D01*
X293480000Y-98657322D01*
X293480000Y-98657332D01*
X293490997Y-98768985D01*
X293509620Y-98830377D01*
X293534454Y-98912246D01*
X293605026Y-99044276D01*
X293630692Y-99075550D01*
X293699999Y-99160001D01*
X293729003Y-99183804D01*
X296416201Y-101871003D01*
X296439999Y-101900001D01*
X296555724Y-101994974D01*
X296687753Y-102065546D01*
X296831014Y-102109003D01*
X296942667Y-102120000D01*
X296942676Y-102120000D01*
X296979999Y-102123676D01*
X297017322Y-102120000D01*
X298242678Y-102120000D01*
X298280000Y-102123676D01*
X298317322Y-102120000D01*
X298317333Y-102120000D01*
X298428986Y-102109003D01*
X298572247Y-102065546D01*
X298704276Y-101994974D01*
X298820001Y-101900001D01*
X298843804Y-101870998D01*
X299801003Y-100913799D01*
X299830001Y-100890001D01*
X299924974Y-100774276D01*
X299957923Y-100712634D01*
X300034180Y-100689502D01*
X300144494Y-100630537D01*
X300241185Y-100551185D01*
X300320537Y-100454494D01*
X300379502Y-100344180D01*
X300415812Y-100224482D01*
X300428072Y-100100000D01*
X300428072Y-98680000D01*
X304082678Y-98680000D01*
X304120000Y-98683676D01*
X304157322Y-98680000D01*
X304157333Y-98680000D01*
X304268986Y-98669003D01*
X304412247Y-98625546D01*
X304544276Y-98554974D01*
X304660001Y-98460001D01*
X304683804Y-98430997D01*
X305106204Y-98008597D01*
X305988609Y-98891003D01*
X306012407Y-98920001D01*
X306128132Y-99014974D01*
X306260161Y-99085546D01*
X306403422Y-99129003D01*
X306515075Y-99140000D01*
X306515084Y-99140000D01*
X306552407Y-99143676D01*
X306589730Y-99140000D01*
X310062678Y-99140000D01*
X310100000Y-99143676D01*
X310137322Y-99140000D01*
X310137333Y-99140000D01*
X310248986Y-99129003D01*
X310392247Y-99085546D01*
X310524276Y-99014974D01*
X310640001Y-98920001D01*
X310663804Y-98890998D01*
X311490000Y-98064801D01*
X311490001Y-110470663D01*
X311486836Y-110506197D01*
X311493489Y-110567838D01*
X311499551Y-110629383D01*
X311500454Y-110632359D01*
X311500788Y-110635456D01*
X311519329Y-110694581D01*
X311537291Y-110753793D01*
X311538758Y-110756537D01*
X311539689Y-110759507D01*
X311569393Y-110813853D01*
X311598576Y-110868450D01*
X311600550Y-110870855D01*
X311602043Y-110873587D01*
X311641802Y-110921121D01*
X311681053Y-110968948D01*
X311683456Y-110970920D01*
X311685455Y-110973310D01*
X311733713Y-111012165D01*
X311781551Y-111051425D01*
X311784296Y-111052892D01*
X311786720Y-111054844D01*
X311841600Y-111083522D01*
X311896208Y-111112710D01*
X311899186Y-111113614D01*
X311901945Y-111115055D01*
X311961332Y-111132465D01*
X312020618Y-111150450D01*
X312023719Y-111150755D01*
X312026702Y-111151630D01*
X312088337Y-111157120D01*
X312150000Y-111163193D01*
X312185496Y-111159697D01*
X317470656Y-111110303D01*
X317500000Y-111113193D01*
X317535497Y-111109697D01*
X317538585Y-111109668D01*
X317567728Y-111106522D01*
X317629382Y-111100450D01*
X317632362Y-111099546D01*
X317635456Y-111099212D01*
X317694527Y-111080688D01*
X317753792Y-111062710D01*
X317756538Y-111061243D01*
X317759508Y-111060311D01*
X317813838Y-111030615D01*
X317868449Y-111001425D01*
X317870856Y-110999450D01*
X317873587Y-110997957D01*
X317921082Y-110958230D01*
X317968948Y-110918948D01*
X317970923Y-110916542D01*
X317973310Y-110914545D01*
X318012122Y-110866340D01*
X318051425Y-110818450D01*
X318052894Y-110815702D01*
X318054844Y-110813280D01*
X318083498Y-110758445D01*
X318112710Y-110703793D01*
X318113614Y-110700812D01*
X318115055Y-110698055D01*
X318132471Y-110638651D01*
X318150450Y-110579383D01*
X318150755Y-110576286D01*
X318151631Y-110573298D01*
X318157125Y-110511605D01*
X318160000Y-110482419D01*
X318160000Y-110479329D01*
X318163164Y-110443803D01*
X318160000Y-110414490D01*
X318160000Y-108389872D01*
X333865000Y-108389872D01*
X333865000Y-108830128D01*
X333950890Y-109261925D01*
X334119369Y-109668669D01*
X334363962Y-110034729D01*
X334675271Y-110346038D01*
X335041331Y-110590631D01*
X335448075Y-110759110D01*
X335879872Y-110845000D01*
X336320128Y-110845000D01*
X336751925Y-110759110D01*
X337158669Y-110590631D01*
X337524729Y-110346038D01*
X337836038Y-110034729D01*
X338080631Y-109668669D01*
X338249110Y-109261925D01*
X338335000Y-108830128D01*
X338335000Y-108389872D01*
X338249110Y-107958075D01*
X338080631Y-107551331D01*
X337836038Y-107185271D01*
X337524729Y-106873962D01*
X337158669Y-106629369D01*
X336751925Y-106460890D01*
X336320128Y-106375000D01*
X335879872Y-106375000D01*
X335448075Y-106460890D01*
X335041331Y-106629369D01*
X334675271Y-106873962D01*
X334363962Y-107185271D01*
X334119369Y-107551331D01*
X333950890Y-107958075D01*
X333865000Y-108389872D01*
X318160000Y-108389872D01*
X318160000Y-90082419D01*
X318163193Y-90050000D01*
X318150450Y-89920617D01*
X318112710Y-89796207D01*
X318051425Y-89681550D01*
X317968948Y-89581052D01*
X317868450Y-89498575D01*
X317753793Y-89437290D01*
X317629383Y-89399550D01*
X317532419Y-89390000D01*
X317500000Y-89386807D01*
X317467581Y-89390000D01*
X312182419Y-89390000D01*
X312150000Y-89386807D01*
X312117581Y-89390000D01*
X312020617Y-89399550D01*
X311960000Y-89417938D01*
X311960000Y-65182075D01*
X311961332Y-65182465D01*
X312020618Y-65200450D01*
X312023719Y-65200755D01*
X312026702Y-65201630D01*
X312088337Y-65207120D01*
X312150000Y-65213193D01*
X312185496Y-65209697D01*
X317470656Y-65160303D01*
X317500000Y-65163193D01*
X317535497Y-65159697D01*
X317538585Y-65159668D01*
X317567728Y-65156522D01*
X317629382Y-65150450D01*
X317632362Y-65149546D01*
X317635456Y-65149212D01*
X317694527Y-65130688D01*
X317753792Y-65112710D01*
X317756538Y-65111243D01*
X317759508Y-65110311D01*
X317813838Y-65080615D01*
X317868449Y-65051425D01*
X317870856Y-65049450D01*
X317873587Y-65047957D01*
X317921082Y-65008230D01*
X317968948Y-64968948D01*
X317970923Y-64966542D01*
X317973310Y-64964545D01*
X318012122Y-64916340D01*
X318051425Y-64868450D01*
X318052894Y-64865702D01*
X318054844Y-64863280D01*
X318083498Y-64808445D01*
X318112710Y-64753793D01*
X318113614Y-64750812D01*
X318115055Y-64748055D01*
X318132471Y-64688651D01*
X318150450Y-64629383D01*
X318150755Y-64626286D01*
X318151631Y-64623298D01*
X318157125Y-64561605D01*
X318160000Y-64532419D01*
X318160000Y-64529329D01*
X318163164Y-64493803D01*
X318160000Y-64464490D01*
X318160000Y-45769872D01*
X333865000Y-45769872D01*
X333865000Y-46210128D01*
X333950890Y-46641925D01*
X334119369Y-47048669D01*
X334363962Y-47414729D01*
X334675271Y-47726038D01*
X335041331Y-47970631D01*
X335448075Y-48139110D01*
X335879872Y-48225000D01*
X336320128Y-48225000D01*
X336751925Y-48139110D01*
X337158669Y-47970631D01*
X337524729Y-47726038D01*
X337836038Y-47414729D01*
X338080631Y-47048669D01*
X338249110Y-46641925D01*
X338335000Y-46210128D01*
X338335000Y-45769872D01*
X338249110Y-45338075D01*
X338080631Y-44931331D01*
X337836038Y-44565271D01*
X337524729Y-44253962D01*
X337158669Y-44009369D01*
X336751925Y-43840890D01*
X336320128Y-43755000D01*
X335879872Y-43755000D01*
X335448075Y-43840890D01*
X335041331Y-44009369D01*
X334675271Y-44253962D01*
X334363962Y-44565271D01*
X334119369Y-44931331D01*
X333950890Y-45338075D01*
X333865000Y-45769872D01*
X318160000Y-45769872D01*
X318160000Y-44238317D01*
X318163086Y-44211840D01*
X318160000Y-44173501D01*
X318160000Y-44167581D01*
X318157392Y-44141103D01*
X318152655Y-44082251D01*
X318151033Y-44076540D01*
X318150450Y-44070617D01*
X318133274Y-44013998D01*
X318117143Y-43957187D01*
X318114437Y-43951899D01*
X318112710Y-43946207D01*
X318084826Y-43894040D01*
X318057915Y-43841455D01*
X318054230Y-43836797D01*
X318051425Y-43831550D01*
X318013886Y-43785809D01*
X317977245Y-43739500D01*
X317972723Y-43735651D01*
X317968948Y-43731052D01*
X317923214Y-43693519D01*
X317878236Y-43655242D01*
X317873049Y-43652349D01*
X317868450Y-43648575D01*
X317816282Y-43620691D01*
X317764691Y-43591919D01*
X317759037Y-43590093D01*
X317753793Y-43587290D01*
X317697207Y-43570124D01*
X317640975Y-43551964D01*
X317635073Y-43551276D01*
X317629383Y-43549550D01*
X317570505Y-43543751D01*
X317544197Y-43540685D01*
X317538306Y-43540580D01*
X317500000Y-43536807D01*
X317473453Y-43539422D01*
X314738301Y-43490579D01*
X314732419Y-43490000D01*
X314705859Y-43490000D01*
X314679371Y-43489527D01*
X314673494Y-43490000D01*
X312182419Y-43490000D01*
X312150000Y-43486807D01*
X312117581Y-43490000D01*
X312020617Y-43499550D01*
X311896207Y-43537290D01*
X311781550Y-43598575D01*
X311681052Y-43681052D01*
X311598575Y-43781550D01*
X311537290Y-43896207D01*
X311499550Y-44020617D01*
X311486807Y-44150000D01*
X311490000Y-44182419D01*
X311490001Y-62615199D01*
X309323804Y-60449003D01*
X309300001Y-60419999D01*
X309184276Y-60325026D01*
X309052247Y-60254454D01*
X308908986Y-60210997D01*
X308812093Y-60201454D01*
X308754180Y-60170498D01*
X308634482Y-60134188D01*
X308510000Y-60121928D01*
X307910000Y-60121928D01*
X307785518Y-60134188D01*
X307665820Y-60170498D01*
X307629335Y-60190000D01*
X304838020Y-60190000D01*
X304895224Y-60051898D01*
X304934998Y-59851939D01*
X304934998Y-59648061D01*
X304895224Y-59448102D01*
X304817203Y-59259744D01*
X304703935Y-59090226D01*
X304559772Y-58946063D01*
X304390254Y-58832795D01*
X304201896Y-58754774D01*
X304001937Y-58715000D01*
X303939800Y-58715000D01*
X294488801Y-49264002D01*
X294464998Y-49234998D01*
X294349273Y-49140025D01*
X294217244Y-49069453D01*
X294073983Y-49025996D01*
X293962330Y-49014999D01*
X293962319Y-49014999D01*
X293924997Y-49011323D01*
X293887675Y-49014999D01*
X290919089Y-49014999D01*
X290945226Y-48951898D01*
X290985000Y-48751939D01*
X290985000Y-48548061D01*
X290945226Y-48348102D01*
X290867205Y-48159744D01*
X290753937Y-47990226D01*
X290609774Y-47846063D01*
X290440256Y-47732795D01*
X290251898Y-47654774D01*
X290051939Y-47615000D01*
X289848061Y-47615000D01*
X289648102Y-47654774D01*
X289459744Y-47732795D01*
X289299300Y-47840000D01*
X288537325Y-47840000D01*
X288500000Y-47836324D01*
X288462675Y-47840000D01*
X288462667Y-47840000D01*
X288351014Y-47850997D01*
X288207753Y-47894454D01*
X288075724Y-47965026D01*
X287959999Y-48059999D01*
X287936201Y-48088997D01*
X286614003Y-49411196D01*
X286584999Y-49434999D01*
X286545809Y-49482753D01*
X286490026Y-49550724D01*
X286439513Y-49645226D01*
X286419454Y-49682754D01*
X286375997Y-49826015D01*
X286365000Y-49937668D01*
X286365000Y-49937678D01*
X286361324Y-49975000D01*
X286365000Y-50012323D01*
X286365000Y-50745792D01*
X286275000Y-50736928D01*
X286160750Y-50740000D01*
X286002000Y-50898750D01*
X285748000Y-50898750D01*
X285589250Y-50740000D01*
X285475000Y-50736928D01*
X285350518Y-50749188D01*
X285230820Y-50785498D01*
X285120506Y-50844463D01*
X285023815Y-50923815D01*
X284944463Y-51020506D01*
X284885498Y-51130820D01*
X284849188Y-51250518D01*
X284836928Y-51375000D01*
X282000000Y-51375000D01*
X282000000Y-51312419D01*
X282003193Y-51280000D01*
X281990450Y-51150617D01*
X281952710Y-51026207D01*
X281891425Y-50911550D01*
X281808948Y-50811052D01*
X281708450Y-50728575D01*
X281593793Y-50667290D01*
X281469383Y-50629550D01*
X281372419Y-50620000D01*
X281340000Y-50616807D01*
X281307581Y-50620000D01*
X252550431Y-50620000D01*
X252552035Y-48169564D01*
X252859074Y-48629080D01*
X253260920Y-49030926D01*
X253733440Y-49346654D01*
X254258477Y-49564131D01*
X254815852Y-49675000D01*
X255384148Y-49675000D01*
X255941523Y-49564131D01*
X256466560Y-49346654D01*
X256939080Y-49030926D01*
X257340926Y-48629080D01*
X257656654Y-48156560D01*
X257874131Y-47631523D01*
X257985000Y-47074148D01*
X257985000Y-46505852D01*
X257874131Y-45948477D01*
X257800151Y-45769872D01*
X291275000Y-45769872D01*
X291275000Y-46210128D01*
X291360890Y-46641925D01*
X291529369Y-47048669D01*
X291773962Y-47414729D01*
X292085271Y-47726038D01*
X292451331Y-47970631D01*
X292858075Y-48139110D01*
X293289872Y-48225000D01*
X293730128Y-48225000D01*
X294161925Y-48139110D01*
X294568669Y-47970631D01*
X294934729Y-47726038D01*
X295246038Y-47414729D01*
X295490631Y-47048669D01*
X295659110Y-46641925D01*
X295745000Y-46210128D01*
X295745000Y-45769872D01*
X295659110Y-45338075D01*
X295490631Y-44931331D01*
X295246038Y-44565271D01*
X294934729Y-44253962D01*
X294568669Y-44009369D01*
X294161925Y-43840890D01*
X293730128Y-43755000D01*
X293289872Y-43755000D01*
X292858075Y-43840890D01*
X292451331Y-44009369D01*
X292085271Y-44253962D01*
X291773962Y-44565271D01*
X291529369Y-44931331D01*
X291360890Y-45338075D01*
X291275000Y-45769872D01*
X257800151Y-45769872D01*
X257656654Y-45423440D01*
X257340926Y-44950920D01*
X256939080Y-44549074D01*
X256466560Y-44233346D01*
X255941523Y-44015869D01*
X255384148Y-43905000D01*
X254815852Y-43905000D01*
X254258477Y-44015869D01*
X253733440Y-44233346D01*
X253260920Y-44549074D01*
X252859074Y-44950920D01*
X252553843Y-45407730D01*
X252559568Y-36660000D01*
X349140001Y-36660000D01*
X349140001Y-45408517D01*
G36*
X310440000Y-63714802D02*
G01*
X310440001Y-96965197D01*
X309785199Y-97620000D01*
X307856018Y-97620000D01*
X307860537Y-97614494D01*
X307919502Y-97504180D01*
X307955812Y-97384482D01*
X307968072Y-97260000D01*
X307968072Y-95987094D01*
X308055166Y-95900000D01*
X308592678Y-95900000D01*
X308630000Y-95903676D01*
X308667322Y-95900000D01*
X308667333Y-95900000D01*
X308778986Y-95889003D01*
X308922247Y-95845546D01*
X309054276Y-95774974D01*
X309170001Y-95680001D01*
X309193803Y-95650998D01*
X309781004Y-95063798D01*
X309810001Y-95040001D01*
X309904974Y-94924276D01*
X309975546Y-94792247D01*
X310019003Y-94648986D01*
X310030000Y-94537333D01*
X310030000Y-94537325D01*
X310033676Y-94500000D01*
X310030000Y-94462675D01*
X310030000Y-74277322D01*
X310033676Y-74239999D01*
X310030000Y-74202676D01*
X310030000Y-74202667D01*
X310019003Y-74091014D01*
X309975546Y-73947753D01*
X309904974Y-73815724D01*
X309810001Y-73699999D01*
X309781003Y-73676201D01*
X306400000Y-70295199D01*
X306400000Y-69281046D01*
X306494494Y-69230537D01*
X306591185Y-69151185D01*
X306670537Y-69054494D01*
X306729502Y-68944180D01*
X306765812Y-68824482D01*
X306778072Y-68700000D01*
X306778072Y-66190000D01*
X306765812Y-66065518D01*
X306729502Y-65945820D01*
X306717129Y-65922672D01*
X307070743Y-65569058D01*
X307090498Y-65634180D01*
X307149463Y-65744494D01*
X307228815Y-65841185D01*
X307325506Y-65920537D01*
X307435820Y-65979502D01*
X307555518Y-66015812D01*
X307680000Y-66028072D01*
X308680000Y-66028072D01*
X308804482Y-66015812D01*
X308924180Y-65979502D01*
X309034494Y-65920537D01*
X309131185Y-65841185D01*
X309210537Y-65744494D01*
X309269502Y-65634180D01*
X309305812Y-65514482D01*
X309318072Y-65390000D01*
X309318072Y-62880000D01*
X309305812Y-62755518D01*
X309269502Y-62635820D01*
X309210537Y-62525506D01*
X309131185Y-62428815D01*
X309062856Y-62372739D01*
X309075076Y-62349877D01*
X310440000Y-63714802D01*
X310440000Y-63714802D01*
G37*
X310440000Y-63714802D02*
X310440001Y-96965197D01*
X309785199Y-97620000D01*
X307856018Y-97620000D01*
X307860537Y-97614494D01*
X307919502Y-97504180D01*
X307955812Y-97384482D01*
X307968072Y-97260000D01*
X307968072Y-95987094D01*
X308055166Y-95900000D01*
X308592678Y-95900000D01*
X308630000Y-95903676D01*
X308667322Y-95900000D01*
X308667333Y-95900000D01*
X308778986Y-95889003D01*
X308922247Y-95845546D01*
X309054276Y-95774974D01*
X309170001Y-95680001D01*
X309193803Y-95650998D01*
X309781004Y-95063798D01*
X309810001Y-95040001D01*
X309904974Y-94924276D01*
X309975546Y-94792247D01*
X310019003Y-94648986D01*
X310030000Y-94537333D01*
X310030000Y-94537325D01*
X310033676Y-94500000D01*
X310030000Y-94462675D01*
X310030000Y-74277322D01*
X310033676Y-74239999D01*
X310030000Y-74202676D01*
X310030000Y-74202667D01*
X310019003Y-74091014D01*
X309975546Y-73947753D01*
X309904974Y-73815724D01*
X309810001Y-73699999D01*
X309781003Y-73676201D01*
X306400000Y-70295199D01*
X306400000Y-69281046D01*
X306494494Y-69230537D01*
X306591185Y-69151185D01*
X306670537Y-69054494D01*
X306729502Y-68944180D01*
X306765812Y-68824482D01*
X306778072Y-68700000D01*
X306778072Y-66190000D01*
X306765812Y-66065518D01*
X306729502Y-65945820D01*
X306717129Y-65922672D01*
X307070743Y-65569058D01*
X307090498Y-65634180D01*
X307149463Y-65744494D01*
X307228815Y-65841185D01*
X307325506Y-65920537D01*
X307435820Y-65979502D01*
X307555518Y-66015812D01*
X307680000Y-66028072D01*
X308680000Y-66028072D01*
X308804482Y-66015812D01*
X308924180Y-65979502D01*
X309034494Y-65920537D01*
X309131185Y-65841185D01*
X309210537Y-65744494D01*
X309269502Y-65634180D01*
X309305812Y-65514482D01*
X309318072Y-65390000D01*
X309318072Y-62880000D01*
X309305812Y-62755518D01*
X309269502Y-62635820D01*
X309210537Y-62525506D01*
X309131185Y-62428815D01*
X309062856Y-62372739D01*
X309075076Y-62349877D01*
X310440000Y-63714802D01*
G36*
X304461928Y-86296731D02*
G01*
X304461928Y-86460674D01*
X304425724Y-86480026D01*
X304309999Y-86574999D01*
X304286201Y-86603997D01*
X302549003Y-88341196D01*
X302519999Y-88364999D01*
X302491276Y-88399999D01*
X302425026Y-88480724D01*
X302417008Y-88495725D01*
X302382509Y-88560268D01*
X302315820Y-88580498D01*
X302205506Y-88639463D01*
X302108815Y-88718815D01*
X302029463Y-88815506D01*
X301970498Y-88925820D01*
X301934188Y-89045518D01*
X301921928Y-89170000D01*
X301921928Y-91680000D01*
X301934188Y-91804482D01*
X301970498Y-91924180D01*
X302029463Y-92034494D01*
X302108815Y-92131185D01*
X302205506Y-92210537D01*
X302315820Y-92269502D01*
X302435518Y-92305812D01*
X302560000Y-92318072D01*
X303560000Y-92318072D01*
X303684482Y-92305812D01*
X303804180Y-92269502D01*
X303914494Y-92210537D01*
X304011185Y-92131185D01*
X304090537Y-92034494D01*
X304149502Y-91924180D01*
X304185812Y-91804482D01*
X304198072Y-91680000D01*
X304198072Y-89170000D01*
X304185812Y-89045518D01*
X304149502Y-88925820D01*
X304137129Y-88902672D01*
X304490743Y-88549058D01*
X304510498Y-88614180D01*
X304569463Y-88724494D01*
X304648815Y-88821185D01*
X304745506Y-88900537D01*
X304790001Y-88924320D01*
X304790000Y-92515431D01*
X304781618Y-92522310D01*
X304712310Y-92591618D01*
X304632958Y-92688309D01*
X304578502Y-92769808D01*
X304519536Y-92880125D01*
X304482027Y-92970681D01*
X304445718Y-93090377D01*
X304426596Y-93186510D01*
X304414336Y-93310991D01*
X304414336Y-93335550D01*
X304411928Y-93360000D01*
X304411928Y-93860000D01*
X304414336Y-93884450D01*
X304414336Y-93909009D01*
X304426596Y-94033490D01*
X304445718Y-94129623D01*
X304482027Y-94249319D01*
X304519536Y-94339875D01*
X304578502Y-94450192D01*
X304632958Y-94531691D01*
X304712310Y-94628382D01*
X304770001Y-94686073D01*
X304770000Y-95415431D01*
X304761618Y-95422310D01*
X304692310Y-95491618D01*
X304612958Y-95588309D01*
X304558502Y-95669808D01*
X304499536Y-95780125D01*
X304462027Y-95870681D01*
X304425718Y-95990377D01*
X304406596Y-96086510D01*
X304394336Y-96210991D01*
X304394336Y-96235550D01*
X304391928Y-96260000D01*
X304391928Y-96573270D01*
X303805199Y-97160000D01*
X300388072Y-97160000D01*
X300388072Y-95720000D01*
X300375812Y-95595518D01*
X300339502Y-95475820D01*
X300280537Y-95365506D01*
X300201185Y-95268815D01*
X300104494Y-95189463D01*
X299994180Y-95130498D01*
X299917923Y-95107366D01*
X299884974Y-95045724D01*
X299832600Y-94981907D01*
X299894482Y-94975812D01*
X300014180Y-94939502D01*
X300124494Y-94880537D01*
X300221185Y-94801185D01*
X300300537Y-94704494D01*
X300359502Y-94594180D01*
X300395812Y-94474482D01*
X300408072Y-94350000D01*
X300408072Y-92850000D01*
X300395812Y-92725518D01*
X300359502Y-92605820D01*
X300300537Y-92495506D01*
X300221185Y-92398815D01*
X300124494Y-92319463D01*
X300070000Y-92290335D01*
X300070000Y-89008072D01*
X301020000Y-89008072D01*
X301144482Y-88995812D01*
X301264180Y-88959502D01*
X301374494Y-88900537D01*
X301471185Y-88821185D01*
X301550537Y-88724494D01*
X301609502Y-88614180D01*
X301645812Y-88494482D01*
X301658072Y-88370000D01*
X301658072Y-85860000D01*
X301645812Y-85735518D01*
X301609502Y-85615820D01*
X301550537Y-85505506D01*
X301471185Y-85408815D01*
X301374494Y-85329463D01*
X301264180Y-85270498D01*
X301144482Y-85234188D01*
X301020000Y-85221928D01*
X300070000Y-85221928D01*
X300070000Y-84224801D01*
X301230000Y-83064801D01*
X304461928Y-86296731D01*
X304461928Y-86296731D01*
G37*
X304461928Y-86296731D02*
X304461928Y-86460674D01*
X304425724Y-86480026D01*
X304309999Y-86574999D01*
X304286201Y-86603997D01*
X302549003Y-88341196D01*
X302519999Y-88364999D01*
X302491276Y-88399999D01*
X302425026Y-88480724D01*
X302417008Y-88495725D01*
X302382509Y-88560268D01*
X302315820Y-88580498D01*
X302205506Y-88639463D01*
X302108815Y-88718815D01*
X302029463Y-88815506D01*
X301970498Y-88925820D01*
X301934188Y-89045518D01*
X301921928Y-89170000D01*
X301921928Y-91680000D01*
X301934188Y-91804482D01*
X301970498Y-91924180D01*
X302029463Y-92034494D01*
X302108815Y-92131185D01*
X302205506Y-92210537D01*
X302315820Y-92269502D01*
X302435518Y-92305812D01*
X302560000Y-92318072D01*
X303560000Y-92318072D01*
X303684482Y-92305812D01*
X303804180Y-92269502D01*
X303914494Y-92210537D01*
X304011185Y-92131185D01*
X304090537Y-92034494D01*
X304149502Y-91924180D01*
X304185812Y-91804482D01*
X304198072Y-91680000D01*
X304198072Y-89170000D01*
X304185812Y-89045518D01*
X304149502Y-88925820D01*
X304137129Y-88902672D01*
X304490743Y-88549058D01*
X304510498Y-88614180D01*
X304569463Y-88724494D01*
X304648815Y-88821185D01*
X304745506Y-88900537D01*
X304790001Y-88924320D01*
X304790000Y-92515431D01*
X304781618Y-92522310D01*
X304712310Y-92591618D01*
X304632958Y-92688309D01*
X304578502Y-92769808D01*
X304519536Y-92880125D01*
X304482027Y-92970681D01*
X304445718Y-93090377D01*
X304426596Y-93186510D01*
X304414336Y-93310991D01*
X304414336Y-93335550D01*
X304411928Y-93360000D01*
X304411928Y-93860000D01*
X304414336Y-93884450D01*
X304414336Y-93909009D01*
X304426596Y-94033490D01*
X304445718Y-94129623D01*
X304482027Y-94249319D01*
X304519536Y-94339875D01*
X304578502Y-94450192D01*
X304632958Y-94531691D01*
X304712310Y-94628382D01*
X304770001Y-94686073D01*
X304770000Y-95415431D01*
X304761618Y-95422310D01*
X304692310Y-95491618D01*
X304612958Y-95588309D01*
X304558502Y-95669808D01*
X304499536Y-95780125D01*
X304462027Y-95870681D01*
X304425718Y-95990377D01*
X304406596Y-96086510D01*
X304394336Y-96210991D01*
X304394336Y-96235550D01*
X304391928Y-96260000D01*
X304391928Y-96573270D01*
X303805199Y-97160000D01*
X300388072Y-97160000D01*
X300388072Y-95720000D01*
X300375812Y-95595518D01*
X300339502Y-95475820D01*
X300280537Y-95365506D01*
X300201185Y-95268815D01*
X300104494Y-95189463D01*
X299994180Y-95130498D01*
X299917923Y-95107366D01*
X299884974Y-95045724D01*
X299832600Y-94981907D01*
X299894482Y-94975812D01*
X300014180Y-94939502D01*
X300124494Y-94880537D01*
X300221185Y-94801185D01*
X300300537Y-94704494D01*
X300359502Y-94594180D01*
X300395812Y-94474482D01*
X300408072Y-94350000D01*
X300408072Y-92850000D01*
X300395812Y-92725518D01*
X300359502Y-92605820D01*
X300300537Y-92495506D01*
X300221185Y-92398815D01*
X300124494Y-92319463D01*
X300070000Y-92290335D01*
X300070000Y-89008072D01*
X301020000Y-89008072D01*
X301144482Y-88995812D01*
X301264180Y-88959502D01*
X301374494Y-88900537D01*
X301471185Y-88821185D01*
X301550537Y-88724494D01*
X301609502Y-88614180D01*
X301645812Y-88494482D01*
X301658072Y-88370000D01*
X301658072Y-85860000D01*
X301645812Y-85735518D01*
X301609502Y-85615820D01*
X301550537Y-85505506D01*
X301471185Y-85408815D01*
X301374494Y-85329463D01*
X301264180Y-85270498D01*
X301144482Y-85234188D01*
X301020000Y-85221928D01*
X300070000Y-85221928D01*
X300070000Y-84224801D01*
X301230000Y-83064801D01*
X304461928Y-86296731D01*
G36*
X304501928Y-68700000D02*
G01*
X304514188Y-68824482D01*
X304550498Y-68944180D01*
X304609463Y-69054494D01*
X304688815Y-69151185D01*
X304785506Y-69230537D01*
X304880000Y-69281046D01*
X304880000Y-70572677D01*
X304876324Y-70610000D01*
X304880000Y-70647322D01*
X304880000Y-70647332D01*
X304890997Y-70758985D01*
X304918910Y-70851002D01*
X304934454Y-70902246D01*
X305005026Y-71034276D01*
X305044871Y-71082826D01*
X305099999Y-71150001D01*
X305129003Y-71173804D01*
X308510001Y-74554803D01*
X308510000Y-88533792D01*
X308425750Y-88535000D01*
X308267000Y-88693750D01*
X308267000Y-90298000D01*
X308287000Y-90298000D01*
X308287000Y-90552000D01*
X308267000Y-90552000D01*
X308267000Y-92156250D01*
X308425750Y-92315000D01*
X308510000Y-92316208D01*
X308510000Y-94185198D01*
X308315199Y-94380000D01*
X307986102Y-94380000D01*
X307988072Y-94360000D01*
X307988072Y-92860000D01*
X307975812Y-92735518D01*
X307939502Y-92615820D01*
X307880537Y-92505506D01*
X307801185Y-92408815D01*
X307704494Y-92329463D01*
X307682055Y-92317469D01*
X307854250Y-92315000D01*
X308013000Y-92156250D01*
X308013000Y-90552000D01*
X307993000Y-90552000D01*
X307993000Y-90298000D01*
X308013000Y-90298000D01*
X308013000Y-88693750D01*
X307854250Y-88535000D01*
X307640000Y-88531928D01*
X307610000Y-88534883D01*
X307610000Y-76667322D01*
X307613676Y-76629999D01*
X307610000Y-76592676D01*
X307610000Y-76592667D01*
X307599003Y-76481014D01*
X307555546Y-76337753D01*
X307484974Y-76205724D01*
X307390001Y-76089999D01*
X307361003Y-76066201D01*
X301320000Y-70025199D01*
X301320000Y-69281046D01*
X301414494Y-69230537D01*
X301511185Y-69151185D01*
X301590537Y-69054494D01*
X301649502Y-68944180D01*
X301685812Y-68824482D01*
X301698072Y-68700000D01*
X301698072Y-66475001D01*
X304501928Y-66475001D01*
X304501928Y-68700000D01*
X304501928Y-68700000D01*
G37*
X304501928Y-68700000D02*
X304514188Y-68824482D01*
X304550498Y-68944180D01*
X304609463Y-69054494D01*
X304688815Y-69151185D01*
X304785506Y-69230537D01*
X304880000Y-69281046D01*
X304880000Y-70572677D01*
X304876324Y-70610000D01*
X304880000Y-70647322D01*
X304880000Y-70647332D01*
X304890997Y-70758985D01*
X304918910Y-70851002D01*
X304934454Y-70902246D01*
X305005026Y-71034276D01*
X305044871Y-71082826D01*
X305099999Y-71150001D01*
X305129003Y-71173804D01*
X308510001Y-74554803D01*
X308510000Y-88533792D01*
X308425750Y-88535000D01*
X308267000Y-88693750D01*
X308267000Y-90298000D01*
X308287000Y-90298000D01*
X308287000Y-90552000D01*
X308267000Y-90552000D01*
X308267000Y-92156250D01*
X308425750Y-92315000D01*
X308510000Y-92316208D01*
X308510000Y-94185198D01*
X308315199Y-94380000D01*
X307986102Y-94380000D01*
X307988072Y-94360000D01*
X307988072Y-92860000D01*
X307975812Y-92735518D01*
X307939502Y-92615820D01*
X307880537Y-92505506D01*
X307801185Y-92408815D01*
X307704494Y-92329463D01*
X307682055Y-92317469D01*
X307854250Y-92315000D01*
X308013000Y-92156250D01*
X308013000Y-90552000D01*
X307993000Y-90552000D01*
X307993000Y-90298000D01*
X308013000Y-90298000D01*
X308013000Y-88693750D01*
X307854250Y-88535000D01*
X307640000Y-88531928D01*
X307610000Y-88534883D01*
X307610000Y-76667322D01*
X307613676Y-76629999D01*
X307610000Y-76592676D01*
X307610000Y-76592667D01*
X307599003Y-76481014D01*
X307555546Y-76337753D01*
X307484974Y-76205724D01*
X307390001Y-76089999D01*
X307361003Y-76066201D01*
X301320000Y-70025199D01*
X301320000Y-69281046D01*
X301414494Y-69230537D01*
X301511185Y-69151185D01*
X301590537Y-69054494D01*
X301649502Y-68944180D01*
X301685812Y-68824482D01*
X301698072Y-68700000D01*
X301698072Y-66475001D01*
X304501928Y-66475001D01*
X304501928Y-68700000D01*
M02*
