G04 #@! TF.GenerationSoftware,KiCad,Pcbnew,(5.1.2)-2*
G04 #@! TF.CreationDate,2021-08-28T01:19:32-04:00*
G04 #@! TF.ProjectId,MAG_Plus,4d41475f-506c-4757-932e-6b696361645f,rev?*
G04 #@! TF.SameCoordinates,Original*
G04 #@! TF.FileFunction,Copper,L1,Top*
G04 #@! TF.FilePolarity,Positive*
%FSLAX46Y46*%
G04 Gerber Fmt 4.6, Leading zero omitted, Abs format (unit mm)*
G04 Created by KiCad (PCBNEW (5.1.2)-2) date 2021-08-28 01:19:32*
%MOMM*%
%LPD*%
G04 APERTURE LIST*
%ADD10C,4.500000*%
%ADD11C,3.200000*%
%ADD12C,9.200000*%
%ADD13R,3.100000X2.200000*%
%ADD14R,1.500000X0.800000*%
%ADD15R,1.000000X2.510000*%
%ADD16R,1.000000X1.500000*%
%ADD17C,0.500000*%
%ADD18C,0.100000*%
%ADD19R,0.600000X0.400000*%
%ADD20R,0.450000X1.450000*%
%ADD21C,0.800000*%
%ADD22C,0.250000*%
%ADD23C,0.254000*%
G04 APERTURE END LIST*
D10*
X346600000Y-46800000D03*
X255100000Y-46790000D03*
X346600000Y-107800000D03*
D11*
X336100000Y-45990000D03*
X293510000Y-108610000D03*
X293510000Y-45990000D03*
X336100000Y-108610000D03*
D12*
X314810000Y-107800000D03*
X314790000Y-46770000D03*
D13*
X267285000Y-59545000D03*
X267285000Y-50795000D03*
D14*
X270035000Y-57045000D03*
X270035000Y-55795000D03*
X270035000Y-54545000D03*
X270035000Y-53295000D03*
D15*
X308180000Y-64135000D03*
X303100000Y-64135000D03*
X298020000Y-64135000D03*
X292940000Y-64135000D03*
X305640000Y-67445000D03*
X300560000Y-67445000D03*
X295480000Y-67445000D03*
X305600000Y-87115000D03*
X300520000Y-87115000D03*
X295440000Y-87115000D03*
X308140000Y-90425000D03*
X303060000Y-90425000D03*
X297980000Y-90425000D03*
X292900000Y-90425000D03*
D16*
X306850000Y-93610000D03*
D17*
X308150000Y-93610000D03*
D18*
G36*
X308150000Y-92860602D02*
G01*
X308174534Y-92860602D01*
X308223365Y-92865412D01*
X308271490Y-92874984D01*
X308318445Y-92889228D01*
X308363778Y-92908005D01*
X308407051Y-92931136D01*
X308447850Y-92958396D01*
X308485779Y-92989524D01*
X308520476Y-93024221D01*
X308551604Y-93062150D01*
X308578864Y-93102949D01*
X308601995Y-93146222D01*
X308620772Y-93191555D01*
X308635016Y-93238510D01*
X308644588Y-93286635D01*
X308649398Y-93335466D01*
X308649398Y-93360000D01*
X308650000Y-93360000D01*
X308650000Y-93860000D01*
X308649398Y-93860000D01*
X308649398Y-93884534D01*
X308644588Y-93933365D01*
X308635016Y-93981490D01*
X308620772Y-94028445D01*
X308601995Y-94073778D01*
X308578864Y-94117051D01*
X308551604Y-94157850D01*
X308520476Y-94195779D01*
X308485779Y-94230476D01*
X308447850Y-94261604D01*
X308407051Y-94288864D01*
X308363778Y-94311995D01*
X308318445Y-94330772D01*
X308271490Y-94345016D01*
X308223365Y-94354588D01*
X308174534Y-94359398D01*
X308150000Y-94359398D01*
X308150000Y-94360000D01*
X307600000Y-94360000D01*
X307600000Y-92860000D01*
X308150000Y-92860000D01*
X308150000Y-92860602D01*
X308150000Y-92860602D01*
G37*
D17*
X305550000Y-93610000D03*
D18*
G36*
X306100000Y-94360000D02*
G01*
X305550000Y-94360000D01*
X305550000Y-94359398D01*
X305525466Y-94359398D01*
X305476635Y-94354588D01*
X305428510Y-94345016D01*
X305381555Y-94330772D01*
X305336222Y-94311995D01*
X305292949Y-94288864D01*
X305252150Y-94261604D01*
X305214221Y-94230476D01*
X305179524Y-94195779D01*
X305148396Y-94157850D01*
X305121136Y-94117051D01*
X305098005Y-94073778D01*
X305079228Y-94028445D01*
X305064984Y-93981490D01*
X305055412Y-93933365D01*
X305050602Y-93884534D01*
X305050602Y-93860000D01*
X305050000Y-93860000D01*
X305050000Y-93360000D01*
X305050602Y-93360000D01*
X305050602Y-93335466D01*
X305055412Y-93286635D01*
X305064984Y-93238510D01*
X305079228Y-93191555D01*
X305098005Y-93146222D01*
X305121136Y-93102949D01*
X305148396Y-93062150D01*
X305179524Y-93024221D01*
X305214221Y-92989524D01*
X305252150Y-92958396D01*
X305292949Y-92931136D01*
X305336222Y-92908005D01*
X305381555Y-92889228D01*
X305428510Y-92874984D01*
X305476635Y-92865412D01*
X305525466Y-92860602D01*
X305550000Y-92860602D01*
X305550000Y-92860000D01*
X306100000Y-92860000D01*
X306100000Y-94360000D01*
X306100000Y-94360000D01*
G37*
D17*
X305530000Y-96510000D03*
D18*
G36*
X306080000Y-97260000D02*
G01*
X305530000Y-97260000D01*
X305530000Y-97259398D01*
X305505466Y-97259398D01*
X305456635Y-97254588D01*
X305408510Y-97245016D01*
X305361555Y-97230772D01*
X305316222Y-97211995D01*
X305272949Y-97188864D01*
X305232150Y-97161604D01*
X305194221Y-97130476D01*
X305159524Y-97095779D01*
X305128396Y-97057850D01*
X305101136Y-97017051D01*
X305078005Y-96973778D01*
X305059228Y-96928445D01*
X305044984Y-96881490D01*
X305035412Y-96833365D01*
X305030602Y-96784534D01*
X305030602Y-96760000D01*
X305030000Y-96760000D01*
X305030000Y-96260000D01*
X305030602Y-96260000D01*
X305030602Y-96235466D01*
X305035412Y-96186635D01*
X305044984Y-96138510D01*
X305059228Y-96091555D01*
X305078005Y-96046222D01*
X305101136Y-96002949D01*
X305128396Y-95962150D01*
X305159524Y-95924221D01*
X305194221Y-95889524D01*
X305232150Y-95858396D01*
X305272949Y-95831136D01*
X305316222Y-95808005D01*
X305361555Y-95789228D01*
X305408510Y-95774984D01*
X305456635Y-95765412D01*
X305505466Y-95760602D01*
X305530000Y-95760602D01*
X305530000Y-95760000D01*
X306080000Y-95760000D01*
X306080000Y-97260000D01*
X306080000Y-97260000D01*
G37*
D17*
X308130000Y-96510000D03*
D18*
G36*
X308130000Y-95760602D02*
G01*
X308154534Y-95760602D01*
X308203365Y-95765412D01*
X308251490Y-95774984D01*
X308298445Y-95789228D01*
X308343778Y-95808005D01*
X308387051Y-95831136D01*
X308427850Y-95858396D01*
X308465779Y-95889524D01*
X308500476Y-95924221D01*
X308531604Y-95962150D01*
X308558864Y-96002949D01*
X308581995Y-96046222D01*
X308600772Y-96091555D01*
X308615016Y-96138510D01*
X308624588Y-96186635D01*
X308629398Y-96235466D01*
X308629398Y-96260000D01*
X308630000Y-96260000D01*
X308630000Y-96760000D01*
X308629398Y-96760000D01*
X308629398Y-96784534D01*
X308624588Y-96833365D01*
X308615016Y-96881490D01*
X308600772Y-96928445D01*
X308581995Y-96973778D01*
X308558864Y-97017051D01*
X308531604Y-97057850D01*
X308500476Y-97095779D01*
X308465779Y-97130476D01*
X308427850Y-97161604D01*
X308387051Y-97188864D01*
X308343778Y-97211995D01*
X308298445Y-97230772D01*
X308251490Y-97245016D01*
X308203365Y-97254588D01*
X308154534Y-97259398D01*
X308130000Y-97259398D01*
X308130000Y-97260000D01*
X307580000Y-97260000D01*
X307580000Y-95760000D01*
X308130000Y-95760000D01*
X308130000Y-95760602D01*
X308130000Y-95760602D01*
G37*
D16*
X306830000Y-96510000D03*
D19*
X308210000Y-61860000D03*
X308210000Y-60960000D03*
X303090000Y-60950000D03*
X303090000Y-61850000D03*
D16*
X299270000Y-93600000D03*
D17*
X300570000Y-93600000D03*
D18*
G36*
X300570000Y-92850602D02*
G01*
X300594534Y-92850602D01*
X300643365Y-92855412D01*
X300691490Y-92864984D01*
X300738445Y-92879228D01*
X300783778Y-92898005D01*
X300827051Y-92921136D01*
X300867850Y-92948396D01*
X300905779Y-92979524D01*
X300940476Y-93014221D01*
X300971604Y-93052150D01*
X300998864Y-93092949D01*
X301021995Y-93136222D01*
X301040772Y-93181555D01*
X301055016Y-93228510D01*
X301064588Y-93276635D01*
X301069398Y-93325466D01*
X301069398Y-93350000D01*
X301070000Y-93350000D01*
X301070000Y-93850000D01*
X301069398Y-93850000D01*
X301069398Y-93874534D01*
X301064588Y-93923365D01*
X301055016Y-93971490D01*
X301040772Y-94018445D01*
X301021995Y-94063778D01*
X300998864Y-94107051D01*
X300971604Y-94147850D01*
X300940476Y-94185779D01*
X300905779Y-94220476D01*
X300867850Y-94251604D01*
X300827051Y-94278864D01*
X300783778Y-94301995D01*
X300738445Y-94320772D01*
X300691490Y-94335016D01*
X300643365Y-94344588D01*
X300594534Y-94349398D01*
X300570000Y-94349398D01*
X300570000Y-94350000D01*
X300020000Y-94350000D01*
X300020000Y-92850000D01*
X300570000Y-92850000D01*
X300570000Y-92850602D01*
X300570000Y-92850602D01*
G37*
D17*
X297970000Y-93600000D03*
D18*
G36*
X298520000Y-94350000D02*
G01*
X297970000Y-94350000D01*
X297970000Y-94349398D01*
X297945466Y-94349398D01*
X297896635Y-94344588D01*
X297848510Y-94335016D01*
X297801555Y-94320772D01*
X297756222Y-94301995D01*
X297712949Y-94278864D01*
X297672150Y-94251604D01*
X297634221Y-94220476D01*
X297599524Y-94185779D01*
X297568396Y-94147850D01*
X297541136Y-94107051D01*
X297518005Y-94063778D01*
X297499228Y-94018445D01*
X297484984Y-93971490D01*
X297475412Y-93923365D01*
X297470602Y-93874534D01*
X297470602Y-93850000D01*
X297470000Y-93850000D01*
X297470000Y-93350000D01*
X297470602Y-93350000D01*
X297470602Y-93325466D01*
X297475412Y-93276635D01*
X297484984Y-93228510D01*
X297499228Y-93181555D01*
X297518005Y-93136222D01*
X297541136Y-93092949D01*
X297568396Y-93052150D01*
X297599524Y-93014221D01*
X297634221Y-92979524D01*
X297672150Y-92948396D01*
X297712949Y-92921136D01*
X297756222Y-92898005D01*
X297801555Y-92879228D01*
X297848510Y-92864984D01*
X297896635Y-92855412D01*
X297945466Y-92850602D01*
X297970000Y-92850602D01*
X297970000Y-92850000D01*
X298520000Y-92850000D01*
X298520000Y-94350000D01*
X298520000Y-94350000D01*
G37*
D17*
X297990000Y-99350000D03*
D18*
G36*
X298540000Y-100100000D02*
G01*
X297990000Y-100100000D01*
X297990000Y-100099398D01*
X297965466Y-100099398D01*
X297916635Y-100094588D01*
X297868510Y-100085016D01*
X297821555Y-100070772D01*
X297776222Y-100051995D01*
X297732949Y-100028864D01*
X297692150Y-100001604D01*
X297654221Y-99970476D01*
X297619524Y-99935779D01*
X297588396Y-99897850D01*
X297561136Y-99857051D01*
X297538005Y-99813778D01*
X297519228Y-99768445D01*
X297504984Y-99721490D01*
X297495412Y-99673365D01*
X297490602Y-99624534D01*
X297490602Y-99600000D01*
X297490000Y-99600000D01*
X297490000Y-99100000D01*
X297490602Y-99100000D01*
X297490602Y-99075466D01*
X297495412Y-99026635D01*
X297504984Y-98978510D01*
X297519228Y-98931555D01*
X297538005Y-98886222D01*
X297561136Y-98842949D01*
X297588396Y-98802150D01*
X297619524Y-98764221D01*
X297654221Y-98729524D01*
X297692150Y-98698396D01*
X297732949Y-98671136D01*
X297776222Y-98648005D01*
X297821555Y-98629228D01*
X297868510Y-98614984D01*
X297916635Y-98605412D01*
X297965466Y-98600602D01*
X297990000Y-98600602D01*
X297990000Y-98600000D01*
X298540000Y-98600000D01*
X298540000Y-100100000D01*
X298540000Y-100100000D01*
G37*
D17*
X300590000Y-99350000D03*
D18*
G36*
X300590000Y-98600602D02*
G01*
X300614534Y-98600602D01*
X300663365Y-98605412D01*
X300711490Y-98614984D01*
X300758445Y-98629228D01*
X300803778Y-98648005D01*
X300847051Y-98671136D01*
X300887850Y-98698396D01*
X300925779Y-98729524D01*
X300960476Y-98764221D01*
X300991604Y-98802150D01*
X301018864Y-98842949D01*
X301041995Y-98886222D01*
X301060772Y-98931555D01*
X301075016Y-98978510D01*
X301084588Y-99026635D01*
X301089398Y-99075466D01*
X301089398Y-99100000D01*
X301090000Y-99100000D01*
X301090000Y-99600000D01*
X301089398Y-99600000D01*
X301089398Y-99624534D01*
X301084588Y-99673365D01*
X301075016Y-99721490D01*
X301060772Y-99768445D01*
X301041995Y-99813778D01*
X301018864Y-99857051D01*
X300991604Y-99897850D01*
X300960476Y-99935779D01*
X300925779Y-99970476D01*
X300887850Y-100001604D01*
X300847051Y-100028864D01*
X300803778Y-100051995D01*
X300758445Y-100070772D01*
X300711490Y-100085016D01*
X300663365Y-100094588D01*
X300614534Y-100099398D01*
X300590000Y-100099398D01*
X300590000Y-100100000D01*
X300040000Y-100100000D01*
X300040000Y-98600000D01*
X300590000Y-98600000D01*
X300590000Y-98600602D01*
X300590000Y-98600602D01*
G37*
D16*
X299290000Y-99350000D03*
X299250000Y-96470000D03*
D17*
X300550000Y-96470000D03*
D18*
G36*
X300550000Y-95720602D02*
G01*
X300574534Y-95720602D01*
X300623365Y-95725412D01*
X300671490Y-95734984D01*
X300718445Y-95749228D01*
X300763778Y-95768005D01*
X300807051Y-95791136D01*
X300847850Y-95818396D01*
X300885779Y-95849524D01*
X300920476Y-95884221D01*
X300951604Y-95922150D01*
X300978864Y-95962949D01*
X301001995Y-96006222D01*
X301020772Y-96051555D01*
X301035016Y-96098510D01*
X301044588Y-96146635D01*
X301049398Y-96195466D01*
X301049398Y-96220000D01*
X301050000Y-96220000D01*
X301050000Y-96720000D01*
X301049398Y-96720000D01*
X301049398Y-96744534D01*
X301044588Y-96793365D01*
X301035016Y-96841490D01*
X301020772Y-96888445D01*
X301001995Y-96933778D01*
X300978864Y-96977051D01*
X300951604Y-97017850D01*
X300920476Y-97055779D01*
X300885779Y-97090476D01*
X300847850Y-97121604D01*
X300807051Y-97148864D01*
X300763778Y-97171995D01*
X300718445Y-97190772D01*
X300671490Y-97205016D01*
X300623365Y-97214588D01*
X300574534Y-97219398D01*
X300550000Y-97219398D01*
X300550000Y-97220000D01*
X300000000Y-97220000D01*
X300000000Y-95720000D01*
X300550000Y-95720000D01*
X300550000Y-95720602D01*
X300550000Y-95720602D01*
G37*
D17*
X297950000Y-96470000D03*
D18*
G36*
X298500000Y-97220000D02*
G01*
X297950000Y-97220000D01*
X297950000Y-97219398D01*
X297925466Y-97219398D01*
X297876635Y-97214588D01*
X297828510Y-97205016D01*
X297781555Y-97190772D01*
X297736222Y-97171995D01*
X297692949Y-97148864D01*
X297652150Y-97121604D01*
X297614221Y-97090476D01*
X297579524Y-97055779D01*
X297548396Y-97017850D01*
X297521136Y-96977051D01*
X297498005Y-96933778D01*
X297479228Y-96888445D01*
X297464984Y-96841490D01*
X297455412Y-96793365D01*
X297450602Y-96744534D01*
X297450602Y-96720000D01*
X297450000Y-96720000D01*
X297450000Y-96220000D01*
X297450602Y-96220000D01*
X297450602Y-96195466D01*
X297455412Y-96146635D01*
X297464984Y-96098510D01*
X297479228Y-96051555D01*
X297498005Y-96006222D01*
X297521136Y-95962949D01*
X297548396Y-95922150D01*
X297579524Y-95884221D01*
X297614221Y-95849524D01*
X297652150Y-95818396D01*
X297692949Y-95791136D01*
X297736222Y-95768005D01*
X297781555Y-95749228D01*
X297828510Y-95734984D01*
X297876635Y-95725412D01*
X297925466Y-95720602D01*
X297950000Y-95720602D01*
X297950000Y-95720000D01*
X298500000Y-95720000D01*
X298500000Y-97220000D01*
X298500000Y-97220000D01*
G37*
D20*
X301585000Y-79720000D03*
X300935000Y-79720000D03*
X300285000Y-79720000D03*
X299635000Y-79720000D03*
X299635000Y-75320000D03*
X300285000Y-75320000D03*
X300935000Y-75320000D03*
X301585000Y-75320000D03*
D21*
X305670000Y-59620000D03*
X305630000Y-62130000D03*
X298750000Y-55060000D03*
X301010000Y-62480000D03*
X310680000Y-94970000D03*
X308190000Y-85500000D03*
X302600000Y-99340000D03*
X302540000Y-96590000D03*
X309260000Y-97620000D03*
X302540000Y-101930000D03*
X295980000Y-95270000D03*
X297400000Y-88000000D03*
D22*
X308210000Y-64105000D02*
X308180000Y-64135000D01*
X308210000Y-61860000D02*
X308210000Y-64105000D01*
X307430000Y-64135000D02*
X308180000Y-64135000D01*
X305849999Y-65715001D02*
X307430000Y-64135000D01*
X299949997Y-65715001D02*
X305849999Y-65715001D01*
X299330000Y-66334998D02*
X299949997Y-65715001D01*
X299330000Y-70050000D02*
X299330000Y-66334998D01*
X300935000Y-76295000D02*
X301570000Y-76930000D01*
X300935000Y-75320000D02*
X300935000Y-76295000D01*
X301570000Y-76930000D02*
X302480000Y-76930000D01*
X302480000Y-76930000D02*
X303110000Y-76300000D01*
X303110000Y-76300000D02*
X303110000Y-73830000D01*
X303110000Y-73830000D02*
X299330000Y-70050000D01*
X270035000Y-55795000D02*
X301845000Y-55795000D01*
X301845000Y-55795000D02*
X305670000Y-59620000D01*
X308180000Y-63550000D02*
X308180000Y-64135000D01*
X307970000Y-63340000D02*
X308180000Y-63550000D01*
X305630000Y-62130000D02*
X306840000Y-63340000D01*
X306840000Y-63340000D02*
X307970000Y-63340000D01*
X303090000Y-64125000D02*
X303100000Y-64135000D01*
X303090000Y-61850000D02*
X303090000Y-64125000D01*
X298879989Y-66148598D02*
X298879989Y-70689989D01*
X303100000Y-64135000D02*
X300893587Y-64135000D01*
X301585000Y-74345000D02*
X301585000Y-75320000D01*
X300893587Y-64135000D02*
X298879989Y-66148598D01*
X301585000Y-73395000D02*
X301585000Y-74345000D01*
X298879989Y-70689989D02*
X301585000Y-73395000D01*
X270035000Y-54545000D02*
X298235000Y-54545000D01*
X298235000Y-54545000D02*
X298750000Y-55060000D01*
X302305000Y-63340000D02*
X303100000Y-64135000D01*
X301010000Y-62480000D02*
X301870000Y-63340000D01*
X301870000Y-63340000D02*
X302305000Y-63340000D01*
X308130000Y-96510000D02*
X309140000Y-96510000D01*
X309140000Y-96510000D02*
X310680000Y-94970000D01*
X308190000Y-90375000D02*
X308140000Y-90425000D01*
X308190000Y-85500000D02*
X308190000Y-90375000D01*
X300590000Y-99350000D02*
X302590000Y-99350000D01*
X302590000Y-99350000D02*
X302600000Y-99340000D01*
X300670000Y-96590000D02*
X300550000Y-96470000D01*
X302540000Y-96590000D02*
X300670000Y-96590000D01*
X308130000Y-96510000D02*
X308150000Y-96510000D01*
X308150000Y-96510000D02*
X309260000Y-97620000D01*
X300590000Y-99980000D02*
X300590000Y-99350000D01*
X302540000Y-101930000D02*
X300590000Y-99980000D01*
X297970000Y-90435000D02*
X297980000Y-90425000D01*
X297970000Y-93600000D02*
X297970000Y-90435000D01*
X297990000Y-96510000D02*
X297950000Y-96470000D01*
X297990000Y-99350000D02*
X297990000Y-96510000D01*
X305530000Y-93630000D02*
X305550000Y-93610000D01*
X305530000Y-96510000D02*
X305530000Y-93630000D01*
X305550000Y-87165000D02*
X305600000Y-87115000D01*
X305550000Y-93610000D02*
X305550000Y-87165000D01*
X303060000Y-88920000D02*
X303060000Y-90425000D01*
X303060000Y-88905000D02*
X303060000Y-88920000D01*
X304850000Y-87115000D02*
X303060000Y-88905000D01*
X305600000Y-87115000D02*
X304850000Y-87115000D01*
X297950000Y-96470000D02*
X297180000Y-96470000D01*
X297180000Y-96470000D02*
X295980000Y-95270000D01*
X297980000Y-90425000D02*
X297980000Y-88580000D01*
X297799999Y-88399999D02*
X297400000Y-88000000D01*
X297980000Y-88580000D02*
X297799999Y-88399999D01*
X297950000Y-97317592D02*
X298552408Y-97920000D01*
X297950000Y-96470000D02*
X297950000Y-97317592D01*
X304120000Y-97920000D02*
X305530000Y-96510000D01*
X298552408Y-97920000D02*
X304120000Y-97920000D01*
X308200000Y-60950000D02*
X308210000Y-60960000D01*
X303090000Y-60950000D02*
X308200000Y-60950000D01*
X308760000Y-60960000D02*
X311570000Y-63770000D01*
X308210000Y-60960000D02*
X308760000Y-60960000D01*
X311570000Y-63770000D02*
X311570000Y-96910000D01*
X311570000Y-96910000D02*
X310100000Y-98380000D01*
X305530000Y-97357592D02*
X305530000Y-96510000D01*
X306552408Y-98380000D02*
X305530000Y-97357592D01*
X310100000Y-98380000D02*
X306552408Y-98380000D01*
X301585000Y-82345000D02*
X301585000Y-79720000D01*
X305600000Y-87115000D02*
X305600000Y-86360000D01*
X305600000Y-86360000D02*
X301585000Y-82345000D01*
X276880000Y-60950000D02*
X303090000Y-60950000D01*
X270035000Y-57045000D02*
X272975000Y-57045000D01*
X272975000Y-57045000D02*
X276880000Y-60950000D01*
X306830000Y-96050364D02*
X307740364Y-95140000D01*
X306830000Y-96510000D02*
X306830000Y-96050364D01*
X307740364Y-95140000D02*
X308630000Y-95140000D01*
X308630000Y-95140000D02*
X309270000Y-94500000D01*
X309270000Y-94500000D02*
X309270000Y-74240000D01*
X305640000Y-70610000D02*
X305640000Y-67445000D01*
X309270000Y-74240000D02*
X305640000Y-70610000D01*
X306850000Y-93610000D02*
X306850000Y-76630000D01*
X300560000Y-70340000D02*
X300560000Y-67445000D01*
X306850000Y-76630000D02*
X300560000Y-70340000D01*
X300935000Y-82285000D02*
X300935000Y-79720000D01*
X299310000Y-83910000D02*
X300935000Y-82285000D01*
X299310000Y-93490000D02*
X299310000Y-83910000D01*
X299270000Y-93600000D02*
X299420000Y-93600000D01*
X299420000Y-93600000D02*
X299310000Y-93490000D01*
X299290000Y-100350000D02*
X298280000Y-101360000D01*
X299290000Y-99350000D02*
X299290000Y-100350000D01*
X298280000Y-101360000D02*
X296980000Y-101360000D01*
X296980000Y-101360000D02*
X294240000Y-98620000D01*
X299635000Y-80695000D02*
X299635000Y-79720000D01*
X294240000Y-86090000D02*
X299635000Y-80695000D01*
X294240000Y-98620000D02*
X294240000Y-86090000D01*
X300285000Y-80695000D02*
X300285000Y-79720000D01*
X299250000Y-95470000D02*
X298840000Y-95060000D01*
X298840000Y-95060000D02*
X297260000Y-95060000D01*
X300285000Y-81655000D02*
X300285000Y-80695000D01*
X297260000Y-95060000D02*
X296660000Y-94460000D01*
X296660000Y-94460000D02*
X296660000Y-85280000D01*
X299250000Y-96470000D02*
X299250000Y-95470000D01*
X296660000Y-85280000D02*
X300285000Y-81655000D01*
D23*
G36*
X349140001Y-45408517D02*
G01*
X348840926Y-44960920D01*
X348439080Y-44559074D01*
X347966560Y-44243346D01*
X347441523Y-44025869D01*
X346884148Y-43915000D01*
X346315852Y-43915000D01*
X345758477Y-44025869D01*
X345233440Y-44243346D01*
X344760920Y-44559074D01*
X344359074Y-44960920D01*
X344043346Y-45433440D01*
X343825869Y-45958477D01*
X343715000Y-46515852D01*
X343715000Y-47084148D01*
X343825869Y-47641523D01*
X344043346Y-48166560D01*
X344359074Y-48639080D01*
X344760920Y-49040926D01*
X345233440Y-49356654D01*
X345758477Y-49574131D01*
X346315852Y-49685000D01*
X346884148Y-49685000D01*
X347441523Y-49574131D01*
X347966560Y-49356654D01*
X348439080Y-49040926D01*
X348840926Y-48639080D01*
X349140001Y-48191483D01*
X349140000Y-106408516D01*
X348840926Y-105960920D01*
X348439080Y-105559074D01*
X347966560Y-105243346D01*
X347441523Y-105025869D01*
X346884148Y-104915000D01*
X346315852Y-104915000D01*
X345758477Y-105025869D01*
X345233440Y-105243346D01*
X344760920Y-105559074D01*
X344359074Y-105960920D01*
X344043346Y-106433440D01*
X343825869Y-106958477D01*
X343715000Y-107515852D01*
X343715000Y-108084148D01*
X343825869Y-108641523D01*
X344043346Y-109166560D01*
X344359074Y-109639080D01*
X344760920Y-110040926D01*
X345233440Y-110356654D01*
X345758477Y-110574131D01*
X346315852Y-110685000D01*
X346884148Y-110685000D01*
X347441523Y-110574131D01*
X347966560Y-110356654D01*
X348439080Y-110040926D01*
X348840926Y-109639080D01*
X349140000Y-109191484D01*
X349140000Y-117940000D01*
X287680448Y-117940000D01*
X287686944Y-108389872D01*
X291275000Y-108389872D01*
X291275000Y-108830128D01*
X291360890Y-109261925D01*
X291529369Y-109668669D01*
X291773962Y-110034729D01*
X292085271Y-110346038D01*
X292451331Y-110590631D01*
X292858075Y-110759110D01*
X293289872Y-110845000D01*
X293730128Y-110845000D01*
X294161925Y-110759110D01*
X294568669Y-110590631D01*
X294934729Y-110346038D01*
X295246038Y-110034729D01*
X295490631Y-109668669D01*
X295659110Y-109261925D01*
X295745000Y-108830128D01*
X295745000Y-108389872D01*
X295659110Y-107958075D01*
X295490631Y-107551331D01*
X295312272Y-107284397D01*
X309575000Y-107284397D01*
X309575000Y-108315603D01*
X309776178Y-109326993D01*
X310170803Y-110279702D01*
X310743710Y-111137118D01*
X311472882Y-111866290D01*
X312330298Y-112439197D01*
X313283007Y-112833822D01*
X314294397Y-113035000D01*
X315325603Y-113035000D01*
X316336993Y-112833822D01*
X317289702Y-112439197D01*
X318147118Y-111866290D01*
X318876290Y-111137118D01*
X319449197Y-110279702D01*
X319843822Y-109326993D01*
X320030226Y-108389872D01*
X333865000Y-108389872D01*
X333865000Y-108830128D01*
X333950890Y-109261925D01*
X334119369Y-109668669D01*
X334363962Y-110034729D01*
X334675271Y-110346038D01*
X335041331Y-110590631D01*
X335448075Y-110759110D01*
X335879872Y-110845000D01*
X336320128Y-110845000D01*
X336751925Y-110759110D01*
X337158669Y-110590631D01*
X337524729Y-110346038D01*
X337836038Y-110034729D01*
X338080631Y-109668669D01*
X338249110Y-109261925D01*
X338335000Y-108830128D01*
X338335000Y-108389872D01*
X338249110Y-107958075D01*
X338080631Y-107551331D01*
X337836038Y-107185271D01*
X337524729Y-106873962D01*
X337158669Y-106629369D01*
X336751925Y-106460890D01*
X336320128Y-106375000D01*
X335879872Y-106375000D01*
X335448075Y-106460890D01*
X335041331Y-106629369D01*
X334675271Y-106873962D01*
X334363962Y-107185271D01*
X334119369Y-107551331D01*
X333950890Y-107958075D01*
X333865000Y-108389872D01*
X320030226Y-108389872D01*
X320045000Y-108315603D01*
X320045000Y-107284397D01*
X319843822Y-106273007D01*
X319449197Y-105320298D01*
X318876290Y-104462882D01*
X318147118Y-103733710D01*
X317289702Y-103160803D01*
X316336993Y-102766178D01*
X315325603Y-102565000D01*
X314294397Y-102565000D01*
X313283007Y-102766178D01*
X312330298Y-103160803D01*
X311472882Y-103733710D01*
X310743710Y-104462882D01*
X310170803Y-105320298D01*
X309776178Y-106273007D01*
X309575000Y-107284397D01*
X295312272Y-107284397D01*
X295246038Y-107185271D01*
X294934729Y-106873962D01*
X294568669Y-106629369D01*
X294161925Y-106460890D01*
X293730128Y-106375000D01*
X293289872Y-106375000D01*
X292858075Y-106460890D01*
X292451331Y-106629369D01*
X292085271Y-106873962D01*
X291773962Y-107185271D01*
X291529369Y-107551331D01*
X291360890Y-107958075D01*
X291275000Y-108389872D01*
X287686944Y-108389872D01*
X287699977Y-89232652D01*
X287703193Y-89200000D01*
X287696710Y-89134180D01*
X287690537Y-89071060D01*
X287690473Y-89070848D01*
X287690450Y-89070617D01*
X287671328Y-89007581D01*
X287652882Y-88946624D01*
X287652777Y-88946426D01*
X287652710Y-88946207D01*
X287621707Y-88888205D01*
X287591675Y-88831926D01*
X287591534Y-88831754D01*
X287591425Y-88831550D01*
X287549618Y-88780608D01*
X287509266Y-88731371D01*
X287509093Y-88731229D01*
X287508948Y-88731052D01*
X287458491Y-88689643D01*
X287408825Y-88648826D01*
X287408626Y-88648719D01*
X287408450Y-88648575D01*
X287350826Y-88617775D01*
X287294209Y-88587463D01*
X287293995Y-88587398D01*
X287293793Y-88587290D01*
X287231532Y-88568403D01*
X287169825Y-88549638D01*
X287169599Y-88549616D01*
X287169383Y-88549550D01*
X287105137Y-88543222D01*
X287040451Y-88536807D01*
X287007804Y-88540000D01*
X252500745Y-88540000D01*
X252525950Y-66190000D01*
X294341928Y-66190000D01*
X294341928Y-68700000D01*
X294354188Y-68824482D01*
X294390498Y-68944180D01*
X294449463Y-69054494D01*
X294528815Y-69151185D01*
X294625506Y-69230537D01*
X294735820Y-69289502D01*
X294855518Y-69325812D01*
X294980000Y-69338072D01*
X295980000Y-69338072D01*
X296104482Y-69325812D01*
X296224180Y-69289502D01*
X296334494Y-69230537D01*
X296431185Y-69151185D01*
X296510537Y-69054494D01*
X296569502Y-68944180D01*
X296605812Y-68824482D01*
X296618072Y-68700000D01*
X296618072Y-66190000D01*
X296605812Y-66065518D01*
X296569502Y-65945820D01*
X296510537Y-65835506D01*
X296431185Y-65738815D01*
X296334494Y-65659463D01*
X296224180Y-65600498D01*
X296104482Y-65564188D01*
X295980000Y-65551928D01*
X294980000Y-65551928D01*
X294855518Y-65564188D01*
X294735820Y-65600498D01*
X294625506Y-65659463D01*
X294528815Y-65738815D01*
X294449463Y-65835506D01*
X294390498Y-65945820D01*
X294354188Y-66065518D01*
X294341928Y-66190000D01*
X252525950Y-66190000D01*
X252526853Y-65390000D01*
X291801928Y-65390000D01*
X291814188Y-65514482D01*
X291850498Y-65634180D01*
X291909463Y-65744494D01*
X291988815Y-65841185D01*
X292085506Y-65920537D01*
X292195820Y-65979502D01*
X292315518Y-66015812D01*
X292440000Y-66028072D01*
X292654250Y-66025000D01*
X292813000Y-65866250D01*
X292813000Y-64262000D01*
X293067000Y-64262000D01*
X293067000Y-65866250D01*
X293225750Y-66025000D01*
X293440000Y-66028072D01*
X293564482Y-66015812D01*
X293684180Y-65979502D01*
X293794494Y-65920537D01*
X293891185Y-65841185D01*
X293970537Y-65744494D01*
X294029502Y-65634180D01*
X294065812Y-65514482D01*
X294078072Y-65390000D01*
X294075000Y-64420750D01*
X293916250Y-64262000D01*
X293067000Y-64262000D01*
X292813000Y-64262000D01*
X291963750Y-64262000D01*
X291805000Y-64420750D01*
X291801928Y-65390000D01*
X252526853Y-65390000D01*
X252529683Y-62880000D01*
X291801928Y-62880000D01*
X291805000Y-63849250D01*
X291963750Y-64008000D01*
X292813000Y-64008000D01*
X292813000Y-62403750D01*
X293067000Y-62403750D01*
X293067000Y-64008000D01*
X293916250Y-64008000D01*
X294075000Y-63849250D01*
X294078072Y-62880000D01*
X294065812Y-62755518D01*
X294029502Y-62635820D01*
X293970537Y-62525506D01*
X293891185Y-62428815D01*
X293794494Y-62349463D01*
X293684180Y-62290498D01*
X293564482Y-62254188D01*
X293440000Y-62241928D01*
X293225750Y-62245000D01*
X293067000Y-62403750D01*
X292813000Y-62403750D01*
X292654250Y-62245000D01*
X292440000Y-62241928D01*
X292315518Y-62254188D01*
X292195820Y-62290498D01*
X292085506Y-62349463D01*
X291988815Y-62428815D01*
X291909463Y-62525506D01*
X291850498Y-62635820D01*
X291814188Y-62755518D01*
X291801928Y-62880000D01*
X252529683Y-62880000D01*
X252534686Y-58445000D01*
X265096928Y-58445000D01*
X265096928Y-60645000D01*
X265109188Y-60769482D01*
X265145498Y-60889180D01*
X265204463Y-60999494D01*
X265283815Y-61096185D01*
X265380506Y-61175537D01*
X265490820Y-61234502D01*
X265610518Y-61270812D01*
X265735000Y-61283072D01*
X268835000Y-61283072D01*
X268959482Y-61270812D01*
X269079180Y-61234502D01*
X269189494Y-61175537D01*
X269286185Y-61096185D01*
X269365537Y-60999494D01*
X269424502Y-60889180D01*
X269460812Y-60769482D01*
X269473072Y-60645000D01*
X269473072Y-58445000D01*
X269460812Y-58320518D01*
X269424502Y-58200820D01*
X269365537Y-58090506D01*
X269359436Y-58083072D01*
X270785000Y-58083072D01*
X270909482Y-58070812D01*
X271029180Y-58034502D01*
X271139494Y-57975537D01*
X271236185Y-57896185D01*
X271311018Y-57805000D01*
X272660199Y-57805000D01*
X276316200Y-61461002D01*
X276339999Y-61490001D01*
X276368997Y-61513799D01*
X276455723Y-61584974D01*
X276558190Y-61639744D01*
X276587753Y-61655546D01*
X276731014Y-61699003D01*
X276842667Y-61710000D01*
X276842677Y-61710000D01*
X276880000Y-61713676D01*
X276917323Y-61710000D01*
X300316289Y-61710000D01*
X300206063Y-61820226D01*
X300092795Y-61989744D01*
X300014774Y-62178102D01*
X299975000Y-62378061D01*
X299975000Y-62581939D01*
X300014774Y-62781898D01*
X300092795Y-62970256D01*
X300206063Y-63139774D01*
X300350226Y-63283937D01*
X300519744Y-63397205D01*
X300599707Y-63430327D01*
X300469311Y-63500026D01*
X300353586Y-63594999D01*
X300329788Y-63623997D01*
X299158072Y-64795714D01*
X299158072Y-62880000D01*
X299145812Y-62755518D01*
X299109502Y-62635820D01*
X299050537Y-62525506D01*
X298971185Y-62428815D01*
X298874494Y-62349463D01*
X298764180Y-62290498D01*
X298644482Y-62254188D01*
X298520000Y-62241928D01*
X297520000Y-62241928D01*
X297395518Y-62254188D01*
X297275820Y-62290498D01*
X297165506Y-62349463D01*
X297068815Y-62428815D01*
X296989463Y-62525506D01*
X296930498Y-62635820D01*
X296894188Y-62755518D01*
X296881928Y-62880000D01*
X296881928Y-65390000D01*
X296894188Y-65514482D01*
X296930498Y-65634180D01*
X296989463Y-65744494D01*
X297068815Y-65841185D01*
X297165506Y-65920537D01*
X297275820Y-65979502D01*
X297395518Y-66015812D01*
X297520000Y-66028072D01*
X298128183Y-66028072D01*
X298119989Y-66111266D01*
X298119989Y-66111276D01*
X298116313Y-66148598D01*
X298119989Y-66185921D01*
X298119990Y-70652657D01*
X298116313Y-70689989D01*
X298119990Y-70727322D01*
X298130987Y-70838975D01*
X298143432Y-70880001D01*
X298174443Y-70982235D01*
X298245015Y-71114265D01*
X298316190Y-71200991D01*
X298339989Y-71229990D01*
X298368987Y-71253788D01*
X300825000Y-73709802D01*
X300825001Y-73956928D01*
X300710000Y-73956928D01*
X300610000Y-73966777D01*
X300510000Y-73956928D01*
X300060000Y-73956928D01*
X299956773Y-73967095D01*
X299891750Y-73960000D01*
X299859503Y-73992247D01*
X299815820Y-74005498D01*
X299705506Y-74064463D01*
X299608815Y-74143815D01*
X299537000Y-74231322D01*
X299537000Y-74118750D01*
X299378250Y-73960000D01*
X299276004Y-73971156D01*
X299156873Y-74009285D01*
X299047469Y-74069922D01*
X298951997Y-74150737D01*
X298874126Y-74248625D01*
X298816849Y-74359825D01*
X298782366Y-74480061D01*
X298772002Y-74604715D01*
X298775000Y-75034250D01*
X298933750Y-75193000D01*
X299421928Y-75193000D01*
X299421928Y-75447000D01*
X298933750Y-75447000D01*
X298775000Y-75605750D01*
X298772002Y-76035285D01*
X298782366Y-76159939D01*
X298816849Y-76280175D01*
X298874126Y-76391375D01*
X298951997Y-76489263D01*
X299047469Y-76570078D01*
X299156873Y-76630715D01*
X299276004Y-76668844D01*
X299378250Y-76680000D01*
X299537000Y-76521250D01*
X299537000Y-76408678D01*
X299608815Y-76496185D01*
X299705506Y-76575537D01*
X299815820Y-76634502D01*
X299859503Y-76647753D01*
X299891750Y-76680000D01*
X299956773Y-76672905D01*
X300060000Y-76683072D01*
X300280674Y-76683072D01*
X300300026Y-76719276D01*
X300371201Y-76806002D01*
X300395000Y-76835001D01*
X300423998Y-76858799D01*
X301006200Y-77441002D01*
X301029999Y-77470001D01*
X301058997Y-77493799D01*
X301145724Y-77564974D01*
X301277753Y-77635546D01*
X301421014Y-77679003D01*
X301570000Y-77693677D01*
X301607333Y-77690000D01*
X302442678Y-77690000D01*
X302480000Y-77693676D01*
X302517322Y-77690000D01*
X302517333Y-77690000D01*
X302628986Y-77679003D01*
X302772247Y-77635546D01*
X302904276Y-77564974D01*
X303020001Y-77470001D01*
X303043803Y-77440998D01*
X303621004Y-76863798D01*
X303650001Y-76840001D01*
X303744974Y-76724276D01*
X303815546Y-76592247D01*
X303859003Y-76448986D01*
X303870000Y-76337333D01*
X303870000Y-76337332D01*
X303873677Y-76300000D01*
X303870000Y-76262667D01*
X303870000Y-74724802D01*
X306090001Y-76944803D01*
X306090000Y-85221928D01*
X305536731Y-85221928D01*
X302345000Y-82030199D01*
X302345000Y-80791144D01*
X302399502Y-80689180D01*
X302435812Y-80569482D01*
X302448072Y-80445000D01*
X302448072Y-78995000D01*
X302435812Y-78870518D01*
X302399502Y-78750820D01*
X302340537Y-78640506D01*
X302261185Y-78543815D01*
X302164494Y-78464463D01*
X302054180Y-78405498D01*
X301934482Y-78369188D01*
X301810000Y-78356928D01*
X301360000Y-78356928D01*
X301260000Y-78366777D01*
X301160000Y-78356928D01*
X300710000Y-78356928D01*
X300610000Y-78366777D01*
X300510000Y-78356928D01*
X300060000Y-78356928D01*
X299960000Y-78366777D01*
X299860000Y-78356928D01*
X299410000Y-78356928D01*
X299285518Y-78369188D01*
X299165820Y-78405498D01*
X299055506Y-78464463D01*
X298958815Y-78543815D01*
X298879463Y-78640506D01*
X298820498Y-78750820D01*
X298784188Y-78870518D01*
X298771928Y-78995000D01*
X298771928Y-80445000D01*
X298775359Y-80479839D01*
X293728998Y-85526201D01*
X293700000Y-85549999D01*
X293676202Y-85578997D01*
X293676201Y-85578998D01*
X293605026Y-85665724D01*
X293534454Y-85797754D01*
X293490998Y-85941015D01*
X293476324Y-86090000D01*
X293480001Y-86127332D01*
X293480001Y-88539807D01*
X293400000Y-88531928D01*
X292400000Y-88531928D01*
X292275518Y-88544188D01*
X292155820Y-88580498D01*
X292045506Y-88639463D01*
X291948815Y-88718815D01*
X291869463Y-88815506D01*
X291810498Y-88925820D01*
X291774188Y-89045518D01*
X291761928Y-89170000D01*
X291761928Y-91680000D01*
X291774188Y-91804482D01*
X291810498Y-91924180D01*
X291869463Y-92034494D01*
X291948815Y-92131185D01*
X292045506Y-92210537D01*
X292155820Y-92269502D01*
X292275518Y-92305812D01*
X292400000Y-92318072D01*
X293400000Y-92318072D01*
X293480001Y-92310193D01*
X293480000Y-98582678D01*
X293476324Y-98620000D01*
X293480000Y-98657322D01*
X293480000Y-98657332D01*
X293490997Y-98768985D01*
X293509620Y-98830377D01*
X293534454Y-98912246D01*
X293605026Y-99044276D01*
X293630692Y-99075550D01*
X293699999Y-99160001D01*
X293729003Y-99183804D01*
X296416201Y-101871003D01*
X296439999Y-101900001D01*
X296555724Y-101994974D01*
X296687753Y-102065546D01*
X296831014Y-102109003D01*
X296942667Y-102120000D01*
X296942676Y-102120000D01*
X296979999Y-102123676D01*
X297017322Y-102120000D01*
X298242678Y-102120000D01*
X298280000Y-102123676D01*
X298317322Y-102120000D01*
X298317333Y-102120000D01*
X298428986Y-102109003D01*
X298572247Y-102065546D01*
X298704276Y-101994974D01*
X298820001Y-101900001D01*
X298843804Y-101870998D01*
X299801003Y-100913799D01*
X299830001Y-100890001D01*
X299924974Y-100774276D01*
X299957923Y-100712634D01*
X300034180Y-100689502D01*
X300144494Y-100630537D01*
X300241185Y-100551185D01*
X300320537Y-100454494D01*
X300379502Y-100344180D01*
X300415812Y-100224482D01*
X300428072Y-100100000D01*
X300428072Y-98680000D01*
X304082678Y-98680000D01*
X304120000Y-98683676D01*
X304157322Y-98680000D01*
X304157333Y-98680000D01*
X304268986Y-98669003D01*
X304412247Y-98625546D01*
X304544276Y-98554974D01*
X304660001Y-98460001D01*
X304683804Y-98430997D01*
X305106204Y-98008597D01*
X305988609Y-98891003D01*
X306012407Y-98920001D01*
X306128132Y-99014974D01*
X306260161Y-99085546D01*
X306403422Y-99129003D01*
X306515075Y-99140000D01*
X306515084Y-99140000D01*
X306552407Y-99143676D01*
X306589730Y-99140000D01*
X310062678Y-99140000D01*
X310100000Y-99143676D01*
X310137322Y-99140000D01*
X310137333Y-99140000D01*
X310248986Y-99129003D01*
X310392247Y-99085546D01*
X310524276Y-99014974D01*
X310640001Y-98920001D01*
X310663804Y-98890997D01*
X312081003Y-97473799D01*
X312110001Y-97450001D01*
X312167450Y-97379999D01*
X312204974Y-97334277D01*
X312275546Y-97202247D01*
X312276266Y-97199875D01*
X312319003Y-97058986D01*
X312330000Y-96947333D01*
X312330000Y-96947323D01*
X312333676Y-96910000D01*
X312330000Y-96872677D01*
X312330000Y-63807322D01*
X312333676Y-63769999D01*
X312330000Y-63732676D01*
X312330000Y-63732667D01*
X312319003Y-63621014D01*
X312275546Y-63477753D01*
X312234528Y-63401014D01*
X312204974Y-63345723D01*
X312133799Y-63258997D01*
X312110001Y-63229999D01*
X312081004Y-63206202D01*
X309323804Y-60449003D01*
X309300001Y-60419999D01*
X309184276Y-60325026D01*
X309052247Y-60254454D01*
X308908986Y-60210997D01*
X308812093Y-60201454D01*
X308754180Y-60170498D01*
X308634482Y-60134188D01*
X308510000Y-60121928D01*
X307910000Y-60121928D01*
X307785518Y-60134188D01*
X307665820Y-60170498D01*
X307629335Y-60190000D01*
X306533922Y-60190000D01*
X306587205Y-60110256D01*
X306665226Y-59921898D01*
X306705000Y-59721939D01*
X306705000Y-59518061D01*
X306665226Y-59318102D01*
X306587205Y-59129744D01*
X306473937Y-58960226D01*
X306329774Y-58816063D01*
X306160256Y-58702795D01*
X305971898Y-58624774D01*
X305771939Y-58585000D01*
X305709802Y-58585000D01*
X302408804Y-55284003D01*
X302385001Y-55254999D01*
X302269276Y-55160026D01*
X302137247Y-55089454D01*
X301993986Y-55045997D01*
X301882333Y-55035000D01*
X301882322Y-55035000D01*
X301845000Y-55031324D01*
X301807678Y-55035000D01*
X299785000Y-55035000D01*
X299785000Y-54958061D01*
X299745226Y-54758102D01*
X299667205Y-54569744D01*
X299553937Y-54400226D01*
X299409774Y-54256063D01*
X299240256Y-54142795D01*
X299051898Y-54064774D01*
X298851939Y-54025000D01*
X298791415Y-54025000D01*
X298775001Y-54004999D01*
X298659276Y-53910026D01*
X298527247Y-53839454D01*
X298383986Y-53795997D01*
X298272333Y-53785000D01*
X298272322Y-53785000D01*
X298235000Y-53781324D01*
X298197678Y-53785000D01*
X271414208Y-53785000D01*
X271423072Y-53695000D01*
X271420000Y-53580750D01*
X271261250Y-53422000D01*
X270162000Y-53422000D01*
X270162000Y-53442000D01*
X269908000Y-53442000D01*
X269908000Y-53422000D01*
X268808750Y-53422000D01*
X268650000Y-53580750D01*
X268646928Y-53695000D01*
X268659188Y-53819482D01*
X268689680Y-53920000D01*
X268659188Y-54020518D01*
X268646928Y-54145000D01*
X268646928Y-54945000D01*
X268659188Y-55069482D01*
X268689680Y-55170000D01*
X268659188Y-55270518D01*
X268646928Y-55395000D01*
X268646928Y-56195000D01*
X268659188Y-56319482D01*
X268689680Y-56420000D01*
X268659188Y-56520518D01*
X268646928Y-56645000D01*
X268646928Y-57445000D01*
X268659188Y-57569482D01*
X268695498Y-57689180D01*
X268754463Y-57799494D01*
X268760564Y-57806928D01*
X265735000Y-57806928D01*
X265610518Y-57819188D01*
X265490820Y-57855498D01*
X265380506Y-57914463D01*
X265283815Y-57993815D01*
X265204463Y-58090506D01*
X265145498Y-58200820D01*
X265109188Y-58320518D01*
X265096928Y-58445000D01*
X252534686Y-58445000D01*
X252544554Y-49695000D01*
X265096928Y-49695000D01*
X265096928Y-51895000D01*
X265109188Y-52019482D01*
X265145498Y-52139180D01*
X265204463Y-52249494D01*
X265283815Y-52346185D01*
X265380506Y-52425537D01*
X265490820Y-52484502D01*
X265610518Y-52520812D01*
X265735000Y-52533072D01*
X268760564Y-52533072D01*
X268754463Y-52540506D01*
X268695498Y-52650820D01*
X268659188Y-52770518D01*
X268646928Y-52895000D01*
X268650000Y-53009250D01*
X268808750Y-53168000D01*
X269908000Y-53168000D01*
X269908000Y-52418750D01*
X270162000Y-52418750D01*
X270162000Y-53168000D01*
X271261250Y-53168000D01*
X271420000Y-53009250D01*
X271423072Y-52895000D01*
X271410812Y-52770518D01*
X271374502Y-52650820D01*
X271315537Y-52540506D01*
X271236185Y-52443815D01*
X271139494Y-52364463D01*
X271029180Y-52305498D01*
X270909482Y-52269188D01*
X270785000Y-52256928D01*
X270320750Y-52260000D01*
X270162000Y-52418750D01*
X269908000Y-52418750D01*
X269749250Y-52260000D01*
X269359034Y-52257418D01*
X269365537Y-52249494D01*
X269424502Y-52139180D01*
X269460812Y-52019482D01*
X269473072Y-51895000D01*
X269473072Y-49695000D01*
X269460812Y-49570518D01*
X269424502Y-49450820D01*
X269365537Y-49340506D01*
X269286185Y-49243815D01*
X269189494Y-49164463D01*
X269079180Y-49105498D01*
X268959482Y-49069188D01*
X268835000Y-49056928D01*
X265735000Y-49056928D01*
X265610518Y-49069188D01*
X265490820Y-49105498D01*
X265380506Y-49164463D01*
X265283815Y-49243815D01*
X265204463Y-49340506D01*
X265145498Y-49450820D01*
X265109188Y-49570518D01*
X265096928Y-49695000D01*
X252544554Y-49695000D01*
X252546285Y-48160958D01*
X252859074Y-48629080D01*
X253260920Y-49030926D01*
X253733440Y-49346654D01*
X254258477Y-49564131D01*
X254815852Y-49675000D01*
X255384148Y-49675000D01*
X255941523Y-49564131D01*
X256466560Y-49346654D01*
X256939080Y-49030926D01*
X257340926Y-48629080D01*
X257656654Y-48156560D01*
X257874131Y-47631523D01*
X257985000Y-47074148D01*
X257985000Y-46505852D01*
X257874131Y-45948477D01*
X257800151Y-45769872D01*
X291275000Y-45769872D01*
X291275000Y-46210128D01*
X291360890Y-46641925D01*
X291529369Y-47048669D01*
X291773962Y-47414729D01*
X292085271Y-47726038D01*
X292451331Y-47970631D01*
X292858075Y-48139110D01*
X293289872Y-48225000D01*
X293730128Y-48225000D01*
X294161925Y-48139110D01*
X294568669Y-47970631D01*
X294934729Y-47726038D01*
X295246038Y-47414729D01*
X295490631Y-47048669D01*
X295659110Y-46641925D01*
X295736194Y-46254397D01*
X309555000Y-46254397D01*
X309555000Y-47285603D01*
X309756178Y-48296993D01*
X310150803Y-49249702D01*
X310723710Y-50107118D01*
X311452882Y-50836290D01*
X312310298Y-51409197D01*
X313263007Y-51803822D01*
X314274397Y-52005000D01*
X315305603Y-52005000D01*
X316316993Y-51803822D01*
X317269702Y-51409197D01*
X318127118Y-50836290D01*
X318856290Y-50107118D01*
X319429197Y-49249702D01*
X319823822Y-48296993D01*
X320025000Y-47285603D01*
X320025000Y-46254397D01*
X319928622Y-45769872D01*
X333865000Y-45769872D01*
X333865000Y-46210128D01*
X333950890Y-46641925D01*
X334119369Y-47048669D01*
X334363962Y-47414729D01*
X334675271Y-47726038D01*
X335041331Y-47970631D01*
X335448075Y-48139110D01*
X335879872Y-48225000D01*
X336320128Y-48225000D01*
X336751925Y-48139110D01*
X337158669Y-47970631D01*
X337524729Y-47726038D01*
X337836038Y-47414729D01*
X338080631Y-47048669D01*
X338249110Y-46641925D01*
X338335000Y-46210128D01*
X338335000Y-45769872D01*
X338249110Y-45338075D01*
X338080631Y-44931331D01*
X337836038Y-44565271D01*
X337524729Y-44253962D01*
X337158669Y-44009369D01*
X336751925Y-43840890D01*
X336320128Y-43755000D01*
X335879872Y-43755000D01*
X335448075Y-43840890D01*
X335041331Y-44009369D01*
X334675271Y-44253962D01*
X334363962Y-44565271D01*
X334119369Y-44931331D01*
X333950890Y-45338075D01*
X333865000Y-45769872D01*
X319928622Y-45769872D01*
X319823822Y-45243007D01*
X319429197Y-44290298D01*
X318856290Y-43432882D01*
X318127118Y-42703710D01*
X317269702Y-42130803D01*
X316316993Y-41736178D01*
X315305603Y-41535000D01*
X314274397Y-41535000D01*
X313263007Y-41736178D01*
X312310298Y-42130803D01*
X311452882Y-42703710D01*
X310723710Y-43432882D01*
X310150803Y-44290298D01*
X309756178Y-45243007D01*
X309555000Y-46254397D01*
X295736194Y-46254397D01*
X295745000Y-46210128D01*
X295745000Y-45769872D01*
X295659110Y-45338075D01*
X295490631Y-44931331D01*
X295246038Y-44565271D01*
X294934729Y-44253962D01*
X294568669Y-44009369D01*
X294161925Y-43840890D01*
X293730128Y-43755000D01*
X293289872Y-43755000D01*
X292858075Y-43840890D01*
X292451331Y-44009369D01*
X292085271Y-44253962D01*
X291773962Y-44565271D01*
X291529369Y-44931331D01*
X291360890Y-45338075D01*
X291275000Y-45769872D01*
X257800151Y-45769872D01*
X257656654Y-45423440D01*
X257340926Y-44950920D01*
X256939080Y-44549074D01*
X256466560Y-44233346D01*
X255941523Y-44015869D01*
X255384148Y-43905000D01*
X254815852Y-43905000D01*
X254258477Y-44015869D01*
X253733440Y-44233346D01*
X253260920Y-44549074D01*
X252859074Y-44950920D01*
X252549383Y-45414406D01*
X252559256Y-36660000D01*
X349140001Y-36660000D01*
X349140001Y-45408517D01*
X349140001Y-45408517D01*
G37*
X349140001Y-45408517D02*
X348840926Y-44960920D01*
X348439080Y-44559074D01*
X347966560Y-44243346D01*
X347441523Y-44025869D01*
X346884148Y-43915000D01*
X346315852Y-43915000D01*
X345758477Y-44025869D01*
X345233440Y-44243346D01*
X344760920Y-44559074D01*
X344359074Y-44960920D01*
X344043346Y-45433440D01*
X343825869Y-45958477D01*
X343715000Y-46515852D01*
X343715000Y-47084148D01*
X343825869Y-47641523D01*
X344043346Y-48166560D01*
X344359074Y-48639080D01*
X344760920Y-49040926D01*
X345233440Y-49356654D01*
X345758477Y-49574131D01*
X346315852Y-49685000D01*
X346884148Y-49685000D01*
X347441523Y-49574131D01*
X347966560Y-49356654D01*
X348439080Y-49040926D01*
X348840926Y-48639080D01*
X349140001Y-48191483D01*
X349140000Y-106408516D01*
X348840926Y-105960920D01*
X348439080Y-105559074D01*
X347966560Y-105243346D01*
X347441523Y-105025869D01*
X346884148Y-104915000D01*
X346315852Y-104915000D01*
X345758477Y-105025869D01*
X345233440Y-105243346D01*
X344760920Y-105559074D01*
X344359074Y-105960920D01*
X344043346Y-106433440D01*
X343825869Y-106958477D01*
X343715000Y-107515852D01*
X343715000Y-108084148D01*
X343825869Y-108641523D01*
X344043346Y-109166560D01*
X344359074Y-109639080D01*
X344760920Y-110040926D01*
X345233440Y-110356654D01*
X345758477Y-110574131D01*
X346315852Y-110685000D01*
X346884148Y-110685000D01*
X347441523Y-110574131D01*
X347966560Y-110356654D01*
X348439080Y-110040926D01*
X348840926Y-109639080D01*
X349140000Y-109191484D01*
X349140000Y-117940000D01*
X287680448Y-117940000D01*
X287686944Y-108389872D01*
X291275000Y-108389872D01*
X291275000Y-108830128D01*
X291360890Y-109261925D01*
X291529369Y-109668669D01*
X291773962Y-110034729D01*
X292085271Y-110346038D01*
X292451331Y-110590631D01*
X292858075Y-110759110D01*
X293289872Y-110845000D01*
X293730128Y-110845000D01*
X294161925Y-110759110D01*
X294568669Y-110590631D01*
X294934729Y-110346038D01*
X295246038Y-110034729D01*
X295490631Y-109668669D01*
X295659110Y-109261925D01*
X295745000Y-108830128D01*
X295745000Y-108389872D01*
X295659110Y-107958075D01*
X295490631Y-107551331D01*
X295312272Y-107284397D01*
X309575000Y-107284397D01*
X309575000Y-108315603D01*
X309776178Y-109326993D01*
X310170803Y-110279702D01*
X310743710Y-111137118D01*
X311472882Y-111866290D01*
X312330298Y-112439197D01*
X313283007Y-112833822D01*
X314294397Y-113035000D01*
X315325603Y-113035000D01*
X316336993Y-112833822D01*
X317289702Y-112439197D01*
X318147118Y-111866290D01*
X318876290Y-111137118D01*
X319449197Y-110279702D01*
X319843822Y-109326993D01*
X320030226Y-108389872D01*
X333865000Y-108389872D01*
X333865000Y-108830128D01*
X333950890Y-109261925D01*
X334119369Y-109668669D01*
X334363962Y-110034729D01*
X334675271Y-110346038D01*
X335041331Y-110590631D01*
X335448075Y-110759110D01*
X335879872Y-110845000D01*
X336320128Y-110845000D01*
X336751925Y-110759110D01*
X337158669Y-110590631D01*
X337524729Y-110346038D01*
X337836038Y-110034729D01*
X338080631Y-109668669D01*
X338249110Y-109261925D01*
X338335000Y-108830128D01*
X338335000Y-108389872D01*
X338249110Y-107958075D01*
X338080631Y-107551331D01*
X337836038Y-107185271D01*
X337524729Y-106873962D01*
X337158669Y-106629369D01*
X336751925Y-106460890D01*
X336320128Y-106375000D01*
X335879872Y-106375000D01*
X335448075Y-106460890D01*
X335041331Y-106629369D01*
X334675271Y-106873962D01*
X334363962Y-107185271D01*
X334119369Y-107551331D01*
X333950890Y-107958075D01*
X333865000Y-108389872D01*
X320030226Y-108389872D01*
X320045000Y-108315603D01*
X320045000Y-107284397D01*
X319843822Y-106273007D01*
X319449197Y-105320298D01*
X318876290Y-104462882D01*
X318147118Y-103733710D01*
X317289702Y-103160803D01*
X316336993Y-102766178D01*
X315325603Y-102565000D01*
X314294397Y-102565000D01*
X313283007Y-102766178D01*
X312330298Y-103160803D01*
X311472882Y-103733710D01*
X310743710Y-104462882D01*
X310170803Y-105320298D01*
X309776178Y-106273007D01*
X309575000Y-107284397D01*
X295312272Y-107284397D01*
X295246038Y-107185271D01*
X294934729Y-106873962D01*
X294568669Y-106629369D01*
X294161925Y-106460890D01*
X293730128Y-106375000D01*
X293289872Y-106375000D01*
X292858075Y-106460890D01*
X292451331Y-106629369D01*
X292085271Y-106873962D01*
X291773962Y-107185271D01*
X291529369Y-107551331D01*
X291360890Y-107958075D01*
X291275000Y-108389872D01*
X287686944Y-108389872D01*
X287699977Y-89232652D01*
X287703193Y-89200000D01*
X287696710Y-89134180D01*
X287690537Y-89071060D01*
X287690473Y-89070848D01*
X287690450Y-89070617D01*
X287671328Y-89007581D01*
X287652882Y-88946624D01*
X287652777Y-88946426D01*
X287652710Y-88946207D01*
X287621707Y-88888205D01*
X287591675Y-88831926D01*
X287591534Y-88831754D01*
X287591425Y-88831550D01*
X287549618Y-88780608D01*
X287509266Y-88731371D01*
X287509093Y-88731229D01*
X287508948Y-88731052D01*
X287458491Y-88689643D01*
X287408825Y-88648826D01*
X287408626Y-88648719D01*
X287408450Y-88648575D01*
X287350826Y-88617775D01*
X287294209Y-88587463D01*
X287293995Y-88587398D01*
X287293793Y-88587290D01*
X287231532Y-88568403D01*
X287169825Y-88549638D01*
X287169599Y-88549616D01*
X287169383Y-88549550D01*
X287105137Y-88543222D01*
X287040451Y-88536807D01*
X287007804Y-88540000D01*
X252500745Y-88540000D01*
X252525950Y-66190000D01*
X294341928Y-66190000D01*
X294341928Y-68700000D01*
X294354188Y-68824482D01*
X294390498Y-68944180D01*
X294449463Y-69054494D01*
X294528815Y-69151185D01*
X294625506Y-69230537D01*
X294735820Y-69289502D01*
X294855518Y-69325812D01*
X294980000Y-69338072D01*
X295980000Y-69338072D01*
X296104482Y-69325812D01*
X296224180Y-69289502D01*
X296334494Y-69230537D01*
X296431185Y-69151185D01*
X296510537Y-69054494D01*
X296569502Y-68944180D01*
X296605812Y-68824482D01*
X296618072Y-68700000D01*
X296618072Y-66190000D01*
X296605812Y-66065518D01*
X296569502Y-65945820D01*
X296510537Y-65835506D01*
X296431185Y-65738815D01*
X296334494Y-65659463D01*
X296224180Y-65600498D01*
X296104482Y-65564188D01*
X295980000Y-65551928D01*
X294980000Y-65551928D01*
X294855518Y-65564188D01*
X294735820Y-65600498D01*
X294625506Y-65659463D01*
X294528815Y-65738815D01*
X294449463Y-65835506D01*
X294390498Y-65945820D01*
X294354188Y-66065518D01*
X294341928Y-66190000D01*
X252525950Y-66190000D01*
X252526853Y-65390000D01*
X291801928Y-65390000D01*
X291814188Y-65514482D01*
X291850498Y-65634180D01*
X291909463Y-65744494D01*
X291988815Y-65841185D01*
X292085506Y-65920537D01*
X292195820Y-65979502D01*
X292315518Y-66015812D01*
X292440000Y-66028072D01*
X292654250Y-66025000D01*
X292813000Y-65866250D01*
X292813000Y-64262000D01*
X293067000Y-64262000D01*
X293067000Y-65866250D01*
X293225750Y-66025000D01*
X293440000Y-66028072D01*
X293564482Y-66015812D01*
X293684180Y-65979502D01*
X293794494Y-65920537D01*
X293891185Y-65841185D01*
X293970537Y-65744494D01*
X294029502Y-65634180D01*
X294065812Y-65514482D01*
X294078072Y-65390000D01*
X294075000Y-64420750D01*
X293916250Y-64262000D01*
X293067000Y-64262000D01*
X292813000Y-64262000D01*
X291963750Y-64262000D01*
X291805000Y-64420750D01*
X291801928Y-65390000D01*
X252526853Y-65390000D01*
X252529683Y-62880000D01*
X291801928Y-62880000D01*
X291805000Y-63849250D01*
X291963750Y-64008000D01*
X292813000Y-64008000D01*
X292813000Y-62403750D01*
X293067000Y-62403750D01*
X293067000Y-64008000D01*
X293916250Y-64008000D01*
X294075000Y-63849250D01*
X294078072Y-62880000D01*
X294065812Y-62755518D01*
X294029502Y-62635820D01*
X293970537Y-62525506D01*
X293891185Y-62428815D01*
X293794494Y-62349463D01*
X293684180Y-62290498D01*
X293564482Y-62254188D01*
X293440000Y-62241928D01*
X293225750Y-62245000D01*
X293067000Y-62403750D01*
X292813000Y-62403750D01*
X292654250Y-62245000D01*
X292440000Y-62241928D01*
X292315518Y-62254188D01*
X292195820Y-62290498D01*
X292085506Y-62349463D01*
X291988815Y-62428815D01*
X291909463Y-62525506D01*
X291850498Y-62635820D01*
X291814188Y-62755518D01*
X291801928Y-62880000D01*
X252529683Y-62880000D01*
X252534686Y-58445000D01*
X265096928Y-58445000D01*
X265096928Y-60645000D01*
X265109188Y-60769482D01*
X265145498Y-60889180D01*
X265204463Y-60999494D01*
X265283815Y-61096185D01*
X265380506Y-61175537D01*
X265490820Y-61234502D01*
X265610518Y-61270812D01*
X265735000Y-61283072D01*
X268835000Y-61283072D01*
X268959482Y-61270812D01*
X269079180Y-61234502D01*
X269189494Y-61175537D01*
X269286185Y-61096185D01*
X269365537Y-60999494D01*
X269424502Y-60889180D01*
X269460812Y-60769482D01*
X269473072Y-60645000D01*
X269473072Y-58445000D01*
X269460812Y-58320518D01*
X269424502Y-58200820D01*
X269365537Y-58090506D01*
X269359436Y-58083072D01*
X270785000Y-58083072D01*
X270909482Y-58070812D01*
X271029180Y-58034502D01*
X271139494Y-57975537D01*
X271236185Y-57896185D01*
X271311018Y-57805000D01*
X272660199Y-57805000D01*
X276316200Y-61461002D01*
X276339999Y-61490001D01*
X276368997Y-61513799D01*
X276455723Y-61584974D01*
X276558190Y-61639744D01*
X276587753Y-61655546D01*
X276731014Y-61699003D01*
X276842667Y-61710000D01*
X276842677Y-61710000D01*
X276880000Y-61713676D01*
X276917323Y-61710000D01*
X300316289Y-61710000D01*
X300206063Y-61820226D01*
X300092795Y-61989744D01*
X300014774Y-62178102D01*
X299975000Y-62378061D01*
X299975000Y-62581939D01*
X300014774Y-62781898D01*
X300092795Y-62970256D01*
X300206063Y-63139774D01*
X300350226Y-63283937D01*
X300519744Y-63397205D01*
X300599707Y-63430327D01*
X300469311Y-63500026D01*
X300353586Y-63594999D01*
X300329788Y-63623997D01*
X299158072Y-64795714D01*
X299158072Y-62880000D01*
X299145812Y-62755518D01*
X299109502Y-62635820D01*
X299050537Y-62525506D01*
X298971185Y-62428815D01*
X298874494Y-62349463D01*
X298764180Y-62290498D01*
X298644482Y-62254188D01*
X298520000Y-62241928D01*
X297520000Y-62241928D01*
X297395518Y-62254188D01*
X297275820Y-62290498D01*
X297165506Y-62349463D01*
X297068815Y-62428815D01*
X296989463Y-62525506D01*
X296930498Y-62635820D01*
X296894188Y-62755518D01*
X296881928Y-62880000D01*
X296881928Y-65390000D01*
X296894188Y-65514482D01*
X296930498Y-65634180D01*
X296989463Y-65744494D01*
X297068815Y-65841185D01*
X297165506Y-65920537D01*
X297275820Y-65979502D01*
X297395518Y-66015812D01*
X297520000Y-66028072D01*
X298128183Y-66028072D01*
X298119989Y-66111266D01*
X298119989Y-66111276D01*
X298116313Y-66148598D01*
X298119989Y-66185921D01*
X298119990Y-70652657D01*
X298116313Y-70689989D01*
X298119990Y-70727322D01*
X298130987Y-70838975D01*
X298143432Y-70880001D01*
X298174443Y-70982235D01*
X298245015Y-71114265D01*
X298316190Y-71200991D01*
X298339989Y-71229990D01*
X298368987Y-71253788D01*
X300825000Y-73709802D01*
X300825001Y-73956928D01*
X300710000Y-73956928D01*
X300610000Y-73966777D01*
X300510000Y-73956928D01*
X300060000Y-73956928D01*
X299956773Y-73967095D01*
X299891750Y-73960000D01*
X299859503Y-73992247D01*
X299815820Y-74005498D01*
X299705506Y-74064463D01*
X299608815Y-74143815D01*
X299537000Y-74231322D01*
X299537000Y-74118750D01*
X299378250Y-73960000D01*
X299276004Y-73971156D01*
X299156873Y-74009285D01*
X299047469Y-74069922D01*
X298951997Y-74150737D01*
X298874126Y-74248625D01*
X298816849Y-74359825D01*
X298782366Y-74480061D01*
X298772002Y-74604715D01*
X298775000Y-75034250D01*
X298933750Y-75193000D01*
X299421928Y-75193000D01*
X299421928Y-75447000D01*
X298933750Y-75447000D01*
X298775000Y-75605750D01*
X298772002Y-76035285D01*
X298782366Y-76159939D01*
X298816849Y-76280175D01*
X298874126Y-76391375D01*
X298951997Y-76489263D01*
X299047469Y-76570078D01*
X299156873Y-76630715D01*
X299276004Y-76668844D01*
X299378250Y-76680000D01*
X299537000Y-76521250D01*
X299537000Y-76408678D01*
X299608815Y-76496185D01*
X299705506Y-76575537D01*
X299815820Y-76634502D01*
X299859503Y-76647753D01*
X299891750Y-76680000D01*
X299956773Y-76672905D01*
X300060000Y-76683072D01*
X300280674Y-76683072D01*
X300300026Y-76719276D01*
X300371201Y-76806002D01*
X300395000Y-76835001D01*
X300423998Y-76858799D01*
X301006200Y-77441002D01*
X301029999Y-77470001D01*
X301058997Y-77493799D01*
X301145724Y-77564974D01*
X301277753Y-77635546D01*
X301421014Y-77679003D01*
X301570000Y-77693677D01*
X301607333Y-77690000D01*
X302442678Y-77690000D01*
X302480000Y-77693676D01*
X302517322Y-77690000D01*
X302517333Y-77690000D01*
X302628986Y-77679003D01*
X302772247Y-77635546D01*
X302904276Y-77564974D01*
X303020001Y-77470001D01*
X303043803Y-77440998D01*
X303621004Y-76863798D01*
X303650001Y-76840001D01*
X303744974Y-76724276D01*
X303815546Y-76592247D01*
X303859003Y-76448986D01*
X303870000Y-76337333D01*
X303870000Y-76337332D01*
X303873677Y-76300000D01*
X303870000Y-76262667D01*
X303870000Y-74724802D01*
X306090001Y-76944803D01*
X306090000Y-85221928D01*
X305536731Y-85221928D01*
X302345000Y-82030199D01*
X302345000Y-80791144D01*
X302399502Y-80689180D01*
X302435812Y-80569482D01*
X302448072Y-80445000D01*
X302448072Y-78995000D01*
X302435812Y-78870518D01*
X302399502Y-78750820D01*
X302340537Y-78640506D01*
X302261185Y-78543815D01*
X302164494Y-78464463D01*
X302054180Y-78405498D01*
X301934482Y-78369188D01*
X301810000Y-78356928D01*
X301360000Y-78356928D01*
X301260000Y-78366777D01*
X301160000Y-78356928D01*
X300710000Y-78356928D01*
X300610000Y-78366777D01*
X300510000Y-78356928D01*
X300060000Y-78356928D01*
X299960000Y-78366777D01*
X299860000Y-78356928D01*
X299410000Y-78356928D01*
X299285518Y-78369188D01*
X299165820Y-78405498D01*
X299055506Y-78464463D01*
X298958815Y-78543815D01*
X298879463Y-78640506D01*
X298820498Y-78750820D01*
X298784188Y-78870518D01*
X298771928Y-78995000D01*
X298771928Y-80445000D01*
X298775359Y-80479839D01*
X293728998Y-85526201D01*
X293700000Y-85549999D01*
X293676202Y-85578997D01*
X293676201Y-85578998D01*
X293605026Y-85665724D01*
X293534454Y-85797754D01*
X293490998Y-85941015D01*
X293476324Y-86090000D01*
X293480001Y-86127332D01*
X293480001Y-88539807D01*
X293400000Y-88531928D01*
X292400000Y-88531928D01*
X292275518Y-88544188D01*
X292155820Y-88580498D01*
X292045506Y-88639463D01*
X291948815Y-88718815D01*
X291869463Y-88815506D01*
X291810498Y-88925820D01*
X291774188Y-89045518D01*
X291761928Y-89170000D01*
X291761928Y-91680000D01*
X291774188Y-91804482D01*
X291810498Y-91924180D01*
X291869463Y-92034494D01*
X291948815Y-92131185D01*
X292045506Y-92210537D01*
X292155820Y-92269502D01*
X292275518Y-92305812D01*
X292400000Y-92318072D01*
X293400000Y-92318072D01*
X293480001Y-92310193D01*
X293480000Y-98582678D01*
X293476324Y-98620000D01*
X293480000Y-98657322D01*
X293480000Y-98657332D01*
X293490997Y-98768985D01*
X293509620Y-98830377D01*
X293534454Y-98912246D01*
X293605026Y-99044276D01*
X293630692Y-99075550D01*
X293699999Y-99160001D01*
X293729003Y-99183804D01*
X296416201Y-101871003D01*
X296439999Y-101900001D01*
X296555724Y-101994974D01*
X296687753Y-102065546D01*
X296831014Y-102109003D01*
X296942667Y-102120000D01*
X296942676Y-102120000D01*
X296979999Y-102123676D01*
X297017322Y-102120000D01*
X298242678Y-102120000D01*
X298280000Y-102123676D01*
X298317322Y-102120000D01*
X298317333Y-102120000D01*
X298428986Y-102109003D01*
X298572247Y-102065546D01*
X298704276Y-101994974D01*
X298820001Y-101900001D01*
X298843804Y-101870998D01*
X299801003Y-100913799D01*
X299830001Y-100890001D01*
X299924974Y-100774276D01*
X299957923Y-100712634D01*
X300034180Y-100689502D01*
X300144494Y-100630537D01*
X300241185Y-100551185D01*
X300320537Y-100454494D01*
X300379502Y-100344180D01*
X300415812Y-100224482D01*
X300428072Y-100100000D01*
X300428072Y-98680000D01*
X304082678Y-98680000D01*
X304120000Y-98683676D01*
X304157322Y-98680000D01*
X304157333Y-98680000D01*
X304268986Y-98669003D01*
X304412247Y-98625546D01*
X304544276Y-98554974D01*
X304660001Y-98460001D01*
X304683804Y-98430997D01*
X305106204Y-98008597D01*
X305988609Y-98891003D01*
X306012407Y-98920001D01*
X306128132Y-99014974D01*
X306260161Y-99085546D01*
X306403422Y-99129003D01*
X306515075Y-99140000D01*
X306515084Y-99140000D01*
X306552407Y-99143676D01*
X306589730Y-99140000D01*
X310062678Y-99140000D01*
X310100000Y-99143676D01*
X310137322Y-99140000D01*
X310137333Y-99140000D01*
X310248986Y-99129003D01*
X310392247Y-99085546D01*
X310524276Y-99014974D01*
X310640001Y-98920001D01*
X310663804Y-98890997D01*
X312081003Y-97473799D01*
X312110001Y-97450001D01*
X312167450Y-97379999D01*
X312204974Y-97334277D01*
X312275546Y-97202247D01*
X312276266Y-97199875D01*
X312319003Y-97058986D01*
X312330000Y-96947333D01*
X312330000Y-96947323D01*
X312333676Y-96910000D01*
X312330000Y-96872677D01*
X312330000Y-63807322D01*
X312333676Y-63769999D01*
X312330000Y-63732676D01*
X312330000Y-63732667D01*
X312319003Y-63621014D01*
X312275546Y-63477753D01*
X312234528Y-63401014D01*
X312204974Y-63345723D01*
X312133799Y-63258997D01*
X312110001Y-63229999D01*
X312081004Y-63206202D01*
X309323804Y-60449003D01*
X309300001Y-60419999D01*
X309184276Y-60325026D01*
X309052247Y-60254454D01*
X308908986Y-60210997D01*
X308812093Y-60201454D01*
X308754180Y-60170498D01*
X308634482Y-60134188D01*
X308510000Y-60121928D01*
X307910000Y-60121928D01*
X307785518Y-60134188D01*
X307665820Y-60170498D01*
X307629335Y-60190000D01*
X306533922Y-60190000D01*
X306587205Y-60110256D01*
X306665226Y-59921898D01*
X306705000Y-59721939D01*
X306705000Y-59518061D01*
X306665226Y-59318102D01*
X306587205Y-59129744D01*
X306473937Y-58960226D01*
X306329774Y-58816063D01*
X306160256Y-58702795D01*
X305971898Y-58624774D01*
X305771939Y-58585000D01*
X305709802Y-58585000D01*
X302408804Y-55284003D01*
X302385001Y-55254999D01*
X302269276Y-55160026D01*
X302137247Y-55089454D01*
X301993986Y-55045997D01*
X301882333Y-55035000D01*
X301882322Y-55035000D01*
X301845000Y-55031324D01*
X301807678Y-55035000D01*
X299785000Y-55035000D01*
X299785000Y-54958061D01*
X299745226Y-54758102D01*
X299667205Y-54569744D01*
X299553937Y-54400226D01*
X299409774Y-54256063D01*
X299240256Y-54142795D01*
X299051898Y-54064774D01*
X298851939Y-54025000D01*
X298791415Y-54025000D01*
X298775001Y-54004999D01*
X298659276Y-53910026D01*
X298527247Y-53839454D01*
X298383986Y-53795997D01*
X298272333Y-53785000D01*
X298272322Y-53785000D01*
X298235000Y-53781324D01*
X298197678Y-53785000D01*
X271414208Y-53785000D01*
X271423072Y-53695000D01*
X271420000Y-53580750D01*
X271261250Y-53422000D01*
X270162000Y-53422000D01*
X270162000Y-53442000D01*
X269908000Y-53442000D01*
X269908000Y-53422000D01*
X268808750Y-53422000D01*
X268650000Y-53580750D01*
X268646928Y-53695000D01*
X268659188Y-53819482D01*
X268689680Y-53920000D01*
X268659188Y-54020518D01*
X268646928Y-54145000D01*
X268646928Y-54945000D01*
X268659188Y-55069482D01*
X268689680Y-55170000D01*
X268659188Y-55270518D01*
X268646928Y-55395000D01*
X268646928Y-56195000D01*
X268659188Y-56319482D01*
X268689680Y-56420000D01*
X268659188Y-56520518D01*
X268646928Y-56645000D01*
X268646928Y-57445000D01*
X268659188Y-57569482D01*
X268695498Y-57689180D01*
X268754463Y-57799494D01*
X268760564Y-57806928D01*
X265735000Y-57806928D01*
X265610518Y-57819188D01*
X265490820Y-57855498D01*
X265380506Y-57914463D01*
X265283815Y-57993815D01*
X265204463Y-58090506D01*
X265145498Y-58200820D01*
X265109188Y-58320518D01*
X265096928Y-58445000D01*
X252534686Y-58445000D01*
X252544554Y-49695000D01*
X265096928Y-49695000D01*
X265096928Y-51895000D01*
X265109188Y-52019482D01*
X265145498Y-52139180D01*
X265204463Y-52249494D01*
X265283815Y-52346185D01*
X265380506Y-52425537D01*
X265490820Y-52484502D01*
X265610518Y-52520812D01*
X265735000Y-52533072D01*
X268760564Y-52533072D01*
X268754463Y-52540506D01*
X268695498Y-52650820D01*
X268659188Y-52770518D01*
X268646928Y-52895000D01*
X268650000Y-53009250D01*
X268808750Y-53168000D01*
X269908000Y-53168000D01*
X269908000Y-52418750D01*
X270162000Y-52418750D01*
X270162000Y-53168000D01*
X271261250Y-53168000D01*
X271420000Y-53009250D01*
X271423072Y-52895000D01*
X271410812Y-52770518D01*
X271374502Y-52650820D01*
X271315537Y-52540506D01*
X271236185Y-52443815D01*
X271139494Y-52364463D01*
X271029180Y-52305498D01*
X270909482Y-52269188D01*
X270785000Y-52256928D01*
X270320750Y-52260000D01*
X270162000Y-52418750D01*
X269908000Y-52418750D01*
X269749250Y-52260000D01*
X269359034Y-52257418D01*
X269365537Y-52249494D01*
X269424502Y-52139180D01*
X269460812Y-52019482D01*
X269473072Y-51895000D01*
X269473072Y-49695000D01*
X269460812Y-49570518D01*
X269424502Y-49450820D01*
X269365537Y-49340506D01*
X269286185Y-49243815D01*
X269189494Y-49164463D01*
X269079180Y-49105498D01*
X268959482Y-49069188D01*
X268835000Y-49056928D01*
X265735000Y-49056928D01*
X265610518Y-49069188D01*
X265490820Y-49105498D01*
X265380506Y-49164463D01*
X265283815Y-49243815D01*
X265204463Y-49340506D01*
X265145498Y-49450820D01*
X265109188Y-49570518D01*
X265096928Y-49695000D01*
X252544554Y-49695000D01*
X252546285Y-48160958D01*
X252859074Y-48629080D01*
X253260920Y-49030926D01*
X253733440Y-49346654D01*
X254258477Y-49564131D01*
X254815852Y-49675000D01*
X255384148Y-49675000D01*
X255941523Y-49564131D01*
X256466560Y-49346654D01*
X256939080Y-49030926D01*
X257340926Y-48629080D01*
X257656654Y-48156560D01*
X257874131Y-47631523D01*
X257985000Y-47074148D01*
X257985000Y-46505852D01*
X257874131Y-45948477D01*
X257800151Y-45769872D01*
X291275000Y-45769872D01*
X291275000Y-46210128D01*
X291360890Y-46641925D01*
X291529369Y-47048669D01*
X291773962Y-47414729D01*
X292085271Y-47726038D01*
X292451331Y-47970631D01*
X292858075Y-48139110D01*
X293289872Y-48225000D01*
X293730128Y-48225000D01*
X294161925Y-48139110D01*
X294568669Y-47970631D01*
X294934729Y-47726038D01*
X295246038Y-47414729D01*
X295490631Y-47048669D01*
X295659110Y-46641925D01*
X295736194Y-46254397D01*
X309555000Y-46254397D01*
X309555000Y-47285603D01*
X309756178Y-48296993D01*
X310150803Y-49249702D01*
X310723710Y-50107118D01*
X311452882Y-50836290D01*
X312310298Y-51409197D01*
X313263007Y-51803822D01*
X314274397Y-52005000D01*
X315305603Y-52005000D01*
X316316993Y-51803822D01*
X317269702Y-51409197D01*
X318127118Y-50836290D01*
X318856290Y-50107118D01*
X319429197Y-49249702D01*
X319823822Y-48296993D01*
X320025000Y-47285603D01*
X320025000Y-46254397D01*
X319928622Y-45769872D01*
X333865000Y-45769872D01*
X333865000Y-46210128D01*
X333950890Y-46641925D01*
X334119369Y-47048669D01*
X334363962Y-47414729D01*
X334675271Y-47726038D01*
X335041331Y-47970631D01*
X335448075Y-48139110D01*
X335879872Y-48225000D01*
X336320128Y-48225000D01*
X336751925Y-48139110D01*
X337158669Y-47970631D01*
X337524729Y-47726038D01*
X337836038Y-47414729D01*
X338080631Y-47048669D01*
X338249110Y-46641925D01*
X338335000Y-46210128D01*
X338335000Y-45769872D01*
X338249110Y-45338075D01*
X338080631Y-44931331D01*
X337836038Y-44565271D01*
X337524729Y-44253962D01*
X337158669Y-44009369D01*
X336751925Y-43840890D01*
X336320128Y-43755000D01*
X335879872Y-43755000D01*
X335448075Y-43840890D01*
X335041331Y-44009369D01*
X334675271Y-44253962D01*
X334363962Y-44565271D01*
X334119369Y-44931331D01*
X333950890Y-45338075D01*
X333865000Y-45769872D01*
X319928622Y-45769872D01*
X319823822Y-45243007D01*
X319429197Y-44290298D01*
X318856290Y-43432882D01*
X318127118Y-42703710D01*
X317269702Y-42130803D01*
X316316993Y-41736178D01*
X315305603Y-41535000D01*
X314274397Y-41535000D01*
X313263007Y-41736178D01*
X312310298Y-42130803D01*
X311452882Y-42703710D01*
X310723710Y-43432882D01*
X310150803Y-44290298D01*
X309756178Y-45243007D01*
X309555000Y-46254397D01*
X295736194Y-46254397D01*
X295745000Y-46210128D01*
X295745000Y-45769872D01*
X295659110Y-45338075D01*
X295490631Y-44931331D01*
X295246038Y-44565271D01*
X294934729Y-44253962D01*
X294568669Y-44009369D01*
X294161925Y-43840890D01*
X293730128Y-43755000D01*
X293289872Y-43755000D01*
X292858075Y-43840890D01*
X292451331Y-44009369D01*
X292085271Y-44253962D01*
X291773962Y-44565271D01*
X291529369Y-44931331D01*
X291360890Y-45338075D01*
X291275000Y-45769872D01*
X257800151Y-45769872D01*
X257656654Y-45423440D01*
X257340926Y-44950920D01*
X256939080Y-44549074D01*
X256466560Y-44233346D01*
X255941523Y-44015869D01*
X255384148Y-43905000D01*
X254815852Y-43905000D01*
X254258477Y-44015869D01*
X253733440Y-44233346D01*
X253260920Y-44549074D01*
X252859074Y-44950920D01*
X252549383Y-45414406D01*
X252559256Y-36660000D01*
X349140001Y-36660000D01*
X349140001Y-45408517D01*
G36*
X310810000Y-64084802D02*
G01*
X310810001Y-96595197D01*
X309785199Y-97620000D01*
X307856018Y-97620000D01*
X307860537Y-97614494D01*
X307919502Y-97504180D01*
X307955812Y-97384482D01*
X307968072Y-97260000D01*
X307968072Y-95987094D01*
X308055166Y-95900000D01*
X308592678Y-95900000D01*
X308630000Y-95903676D01*
X308667322Y-95900000D01*
X308667333Y-95900000D01*
X308778986Y-95889003D01*
X308922247Y-95845546D01*
X309054276Y-95774974D01*
X309170001Y-95680001D01*
X309193803Y-95650998D01*
X309781004Y-95063798D01*
X309810001Y-95040001D01*
X309904974Y-94924276D01*
X309975546Y-94792247D01*
X310019003Y-94648986D01*
X310030000Y-94537333D01*
X310030000Y-94537325D01*
X310033676Y-94500000D01*
X310030000Y-94462675D01*
X310030000Y-74277322D01*
X310033676Y-74239999D01*
X310030000Y-74202676D01*
X310030000Y-74202667D01*
X310019003Y-74091014D01*
X309975546Y-73947753D01*
X309904974Y-73815724D01*
X309810001Y-73699999D01*
X309781003Y-73676201D01*
X306400000Y-70295199D01*
X306400000Y-69281046D01*
X306494494Y-69230537D01*
X306591185Y-69151185D01*
X306670537Y-69054494D01*
X306729502Y-68944180D01*
X306765812Y-68824482D01*
X306778072Y-68700000D01*
X306778072Y-66190000D01*
X306765812Y-66065518D01*
X306729502Y-65945820D01*
X306717129Y-65922672D01*
X307070743Y-65569058D01*
X307090498Y-65634180D01*
X307149463Y-65744494D01*
X307228815Y-65841185D01*
X307325506Y-65920537D01*
X307435820Y-65979502D01*
X307555518Y-66015812D01*
X307680000Y-66028072D01*
X308680000Y-66028072D01*
X308804482Y-66015812D01*
X308924180Y-65979502D01*
X309034494Y-65920537D01*
X309131185Y-65841185D01*
X309210537Y-65744494D01*
X309269502Y-65634180D01*
X309305812Y-65514482D01*
X309318072Y-65390000D01*
X309318072Y-62880000D01*
X309305812Y-62755518D01*
X309269502Y-62635820D01*
X309210537Y-62525506D01*
X309131185Y-62428815D01*
X309062856Y-62372739D01*
X309075076Y-62349877D01*
X310810000Y-64084802D01*
X310810000Y-64084802D01*
G37*
X310810000Y-64084802D02*
X310810001Y-96595197D01*
X309785199Y-97620000D01*
X307856018Y-97620000D01*
X307860537Y-97614494D01*
X307919502Y-97504180D01*
X307955812Y-97384482D01*
X307968072Y-97260000D01*
X307968072Y-95987094D01*
X308055166Y-95900000D01*
X308592678Y-95900000D01*
X308630000Y-95903676D01*
X308667322Y-95900000D01*
X308667333Y-95900000D01*
X308778986Y-95889003D01*
X308922247Y-95845546D01*
X309054276Y-95774974D01*
X309170001Y-95680001D01*
X309193803Y-95650998D01*
X309781004Y-95063798D01*
X309810001Y-95040001D01*
X309904974Y-94924276D01*
X309975546Y-94792247D01*
X310019003Y-94648986D01*
X310030000Y-94537333D01*
X310030000Y-94537325D01*
X310033676Y-94500000D01*
X310030000Y-94462675D01*
X310030000Y-74277322D01*
X310033676Y-74239999D01*
X310030000Y-74202676D01*
X310030000Y-74202667D01*
X310019003Y-74091014D01*
X309975546Y-73947753D01*
X309904974Y-73815724D01*
X309810001Y-73699999D01*
X309781003Y-73676201D01*
X306400000Y-70295199D01*
X306400000Y-69281046D01*
X306494494Y-69230537D01*
X306591185Y-69151185D01*
X306670537Y-69054494D01*
X306729502Y-68944180D01*
X306765812Y-68824482D01*
X306778072Y-68700000D01*
X306778072Y-66190000D01*
X306765812Y-66065518D01*
X306729502Y-65945820D01*
X306717129Y-65922672D01*
X307070743Y-65569058D01*
X307090498Y-65634180D01*
X307149463Y-65744494D01*
X307228815Y-65841185D01*
X307325506Y-65920537D01*
X307435820Y-65979502D01*
X307555518Y-66015812D01*
X307680000Y-66028072D01*
X308680000Y-66028072D01*
X308804482Y-66015812D01*
X308924180Y-65979502D01*
X309034494Y-65920537D01*
X309131185Y-65841185D01*
X309210537Y-65744494D01*
X309269502Y-65634180D01*
X309305812Y-65514482D01*
X309318072Y-65390000D01*
X309318072Y-62880000D01*
X309305812Y-62755518D01*
X309269502Y-62635820D01*
X309210537Y-62525506D01*
X309131185Y-62428815D01*
X309062856Y-62372739D01*
X309075076Y-62349877D01*
X310810000Y-64084802D01*
G36*
X304461928Y-86296731D02*
G01*
X304461928Y-86460674D01*
X304425724Y-86480026D01*
X304309999Y-86574999D01*
X304286201Y-86603997D01*
X302549003Y-88341196D01*
X302519999Y-88364999D01*
X302491276Y-88399999D01*
X302425026Y-88480724D01*
X302382508Y-88560268D01*
X302315820Y-88580498D01*
X302205506Y-88639463D01*
X302108815Y-88718815D01*
X302029463Y-88815506D01*
X301970498Y-88925820D01*
X301934188Y-89045518D01*
X301921928Y-89170000D01*
X301921928Y-91680000D01*
X301934188Y-91804482D01*
X301970498Y-91924180D01*
X302029463Y-92034494D01*
X302108815Y-92131185D01*
X302205506Y-92210537D01*
X302315820Y-92269502D01*
X302435518Y-92305812D01*
X302560000Y-92318072D01*
X303560000Y-92318072D01*
X303684482Y-92305812D01*
X303804180Y-92269502D01*
X303914494Y-92210537D01*
X304011185Y-92131185D01*
X304090537Y-92034494D01*
X304149502Y-91924180D01*
X304185812Y-91804482D01*
X304198072Y-91680000D01*
X304198072Y-89170000D01*
X304185812Y-89045518D01*
X304149502Y-88925820D01*
X304137129Y-88902672D01*
X304490743Y-88549058D01*
X304510498Y-88614180D01*
X304569463Y-88724494D01*
X304648815Y-88821185D01*
X304745506Y-88900537D01*
X304790001Y-88924320D01*
X304790000Y-92515431D01*
X304781618Y-92522310D01*
X304712310Y-92591618D01*
X304632958Y-92688309D01*
X304578502Y-92769808D01*
X304519536Y-92880125D01*
X304482027Y-92970681D01*
X304445718Y-93090377D01*
X304426596Y-93186510D01*
X304414336Y-93310991D01*
X304414336Y-93335550D01*
X304411928Y-93360000D01*
X304411928Y-93860000D01*
X304414336Y-93884450D01*
X304414336Y-93909009D01*
X304426596Y-94033490D01*
X304445718Y-94129623D01*
X304482027Y-94249319D01*
X304519536Y-94339875D01*
X304578502Y-94450192D01*
X304632958Y-94531691D01*
X304712310Y-94628382D01*
X304770001Y-94686073D01*
X304770000Y-95415431D01*
X304761618Y-95422310D01*
X304692310Y-95491618D01*
X304612958Y-95588309D01*
X304558502Y-95669808D01*
X304499536Y-95780125D01*
X304462027Y-95870681D01*
X304425718Y-95990377D01*
X304406596Y-96086510D01*
X304394336Y-96210991D01*
X304394336Y-96235550D01*
X304391928Y-96260000D01*
X304391928Y-96573270D01*
X303805199Y-97160000D01*
X300388072Y-97160000D01*
X300388072Y-95720000D01*
X300375812Y-95595518D01*
X300339502Y-95475820D01*
X300280537Y-95365506D01*
X300201185Y-95268815D01*
X300104494Y-95189463D01*
X299994180Y-95130498D01*
X299917923Y-95107366D01*
X299884974Y-95045724D01*
X299832600Y-94981907D01*
X299894482Y-94975812D01*
X300014180Y-94939502D01*
X300124494Y-94880537D01*
X300221185Y-94801185D01*
X300300537Y-94704494D01*
X300359502Y-94594180D01*
X300395812Y-94474482D01*
X300408072Y-94350000D01*
X300408072Y-92850000D01*
X300395812Y-92725518D01*
X300359502Y-92605820D01*
X300300537Y-92495506D01*
X300221185Y-92398815D01*
X300124494Y-92319463D01*
X300070000Y-92290335D01*
X300070000Y-89008072D01*
X301020000Y-89008072D01*
X301144482Y-88995812D01*
X301264180Y-88959502D01*
X301374494Y-88900537D01*
X301471185Y-88821185D01*
X301550537Y-88724494D01*
X301609502Y-88614180D01*
X301645812Y-88494482D01*
X301658072Y-88370000D01*
X301658072Y-85860000D01*
X301645812Y-85735518D01*
X301609502Y-85615820D01*
X301550537Y-85505506D01*
X301471185Y-85408815D01*
X301374494Y-85329463D01*
X301264180Y-85270498D01*
X301144482Y-85234188D01*
X301020000Y-85221928D01*
X300070000Y-85221928D01*
X300070000Y-84224801D01*
X301230000Y-83064801D01*
X304461928Y-86296731D01*
X304461928Y-86296731D01*
G37*
X304461928Y-86296731D02*
X304461928Y-86460674D01*
X304425724Y-86480026D01*
X304309999Y-86574999D01*
X304286201Y-86603997D01*
X302549003Y-88341196D01*
X302519999Y-88364999D01*
X302491276Y-88399999D01*
X302425026Y-88480724D01*
X302382508Y-88560268D01*
X302315820Y-88580498D01*
X302205506Y-88639463D01*
X302108815Y-88718815D01*
X302029463Y-88815506D01*
X301970498Y-88925820D01*
X301934188Y-89045518D01*
X301921928Y-89170000D01*
X301921928Y-91680000D01*
X301934188Y-91804482D01*
X301970498Y-91924180D01*
X302029463Y-92034494D01*
X302108815Y-92131185D01*
X302205506Y-92210537D01*
X302315820Y-92269502D01*
X302435518Y-92305812D01*
X302560000Y-92318072D01*
X303560000Y-92318072D01*
X303684482Y-92305812D01*
X303804180Y-92269502D01*
X303914494Y-92210537D01*
X304011185Y-92131185D01*
X304090537Y-92034494D01*
X304149502Y-91924180D01*
X304185812Y-91804482D01*
X304198072Y-91680000D01*
X304198072Y-89170000D01*
X304185812Y-89045518D01*
X304149502Y-88925820D01*
X304137129Y-88902672D01*
X304490743Y-88549058D01*
X304510498Y-88614180D01*
X304569463Y-88724494D01*
X304648815Y-88821185D01*
X304745506Y-88900537D01*
X304790001Y-88924320D01*
X304790000Y-92515431D01*
X304781618Y-92522310D01*
X304712310Y-92591618D01*
X304632958Y-92688309D01*
X304578502Y-92769808D01*
X304519536Y-92880125D01*
X304482027Y-92970681D01*
X304445718Y-93090377D01*
X304426596Y-93186510D01*
X304414336Y-93310991D01*
X304414336Y-93335550D01*
X304411928Y-93360000D01*
X304411928Y-93860000D01*
X304414336Y-93884450D01*
X304414336Y-93909009D01*
X304426596Y-94033490D01*
X304445718Y-94129623D01*
X304482027Y-94249319D01*
X304519536Y-94339875D01*
X304578502Y-94450192D01*
X304632958Y-94531691D01*
X304712310Y-94628382D01*
X304770001Y-94686073D01*
X304770000Y-95415431D01*
X304761618Y-95422310D01*
X304692310Y-95491618D01*
X304612958Y-95588309D01*
X304558502Y-95669808D01*
X304499536Y-95780125D01*
X304462027Y-95870681D01*
X304425718Y-95990377D01*
X304406596Y-96086510D01*
X304394336Y-96210991D01*
X304394336Y-96235550D01*
X304391928Y-96260000D01*
X304391928Y-96573270D01*
X303805199Y-97160000D01*
X300388072Y-97160000D01*
X300388072Y-95720000D01*
X300375812Y-95595518D01*
X300339502Y-95475820D01*
X300280537Y-95365506D01*
X300201185Y-95268815D01*
X300104494Y-95189463D01*
X299994180Y-95130498D01*
X299917923Y-95107366D01*
X299884974Y-95045724D01*
X299832600Y-94981907D01*
X299894482Y-94975812D01*
X300014180Y-94939502D01*
X300124494Y-94880537D01*
X300221185Y-94801185D01*
X300300537Y-94704494D01*
X300359502Y-94594180D01*
X300395812Y-94474482D01*
X300408072Y-94350000D01*
X300408072Y-92850000D01*
X300395812Y-92725518D01*
X300359502Y-92605820D01*
X300300537Y-92495506D01*
X300221185Y-92398815D01*
X300124494Y-92319463D01*
X300070000Y-92290335D01*
X300070000Y-89008072D01*
X301020000Y-89008072D01*
X301144482Y-88995812D01*
X301264180Y-88959502D01*
X301374494Y-88900537D01*
X301471185Y-88821185D01*
X301550537Y-88724494D01*
X301609502Y-88614180D01*
X301645812Y-88494482D01*
X301658072Y-88370000D01*
X301658072Y-85860000D01*
X301645812Y-85735518D01*
X301609502Y-85615820D01*
X301550537Y-85505506D01*
X301471185Y-85408815D01*
X301374494Y-85329463D01*
X301264180Y-85270498D01*
X301144482Y-85234188D01*
X301020000Y-85221928D01*
X300070000Y-85221928D01*
X300070000Y-84224801D01*
X301230000Y-83064801D01*
X304461928Y-86296731D01*
G36*
X304501928Y-68700000D02*
G01*
X304514188Y-68824482D01*
X304550498Y-68944180D01*
X304609463Y-69054494D01*
X304688815Y-69151185D01*
X304785506Y-69230537D01*
X304880000Y-69281046D01*
X304880000Y-70572677D01*
X304876324Y-70610000D01*
X304880000Y-70647322D01*
X304880000Y-70647332D01*
X304890997Y-70758985D01*
X304918910Y-70851002D01*
X304934454Y-70902246D01*
X305005026Y-71034276D01*
X305044871Y-71082826D01*
X305099999Y-71150001D01*
X305129003Y-71173804D01*
X308510001Y-74554803D01*
X308510000Y-88533792D01*
X308425750Y-88535000D01*
X308267000Y-88693750D01*
X308267000Y-90298000D01*
X308287000Y-90298000D01*
X308287000Y-90552000D01*
X308267000Y-90552000D01*
X308267000Y-92156250D01*
X308425750Y-92315000D01*
X308510000Y-92316208D01*
X308510000Y-94185198D01*
X308315199Y-94380000D01*
X307986102Y-94380000D01*
X307988072Y-94360000D01*
X307988072Y-92860000D01*
X307975812Y-92735518D01*
X307939502Y-92615820D01*
X307880537Y-92505506D01*
X307801185Y-92408815D01*
X307704494Y-92329463D01*
X307682055Y-92317469D01*
X307854250Y-92315000D01*
X308013000Y-92156250D01*
X308013000Y-90552000D01*
X307993000Y-90552000D01*
X307993000Y-90298000D01*
X308013000Y-90298000D01*
X308013000Y-88693750D01*
X307854250Y-88535000D01*
X307640000Y-88531928D01*
X307610000Y-88534883D01*
X307610000Y-76667322D01*
X307613676Y-76629999D01*
X307610000Y-76592676D01*
X307610000Y-76592667D01*
X307599003Y-76481014D01*
X307555546Y-76337753D01*
X307484974Y-76205724D01*
X307390001Y-76089999D01*
X307361003Y-76066201D01*
X301320000Y-70025199D01*
X301320000Y-69281046D01*
X301414494Y-69230537D01*
X301511185Y-69151185D01*
X301590537Y-69054494D01*
X301649502Y-68944180D01*
X301685812Y-68824482D01*
X301698072Y-68700000D01*
X301698072Y-66475001D01*
X304501928Y-66475001D01*
X304501928Y-68700000D01*
X304501928Y-68700000D01*
G37*
X304501928Y-68700000D02*
X304514188Y-68824482D01*
X304550498Y-68944180D01*
X304609463Y-69054494D01*
X304688815Y-69151185D01*
X304785506Y-69230537D01*
X304880000Y-69281046D01*
X304880000Y-70572677D01*
X304876324Y-70610000D01*
X304880000Y-70647322D01*
X304880000Y-70647332D01*
X304890997Y-70758985D01*
X304918910Y-70851002D01*
X304934454Y-70902246D01*
X305005026Y-71034276D01*
X305044871Y-71082826D01*
X305099999Y-71150001D01*
X305129003Y-71173804D01*
X308510001Y-74554803D01*
X308510000Y-88533792D01*
X308425750Y-88535000D01*
X308267000Y-88693750D01*
X308267000Y-90298000D01*
X308287000Y-90298000D01*
X308287000Y-90552000D01*
X308267000Y-90552000D01*
X308267000Y-92156250D01*
X308425750Y-92315000D01*
X308510000Y-92316208D01*
X308510000Y-94185198D01*
X308315199Y-94380000D01*
X307986102Y-94380000D01*
X307988072Y-94360000D01*
X307988072Y-92860000D01*
X307975812Y-92735518D01*
X307939502Y-92615820D01*
X307880537Y-92505506D01*
X307801185Y-92408815D01*
X307704494Y-92329463D01*
X307682055Y-92317469D01*
X307854250Y-92315000D01*
X308013000Y-92156250D01*
X308013000Y-90552000D01*
X307993000Y-90552000D01*
X307993000Y-90298000D01*
X308013000Y-90298000D01*
X308013000Y-88693750D01*
X307854250Y-88535000D01*
X307640000Y-88531928D01*
X307610000Y-88534883D01*
X307610000Y-76667322D01*
X307613676Y-76629999D01*
X307610000Y-76592676D01*
X307610000Y-76592667D01*
X307599003Y-76481014D01*
X307555546Y-76337753D01*
X307484974Y-76205724D01*
X307390001Y-76089999D01*
X307361003Y-76066201D01*
X301320000Y-70025199D01*
X301320000Y-69281046D01*
X301414494Y-69230537D01*
X301511185Y-69151185D01*
X301590537Y-69054494D01*
X301649502Y-68944180D01*
X301685812Y-68824482D01*
X301698072Y-68700000D01*
X301698072Y-66475001D01*
X304501928Y-66475001D01*
X304501928Y-68700000D01*
M02*
