G04 #@! TF.GenerationSoftware,KiCad,Pcbnew,(5.1.2)-2*
G04 #@! TF.CreationDate,2021-11-10T11:23:53-03:00*
G04 #@! TF.ProjectId,MAG_Plus,4d41475f-506c-4757-932e-6b696361645f,rev?*
G04 #@! TF.SameCoordinates,Original*
G04 #@! TF.FileFunction,Copper,L2,Bot*
G04 #@! TF.FilePolarity,Positive*
%FSLAX46Y46*%
G04 Gerber Fmt 4.6, Leading zero omitted, Abs format (unit mm)*
G04 Created by KiCad (PCBNEW (5.1.2)-2) date 2021-11-10 11:23:53*
%MOMM*%
%LPD*%
G04 APERTURE LIST*
%ADD10C,5.300000*%
%ADD11C,4.500000*%
%ADD12C,3.200000*%
%ADD13C,0.800000*%
%ADD14C,0.250000*%
%ADD15C,0.254000*%
G04 APERTURE END LIST*
D10*
X283860000Y-108360000D03*
D11*
X255100000Y-107800000D03*
X346600000Y-46800000D03*
X255100000Y-46790000D03*
X346600000Y-107800000D03*
D12*
X336100000Y-45990000D03*
X293510000Y-108610000D03*
X293510000Y-45990000D03*
X336100000Y-108610000D03*
D13*
X303899998Y-59750000D03*
X304999998Y-62050000D03*
X289950000Y-48650000D03*
X301400000Y-61600000D03*
X308190000Y-85500000D03*
X302600000Y-99340000D03*
X302540000Y-96590000D03*
X309260000Y-97620000D03*
X302540000Y-101930000D03*
X310474990Y-94970000D03*
X295980000Y-95270000D03*
X297400000Y-88000000D03*
D14*
X304999998Y-61484315D02*
X304999998Y-62050000D01*
X304999998Y-60850000D02*
X304999998Y-61484315D01*
X303899998Y-59750000D02*
X304999998Y-60850000D01*
X301350000Y-61550000D02*
X301400000Y-61600000D01*
X301350000Y-57950000D02*
X301350000Y-61550000D01*
X289950000Y-48650000D02*
X292050000Y-48650000D01*
X292050000Y-48650000D02*
X301350000Y-57950000D01*
X302600000Y-99340000D02*
X302600000Y-96650000D01*
X302600000Y-96650000D02*
X302540000Y-96590000D01*
X307740000Y-101930000D02*
X302540000Y-101930000D01*
X309270000Y-100400000D02*
X307740000Y-101930000D01*
X309270000Y-100270000D02*
X309270000Y-100400000D01*
X309260000Y-97620000D02*
X309260000Y-100260000D01*
X309260000Y-100260000D02*
X309270000Y-100270000D01*
X310474990Y-94404315D02*
X310474990Y-94970000D01*
X310474990Y-87784990D02*
X310474990Y-94404315D01*
X308190000Y-85500000D02*
X310474990Y-87784990D01*
X296660000Y-88000000D02*
X297400000Y-88000000D01*
X295980000Y-95270000D02*
X295980000Y-88680000D01*
X295980000Y-88680000D02*
X296660000Y-88000000D01*
D15*
G36*
X349140001Y-45408517D02*
G01*
X348840926Y-44960920D01*
X348439080Y-44559074D01*
X347966560Y-44243346D01*
X347441523Y-44025869D01*
X346884148Y-43915000D01*
X346315852Y-43915000D01*
X345758477Y-44025869D01*
X345233440Y-44243346D01*
X344760920Y-44559074D01*
X344359074Y-44960920D01*
X344043346Y-45433440D01*
X343825869Y-45958477D01*
X343715000Y-46515852D01*
X343715000Y-47084148D01*
X343825869Y-47641523D01*
X344043346Y-48166560D01*
X344359074Y-48639080D01*
X344760920Y-49040926D01*
X345233440Y-49356654D01*
X345758477Y-49574131D01*
X346315852Y-49685000D01*
X346884148Y-49685000D01*
X347441523Y-49574131D01*
X347966560Y-49356654D01*
X348439080Y-49040926D01*
X348840926Y-48639080D01*
X349140001Y-48191483D01*
X349140000Y-106408516D01*
X348840926Y-105960920D01*
X348439080Y-105559074D01*
X347966560Y-105243346D01*
X347441523Y-105025869D01*
X346884148Y-104915000D01*
X346315852Y-104915000D01*
X345758477Y-105025869D01*
X345233440Y-105243346D01*
X344760920Y-105559074D01*
X344359074Y-105960920D01*
X344043346Y-106433440D01*
X343825869Y-106958477D01*
X343715000Y-107515852D01*
X343715000Y-108084148D01*
X343825869Y-108641523D01*
X344043346Y-109166560D01*
X344359074Y-109639080D01*
X344760920Y-110040926D01*
X345233440Y-110356654D01*
X345758477Y-110574131D01*
X346315852Y-110685000D01*
X346884148Y-110685000D01*
X347441523Y-110574131D01*
X347966560Y-110356654D01*
X348439080Y-110040926D01*
X348840926Y-109639080D01*
X349140000Y-109191484D01*
X349140000Y-117940000D01*
X252500000Y-117940000D01*
X252500000Y-109061913D01*
X252543346Y-109166560D01*
X252859074Y-109639080D01*
X253260920Y-110040926D01*
X253733440Y-110356654D01*
X254258477Y-110574131D01*
X254815852Y-110685000D01*
X255384148Y-110685000D01*
X255941523Y-110574131D01*
X256466560Y-110356654D01*
X256939080Y-110040926D01*
X257340926Y-109639080D01*
X257656654Y-109166560D01*
X257874131Y-108641523D01*
X257985000Y-108084148D01*
X257985000Y-108036456D01*
X280575000Y-108036456D01*
X280575000Y-108683544D01*
X280701240Y-109318199D01*
X280948871Y-109916031D01*
X281308374Y-110454066D01*
X281765934Y-110911626D01*
X282303969Y-111271129D01*
X282901801Y-111518760D01*
X283536456Y-111645000D01*
X284183544Y-111645000D01*
X284818199Y-111518760D01*
X285416031Y-111271129D01*
X285954066Y-110911626D01*
X286411626Y-110454066D01*
X286771129Y-109916031D01*
X287018760Y-109318199D01*
X287145000Y-108683544D01*
X287145000Y-108389872D01*
X291275000Y-108389872D01*
X291275000Y-108830128D01*
X291360890Y-109261925D01*
X291529369Y-109668669D01*
X291773962Y-110034729D01*
X292085271Y-110346038D01*
X292451331Y-110590631D01*
X292858075Y-110759110D01*
X293289872Y-110845000D01*
X293730128Y-110845000D01*
X294161925Y-110759110D01*
X294568669Y-110590631D01*
X294934729Y-110346038D01*
X295246038Y-110034729D01*
X295490631Y-109668669D01*
X295659110Y-109261925D01*
X295745000Y-108830128D01*
X295745000Y-108389872D01*
X295659110Y-107958075D01*
X295490631Y-107551331D01*
X295246038Y-107185271D01*
X294934729Y-106873962D01*
X294568669Y-106629369D01*
X294161925Y-106460890D01*
X293730128Y-106375000D01*
X293289872Y-106375000D01*
X292858075Y-106460890D01*
X292451331Y-106629369D01*
X292085271Y-106873962D01*
X291773962Y-107185271D01*
X291529369Y-107551331D01*
X291360890Y-107958075D01*
X291275000Y-108389872D01*
X287145000Y-108389872D01*
X287145000Y-108036456D01*
X287018760Y-107401801D01*
X286771129Y-106803969D01*
X286411626Y-106265934D01*
X285954066Y-105808374D01*
X285416031Y-105448871D01*
X284818199Y-105201240D01*
X284183544Y-105075000D01*
X283536456Y-105075000D01*
X282901801Y-105201240D01*
X282303969Y-105448871D01*
X281765934Y-105808374D01*
X281308374Y-106265934D01*
X280948871Y-106803969D01*
X280701240Y-107401801D01*
X280575000Y-108036456D01*
X257985000Y-108036456D01*
X257985000Y-107515852D01*
X257874131Y-106958477D01*
X257656654Y-106433440D01*
X257340926Y-105960920D01*
X256939080Y-105559074D01*
X256466560Y-105243346D01*
X255941523Y-105025869D01*
X255384148Y-104915000D01*
X254815852Y-104915000D01*
X254258477Y-105025869D01*
X253733440Y-105243346D01*
X253260920Y-105559074D01*
X252859074Y-105960920D01*
X252543346Y-106433440D01*
X252500000Y-106538087D01*
X252500000Y-103980000D01*
X281307581Y-103980000D01*
X281340000Y-103983193D01*
X281372419Y-103980000D01*
X281469383Y-103970450D01*
X281593793Y-103932710D01*
X281708450Y-103871425D01*
X281808948Y-103788948D01*
X281891425Y-103688450D01*
X281952710Y-103573793D01*
X281990450Y-103449383D01*
X282003193Y-103320000D01*
X282000000Y-103287581D01*
X282000000Y-101828061D01*
X301505000Y-101828061D01*
X301505000Y-102031939D01*
X301544774Y-102231898D01*
X301622795Y-102420256D01*
X301736063Y-102589774D01*
X301880226Y-102733937D01*
X302049744Y-102847205D01*
X302238102Y-102925226D01*
X302438061Y-102965000D01*
X302641939Y-102965000D01*
X302841898Y-102925226D01*
X303030256Y-102847205D01*
X303199774Y-102733937D01*
X303243711Y-102690000D01*
X307702678Y-102690000D01*
X307740000Y-102693676D01*
X307777322Y-102690000D01*
X307777333Y-102690000D01*
X307888986Y-102679003D01*
X308032247Y-102635546D01*
X308164276Y-102564974D01*
X308280001Y-102470001D01*
X308303804Y-102440997D01*
X309781003Y-100963799D01*
X309810001Y-100940001D01*
X309904974Y-100824276D01*
X309933450Y-100771002D01*
X309975546Y-100692247D01*
X310019003Y-100548986D01*
X310020411Y-100534686D01*
X310030000Y-100437332D01*
X310030000Y-100437325D01*
X310033676Y-100400000D01*
X310030000Y-100362675D01*
X310030000Y-100307322D01*
X310033676Y-100269999D01*
X310030000Y-100232677D01*
X310030000Y-100232667D01*
X310020000Y-100131137D01*
X310020000Y-98323711D01*
X310063937Y-98279774D01*
X310177205Y-98110256D01*
X310255226Y-97921898D01*
X310295000Y-97721939D01*
X310295000Y-97518061D01*
X310255226Y-97318102D01*
X310177205Y-97129744D01*
X310063937Y-96960226D01*
X309919774Y-96816063D01*
X309750256Y-96702795D01*
X309561898Y-96624774D01*
X309361939Y-96585000D01*
X309158061Y-96585000D01*
X308958102Y-96624774D01*
X308769744Y-96702795D01*
X308600226Y-96816063D01*
X308456063Y-96960226D01*
X308342795Y-97129744D01*
X308264774Y-97318102D01*
X308225000Y-97518061D01*
X308225000Y-97721939D01*
X308264774Y-97921898D01*
X308342795Y-98110256D01*
X308456063Y-98279774D01*
X308500000Y-98323711D01*
X308500001Y-100095197D01*
X307425199Y-101170000D01*
X303243711Y-101170000D01*
X303199774Y-101126063D01*
X303030256Y-101012795D01*
X302841898Y-100934774D01*
X302641939Y-100895000D01*
X302438061Y-100895000D01*
X302238102Y-100934774D01*
X302049744Y-101012795D01*
X301880226Y-101126063D01*
X301736063Y-101270226D01*
X301622795Y-101439744D01*
X301544774Y-101628102D01*
X301505000Y-101828061D01*
X282000000Y-101828061D01*
X282000000Y-96488061D01*
X301505000Y-96488061D01*
X301505000Y-96691939D01*
X301544774Y-96891898D01*
X301622795Y-97080256D01*
X301736063Y-97249774D01*
X301840001Y-97353712D01*
X301840000Y-98636289D01*
X301796063Y-98680226D01*
X301682795Y-98849744D01*
X301604774Y-99038102D01*
X301565000Y-99238061D01*
X301565000Y-99441939D01*
X301604774Y-99641898D01*
X301682795Y-99830256D01*
X301796063Y-99999774D01*
X301940226Y-100143937D01*
X302109744Y-100257205D01*
X302298102Y-100335226D01*
X302498061Y-100375000D01*
X302701939Y-100375000D01*
X302901898Y-100335226D01*
X303090256Y-100257205D01*
X303259774Y-100143937D01*
X303403937Y-99999774D01*
X303517205Y-99830256D01*
X303595226Y-99641898D01*
X303635000Y-99441939D01*
X303635000Y-99238061D01*
X303595226Y-99038102D01*
X303517205Y-98849744D01*
X303403937Y-98680226D01*
X303360000Y-98636289D01*
X303360000Y-97225734D01*
X303457205Y-97080256D01*
X303535226Y-96891898D01*
X303575000Y-96691939D01*
X303575000Y-96488061D01*
X303535226Y-96288102D01*
X303457205Y-96099744D01*
X303343937Y-95930226D01*
X303199774Y-95786063D01*
X303030256Y-95672795D01*
X302841898Y-95594774D01*
X302641939Y-95555000D01*
X302438061Y-95555000D01*
X302238102Y-95594774D01*
X302049744Y-95672795D01*
X301880226Y-95786063D01*
X301736063Y-95930226D01*
X301622795Y-96099744D01*
X301544774Y-96288102D01*
X301505000Y-96488061D01*
X282000000Y-96488061D01*
X282000000Y-95168061D01*
X294945000Y-95168061D01*
X294945000Y-95371939D01*
X294984774Y-95571898D01*
X295062795Y-95760256D01*
X295176063Y-95929774D01*
X295320226Y-96073937D01*
X295489744Y-96187205D01*
X295678102Y-96265226D01*
X295878061Y-96305000D01*
X296081939Y-96305000D01*
X296281898Y-96265226D01*
X296470256Y-96187205D01*
X296639774Y-96073937D01*
X296783937Y-95929774D01*
X296897205Y-95760256D01*
X296975226Y-95571898D01*
X297015000Y-95371939D01*
X297015000Y-95168061D01*
X296975226Y-94968102D01*
X296897205Y-94779744D01*
X296783937Y-94610226D01*
X296740000Y-94566289D01*
X296740000Y-88994801D01*
X296854506Y-88880296D01*
X296909744Y-88917205D01*
X297098102Y-88995226D01*
X297298061Y-89035000D01*
X297501939Y-89035000D01*
X297701898Y-88995226D01*
X297890256Y-88917205D01*
X298059774Y-88803937D01*
X298203937Y-88659774D01*
X298317205Y-88490256D01*
X298395226Y-88301898D01*
X298435000Y-88101939D01*
X298435000Y-87898061D01*
X298395226Y-87698102D01*
X298317205Y-87509744D01*
X298203937Y-87340226D01*
X298059774Y-87196063D01*
X297890256Y-87082795D01*
X297701898Y-87004774D01*
X297501939Y-86965000D01*
X297298061Y-86965000D01*
X297098102Y-87004774D01*
X296909744Y-87082795D01*
X296740226Y-87196063D01*
X296696382Y-87239907D01*
X296659999Y-87236324D01*
X296622676Y-87240000D01*
X296622667Y-87240000D01*
X296511014Y-87250997D01*
X296367753Y-87294454D01*
X296235724Y-87365026D01*
X296119999Y-87459999D01*
X296096201Y-87488998D01*
X295468998Y-88116201D01*
X295440000Y-88139999D01*
X295416202Y-88168997D01*
X295416201Y-88168998D01*
X295345026Y-88255724D01*
X295274454Y-88387754D01*
X295230998Y-88531015D01*
X295216324Y-88680000D01*
X295220001Y-88717332D01*
X295220000Y-94566289D01*
X295176063Y-94610226D01*
X295062795Y-94779744D01*
X294984774Y-94968102D01*
X294945000Y-95168061D01*
X282000000Y-95168061D01*
X282000000Y-85398061D01*
X307155000Y-85398061D01*
X307155000Y-85601939D01*
X307194774Y-85801898D01*
X307272795Y-85990256D01*
X307386063Y-86159774D01*
X307530226Y-86303937D01*
X307699744Y-86417205D01*
X307888102Y-86495226D01*
X308088061Y-86535000D01*
X308150199Y-86535000D01*
X309714990Y-88099792D01*
X309714991Y-94266288D01*
X309671053Y-94310226D01*
X309557785Y-94479744D01*
X309479764Y-94668102D01*
X309439990Y-94868061D01*
X309439990Y-95071939D01*
X309479764Y-95271898D01*
X309557785Y-95460256D01*
X309671053Y-95629774D01*
X309815216Y-95773937D01*
X309984734Y-95887205D01*
X310173092Y-95965226D01*
X310373051Y-96005000D01*
X310576929Y-96005000D01*
X310776888Y-95965226D01*
X310965246Y-95887205D01*
X311134764Y-95773937D01*
X311278927Y-95629774D01*
X311392195Y-95460256D01*
X311470216Y-95271898D01*
X311490000Y-95172435D01*
X311490001Y-110470663D01*
X311486836Y-110506197D01*
X311493489Y-110567838D01*
X311499551Y-110629383D01*
X311500454Y-110632359D01*
X311500788Y-110635456D01*
X311519329Y-110694581D01*
X311537291Y-110753793D01*
X311538758Y-110756537D01*
X311539689Y-110759507D01*
X311569393Y-110813853D01*
X311598576Y-110868450D01*
X311600550Y-110870855D01*
X311602043Y-110873587D01*
X311641802Y-110921121D01*
X311681053Y-110968948D01*
X311683456Y-110970920D01*
X311685455Y-110973310D01*
X311733713Y-111012165D01*
X311781551Y-111051425D01*
X311784296Y-111052892D01*
X311786720Y-111054844D01*
X311841600Y-111083522D01*
X311896208Y-111112710D01*
X311899186Y-111113614D01*
X311901945Y-111115055D01*
X311961332Y-111132465D01*
X312020618Y-111150450D01*
X312023719Y-111150755D01*
X312026702Y-111151630D01*
X312088337Y-111157120D01*
X312150000Y-111163193D01*
X312185496Y-111159697D01*
X317470656Y-111110303D01*
X317500000Y-111113193D01*
X317535497Y-111109697D01*
X317538585Y-111109668D01*
X317567728Y-111106522D01*
X317629382Y-111100450D01*
X317632362Y-111099546D01*
X317635456Y-111099212D01*
X317694527Y-111080688D01*
X317753792Y-111062710D01*
X317756538Y-111061243D01*
X317759508Y-111060311D01*
X317813838Y-111030615D01*
X317868449Y-111001425D01*
X317870856Y-110999450D01*
X317873587Y-110997957D01*
X317921082Y-110958230D01*
X317968948Y-110918948D01*
X317970923Y-110916542D01*
X317973310Y-110914545D01*
X318012122Y-110866340D01*
X318051425Y-110818450D01*
X318052894Y-110815702D01*
X318054844Y-110813280D01*
X318083498Y-110758445D01*
X318112710Y-110703793D01*
X318113614Y-110700812D01*
X318115055Y-110698055D01*
X318132471Y-110638651D01*
X318150450Y-110579383D01*
X318150755Y-110576286D01*
X318151631Y-110573298D01*
X318157125Y-110511605D01*
X318160000Y-110482419D01*
X318160000Y-110479329D01*
X318163164Y-110443803D01*
X318160000Y-110414490D01*
X318160000Y-108389872D01*
X333865000Y-108389872D01*
X333865000Y-108830128D01*
X333950890Y-109261925D01*
X334119369Y-109668669D01*
X334363962Y-110034729D01*
X334675271Y-110346038D01*
X335041331Y-110590631D01*
X335448075Y-110759110D01*
X335879872Y-110845000D01*
X336320128Y-110845000D01*
X336751925Y-110759110D01*
X337158669Y-110590631D01*
X337524729Y-110346038D01*
X337836038Y-110034729D01*
X338080631Y-109668669D01*
X338249110Y-109261925D01*
X338335000Y-108830128D01*
X338335000Y-108389872D01*
X338249110Y-107958075D01*
X338080631Y-107551331D01*
X337836038Y-107185271D01*
X337524729Y-106873962D01*
X337158669Y-106629369D01*
X336751925Y-106460890D01*
X336320128Y-106375000D01*
X335879872Y-106375000D01*
X335448075Y-106460890D01*
X335041331Y-106629369D01*
X334675271Y-106873962D01*
X334363962Y-107185271D01*
X334119369Y-107551331D01*
X333950890Y-107958075D01*
X333865000Y-108389872D01*
X318160000Y-108389872D01*
X318160000Y-90082419D01*
X318163193Y-90050000D01*
X318150450Y-89920617D01*
X318112710Y-89796207D01*
X318051425Y-89681550D01*
X317968948Y-89581052D01*
X317868450Y-89498575D01*
X317753793Y-89437290D01*
X317629383Y-89399550D01*
X317532419Y-89390000D01*
X317500000Y-89386807D01*
X317467581Y-89390000D01*
X312182419Y-89390000D01*
X312150000Y-89386807D01*
X312117581Y-89390000D01*
X312020617Y-89399550D01*
X311896207Y-89437290D01*
X311781550Y-89498575D01*
X311681052Y-89581052D01*
X311598575Y-89681550D01*
X311537290Y-89796207D01*
X311499550Y-89920617D01*
X311486807Y-90050000D01*
X311490000Y-90082419D01*
X311490000Y-94767565D01*
X311470216Y-94668102D01*
X311392195Y-94479744D01*
X311278927Y-94310226D01*
X311234990Y-94266289D01*
X311234990Y-87822313D01*
X311238666Y-87784990D01*
X311234990Y-87747667D01*
X311234990Y-87747657D01*
X311223993Y-87636004D01*
X311180536Y-87492743D01*
X311109964Y-87360714D01*
X311014991Y-87244989D01*
X310985994Y-87221192D01*
X309225000Y-85460199D01*
X309225000Y-85398061D01*
X309185226Y-85198102D01*
X309107205Y-85009744D01*
X308993937Y-84840226D01*
X308849774Y-84696063D01*
X308680256Y-84582795D01*
X308491898Y-84504774D01*
X308291939Y-84465000D01*
X308088061Y-84465000D01*
X307888102Y-84504774D01*
X307699744Y-84582795D01*
X307530226Y-84696063D01*
X307386063Y-84840226D01*
X307272795Y-85009744D01*
X307194774Y-85198102D01*
X307155000Y-85398061D01*
X282000000Y-85398061D01*
X282000000Y-51312419D01*
X282003193Y-51280000D01*
X281990450Y-51150617D01*
X281952710Y-51026207D01*
X281891425Y-50911550D01*
X281808948Y-50811052D01*
X281708450Y-50728575D01*
X281593793Y-50667290D01*
X281469383Y-50629550D01*
X281372419Y-50620000D01*
X281340000Y-50616807D01*
X281307581Y-50620000D01*
X252550431Y-50620000D01*
X252552035Y-48169564D01*
X252859074Y-48629080D01*
X253260920Y-49030926D01*
X253733440Y-49346654D01*
X254258477Y-49564131D01*
X254815852Y-49675000D01*
X255384148Y-49675000D01*
X255941523Y-49564131D01*
X256466560Y-49346654D01*
X256939080Y-49030926D01*
X257340926Y-48629080D01*
X257395061Y-48548061D01*
X288915000Y-48548061D01*
X288915000Y-48751939D01*
X288954774Y-48951898D01*
X289032795Y-49140256D01*
X289146063Y-49309774D01*
X289290226Y-49453937D01*
X289459744Y-49567205D01*
X289648102Y-49645226D01*
X289848061Y-49685000D01*
X290051939Y-49685000D01*
X290251898Y-49645226D01*
X290440256Y-49567205D01*
X290609774Y-49453937D01*
X290653711Y-49410000D01*
X291735199Y-49410000D01*
X300590000Y-58264802D01*
X300590001Y-60949299D01*
X300482795Y-61109744D01*
X300404774Y-61298102D01*
X300365000Y-61498061D01*
X300365000Y-61701939D01*
X300404774Y-61901898D01*
X300482795Y-62090256D01*
X300596063Y-62259774D01*
X300740226Y-62403937D01*
X300909744Y-62517205D01*
X301098102Y-62595226D01*
X301298061Y-62635000D01*
X301501939Y-62635000D01*
X301701898Y-62595226D01*
X301890256Y-62517205D01*
X302059774Y-62403937D01*
X302203937Y-62259774D01*
X302317205Y-62090256D01*
X302395226Y-61901898D01*
X302435000Y-61701939D01*
X302435000Y-61498061D01*
X302395226Y-61298102D01*
X302317205Y-61109744D01*
X302203937Y-60940226D01*
X302110000Y-60846289D01*
X302110000Y-59648061D01*
X302864998Y-59648061D01*
X302864998Y-59851939D01*
X302904772Y-60051898D01*
X302982793Y-60240256D01*
X303096061Y-60409774D01*
X303240224Y-60553937D01*
X303409742Y-60667205D01*
X303598100Y-60745226D01*
X303798059Y-60785000D01*
X303860197Y-60785000D01*
X304239998Y-61164802D01*
X304239998Y-61346289D01*
X304196061Y-61390226D01*
X304082793Y-61559744D01*
X304004772Y-61748102D01*
X303964998Y-61948061D01*
X303964998Y-62151939D01*
X304004772Y-62351898D01*
X304082793Y-62540256D01*
X304196061Y-62709774D01*
X304340224Y-62853937D01*
X304509742Y-62967205D01*
X304698100Y-63045226D01*
X304898059Y-63085000D01*
X305101937Y-63085000D01*
X305301896Y-63045226D01*
X305490254Y-62967205D01*
X305659772Y-62853937D01*
X305803935Y-62709774D01*
X305917203Y-62540256D01*
X305995224Y-62351898D01*
X306034998Y-62151939D01*
X306034998Y-61948061D01*
X305995224Y-61748102D01*
X305917203Y-61559744D01*
X305803935Y-61390226D01*
X305759998Y-61346289D01*
X305759998Y-60887323D01*
X305763674Y-60850000D01*
X305759998Y-60812677D01*
X305759998Y-60812667D01*
X305749001Y-60701014D01*
X305705544Y-60557753D01*
X305634973Y-60425725D01*
X305634972Y-60425723D01*
X305563797Y-60338997D01*
X305539999Y-60309999D01*
X305511002Y-60286202D01*
X304934998Y-59710199D01*
X304934998Y-59648061D01*
X304895224Y-59448102D01*
X304817203Y-59259744D01*
X304703935Y-59090226D01*
X304559772Y-58946063D01*
X304390254Y-58832795D01*
X304201896Y-58754774D01*
X304001937Y-58715000D01*
X303798059Y-58715000D01*
X303598100Y-58754774D01*
X303409742Y-58832795D01*
X303240224Y-58946063D01*
X303096061Y-59090226D01*
X302982793Y-59259744D01*
X302904772Y-59448102D01*
X302864998Y-59648061D01*
X302110000Y-59648061D01*
X302110000Y-57987322D01*
X302113676Y-57949999D01*
X302110000Y-57912676D01*
X302110000Y-57912667D01*
X302099003Y-57801014D01*
X302055546Y-57657753D01*
X301984975Y-57525725D01*
X301984974Y-57525723D01*
X301913799Y-57438997D01*
X301890001Y-57409999D01*
X301861004Y-57386202D01*
X292613804Y-48139003D01*
X292590001Y-48109999D01*
X292474276Y-48015026D01*
X292342247Y-47944454D01*
X292198986Y-47900997D01*
X292087333Y-47890000D01*
X292087322Y-47890000D01*
X292050000Y-47886324D01*
X292012678Y-47890000D01*
X290653711Y-47890000D01*
X290609774Y-47846063D01*
X290440256Y-47732795D01*
X290251898Y-47654774D01*
X290051939Y-47615000D01*
X289848061Y-47615000D01*
X289648102Y-47654774D01*
X289459744Y-47732795D01*
X289290226Y-47846063D01*
X289146063Y-47990226D01*
X289032795Y-48159744D01*
X288954774Y-48348102D01*
X288915000Y-48548061D01*
X257395061Y-48548061D01*
X257656654Y-48156560D01*
X257874131Y-47631523D01*
X257985000Y-47074148D01*
X257985000Y-46505852D01*
X257874131Y-45948477D01*
X257800151Y-45769872D01*
X291275000Y-45769872D01*
X291275000Y-46210128D01*
X291360890Y-46641925D01*
X291529369Y-47048669D01*
X291773962Y-47414729D01*
X292085271Y-47726038D01*
X292451331Y-47970631D01*
X292858075Y-48139110D01*
X293289872Y-48225000D01*
X293730128Y-48225000D01*
X294161925Y-48139110D01*
X294568669Y-47970631D01*
X294934729Y-47726038D01*
X295246038Y-47414729D01*
X295490631Y-47048669D01*
X295659110Y-46641925D01*
X295745000Y-46210128D01*
X295745000Y-45769872D01*
X295659110Y-45338075D01*
X295490631Y-44931331D01*
X295246038Y-44565271D01*
X294934729Y-44253962D01*
X294779139Y-44150000D01*
X311486807Y-44150000D01*
X311490000Y-44182419D01*
X311490001Y-64520663D01*
X311486836Y-64556197D01*
X311493489Y-64617838D01*
X311499551Y-64679383D01*
X311500454Y-64682359D01*
X311500788Y-64685456D01*
X311519329Y-64744581D01*
X311537291Y-64803793D01*
X311538758Y-64806537D01*
X311539689Y-64809507D01*
X311569393Y-64863853D01*
X311598576Y-64918450D01*
X311600550Y-64920855D01*
X311602043Y-64923587D01*
X311641802Y-64971121D01*
X311681053Y-65018948D01*
X311683456Y-65020920D01*
X311685455Y-65023310D01*
X311733713Y-65062165D01*
X311781551Y-65101425D01*
X311784296Y-65102892D01*
X311786720Y-65104844D01*
X311841600Y-65133522D01*
X311896208Y-65162710D01*
X311899186Y-65163614D01*
X311901945Y-65165055D01*
X311961332Y-65182465D01*
X312020618Y-65200450D01*
X312023719Y-65200755D01*
X312026702Y-65201630D01*
X312088337Y-65207120D01*
X312150000Y-65213193D01*
X312185496Y-65209697D01*
X317470656Y-65160303D01*
X317500000Y-65163193D01*
X317535497Y-65159697D01*
X317538585Y-65159668D01*
X317567728Y-65156522D01*
X317629382Y-65150450D01*
X317632362Y-65149546D01*
X317635456Y-65149212D01*
X317694527Y-65130688D01*
X317753792Y-65112710D01*
X317756538Y-65111243D01*
X317759508Y-65110311D01*
X317813838Y-65080615D01*
X317868449Y-65051425D01*
X317870856Y-65049450D01*
X317873587Y-65047957D01*
X317921082Y-65008230D01*
X317968948Y-64968948D01*
X317970923Y-64966542D01*
X317973310Y-64964545D01*
X318012122Y-64916340D01*
X318051425Y-64868450D01*
X318052894Y-64865702D01*
X318054844Y-64863280D01*
X318083498Y-64808445D01*
X318112710Y-64753793D01*
X318113614Y-64750812D01*
X318115055Y-64748055D01*
X318132471Y-64688651D01*
X318150450Y-64629383D01*
X318150755Y-64626286D01*
X318151631Y-64623298D01*
X318157125Y-64561605D01*
X318160000Y-64532419D01*
X318160000Y-64529329D01*
X318163164Y-64493803D01*
X318160000Y-64464490D01*
X318160000Y-45769872D01*
X333865000Y-45769872D01*
X333865000Y-46210128D01*
X333950890Y-46641925D01*
X334119369Y-47048669D01*
X334363962Y-47414729D01*
X334675271Y-47726038D01*
X335041331Y-47970631D01*
X335448075Y-48139110D01*
X335879872Y-48225000D01*
X336320128Y-48225000D01*
X336751925Y-48139110D01*
X337158669Y-47970631D01*
X337524729Y-47726038D01*
X337836038Y-47414729D01*
X338080631Y-47048669D01*
X338249110Y-46641925D01*
X338335000Y-46210128D01*
X338335000Y-45769872D01*
X338249110Y-45338075D01*
X338080631Y-44931331D01*
X337836038Y-44565271D01*
X337524729Y-44253962D01*
X337158669Y-44009369D01*
X336751925Y-43840890D01*
X336320128Y-43755000D01*
X335879872Y-43755000D01*
X335448075Y-43840890D01*
X335041331Y-44009369D01*
X334675271Y-44253962D01*
X334363962Y-44565271D01*
X334119369Y-44931331D01*
X333950890Y-45338075D01*
X333865000Y-45769872D01*
X318160000Y-45769872D01*
X318160000Y-44238317D01*
X318163086Y-44211840D01*
X318160000Y-44173501D01*
X318160000Y-44167581D01*
X318157392Y-44141103D01*
X318152655Y-44082251D01*
X318151033Y-44076540D01*
X318150450Y-44070617D01*
X318133274Y-44013998D01*
X318117143Y-43957187D01*
X318114437Y-43951899D01*
X318112710Y-43946207D01*
X318084826Y-43894040D01*
X318057915Y-43841455D01*
X318054230Y-43836797D01*
X318051425Y-43831550D01*
X318013886Y-43785809D01*
X317977245Y-43739500D01*
X317972723Y-43735651D01*
X317968948Y-43731052D01*
X317923214Y-43693519D01*
X317878236Y-43655242D01*
X317873049Y-43652349D01*
X317868450Y-43648575D01*
X317816282Y-43620691D01*
X317764691Y-43591919D01*
X317759037Y-43590093D01*
X317753793Y-43587290D01*
X317697207Y-43570124D01*
X317640975Y-43551964D01*
X317635073Y-43551276D01*
X317629383Y-43549550D01*
X317570505Y-43543751D01*
X317544197Y-43540685D01*
X317538306Y-43540580D01*
X317500000Y-43536807D01*
X317473453Y-43539422D01*
X314738301Y-43490579D01*
X314732419Y-43490000D01*
X314705859Y-43490000D01*
X314679371Y-43489527D01*
X314673494Y-43490000D01*
X312182419Y-43490000D01*
X312150000Y-43486807D01*
X312117581Y-43490000D01*
X312020617Y-43499550D01*
X311896207Y-43537290D01*
X311781550Y-43598575D01*
X311681052Y-43681052D01*
X311598575Y-43781550D01*
X311537290Y-43896207D01*
X311499550Y-44020617D01*
X311486807Y-44150000D01*
X294779139Y-44150000D01*
X294568669Y-44009369D01*
X294161925Y-43840890D01*
X293730128Y-43755000D01*
X293289872Y-43755000D01*
X292858075Y-43840890D01*
X292451331Y-44009369D01*
X292085271Y-44253962D01*
X291773962Y-44565271D01*
X291529369Y-44931331D01*
X291360890Y-45338075D01*
X291275000Y-45769872D01*
X257800151Y-45769872D01*
X257656654Y-45423440D01*
X257340926Y-44950920D01*
X256939080Y-44549074D01*
X256466560Y-44233346D01*
X255941523Y-44015869D01*
X255384148Y-43905000D01*
X254815852Y-43905000D01*
X254258477Y-44015869D01*
X253733440Y-44233346D01*
X253260920Y-44549074D01*
X252859074Y-44950920D01*
X252553843Y-45407730D01*
X252559568Y-36660000D01*
X349140001Y-36660000D01*
X349140001Y-45408517D01*
X349140001Y-45408517D01*
G37*
X349140001Y-45408517D02*
X348840926Y-44960920D01*
X348439080Y-44559074D01*
X347966560Y-44243346D01*
X347441523Y-44025869D01*
X346884148Y-43915000D01*
X346315852Y-43915000D01*
X345758477Y-44025869D01*
X345233440Y-44243346D01*
X344760920Y-44559074D01*
X344359074Y-44960920D01*
X344043346Y-45433440D01*
X343825869Y-45958477D01*
X343715000Y-46515852D01*
X343715000Y-47084148D01*
X343825869Y-47641523D01*
X344043346Y-48166560D01*
X344359074Y-48639080D01*
X344760920Y-49040926D01*
X345233440Y-49356654D01*
X345758477Y-49574131D01*
X346315852Y-49685000D01*
X346884148Y-49685000D01*
X347441523Y-49574131D01*
X347966560Y-49356654D01*
X348439080Y-49040926D01*
X348840926Y-48639080D01*
X349140001Y-48191483D01*
X349140000Y-106408516D01*
X348840926Y-105960920D01*
X348439080Y-105559074D01*
X347966560Y-105243346D01*
X347441523Y-105025869D01*
X346884148Y-104915000D01*
X346315852Y-104915000D01*
X345758477Y-105025869D01*
X345233440Y-105243346D01*
X344760920Y-105559074D01*
X344359074Y-105960920D01*
X344043346Y-106433440D01*
X343825869Y-106958477D01*
X343715000Y-107515852D01*
X343715000Y-108084148D01*
X343825869Y-108641523D01*
X344043346Y-109166560D01*
X344359074Y-109639080D01*
X344760920Y-110040926D01*
X345233440Y-110356654D01*
X345758477Y-110574131D01*
X346315852Y-110685000D01*
X346884148Y-110685000D01*
X347441523Y-110574131D01*
X347966560Y-110356654D01*
X348439080Y-110040926D01*
X348840926Y-109639080D01*
X349140000Y-109191484D01*
X349140000Y-117940000D01*
X252500000Y-117940000D01*
X252500000Y-109061913D01*
X252543346Y-109166560D01*
X252859074Y-109639080D01*
X253260920Y-110040926D01*
X253733440Y-110356654D01*
X254258477Y-110574131D01*
X254815852Y-110685000D01*
X255384148Y-110685000D01*
X255941523Y-110574131D01*
X256466560Y-110356654D01*
X256939080Y-110040926D01*
X257340926Y-109639080D01*
X257656654Y-109166560D01*
X257874131Y-108641523D01*
X257985000Y-108084148D01*
X257985000Y-108036456D01*
X280575000Y-108036456D01*
X280575000Y-108683544D01*
X280701240Y-109318199D01*
X280948871Y-109916031D01*
X281308374Y-110454066D01*
X281765934Y-110911626D01*
X282303969Y-111271129D01*
X282901801Y-111518760D01*
X283536456Y-111645000D01*
X284183544Y-111645000D01*
X284818199Y-111518760D01*
X285416031Y-111271129D01*
X285954066Y-110911626D01*
X286411626Y-110454066D01*
X286771129Y-109916031D01*
X287018760Y-109318199D01*
X287145000Y-108683544D01*
X287145000Y-108389872D01*
X291275000Y-108389872D01*
X291275000Y-108830128D01*
X291360890Y-109261925D01*
X291529369Y-109668669D01*
X291773962Y-110034729D01*
X292085271Y-110346038D01*
X292451331Y-110590631D01*
X292858075Y-110759110D01*
X293289872Y-110845000D01*
X293730128Y-110845000D01*
X294161925Y-110759110D01*
X294568669Y-110590631D01*
X294934729Y-110346038D01*
X295246038Y-110034729D01*
X295490631Y-109668669D01*
X295659110Y-109261925D01*
X295745000Y-108830128D01*
X295745000Y-108389872D01*
X295659110Y-107958075D01*
X295490631Y-107551331D01*
X295246038Y-107185271D01*
X294934729Y-106873962D01*
X294568669Y-106629369D01*
X294161925Y-106460890D01*
X293730128Y-106375000D01*
X293289872Y-106375000D01*
X292858075Y-106460890D01*
X292451331Y-106629369D01*
X292085271Y-106873962D01*
X291773962Y-107185271D01*
X291529369Y-107551331D01*
X291360890Y-107958075D01*
X291275000Y-108389872D01*
X287145000Y-108389872D01*
X287145000Y-108036456D01*
X287018760Y-107401801D01*
X286771129Y-106803969D01*
X286411626Y-106265934D01*
X285954066Y-105808374D01*
X285416031Y-105448871D01*
X284818199Y-105201240D01*
X284183544Y-105075000D01*
X283536456Y-105075000D01*
X282901801Y-105201240D01*
X282303969Y-105448871D01*
X281765934Y-105808374D01*
X281308374Y-106265934D01*
X280948871Y-106803969D01*
X280701240Y-107401801D01*
X280575000Y-108036456D01*
X257985000Y-108036456D01*
X257985000Y-107515852D01*
X257874131Y-106958477D01*
X257656654Y-106433440D01*
X257340926Y-105960920D01*
X256939080Y-105559074D01*
X256466560Y-105243346D01*
X255941523Y-105025869D01*
X255384148Y-104915000D01*
X254815852Y-104915000D01*
X254258477Y-105025869D01*
X253733440Y-105243346D01*
X253260920Y-105559074D01*
X252859074Y-105960920D01*
X252543346Y-106433440D01*
X252500000Y-106538087D01*
X252500000Y-103980000D01*
X281307581Y-103980000D01*
X281340000Y-103983193D01*
X281372419Y-103980000D01*
X281469383Y-103970450D01*
X281593793Y-103932710D01*
X281708450Y-103871425D01*
X281808948Y-103788948D01*
X281891425Y-103688450D01*
X281952710Y-103573793D01*
X281990450Y-103449383D01*
X282003193Y-103320000D01*
X282000000Y-103287581D01*
X282000000Y-101828061D01*
X301505000Y-101828061D01*
X301505000Y-102031939D01*
X301544774Y-102231898D01*
X301622795Y-102420256D01*
X301736063Y-102589774D01*
X301880226Y-102733937D01*
X302049744Y-102847205D01*
X302238102Y-102925226D01*
X302438061Y-102965000D01*
X302641939Y-102965000D01*
X302841898Y-102925226D01*
X303030256Y-102847205D01*
X303199774Y-102733937D01*
X303243711Y-102690000D01*
X307702678Y-102690000D01*
X307740000Y-102693676D01*
X307777322Y-102690000D01*
X307777333Y-102690000D01*
X307888986Y-102679003D01*
X308032247Y-102635546D01*
X308164276Y-102564974D01*
X308280001Y-102470001D01*
X308303804Y-102440997D01*
X309781003Y-100963799D01*
X309810001Y-100940001D01*
X309904974Y-100824276D01*
X309933450Y-100771002D01*
X309975546Y-100692247D01*
X310019003Y-100548986D01*
X310020411Y-100534686D01*
X310030000Y-100437332D01*
X310030000Y-100437325D01*
X310033676Y-100400000D01*
X310030000Y-100362675D01*
X310030000Y-100307322D01*
X310033676Y-100269999D01*
X310030000Y-100232677D01*
X310030000Y-100232667D01*
X310020000Y-100131137D01*
X310020000Y-98323711D01*
X310063937Y-98279774D01*
X310177205Y-98110256D01*
X310255226Y-97921898D01*
X310295000Y-97721939D01*
X310295000Y-97518061D01*
X310255226Y-97318102D01*
X310177205Y-97129744D01*
X310063937Y-96960226D01*
X309919774Y-96816063D01*
X309750256Y-96702795D01*
X309561898Y-96624774D01*
X309361939Y-96585000D01*
X309158061Y-96585000D01*
X308958102Y-96624774D01*
X308769744Y-96702795D01*
X308600226Y-96816063D01*
X308456063Y-96960226D01*
X308342795Y-97129744D01*
X308264774Y-97318102D01*
X308225000Y-97518061D01*
X308225000Y-97721939D01*
X308264774Y-97921898D01*
X308342795Y-98110256D01*
X308456063Y-98279774D01*
X308500000Y-98323711D01*
X308500001Y-100095197D01*
X307425199Y-101170000D01*
X303243711Y-101170000D01*
X303199774Y-101126063D01*
X303030256Y-101012795D01*
X302841898Y-100934774D01*
X302641939Y-100895000D01*
X302438061Y-100895000D01*
X302238102Y-100934774D01*
X302049744Y-101012795D01*
X301880226Y-101126063D01*
X301736063Y-101270226D01*
X301622795Y-101439744D01*
X301544774Y-101628102D01*
X301505000Y-101828061D01*
X282000000Y-101828061D01*
X282000000Y-96488061D01*
X301505000Y-96488061D01*
X301505000Y-96691939D01*
X301544774Y-96891898D01*
X301622795Y-97080256D01*
X301736063Y-97249774D01*
X301840001Y-97353712D01*
X301840000Y-98636289D01*
X301796063Y-98680226D01*
X301682795Y-98849744D01*
X301604774Y-99038102D01*
X301565000Y-99238061D01*
X301565000Y-99441939D01*
X301604774Y-99641898D01*
X301682795Y-99830256D01*
X301796063Y-99999774D01*
X301940226Y-100143937D01*
X302109744Y-100257205D01*
X302298102Y-100335226D01*
X302498061Y-100375000D01*
X302701939Y-100375000D01*
X302901898Y-100335226D01*
X303090256Y-100257205D01*
X303259774Y-100143937D01*
X303403937Y-99999774D01*
X303517205Y-99830256D01*
X303595226Y-99641898D01*
X303635000Y-99441939D01*
X303635000Y-99238061D01*
X303595226Y-99038102D01*
X303517205Y-98849744D01*
X303403937Y-98680226D01*
X303360000Y-98636289D01*
X303360000Y-97225734D01*
X303457205Y-97080256D01*
X303535226Y-96891898D01*
X303575000Y-96691939D01*
X303575000Y-96488061D01*
X303535226Y-96288102D01*
X303457205Y-96099744D01*
X303343937Y-95930226D01*
X303199774Y-95786063D01*
X303030256Y-95672795D01*
X302841898Y-95594774D01*
X302641939Y-95555000D01*
X302438061Y-95555000D01*
X302238102Y-95594774D01*
X302049744Y-95672795D01*
X301880226Y-95786063D01*
X301736063Y-95930226D01*
X301622795Y-96099744D01*
X301544774Y-96288102D01*
X301505000Y-96488061D01*
X282000000Y-96488061D01*
X282000000Y-95168061D01*
X294945000Y-95168061D01*
X294945000Y-95371939D01*
X294984774Y-95571898D01*
X295062795Y-95760256D01*
X295176063Y-95929774D01*
X295320226Y-96073937D01*
X295489744Y-96187205D01*
X295678102Y-96265226D01*
X295878061Y-96305000D01*
X296081939Y-96305000D01*
X296281898Y-96265226D01*
X296470256Y-96187205D01*
X296639774Y-96073937D01*
X296783937Y-95929774D01*
X296897205Y-95760256D01*
X296975226Y-95571898D01*
X297015000Y-95371939D01*
X297015000Y-95168061D01*
X296975226Y-94968102D01*
X296897205Y-94779744D01*
X296783937Y-94610226D01*
X296740000Y-94566289D01*
X296740000Y-88994801D01*
X296854506Y-88880296D01*
X296909744Y-88917205D01*
X297098102Y-88995226D01*
X297298061Y-89035000D01*
X297501939Y-89035000D01*
X297701898Y-88995226D01*
X297890256Y-88917205D01*
X298059774Y-88803937D01*
X298203937Y-88659774D01*
X298317205Y-88490256D01*
X298395226Y-88301898D01*
X298435000Y-88101939D01*
X298435000Y-87898061D01*
X298395226Y-87698102D01*
X298317205Y-87509744D01*
X298203937Y-87340226D01*
X298059774Y-87196063D01*
X297890256Y-87082795D01*
X297701898Y-87004774D01*
X297501939Y-86965000D01*
X297298061Y-86965000D01*
X297098102Y-87004774D01*
X296909744Y-87082795D01*
X296740226Y-87196063D01*
X296696382Y-87239907D01*
X296659999Y-87236324D01*
X296622676Y-87240000D01*
X296622667Y-87240000D01*
X296511014Y-87250997D01*
X296367753Y-87294454D01*
X296235724Y-87365026D01*
X296119999Y-87459999D01*
X296096201Y-87488998D01*
X295468998Y-88116201D01*
X295440000Y-88139999D01*
X295416202Y-88168997D01*
X295416201Y-88168998D01*
X295345026Y-88255724D01*
X295274454Y-88387754D01*
X295230998Y-88531015D01*
X295216324Y-88680000D01*
X295220001Y-88717332D01*
X295220000Y-94566289D01*
X295176063Y-94610226D01*
X295062795Y-94779744D01*
X294984774Y-94968102D01*
X294945000Y-95168061D01*
X282000000Y-95168061D01*
X282000000Y-85398061D01*
X307155000Y-85398061D01*
X307155000Y-85601939D01*
X307194774Y-85801898D01*
X307272795Y-85990256D01*
X307386063Y-86159774D01*
X307530226Y-86303937D01*
X307699744Y-86417205D01*
X307888102Y-86495226D01*
X308088061Y-86535000D01*
X308150199Y-86535000D01*
X309714990Y-88099792D01*
X309714991Y-94266288D01*
X309671053Y-94310226D01*
X309557785Y-94479744D01*
X309479764Y-94668102D01*
X309439990Y-94868061D01*
X309439990Y-95071939D01*
X309479764Y-95271898D01*
X309557785Y-95460256D01*
X309671053Y-95629774D01*
X309815216Y-95773937D01*
X309984734Y-95887205D01*
X310173092Y-95965226D01*
X310373051Y-96005000D01*
X310576929Y-96005000D01*
X310776888Y-95965226D01*
X310965246Y-95887205D01*
X311134764Y-95773937D01*
X311278927Y-95629774D01*
X311392195Y-95460256D01*
X311470216Y-95271898D01*
X311490000Y-95172435D01*
X311490001Y-110470663D01*
X311486836Y-110506197D01*
X311493489Y-110567838D01*
X311499551Y-110629383D01*
X311500454Y-110632359D01*
X311500788Y-110635456D01*
X311519329Y-110694581D01*
X311537291Y-110753793D01*
X311538758Y-110756537D01*
X311539689Y-110759507D01*
X311569393Y-110813853D01*
X311598576Y-110868450D01*
X311600550Y-110870855D01*
X311602043Y-110873587D01*
X311641802Y-110921121D01*
X311681053Y-110968948D01*
X311683456Y-110970920D01*
X311685455Y-110973310D01*
X311733713Y-111012165D01*
X311781551Y-111051425D01*
X311784296Y-111052892D01*
X311786720Y-111054844D01*
X311841600Y-111083522D01*
X311896208Y-111112710D01*
X311899186Y-111113614D01*
X311901945Y-111115055D01*
X311961332Y-111132465D01*
X312020618Y-111150450D01*
X312023719Y-111150755D01*
X312026702Y-111151630D01*
X312088337Y-111157120D01*
X312150000Y-111163193D01*
X312185496Y-111159697D01*
X317470656Y-111110303D01*
X317500000Y-111113193D01*
X317535497Y-111109697D01*
X317538585Y-111109668D01*
X317567728Y-111106522D01*
X317629382Y-111100450D01*
X317632362Y-111099546D01*
X317635456Y-111099212D01*
X317694527Y-111080688D01*
X317753792Y-111062710D01*
X317756538Y-111061243D01*
X317759508Y-111060311D01*
X317813838Y-111030615D01*
X317868449Y-111001425D01*
X317870856Y-110999450D01*
X317873587Y-110997957D01*
X317921082Y-110958230D01*
X317968948Y-110918948D01*
X317970923Y-110916542D01*
X317973310Y-110914545D01*
X318012122Y-110866340D01*
X318051425Y-110818450D01*
X318052894Y-110815702D01*
X318054844Y-110813280D01*
X318083498Y-110758445D01*
X318112710Y-110703793D01*
X318113614Y-110700812D01*
X318115055Y-110698055D01*
X318132471Y-110638651D01*
X318150450Y-110579383D01*
X318150755Y-110576286D01*
X318151631Y-110573298D01*
X318157125Y-110511605D01*
X318160000Y-110482419D01*
X318160000Y-110479329D01*
X318163164Y-110443803D01*
X318160000Y-110414490D01*
X318160000Y-108389872D01*
X333865000Y-108389872D01*
X333865000Y-108830128D01*
X333950890Y-109261925D01*
X334119369Y-109668669D01*
X334363962Y-110034729D01*
X334675271Y-110346038D01*
X335041331Y-110590631D01*
X335448075Y-110759110D01*
X335879872Y-110845000D01*
X336320128Y-110845000D01*
X336751925Y-110759110D01*
X337158669Y-110590631D01*
X337524729Y-110346038D01*
X337836038Y-110034729D01*
X338080631Y-109668669D01*
X338249110Y-109261925D01*
X338335000Y-108830128D01*
X338335000Y-108389872D01*
X338249110Y-107958075D01*
X338080631Y-107551331D01*
X337836038Y-107185271D01*
X337524729Y-106873962D01*
X337158669Y-106629369D01*
X336751925Y-106460890D01*
X336320128Y-106375000D01*
X335879872Y-106375000D01*
X335448075Y-106460890D01*
X335041331Y-106629369D01*
X334675271Y-106873962D01*
X334363962Y-107185271D01*
X334119369Y-107551331D01*
X333950890Y-107958075D01*
X333865000Y-108389872D01*
X318160000Y-108389872D01*
X318160000Y-90082419D01*
X318163193Y-90050000D01*
X318150450Y-89920617D01*
X318112710Y-89796207D01*
X318051425Y-89681550D01*
X317968948Y-89581052D01*
X317868450Y-89498575D01*
X317753793Y-89437290D01*
X317629383Y-89399550D01*
X317532419Y-89390000D01*
X317500000Y-89386807D01*
X317467581Y-89390000D01*
X312182419Y-89390000D01*
X312150000Y-89386807D01*
X312117581Y-89390000D01*
X312020617Y-89399550D01*
X311896207Y-89437290D01*
X311781550Y-89498575D01*
X311681052Y-89581052D01*
X311598575Y-89681550D01*
X311537290Y-89796207D01*
X311499550Y-89920617D01*
X311486807Y-90050000D01*
X311490000Y-90082419D01*
X311490000Y-94767565D01*
X311470216Y-94668102D01*
X311392195Y-94479744D01*
X311278927Y-94310226D01*
X311234990Y-94266289D01*
X311234990Y-87822313D01*
X311238666Y-87784990D01*
X311234990Y-87747667D01*
X311234990Y-87747657D01*
X311223993Y-87636004D01*
X311180536Y-87492743D01*
X311109964Y-87360714D01*
X311014991Y-87244989D01*
X310985994Y-87221192D01*
X309225000Y-85460199D01*
X309225000Y-85398061D01*
X309185226Y-85198102D01*
X309107205Y-85009744D01*
X308993937Y-84840226D01*
X308849774Y-84696063D01*
X308680256Y-84582795D01*
X308491898Y-84504774D01*
X308291939Y-84465000D01*
X308088061Y-84465000D01*
X307888102Y-84504774D01*
X307699744Y-84582795D01*
X307530226Y-84696063D01*
X307386063Y-84840226D01*
X307272795Y-85009744D01*
X307194774Y-85198102D01*
X307155000Y-85398061D01*
X282000000Y-85398061D01*
X282000000Y-51312419D01*
X282003193Y-51280000D01*
X281990450Y-51150617D01*
X281952710Y-51026207D01*
X281891425Y-50911550D01*
X281808948Y-50811052D01*
X281708450Y-50728575D01*
X281593793Y-50667290D01*
X281469383Y-50629550D01*
X281372419Y-50620000D01*
X281340000Y-50616807D01*
X281307581Y-50620000D01*
X252550431Y-50620000D01*
X252552035Y-48169564D01*
X252859074Y-48629080D01*
X253260920Y-49030926D01*
X253733440Y-49346654D01*
X254258477Y-49564131D01*
X254815852Y-49675000D01*
X255384148Y-49675000D01*
X255941523Y-49564131D01*
X256466560Y-49346654D01*
X256939080Y-49030926D01*
X257340926Y-48629080D01*
X257395061Y-48548061D01*
X288915000Y-48548061D01*
X288915000Y-48751939D01*
X288954774Y-48951898D01*
X289032795Y-49140256D01*
X289146063Y-49309774D01*
X289290226Y-49453937D01*
X289459744Y-49567205D01*
X289648102Y-49645226D01*
X289848061Y-49685000D01*
X290051939Y-49685000D01*
X290251898Y-49645226D01*
X290440256Y-49567205D01*
X290609774Y-49453937D01*
X290653711Y-49410000D01*
X291735199Y-49410000D01*
X300590000Y-58264802D01*
X300590001Y-60949299D01*
X300482795Y-61109744D01*
X300404774Y-61298102D01*
X300365000Y-61498061D01*
X300365000Y-61701939D01*
X300404774Y-61901898D01*
X300482795Y-62090256D01*
X300596063Y-62259774D01*
X300740226Y-62403937D01*
X300909744Y-62517205D01*
X301098102Y-62595226D01*
X301298061Y-62635000D01*
X301501939Y-62635000D01*
X301701898Y-62595226D01*
X301890256Y-62517205D01*
X302059774Y-62403937D01*
X302203937Y-62259774D01*
X302317205Y-62090256D01*
X302395226Y-61901898D01*
X302435000Y-61701939D01*
X302435000Y-61498061D01*
X302395226Y-61298102D01*
X302317205Y-61109744D01*
X302203937Y-60940226D01*
X302110000Y-60846289D01*
X302110000Y-59648061D01*
X302864998Y-59648061D01*
X302864998Y-59851939D01*
X302904772Y-60051898D01*
X302982793Y-60240256D01*
X303096061Y-60409774D01*
X303240224Y-60553937D01*
X303409742Y-60667205D01*
X303598100Y-60745226D01*
X303798059Y-60785000D01*
X303860197Y-60785000D01*
X304239998Y-61164802D01*
X304239998Y-61346289D01*
X304196061Y-61390226D01*
X304082793Y-61559744D01*
X304004772Y-61748102D01*
X303964998Y-61948061D01*
X303964998Y-62151939D01*
X304004772Y-62351898D01*
X304082793Y-62540256D01*
X304196061Y-62709774D01*
X304340224Y-62853937D01*
X304509742Y-62967205D01*
X304698100Y-63045226D01*
X304898059Y-63085000D01*
X305101937Y-63085000D01*
X305301896Y-63045226D01*
X305490254Y-62967205D01*
X305659772Y-62853937D01*
X305803935Y-62709774D01*
X305917203Y-62540256D01*
X305995224Y-62351898D01*
X306034998Y-62151939D01*
X306034998Y-61948061D01*
X305995224Y-61748102D01*
X305917203Y-61559744D01*
X305803935Y-61390226D01*
X305759998Y-61346289D01*
X305759998Y-60887323D01*
X305763674Y-60850000D01*
X305759998Y-60812677D01*
X305759998Y-60812667D01*
X305749001Y-60701014D01*
X305705544Y-60557753D01*
X305634973Y-60425725D01*
X305634972Y-60425723D01*
X305563797Y-60338997D01*
X305539999Y-60309999D01*
X305511002Y-60286202D01*
X304934998Y-59710199D01*
X304934998Y-59648061D01*
X304895224Y-59448102D01*
X304817203Y-59259744D01*
X304703935Y-59090226D01*
X304559772Y-58946063D01*
X304390254Y-58832795D01*
X304201896Y-58754774D01*
X304001937Y-58715000D01*
X303798059Y-58715000D01*
X303598100Y-58754774D01*
X303409742Y-58832795D01*
X303240224Y-58946063D01*
X303096061Y-59090226D01*
X302982793Y-59259744D01*
X302904772Y-59448102D01*
X302864998Y-59648061D01*
X302110000Y-59648061D01*
X302110000Y-57987322D01*
X302113676Y-57949999D01*
X302110000Y-57912676D01*
X302110000Y-57912667D01*
X302099003Y-57801014D01*
X302055546Y-57657753D01*
X301984975Y-57525725D01*
X301984974Y-57525723D01*
X301913799Y-57438997D01*
X301890001Y-57409999D01*
X301861004Y-57386202D01*
X292613804Y-48139003D01*
X292590001Y-48109999D01*
X292474276Y-48015026D01*
X292342247Y-47944454D01*
X292198986Y-47900997D01*
X292087333Y-47890000D01*
X292087322Y-47890000D01*
X292050000Y-47886324D01*
X292012678Y-47890000D01*
X290653711Y-47890000D01*
X290609774Y-47846063D01*
X290440256Y-47732795D01*
X290251898Y-47654774D01*
X290051939Y-47615000D01*
X289848061Y-47615000D01*
X289648102Y-47654774D01*
X289459744Y-47732795D01*
X289290226Y-47846063D01*
X289146063Y-47990226D01*
X289032795Y-48159744D01*
X288954774Y-48348102D01*
X288915000Y-48548061D01*
X257395061Y-48548061D01*
X257656654Y-48156560D01*
X257874131Y-47631523D01*
X257985000Y-47074148D01*
X257985000Y-46505852D01*
X257874131Y-45948477D01*
X257800151Y-45769872D01*
X291275000Y-45769872D01*
X291275000Y-46210128D01*
X291360890Y-46641925D01*
X291529369Y-47048669D01*
X291773962Y-47414729D01*
X292085271Y-47726038D01*
X292451331Y-47970631D01*
X292858075Y-48139110D01*
X293289872Y-48225000D01*
X293730128Y-48225000D01*
X294161925Y-48139110D01*
X294568669Y-47970631D01*
X294934729Y-47726038D01*
X295246038Y-47414729D01*
X295490631Y-47048669D01*
X295659110Y-46641925D01*
X295745000Y-46210128D01*
X295745000Y-45769872D01*
X295659110Y-45338075D01*
X295490631Y-44931331D01*
X295246038Y-44565271D01*
X294934729Y-44253962D01*
X294779139Y-44150000D01*
X311486807Y-44150000D01*
X311490000Y-44182419D01*
X311490001Y-64520663D01*
X311486836Y-64556197D01*
X311493489Y-64617838D01*
X311499551Y-64679383D01*
X311500454Y-64682359D01*
X311500788Y-64685456D01*
X311519329Y-64744581D01*
X311537291Y-64803793D01*
X311538758Y-64806537D01*
X311539689Y-64809507D01*
X311569393Y-64863853D01*
X311598576Y-64918450D01*
X311600550Y-64920855D01*
X311602043Y-64923587D01*
X311641802Y-64971121D01*
X311681053Y-65018948D01*
X311683456Y-65020920D01*
X311685455Y-65023310D01*
X311733713Y-65062165D01*
X311781551Y-65101425D01*
X311784296Y-65102892D01*
X311786720Y-65104844D01*
X311841600Y-65133522D01*
X311896208Y-65162710D01*
X311899186Y-65163614D01*
X311901945Y-65165055D01*
X311961332Y-65182465D01*
X312020618Y-65200450D01*
X312023719Y-65200755D01*
X312026702Y-65201630D01*
X312088337Y-65207120D01*
X312150000Y-65213193D01*
X312185496Y-65209697D01*
X317470656Y-65160303D01*
X317500000Y-65163193D01*
X317535497Y-65159697D01*
X317538585Y-65159668D01*
X317567728Y-65156522D01*
X317629382Y-65150450D01*
X317632362Y-65149546D01*
X317635456Y-65149212D01*
X317694527Y-65130688D01*
X317753792Y-65112710D01*
X317756538Y-65111243D01*
X317759508Y-65110311D01*
X317813838Y-65080615D01*
X317868449Y-65051425D01*
X317870856Y-65049450D01*
X317873587Y-65047957D01*
X317921082Y-65008230D01*
X317968948Y-64968948D01*
X317970923Y-64966542D01*
X317973310Y-64964545D01*
X318012122Y-64916340D01*
X318051425Y-64868450D01*
X318052894Y-64865702D01*
X318054844Y-64863280D01*
X318083498Y-64808445D01*
X318112710Y-64753793D01*
X318113614Y-64750812D01*
X318115055Y-64748055D01*
X318132471Y-64688651D01*
X318150450Y-64629383D01*
X318150755Y-64626286D01*
X318151631Y-64623298D01*
X318157125Y-64561605D01*
X318160000Y-64532419D01*
X318160000Y-64529329D01*
X318163164Y-64493803D01*
X318160000Y-64464490D01*
X318160000Y-45769872D01*
X333865000Y-45769872D01*
X333865000Y-46210128D01*
X333950890Y-46641925D01*
X334119369Y-47048669D01*
X334363962Y-47414729D01*
X334675271Y-47726038D01*
X335041331Y-47970631D01*
X335448075Y-48139110D01*
X335879872Y-48225000D01*
X336320128Y-48225000D01*
X336751925Y-48139110D01*
X337158669Y-47970631D01*
X337524729Y-47726038D01*
X337836038Y-47414729D01*
X338080631Y-47048669D01*
X338249110Y-46641925D01*
X338335000Y-46210128D01*
X338335000Y-45769872D01*
X338249110Y-45338075D01*
X338080631Y-44931331D01*
X337836038Y-44565271D01*
X337524729Y-44253962D01*
X337158669Y-44009369D01*
X336751925Y-43840890D01*
X336320128Y-43755000D01*
X335879872Y-43755000D01*
X335448075Y-43840890D01*
X335041331Y-44009369D01*
X334675271Y-44253962D01*
X334363962Y-44565271D01*
X334119369Y-44931331D01*
X333950890Y-45338075D01*
X333865000Y-45769872D01*
X318160000Y-45769872D01*
X318160000Y-44238317D01*
X318163086Y-44211840D01*
X318160000Y-44173501D01*
X318160000Y-44167581D01*
X318157392Y-44141103D01*
X318152655Y-44082251D01*
X318151033Y-44076540D01*
X318150450Y-44070617D01*
X318133274Y-44013998D01*
X318117143Y-43957187D01*
X318114437Y-43951899D01*
X318112710Y-43946207D01*
X318084826Y-43894040D01*
X318057915Y-43841455D01*
X318054230Y-43836797D01*
X318051425Y-43831550D01*
X318013886Y-43785809D01*
X317977245Y-43739500D01*
X317972723Y-43735651D01*
X317968948Y-43731052D01*
X317923214Y-43693519D01*
X317878236Y-43655242D01*
X317873049Y-43652349D01*
X317868450Y-43648575D01*
X317816282Y-43620691D01*
X317764691Y-43591919D01*
X317759037Y-43590093D01*
X317753793Y-43587290D01*
X317697207Y-43570124D01*
X317640975Y-43551964D01*
X317635073Y-43551276D01*
X317629383Y-43549550D01*
X317570505Y-43543751D01*
X317544197Y-43540685D01*
X317538306Y-43540580D01*
X317500000Y-43536807D01*
X317473453Y-43539422D01*
X314738301Y-43490579D01*
X314732419Y-43490000D01*
X314705859Y-43490000D01*
X314679371Y-43489527D01*
X314673494Y-43490000D01*
X312182419Y-43490000D01*
X312150000Y-43486807D01*
X312117581Y-43490000D01*
X312020617Y-43499550D01*
X311896207Y-43537290D01*
X311781550Y-43598575D01*
X311681052Y-43681052D01*
X311598575Y-43781550D01*
X311537290Y-43896207D01*
X311499550Y-44020617D01*
X311486807Y-44150000D01*
X294779139Y-44150000D01*
X294568669Y-44009369D01*
X294161925Y-43840890D01*
X293730128Y-43755000D01*
X293289872Y-43755000D01*
X292858075Y-43840890D01*
X292451331Y-44009369D01*
X292085271Y-44253962D01*
X291773962Y-44565271D01*
X291529369Y-44931331D01*
X291360890Y-45338075D01*
X291275000Y-45769872D01*
X257800151Y-45769872D01*
X257656654Y-45423440D01*
X257340926Y-44950920D01*
X256939080Y-44549074D01*
X256466560Y-44233346D01*
X255941523Y-44015869D01*
X255384148Y-43905000D01*
X254815852Y-43905000D01*
X254258477Y-44015869D01*
X253733440Y-44233346D01*
X253260920Y-44549074D01*
X252859074Y-44950920D01*
X252553843Y-45407730D01*
X252559568Y-36660000D01*
X349140001Y-36660000D01*
X349140001Y-45408517D01*
M02*
