G04 #@! TF.GenerationSoftware,KiCad,Pcbnew,(5.1.2)-2*
G04 #@! TF.CreationDate,2021-08-28T01:19:33-04:00*
G04 #@! TF.ProjectId,MAG_Plus,4d41475f-506c-4757-932e-6b696361645f,rev?*
G04 #@! TF.SameCoordinates,Original*
G04 #@! TF.FileFunction,Copper,L2,Bot*
G04 #@! TF.FilePolarity,Positive*
%FSLAX46Y46*%
G04 Gerber Fmt 4.6, Leading zero omitted, Abs format (unit mm)*
G04 Created by KiCad (PCBNEW (5.1.2)-2) date 2021-08-28 01:19:33*
%MOMM*%
%LPD*%
G04 APERTURE LIST*
%ADD10C,4.500000*%
%ADD11C,3.200000*%
%ADD12C,9.200000*%
%ADD13C,0.800000*%
%ADD14C,0.250000*%
%ADD15C,0.254000*%
G04 APERTURE END LIST*
D10*
X346600000Y-46800000D03*
X255100000Y-46790000D03*
X346600000Y-107800000D03*
D11*
X336100000Y-45990000D03*
X293510000Y-108610000D03*
X293510000Y-45990000D03*
X336100000Y-108610000D03*
D12*
X314810000Y-107800000D03*
X314790000Y-46770000D03*
D13*
X305670000Y-59620000D03*
X305630000Y-62130000D03*
X298750000Y-55060000D03*
X301010000Y-62480000D03*
X310680000Y-94970000D03*
X308190000Y-85500000D03*
X302600000Y-99340000D03*
X302540000Y-96590000D03*
X309260000Y-97620000D03*
X302540000Y-101930000D03*
X295980000Y-95270000D03*
X297400000Y-88000000D03*
D14*
X305670000Y-59620000D02*
X305670000Y-62090000D01*
X305670000Y-62090000D02*
X305630000Y-62130000D01*
X300120000Y-61590000D02*
X301010000Y-62480000D01*
X300120000Y-56400000D02*
X300120000Y-61590000D01*
X298750000Y-55060000D02*
X298780000Y-55060000D01*
X298780000Y-55060000D02*
X300120000Y-56400000D01*
X310680000Y-94970000D02*
X310680000Y-86570000D01*
X310680000Y-86570000D02*
X309450000Y-85340000D01*
X309450000Y-85340000D02*
X308350000Y-85340000D01*
X308350000Y-85340000D02*
X308190000Y-85500000D01*
X302600000Y-99340000D02*
X302600000Y-96650000D01*
X302600000Y-96650000D02*
X302540000Y-96590000D01*
X307740000Y-101930000D02*
X302540000Y-101930000D01*
X309270000Y-100400000D02*
X307740000Y-101930000D01*
X309270000Y-100270000D02*
X309270000Y-100400000D01*
X309260000Y-97620000D02*
X309260000Y-100260000D01*
X309260000Y-100260000D02*
X309270000Y-100270000D01*
X296660000Y-88000000D02*
X297400000Y-88000000D01*
X295980000Y-95270000D02*
X295980000Y-88680000D01*
X295980000Y-88680000D02*
X296660000Y-88000000D01*
D15*
G36*
X349140001Y-45408517D02*
G01*
X348840926Y-44960920D01*
X348439080Y-44559074D01*
X347966560Y-44243346D01*
X347441523Y-44025869D01*
X346884148Y-43915000D01*
X346315852Y-43915000D01*
X345758477Y-44025869D01*
X345233440Y-44243346D01*
X344760920Y-44559074D01*
X344359074Y-44960920D01*
X344043346Y-45433440D01*
X343825869Y-45958477D01*
X343715000Y-46515852D01*
X343715000Y-47084148D01*
X343825869Y-47641523D01*
X344043346Y-48166560D01*
X344359074Y-48639080D01*
X344760920Y-49040926D01*
X345233440Y-49356654D01*
X345758477Y-49574131D01*
X346315852Y-49685000D01*
X346884148Y-49685000D01*
X347441523Y-49574131D01*
X347966560Y-49356654D01*
X348439080Y-49040926D01*
X348840926Y-48639080D01*
X349140001Y-48191483D01*
X349140000Y-106408516D01*
X348840926Y-105960920D01*
X348439080Y-105559074D01*
X347966560Y-105243346D01*
X347441523Y-105025869D01*
X346884148Y-104915000D01*
X346315852Y-104915000D01*
X345758477Y-105025869D01*
X345233440Y-105243346D01*
X344760920Y-105559074D01*
X344359074Y-105960920D01*
X344043346Y-106433440D01*
X343825869Y-106958477D01*
X343715000Y-107515852D01*
X343715000Y-108084148D01*
X343825869Y-108641523D01*
X344043346Y-109166560D01*
X344359074Y-109639080D01*
X344760920Y-110040926D01*
X345233440Y-110356654D01*
X345758477Y-110574131D01*
X346315852Y-110685000D01*
X346884148Y-110685000D01*
X347441523Y-110574131D01*
X347966560Y-110356654D01*
X348439080Y-110040926D01*
X348840926Y-109639080D01*
X349140000Y-109191484D01*
X349140000Y-117940000D01*
X287680448Y-117940000D01*
X287686944Y-108389872D01*
X291275000Y-108389872D01*
X291275000Y-108830128D01*
X291360890Y-109261925D01*
X291529369Y-109668669D01*
X291773962Y-110034729D01*
X292085271Y-110346038D01*
X292451331Y-110590631D01*
X292858075Y-110759110D01*
X293289872Y-110845000D01*
X293730128Y-110845000D01*
X294161925Y-110759110D01*
X294568669Y-110590631D01*
X294934729Y-110346038D01*
X295246038Y-110034729D01*
X295490631Y-109668669D01*
X295659110Y-109261925D01*
X295745000Y-108830128D01*
X295745000Y-108389872D01*
X295659110Y-107958075D01*
X295490631Y-107551331D01*
X295312272Y-107284397D01*
X309575000Y-107284397D01*
X309575000Y-108315603D01*
X309776178Y-109326993D01*
X310170803Y-110279702D01*
X310743710Y-111137118D01*
X311472882Y-111866290D01*
X312330298Y-112439197D01*
X313283007Y-112833822D01*
X314294397Y-113035000D01*
X315325603Y-113035000D01*
X316336993Y-112833822D01*
X317289702Y-112439197D01*
X318147118Y-111866290D01*
X318876290Y-111137118D01*
X319449197Y-110279702D01*
X319843822Y-109326993D01*
X320030226Y-108389872D01*
X333865000Y-108389872D01*
X333865000Y-108830128D01*
X333950890Y-109261925D01*
X334119369Y-109668669D01*
X334363962Y-110034729D01*
X334675271Y-110346038D01*
X335041331Y-110590631D01*
X335448075Y-110759110D01*
X335879872Y-110845000D01*
X336320128Y-110845000D01*
X336751925Y-110759110D01*
X337158669Y-110590631D01*
X337524729Y-110346038D01*
X337836038Y-110034729D01*
X338080631Y-109668669D01*
X338249110Y-109261925D01*
X338335000Y-108830128D01*
X338335000Y-108389872D01*
X338249110Y-107958075D01*
X338080631Y-107551331D01*
X337836038Y-107185271D01*
X337524729Y-106873962D01*
X337158669Y-106629369D01*
X336751925Y-106460890D01*
X336320128Y-106375000D01*
X335879872Y-106375000D01*
X335448075Y-106460890D01*
X335041331Y-106629369D01*
X334675271Y-106873962D01*
X334363962Y-107185271D01*
X334119369Y-107551331D01*
X333950890Y-107958075D01*
X333865000Y-108389872D01*
X320030226Y-108389872D01*
X320045000Y-108315603D01*
X320045000Y-107284397D01*
X319843822Y-106273007D01*
X319449197Y-105320298D01*
X318876290Y-104462882D01*
X318147118Y-103733710D01*
X317289702Y-103160803D01*
X316336993Y-102766178D01*
X315325603Y-102565000D01*
X314294397Y-102565000D01*
X313283007Y-102766178D01*
X312330298Y-103160803D01*
X311472882Y-103733710D01*
X310743710Y-104462882D01*
X310170803Y-105320298D01*
X309776178Y-106273007D01*
X309575000Y-107284397D01*
X295312272Y-107284397D01*
X295246038Y-107185271D01*
X294934729Y-106873962D01*
X294568669Y-106629369D01*
X294161925Y-106460890D01*
X293730128Y-106375000D01*
X293289872Y-106375000D01*
X292858075Y-106460890D01*
X292451331Y-106629369D01*
X292085271Y-106873962D01*
X291773962Y-107185271D01*
X291529369Y-107551331D01*
X291360890Y-107958075D01*
X291275000Y-108389872D01*
X287686944Y-108389872D01*
X287691408Y-101828061D01*
X301505000Y-101828061D01*
X301505000Y-102031939D01*
X301544774Y-102231898D01*
X301622795Y-102420256D01*
X301736063Y-102589774D01*
X301880226Y-102733937D01*
X302049744Y-102847205D01*
X302238102Y-102925226D01*
X302438061Y-102965000D01*
X302641939Y-102965000D01*
X302841898Y-102925226D01*
X303030256Y-102847205D01*
X303199774Y-102733937D01*
X303243711Y-102690000D01*
X307702678Y-102690000D01*
X307740000Y-102693676D01*
X307777322Y-102690000D01*
X307777333Y-102690000D01*
X307888986Y-102679003D01*
X308032247Y-102635546D01*
X308164276Y-102564974D01*
X308280001Y-102470001D01*
X308303804Y-102440997D01*
X309781003Y-100963799D01*
X309810001Y-100940001D01*
X309904974Y-100824276D01*
X309933450Y-100771002D01*
X309975546Y-100692247D01*
X310019003Y-100548986D01*
X310020411Y-100534686D01*
X310030000Y-100437332D01*
X310030000Y-100437325D01*
X310033676Y-100400000D01*
X310030000Y-100362675D01*
X310030000Y-100307322D01*
X310033676Y-100269999D01*
X310030000Y-100232677D01*
X310030000Y-100232667D01*
X310020000Y-100131137D01*
X310020000Y-98323711D01*
X310063937Y-98279774D01*
X310177205Y-98110256D01*
X310255226Y-97921898D01*
X310295000Y-97721939D01*
X310295000Y-97518061D01*
X310255226Y-97318102D01*
X310177205Y-97129744D01*
X310063937Y-96960226D01*
X309919774Y-96816063D01*
X309750256Y-96702795D01*
X309561898Y-96624774D01*
X309361939Y-96585000D01*
X309158061Y-96585000D01*
X308958102Y-96624774D01*
X308769744Y-96702795D01*
X308600226Y-96816063D01*
X308456063Y-96960226D01*
X308342795Y-97129744D01*
X308264774Y-97318102D01*
X308225000Y-97518061D01*
X308225000Y-97721939D01*
X308264774Y-97921898D01*
X308342795Y-98110256D01*
X308456063Y-98279774D01*
X308500000Y-98323711D01*
X308500001Y-100095197D01*
X307425199Y-101170000D01*
X303243711Y-101170000D01*
X303199774Y-101126063D01*
X303030256Y-101012795D01*
X302841898Y-100934774D01*
X302641939Y-100895000D01*
X302438061Y-100895000D01*
X302238102Y-100934774D01*
X302049744Y-101012795D01*
X301880226Y-101126063D01*
X301736063Y-101270226D01*
X301622795Y-101439744D01*
X301544774Y-101628102D01*
X301505000Y-101828061D01*
X287691408Y-101828061D01*
X287695040Y-96488061D01*
X301505000Y-96488061D01*
X301505000Y-96691939D01*
X301544774Y-96891898D01*
X301622795Y-97080256D01*
X301736063Y-97249774D01*
X301840001Y-97353712D01*
X301840000Y-98636289D01*
X301796063Y-98680226D01*
X301682795Y-98849744D01*
X301604774Y-99038102D01*
X301565000Y-99238061D01*
X301565000Y-99441939D01*
X301604774Y-99641898D01*
X301682795Y-99830256D01*
X301796063Y-99999774D01*
X301940226Y-100143937D01*
X302109744Y-100257205D01*
X302298102Y-100335226D01*
X302498061Y-100375000D01*
X302701939Y-100375000D01*
X302901898Y-100335226D01*
X303090256Y-100257205D01*
X303259774Y-100143937D01*
X303403937Y-99999774D01*
X303517205Y-99830256D01*
X303595226Y-99641898D01*
X303635000Y-99441939D01*
X303635000Y-99238061D01*
X303595226Y-99038102D01*
X303517205Y-98849744D01*
X303403937Y-98680226D01*
X303360000Y-98636289D01*
X303360000Y-97225734D01*
X303457205Y-97080256D01*
X303535226Y-96891898D01*
X303575000Y-96691939D01*
X303575000Y-96488061D01*
X303535226Y-96288102D01*
X303457205Y-96099744D01*
X303343937Y-95930226D01*
X303199774Y-95786063D01*
X303030256Y-95672795D01*
X302841898Y-95594774D01*
X302641939Y-95555000D01*
X302438061Y-95555000D01*
X302238102Y-95594774D01*
X302049744Y-95672795D01*
X301880226Y-95786063D01*
X301736063Y-95930226D01*
X301622795Y-96099744D01*
X301544774Y-96288102D01*
X301505000Y-96488061D01*
X287695040Y-96488061D01*
X287695939Y-95168061D01*
X294945000Y-95168061D01*
X294945000Y-95371939D01*
X294984774Y-95571898D01*
X295062795Y-95760256D01*
X295176063Y-95929774D01*
X295320226Y-96073937D01*
X295489744Y-96187205D01*
X295678102Y-96265226D01*
X295878061Y-96305000D01*
X296081939Y-96305000D01*
X296281898Y-96265226D01*
X296470256Y-96187205D01*
X296639774Y-96073937D01*
X296783937Y-95929774D01*
X296897205Y-95760256D01*
X296975226Y-95571898D01*
X297015000Y-95371939D01*
X297015000Y-95168061D01*
X296975226Y-94968102D01*
X296897205Y-94779744D01*
X296783937Y-94610226D01*
X296740000Y-94566289D01*
X296740000Y-88994801D01*
X296854506Y-88880296D01*
X296909744Y-88917205D01*
X297098102Y-88995226D01*
X297298061Y-89035000D01*
X297501939Y-89035000D01*
X297701898Y-88995226D01*
X297890256Y-88917205D01*
X298059774Y-88803937D01*
X298203937Y-88659774D01*
X298317205Y-88490256D01*
X298395226Y-88301898D01*
X298435000Y-88101939D01*
X298435000Y-87898061D01*
X298395226Y-87698102D01*
X298317205Y-87509744D01*
X298203937Y-87340226D01*
X298059774Y-87196063D01*
X297890256Y-87082795D01*
X297701898Y-87004774D01*
X297501939Y-86965000D01*
X297298061Y-86965000D01*
X297098102Y-87004774D01*
X296909744Y-87082795D01*
X296740226Y-87196063D01*
X296696382Y-87239907D01*
X296659999Y-87236324D01*
X296622676Y-87240000D01*
X296622667Y-87240000D01*
X296511014Y-87250997D01*
X296367753Y-87294454D01*
X296235724Y-87365026D01*
X296119999Y-87459999D01*
X296096201Y-87488998D01*
X295468998Y-88116201D01*
X295440000Y-88139999D01*
X295416202Y-88168997D01*
X295416201Y-88168998D01*
X295345026Y-88255724D01*
X295274454Y-88387754D01*
X295244180Y-88487558D01*
X295230998Y-88531014D01*
X295230113Y-88540000D01*
X295216324Y-88680000D01*
X295220001Y-88717332D01*
X295220000Y-94566289D01*
X295176063Y-94610226D01*
X295062795Y-94779744D01*
X294984774Y-94968102D01*
X294945000Y-95168061D01*
X287695939Y-95168061D01*
X287699977Y-89232652D01*
X287703193Y-89200000D01*
X287696710Y-89134180D01*
X287690537Y-89071060D01*
X287690473Y-89070848D01*
X287690450Y-89070617D01*
X287671328Y-89007581D01*
X287652882Y-88946624D01*
X287652777Y-88946426D01*
X287652710Y-88946207D01*
X287621707Y-88888205D01*
X287591675Y-88831926D01*
X287591534Y-88831754D01*
X287591425Y-88831550D01*
X287549618Y-88780608D01*
X287509266Y-88731371D01*
X287509093Y-88731229D01*
X287508948Y-88731052D01*
X287458491Y-88689643D01*
X287408825Y-88648826D01*
X287408626Y-88648719D01*
X287408450Y-88648575D01*
X287350826Y-88617775D01*
X287294209Y-88587463D01*
X287293995Y-88587398D01*
X287293793Y-88587290D01*
X287231532Y-88568403D01*
X287169825Y-88549638D01*
X287169599Y-88549616D01*
X287169383Y-88549550D01*
X287105137Y-88543222D01*
X287040451Y-88536807D01*
X287007804Y-88540000D01*
X252500745Y-88540000D01*
X252504288Y-85398061D01*
X307155000Y-85398061D01*
X307155000Y-85601939D01*
X307194774Y-85801898D01*
X307272795Y-85990256D01*
X307386063Y-86159774D01*
X307530226Y-86303937D01*
X307699744Y-86417205D01*
X307888102Y-86495226D01*
X308088061Y-86535000D01*
X308291939Y-86535000D01*
X308491898Y-86495226D01*
X308680256Y-86417205D01*
X308849774Y-86303937D01*
X308993937Y-86159774D01*
X309033877Y-86100000D01*
X309135199Y-86100000D01*
X309920001Y-86884803D01*
X309920000Y-94266289D01*
X309876063Y-94310226D01*
X309762795Y-94479744D01*
X309684774Y-94668102D01*
X309645000Y-94868061D01*
X309645000Y-95071939D01*
X309684774Y-95271898D01*
X309762795Y-95460256D01*
X309876063Y-95629774D01*
X310020226Y-95773937D01*
X310189744Y-95887205D01*
X310378102Y-95965226D01*
X310578061Y-96005000D01*
X310781939Y-96005000D01*
X310981898Y-95965226D01*
X311170256Y-95887205D01*
X311339774Y-95773937D01*
X311483937Y-95629774D01*
X311597205Y-95460256D01*
X311675226Y-95271898D01*
X311715000Y-95071939D01*
X311715000Y-94868061D01*
X311675226Y-94668102D01*
X311597205Y-94479744D01*
X311483937Y-94310226D01*
X311440000Y-94266289D01*
X311440000Y-86607325D01*
X311443676Y-86570000D01*
X311440000Y-86532675D01*
X311440000Y-86532667D01*
X311429003Y-86421014D01*
X311385546Y-86277753D01*
X311314974Y-86145724D01*
X311220001Y-86029999D01*
X311191003Y-86006201D01*
X310013804Y-84829003D01*
X309990001Y-84799999D01*
X309874276Y-84705026D01*
X309742247Y-84634454D01*
X309598986Y-84590997D01*
X309487333Y-84580000D01*
X309487322Y-84580000D01*
X309450000Y-84576324D01*
X309412678Y-84580000D01*
X308673508Y-84580000D01*
X308491898Y-84504774D01*
X308291939Y-84465000D01*
X308088061Y-84465000D01*
X307888102Y-84504774D01*
X307699744Y-84582795D01*
X307530226Y-84696063D01*
X307386063Y-84840226D01*
X307272795Y-85009744D01*
X307194774Y-85198102D01*
X307155000Y-85398061D01*
X252504288Y-85398061D01*
X252538619Y-54958061D01*
X297715000Y-54958061D01*
X297715000Y-55161939D01*
X297754774Y-55361898D01*
X297832795Y-55550256D01*
X297946063Y-55719774D01*
X298090226Y-55863937D01*
X298259744Y-55977205D01*
X298448102Y-56055226D01*
X298648061Y-56095000D01*
X298740199Y-56095000D01*
X299360000Y-56714802D01*
X299360001Y-61552668D01*
X299356324Y-61590000D01*
X299370998Y-61738985D01*
X299414454Y-61882246D01*
X299485026Y-62014276D01*
X299547172Y-62090000D01*
X299580000Y-62130001D01*
X299608998Y-62153799D01*
X299975000Y-62519801D01*
X299975000Y-62581939D01*
X300014774Y-62781898D01*
X300092795Y-62970256D01*
X300206063Y-63139774D01*
X300350226Y-63283937D01*
X300519744Y-63397205D01*
X300708102Y-63475226D01*
X300908061Y-63515000D01*
X301111939Y-63515000D01*
X301311898Y-63475226D01*
X301500256Y-63397205D01*
X301669774Y-63283937D01*
X301813937Y-63139774D01*
X301927205Y-62970256D01*
X302005226Y-62781898D01*
X302045000Y-62581939D01*
X302045000Y-62378061D01*
X302005226Y-62178102D01*
X301943077Y-62028061D01*
X304595000Y-62028061D01*
X304595000Y-62231939D01*
X304634774Y-62431898D01*
X304712795Y-62620256D01*
X304826063Y-62789774D01*
X304970226Y-62933937D01*
X305139744Y-63047205D01*
X305328102Y-63125226D01*
X305528061Y-63165000D01*
X305731939Y-63165000D01*
X305931898Y-63125226D01*
X306120256Y-63047205D01*
X306289774Y-62933937D01*
X306433937Y-62789774D01*
X306547205Y-62620256D01*
X306625226Y-62431898D01*
X306665000Y-62231939D01*
X306665000Y-62028061D01*
X306625226Y-61828102D01*
X306547205Y-61639744D01*
X306433937Y-61470226D01*
X306430000Y-61466289D01*
X306430000Y-60323711D01*
X306473937Y-60279774D01*
X306587205Y-60110256D01*
X306665226Y-59921898D01*
X306705000Y-59721939D01*
X306705000Y-59518061D01*
X306665226Y-59318102D01*
X306587205Y-59129744D01*
X306473937Y-58960226D01*
X306329774Y-58816063D01*
X306160256Y-58702795D01*
X305971898Y-58624774D01*
X305771939Y-58585000D01*
X305568061Y-58585000D01*
X305368102Y-58624774D01*
X305179744Y-58702795D01*
X305010226Y-58816063D01*
X304866063Y-58960226D01*
X304752795Y-59129744D01*
X304674774Y-59318102D01*
X304635000Y-59518061D01*
X304635000Y-59721939D01*
X304674774Y-59921898D01*
X304752795Y-60110256D01*
X304866063Y-60279774D01*
X304910000Y-60323711D01*
X304910001Y-61386288D01*
X304826063Y-61470226D01*
X304712795Y-61639744D01*
X304634774Y-61828102D01*
X304595000Y-62028061D01*
X301943077Y-62028061D01*
X301927205Y-61989744D01*
X301813937Y-61820226D01*
X301669774Y-61676063D01*
X301500256Y-61562795D01*
X301311898Y-61484774D01*
X301111939Y-61445000D01*
X301049801Y-61445000D01*
X300880000Y-61275199D01*
X300880000Y-56437322D01*
X300883676Y-56399999D01*
X300880000Y-56362676D01*
X300880000Y-56362667D01*
X300869003Y-56251014D01*
X300825546Y-56107753D01*
X300754974Y-55975724D01*
X300660001Y-55859999D01*
X300631004Y-55836202D01*
X299785000Y-54990199D01*
X299785000Y-54958061D01*
X299745226Y-54758102D01*
X299667205Y-54569744D01*
X299553937Y-54400226D01*
X299409774Y-54256063D01*
X299240256Y-54142795D01*
X299051898Y-54064774D01*
X298851939Y-54025000D01*
X298648061Y-54025000D01*
X298448102Y-54064774D01*
X298259744Y-54142795D01*
X298090226Y-54256063D01*
X297946063Y-54400226D01*
X297832795Y-54569744D01*
X297754774Y-54758102D01*
X297715000Y-54958061D01*
X252538619Y-54958061D01*
X252546285Y-48160958D01*
X252859074Y-48629080D01*
X253260920Y-49030926D01*
X253733440Y-49346654D01*
X254258477Y-49564131D01*
X254815852Y-49675000D01*
X255384148Y-49675000D01*
X255941523Y-49564131D01*
X256466560Y-49346654D01*
X256939080Y-49030926D01*
X257340926Y-48629080D01*
X257656654Y-48156560D01*
X257874131Y-47631523D01*
X257985000Y-47074148D01*
X257985000Y-46505852D01*
X257874131Y-45948477D01*
X257800151Y-45769872D01*
X291275000Y-45769872D01*
X291275000Y-46210128D01*
X291360890Y-46641925D01*
X291529369Y-47048669D01*
X291773962Y-47414729D01*
X292085271Y-47726038D01*
X292451331Y-47970631D01*
X292858075Y-48139110D01*
X293289872Y-48225000D01*
X293730128Y-48225000D01*
X294161925Y-48139110D01*
X294568669Y-47970631D01*
X294934729Y-47726038D01*
X295246038Y-47414729D01*
X295490631Y-47048669D01*
X295659110Y-46641925D01*
X295736194Y-46254397D01*
X309555000Y-46254397D01*
X309555000Y-47285603D01*
X309756178Y-48296993D01*
X310150803Y-49249702D01*
X310723710Y-50107118D01*
X311452882Y-50836290D01*
X312310298Y-51409197D01*
X313263007Y-51803822D01*
X314274397Y-52005000D01*
X315305603Y-52005000D01*
X316316993Y-51803822D01*
X317269702Y-51409197D01*
X318127118Y-50836290D01*
X318856290Y-50107118D01*
X319429197Y-49249702D01*
X319823822Y-48296993D01*
X320025000Y-47285603D01*
X320025000Y-46254397D01*
X319928622Y-45769872D01*
X333865000Y-45769872D01*
X333865000Y-46210128D01*
X333950890Y-46641925D01*
X334119369Y-47048669D01*
X334363962Y-47414729D01*
X334675271Y-47726038D01*
X335041331Y-47970631D01*
X335448075Y-48139110D01*
X335879872Y-48225000D01*
X336320128Y-48225000D01*
X336751925Y-48139110D01*
X337158669Y-47970631D01*
X337524729Y-47726038D01*
X337836038Y-47414729D01*
X338080631Y-47048669D01*
X338249110Y-46641925D01*
X338335000Y-46210128D01*
X338335000Y-45769872D01*
X338249110Y-45338075D01*
X338080631Y-44931331D01*
X337836038Y-44565271D01*
X337524729Y-44253962D01*
X337158669Y-44009369D01*
X336751925Y-43840890D01*
X336320128Y-43755000D01*
X335879872Y-43755000D01*
X335448075Y-43840890D01*
X335041331Y-44009369D01*
X334675271Y-44253962D01*
X334363962Y-44565271D01*
X334119369Y-44931331D01*
X333950890Y-45338075D01*
X333865000Y-45769872D01*
X319928622Y-45769872D01*
X319823822Y-45243007D01*
X319429197Y-44290298D01*
X318856290Y-43432882D01*
X318127118Y-42703710D01*
X317269702Y-42130803D01*
X316316993Y-41736178D01*
X315305603Y-41535000D01*
X314274397Y-41535000D01*
X313263007Y-41736178D01*
X312310298Y-42130803D01*
X311452882Y-42703710D01*
X310723710Y-43432882D01*
X310150803Y-44290298D01*
X309756178Y-45243007D01*
X309555000Y-46254397D01*
X295736194Y-46254397D01*
X295745000Y-46210128D01*
X295745000Y-45769872D01*
X295659110Y-45338075D01*
X295490631Y-44931331D01*
X295246038Y-44565271D01*
X294934729Y-44253962D01*
X294568669Y-44009369D01*
X294161925Y-43840890D01*
X293730128Y-43755000D01*
X293289872Y-43755000D01*
X292858075Y-43840890D01*
X292451331Y-44009369D01*
X292085271Y-44253962D01*
X291773962Y-44565271D01*
X291529369Y-44931331D01*
X291360890Y-45338075D01*
X291275000Y-45769872D01*
X257800151Y-45769872D01*
X257656654Y-45423440D01*
X257340926Y-44950920D01*
X256939080Y-44549074D01*
X256466560Y-44233346D01*
X255941523Y-44015869D01*
X255384148Y-43905000D01*
X254815852Y-43905000D01*
X254258477Y-44015869D01*
X253733440Y-44233346D01*
X253260920Y-44549074D01*
X252859074Y-44950920D01*
X252549383Y-45414406D01*
X252559256Y-36660000D01*
X349140001Y-36660000D01*
X349140001Y-45408517D01*
X349140001Y-45408517D01*
G37*
X349140001Y-45408517D02*
X348840926Y-44960920D01*
X348439080Y-44559074D01*
X347966560Y-44243346D01*
X347441523Y-44025869D01*
X346884148Y-43915000D01*
X346315852Y-43915000D01*
X345758477Y-44025869D01*
X345233440Y-44243346D01*
X344760920Y-44559074D01*
X344359074Y-44960920D01*
X344043346Y-45433440D01*
X343825869Y-45958477D01*
X343715000Y-46515852D01*
X343715000Y-47084148D01*
X343825869Y-47641523D01*
X344043346Y-48166560D01*
X344359074Y-48639080D01*
X344760920Y-49040926D01*
X345233440Y-49356654D01*
X345758477Y-49574131D01*
X346315852Y-49685000D01*
X346884148Y-49685000D01*
X347441523Y-49574131D01*
X347966560Y-49356654D01*
X348439080Y-49040926D01*
X348840926Y-48639080D01*
X349140001Y-48191483D01*
X349140000Y-106408516D01*
X348840926Y-105960920D01*
X348439080Y-105559074D01*
X347966560Y-105243346D01*
X347441523Y-105025869D01*
X346884148Y-104915000D01*
X346315852Y-104915000D01*
X345758477Y-105025869D01*
X345233440Y-105243346D01*
X344760920Y-105559074D01*
X344359074Y-105960920D01*
X344043346Y-106433440D01*
X343825869Y-106958477D01*
X343715000Y-107515852D01*
X343715000Y-108084148D01*
X343825869Y-108641523D01*
X344043346Y-109166560D01*
X344359074Y-109639080D01*
X344760920Y-110040926D01*
X345233440Y-110356654D01*
X345758477Y-110574131D01*
X346315852Y-110685000D01*
X346884148Y-110685000D01*
X347441523Y-110574131D01*
X347966560Y-110356654D01*
X348439080Y-110040926D01*
X348840926Y-109639080D01*
X349140000Y-109191484D01*
X349140000Y-117940000D01*
X287680448Y-117940000D01*
X287686944Y-108389872D01*
X291275000Y-108389872D01*
X291275000Y-108830128D01*
X291360890Y-109261925D01*
X291529369Y-109668669D01*
X291773962Y-110034729D01*
X292085271Y-110346038D01*
X292451331Y-110590631D01*
X292858075Y-110759110D01*
X293289872Y-110845000D01*
X293730128Y-110845000D01*
X294161925Y-110759110D01*
X294568669Y-110590631D01*
X294934729Y-110346038D01*
X295246038Y-110034729D01*
X295490631Y-109668669D01*
X295659110Y-109261925D01*
X295745000Y-108830128D01*
X295745000Y-108389872D01*
X295659110Y-107958075D01*
X295490631Y-107551331D01*
X295312272Y-107284397D01*
X309575000Y-107284397D01*
X309575000Y-108315603D01*
X309776178Y-109326993D01*
X310170803Y-110279702D01*
X310743710Y-111137118D01*
X311472882Y-111866290D01*
X312330298Y-112439197D01*
X313283007Y-112833822D01*
X314294397Y-113035000D01*
X315325603Y-113035000D01*
X316336993Y-112833822D01*
X317289702Y-112439197D01*
X318147118Y-111866290D01*
X318876290Y-111137118D01*
X319449197Y-110279702D01*
X319843822Y-109326993D01*
X320030226Y-108389872D01*
X333865000Y-108389872D01*
X333865000Y-108830128D01*
X333950890Y-109261925D01*
X334119369Y-109668669D01*
X334363962Y-110034729D01*
X334675271Y-110346038D01*
X335041331Y-110590631D01*
X335448075Y-110759110D01*
X335879872Y-110845000D01*
X336320128Y-110845000D01*
X336751925Y-110759110D01*
X337158669Y-110590631D01*
X337524729Y-110346038D01*
X337836038Y-110034729D01*
X338080631Y-109668669D01*
X338249110Y-109261925D01*
X338335000Y-108830128D01*
X338335000Y-108389872D01*
X338249110Y-107958075D01*
X338080631Y-107551331D01*
X337836038Y-107185271D01*
X337524729Y-106873962D01*
X337158669Y-106629369D01*
X336751925Y-106460890D01*
X336320128Y-106375000D01*
X335879872Y-106375000D01*
X335448075Y-106460890D01*
X335041331Y-106629369D01*
X334675271Y-106873962D01*
X334363962Y-107185271D01*
X334119369Y-107551331D01*
X333950890Y-107958075D01*
X333865000Y-108389872D01*
X320030226Y-108389872D01*
X320045000Y-108315603D01*
X320045000Y-107284397D01*
X319843822Y-106273007D01*
X319449197Y-105320298D01*
X318876290Y-104462882D01*
X318147118Y-103733710D01*
X317289702Y-103160803D01*
X316336993Y-102766178D01*
X315325603Y-102565000D01*
X314294397Y-102565000D01*
X313283007Y-102766178D01*
X312330298Y-103160803D01*
X311472882Y-103733710D01*
X310743710Y-104462882D01*
X310170803Y-105320298D01*
X309776178Y-106273007D01*
X309575000Y-107284397D01*
X295312272Y-107284397D01*
X295246038Y-107185271D01*
X294934729Y-106873962D01*
X294568669Y-106629369D01*
X294161925Y-106460890D01*
X293730128Y-106375000D01*
X293289872Y-106375000D01*
X292858075Y-106460890D01*
X292451331Y-106629369D01*
X292085271Y-106873962D01*
X291773962Y-107185271D01*
X291529369Y-107551331D01*
X291360890Y-107958075D01*
X291275000Y-108389872D01*
X287686944Y-108389872D01*
X287691408Y-101828061D01*
X301505000Y-101828061D01*
X301505000Y-102031939D01*
X301544774Y-102231898D01*
X301622795Y-102420256D01*
X301736063Y-102589774D01*
X301880226Y-102733937D01*
X302049744Y-102847205D01*
X302238102Y-102925226D01*
X302438061Y-102965000D01*
X302641939Y-102965000D01*
X302841898Y-102925226D01*
X303030256Y-102847205D01*
X303199774Y-102733937D01*
X303243711Y-102690000D01*
X307702678Y-102690000D01*
X307740000Y-102693676D01*
X307777322Y-102690000D01*
X307777333Y-102690000D01*
X307888986Y-102679003D01*
X308032247Y-102635546D01*
X308164276Y-102564974D01*
X308280001Y-102470001D01*
X308303804Y-102440997D01*
X309781003Y-100963799D01*
X309810001Y-100940001D01*
X309904974Y-100824276D01*
X309933450Y-100771002D01*
X309975546Y-100692247D01*
X310019003Y-100548986D01*
X310020411Y-100534686D01*
X310030000Y-100437332D01*
X310030000Y-100437325D01*
X310033676Y-100400000D01*
X310030000Y-100362675D01*
X310030000Y-100307322D01*
X310033676Y-100269999D01*
X310030000Y-100232677D01*
X310030000Y-100232667D01*
X310020000Y-100131137D01*
X310020000Y-98323711D01*
X310063937Y-98279774D01*
X310177205Y-98110256D01*
X310255226Y-97921898D01*
X310295000Y-97721939D01*
X310295000Y-97518061D01*
X310255226Y-97318102D01*
X310177205Y-97129744D01*
X310063937Y-96960226D01*
X309919774Y-96816063D01*
X309750256Y-96702795D01*
X309561898Y-96624774D01*
X309361939Y-96585000D01*
X309158061Y-96585000D01*
X308958102Y-96624774D01*
X308769744Y-96702795D01*
X308600226Y-96816063D01*
X308456063Y-96960226D01*
X308342795Y-97129744D01*
X308264774Y-97318102D01*
X308225000Y-97518061D01*
X308225000Y-97721939D01*
X308264774Y-97921898D01*
X308342795Y-98110256D01*
X308456063Y-98279774D01*
X308500000Y-98323711D01*
X308500001Y-100095197D01*
X307425199Y-101170000D01*
X303243711Y-101170000D01*
X303199774Y-101126063D01*
X303030256Y-101012795D01*
X302841898Y-100934774D01*
X302641939Y-100895000D01*
X302438061Y-100895000D01*
X302238102Y-100934774D01*
X302049744Y-101012795D01*
X301880226Y-101126063D01*
X301736063Y-101270226D01*
X301622795Y-101439744D01*
X301544774Y-101628102D01*
X301505000Y-101828061D01*
X287691408Y-101828061D01*
X287695040Y-96488061D01*
X301505000Y-96488061D01*
X301505000Y-96691939D01*
X301544774Y-96891898D01*
X301622795Y-97080256D01*
X301736063Y-97249774D01*
X301840001Y-97353712D01*
X301840000Y-98636289D01*
X301796063Y-98680226D01*
X301682795Y-98849744D01*
X301604774Y-99038102D01*
X301565000Y-99238061D01*
X301565000Y-99441939D01*
X301604774Y-99641898D01*
X301682795Y-99830256D01*
X301796063Y-99999774D01*
X301940226Y-100143937D01*
X302109744Y-100257205D01*
X302298102Y-100335226D01*
X302498061Y-100375000D01*
X302701939Y-100375000D01*
X302901898Y-100335226D01*
X303090256Y-100257205D01*
X303259774Y-100143937D01*
X303403937Y-99999774D01*
X303517205Y-99830256D01*
X303595226Y-99641898D01*
X303635000Y-99441939D01*
X303635000Y-99238061D01*
X303595226Y-99038102D01*
X303517205Y-98849744D01*
X303403937Y-98680226D01*
X303360000Y-98636289D01*
X303360000Y-97225734D01*
X303457205Y-97080256D01*
X303535226Y-96891898D01*
X303575000Y-96691939D01*
X303575000Y-96488061D01*
X303535226Y-96288102D01*
X303457205Y-96099744D01*
X303343937Y-95930226D01*
X303199774Y-95786063D01*
X303030256Y-95672795D01*
X302841898Y-95594774D01*
X302641939Y-95555000D01*
X302438061Y-95555000D01*
X302238102Y-95594774D01*
X302049744Y-95672795D01*
X301880226Y-95786063D01*
X301736063Y-95930226D01*
X301622795Y-96099744D01*
X301544774Y-96288102D01*
X301505000Y-96488061D01*
X287695040Y-96488061D01*
X287695939Y-95168061D01*
X294945000Y-95168061D01*
X294945000Y-95371939D01*
X294984774Y-95571898D01*
X295062795Y-95760256D01*
X295176063Y-95929774D01*
X295320226Y-96073937D01*
X295489744Y-96187205D01*
X295678102Y-96265226D01*
X295878061Y-96305000D01*
X296081939Y-96305000D01*
X296281898Y-96265226D01*
X296470256Y-96187205D01*
X296639774Y-96073937D01*
X296783937Y-95929774D01*
X296897205Y-95760256D01*
X296975226Y-95571898D01*
X297015000Y-95371939D01*
X297015000Y-95168061D01*
X296975226Y-94968102D01*
X296897205Y-94779744D01*
X296783937Y-94610226D01*
X296740000Y-94566289D01*
X296740000Y-88994801D01*
X296854506Y-88880296D01*
X296909744Y-88917205D01*
X297098102Y-88995226D01*
X297298061Y-89035000D01*
X297501939Y-89035000D01*
X297701898Y-88995226D01*
X297890256Y-88917205D01*
X298059774Y-88803937D01*
X298203937Y-88659774D01*
X298317205Y-88490256D01*
X298395226Y-88301898D01*
X298435000Y-88101939D01*
X298435000Y-87898061D01*
X298395226Y-87698102D01*
X298317205Y-87509744D01*
X298203937Y-87340226D01*
X298059774Y-87196063D01*
X297890256Y-87082795D01*
X297701898Y-87004774D01*
X297501939Y-86965000D01*
X297298061Y-86965000D01*
X297098102Y-87004774D01*
X296909744Y-87082795D01*
X296740226Y-87196063D01*
X296696382Y-87239907D01*
X296659999Y-87236324D01*
X296622676Y-87240000D01*
X296622667Y-87240000D01*
X296511014Y-87250997D01*
X296367753Y-87294454D01*
X296235724Y-87365026D01*
X296119999Y-87459999D01*
X296096201Y-87488998D01*
X295468998Y-88116201D01*
X295440000Y-88139999D01*
X295416202Y-88168997D01*
X295416201Y-88168998D01*
X295345026Y-88255724D01*
X295274454Y-88387754D01*
X295244180Y-88487558D01*
X295230998Y-88531014D01*
X295230113Y-88540000D01*
X295216324Y-88680000D01*
X295220001Y-88717332D01*
X295220000Y-94566289D01*
X295176063Y-94610226D01*
X295062795Y-94779744D01*
X294984774Y-94968102D01*
X294945000Y-95168061D01*
X287695939Y-95168061D01*
X287699977Y-89232652D01*
X287703193Y-89200000D01*
X287696710Y-89134180D01*
X287690537Y-89071060D01*
X287690473Y-89070848D01*
X287690450Y-89070617D01*
X287671328Y-89007581D01*
X287652882Y-88946624D01*
X287652777Y-88946426D01*
X287652710Y-88946207D01*
X287621707Y-88888205D01*
X287591675Y-88831926D01*
X287591534Y-88831754D01*
X287591425Y-88831550D01*
X287549618Y-88780608D01*
X287509266Y-88731371D01*
X287509093Y-88731229D01*
X287508948Y-88731052D01*
X287458491Y-88689643D01*
X287408825Y-88648826D01*
X287408626Y-88648719D01*
X287408450Y-88648575D01*
X287350826Y-88617775D01*
X287294209Y-88587463D01*
X287293995Y-88587398D01*
X287293793Y-88587290D01*
X287231532Y-88568403D01*
X287169825Y-88549638D01*
X287169599Y-88549616D01*
X287169383Y-88549550D01*
X287105137Y-88543222D01*
X287040451Y-88536807D01*
X287007804Y-88540000D01*
X252500745Y-88540000D01*
X252504288Y-85398061D01*
X307155000Y-85398061D01*
X307155000Y-85601939D01*
X307194774Y-85801898D01*
X307272795Y-85990256D01*
X307386063Y-86159774D01*
X307530226Y-86303937D01*
X307699744Y-86417205D01*
X307888102Y-86495226D01*
X308088061Y-86535000D01*
X308291939Y-86535000D01*
X308491898Y-86495226D01*
X308680256Y-86417205D01*
X308849774Y-86303937D01*
X308993937Y-86159774D01*
X309033877Y-86100000D01*
X309135199Y-86100000D01*
X309920001Y-86884803D01*
X309920000Y-94266289D01*
X309876063Y-94310226D01*
X309762795Y-94479744D01*
X309684774Y-94668102D01*
X309645000Y-94868061D01*
X309645000Y-95071939D01*
X309684774Y-95271898D01*
X309762795Y-95460256D01*
X309876063Y-95629774D01*
X310020226Y-95773937D01*
X310189744Y-95887205D01*
X310378102Y-95965226D01*
X310578061Y-96005000D01*
X310781939Y-96005000D01*
X310981898Y-95965226D01*
X311170256Y-95887205D01*
X311339774Y-95773937D01*
X311483937Y-95629774D01*
X311597205Y-95460256D01*
X311675226Y-95271898D01*
X311715000Y-95071939D01*
X311715000Y-94868061D01*
X311675226Y-94668102D01*
X311597205Y-94479744D01*
X311483937Y-94310226D01*
X311440000Y-94266289D01*
X311440000Y-86607325D01*
X311443676Y-86570000D01*
X311440000Y-86532675D01*
X311440000Y-86532667D01*
X311429003Y-86421014D01*
X311385546Y-86277753D01*
X311314974Y-86145724D01*
X311220001Y-86029999D01*
X311191003Y-86006201D01*
X310013804Y-84829003D01*
X309990001Y-84799999D01*
X309874276Y-84705026D01*
X309742247Y-84634454D01*
X309598986Y-84590997D01*
X309487333Y-84580000D01*
X309487322Y-84580000D01*
X309450000Y-84576324D01*
X309412678Y-84580000D01*
X308673508Y-84580000D01*
X308491898Y-84504774D01*
X308291939Y-84465000D01*
X308088061Y-84465000D01*
X307888102Y-84504774D01*
X307699744Y-84582795D01*
X307530226Y-84696063D01*
X307386063Y-84840226D01*
X307272795Y-85009744D01*
X307194774Y-85198102D01*
X307155000Y-85398061D01*
X252504288Y-85398061D01*
X252538619Y-54958061D01*
X297715000Y-54958061D01*
X297715000Y-55161939D01*
X297754774Y-55361898D01*
X297832795Y-55550256D01*
X297946063Y-55719774D01*
X298090226Y-55863937D01*
X298259744Y-55977205D01*
X298448102Y-56055226D01*
X298648061Y-56095000D01*
X298740199Y-56095000D01*
X299360000Y-56714802D01*
X299360001Y-61552668D01*
X299356324Y-61590000D01*
X299370998Y-61738985D01*
X299414454Y-61882246D01*
X299485026Y-62014276D01*
X299547172Y-62090000D01*
X299580000Y-62130001D01*
X299608998Y-62153799D01*
X299975000Y-62519801D01*
X299975000Y-62581939D01*
X300014774Y-62781898D01*
X300092795Y-62970256D01*
X300206063Y-63139774D01*
X300350226Y-63283937D01*
X300519744Y-63397205D01*
X300708102Y-63475226D01*
X300908061Y-63515000D01*
X301111939Y-63515000D01*
X301311898Y-63475226D01*
X301500256Y-63397205D01*
X301669774Y-63283937D01*
X301813937Y-63139774D01*
X301927205Y-62970256D01*
X302005226Y-62781898D01*
X302045000Y-62581939D01*
X302045000Y-62378061D01*
X302005226Y-62178102D01*
X301943077Y-62028061D01*
X304595000Y-62028061D01*
X304595000Y-62231939D01*
X304634774Y-62431898D01*
X304712795Y-62620256D01*
X304826063Y-62789774D01*
X304970226Y-62933937D01*
X305139744Y-63047205D01*
X305328102Y-63125226D01*
X305528061Y-63165000D01*
X305731939Y-63165000D01*
X305931898Y-63125226D01*
X306120256Y-63047205D01*
X306289774Y-62933937D01*
X306433937Y-62789774D01*
X306547205Y-62620256D01*
X306625226Y-62431898D01*
X306665000Y-62231939D01*
X306665000Y-62028061D01*
X306625226Y-61828102D01*
X306547205Y-61639744D01*
X306433937Y-61470226D01*
X306430000Y-61466289D01*
X306430000Y-60323711D01*
X306473937Y-60279774D01*
X306587205Y-60110256D01*
X306665226Y-59921898D01*
X306705000Y-59721939D01*
X306705000Y-59518061D01*
X306665226Y-59318102D01*
X306587205Y-59129744D01*
X306473937Y-58960226D01*
X306329774Y-58816063D01*
X306160256Y-58702795D01*
X305971898Y-58624774D01*
X305771939Y-58585000D01*
X305568061Y-58585000D01*
X305368102Y-58624774D01*
X305179744Y-58702795D01*
X305010226Y-58816063D01*
X304866063Y-58960226D01*
X304752795Y-59129744D01*
X304674774Y-59318102D01*
X304635000Y-59518061D01*
X304635000Y-59721939D01*
X304674774Y-59921898D01*
X304752795Y-60110256D01*
X304866063Y-60279774D01*
X304910000Y-60323711D01*
X304910001Y-61386288D01*
X304826063Y-61470226D01*
X304712795Y-61639744D01*
X304634774Y-61828102D01*
X304595000Y-62028061D01*
X301943077Y-62028061D01*
X301927205Y-61989744D01*
X301813937Y-61820226D01*
X301669774Y-61676063D01*
X301500256Y-61562795D01*
X301311898Y-61484774D01*
X301111939Y-61445000D01*
X301049801Y-61445000D01*
X300880000Y-61275199D01*
X300880000Y-56437322D01*
X300883676Y-56399999D01*
X300880000Y-56362676D01*
X300880000Y-56362667D01*
X300869003Y-56251014D01*
X300825546Y-56107753D01*
X300754974Y-55975724D01*
X300660001Y-55859999D01*
X300631004Y-55836202D01*
X299785000Y-54990199D01*
X299785000Y-54958061D01*
X299745226Y-54758102D01*
X299667205Y-54569744D01*
X299553937Y-54400226D01*
X299409774Y-54256063D01*
X299240256Y-54142795D01*
X299051898Y-54064774D01*
X298851939Y-54025000D01*
X298648061Y-54025000D01*
X298448102Y-54064774D01*
X298259744Y-54142795D01*
X298090226Y-54256063D01*
X297946063Y-54400226D01*
X297832795Y-54569744D01*
X297754774Y-54758102D01*
X297715000Y-54958061D01*
X252538619Y-54958061D01*
X252546285Y-48160958D01*
X252859074Y-48629080D01*
X253260920Y-49030926D01*
X253733440Y-49346654D01*
X254258477Y-49564131D01*
X254815852Y-49675000D01*
X255384148Y-49675000D01*
X255941523Y-49564131D01*
X256466560Y-49346654D01*
X256939080Y-49030926D01*
X257340926Y-48629080D01*
X257656654Y-48156560D01*
X257874131Y-47631523D01*
X257985000Y-47074148D01*
X257985000Y-46505852D01*
X257874131Y-45948477D01*
X257800151Y-45769872D01*
X291275000Y-45769872D01*
X291275000Y-46210128D01*
X291360890Y-46641925D01*
X291529369Y-47048669D01*
X291773962Y-47414729D01*
X292085271Y-47726038D01*
X292451331Y-47970631D01*
X292858075Y-48139110D01*
X293289872Y-48225000D01*
X293730128Y-48225000D01*
X294161925Y-48139110D01*
X294568669Y-47970631D01*
X294934729Y-47726038D01*
X295246038Y-47414729D01*
X295490631Y-47048669D01*
X295659110Y-46641925D01*
X295736194Y-46254397D01*
X309555000Y-46254397D01*
X309555000Y-47285603D01*
X309756178Y-48296993D01*
X310150803Y-49249702D01*
X310723710Y-50107118D01*
X311452882Y-50836290D01*
X312310298Y-51409197D01*
X313263007Y-51803822D01*
X314274397Y-52005000D01*
X315305603Y-52005000D01*
X316316993Y-51803822D01*
X317269702Y-51409197D01*
X318127118Y-50836290D01*
X318856290Y-50107118D01*
X319429197Y-49249702D01*
X319823822Y-48296993D01*
X320025000Y-47285603D01*
X320025000Y-46254397D01*
X319928622Y-45769872D01*
X333865000Y-45769872D01*
X333865000Y-46210128D01*
X333950890Y-46641925D01*
X334119369Y-47048669D01*
X334363962Y-47414729D01*
X334675271Y-47726038D01*
X335041331Y-47970631D01*
X335448075Y-48139110D01*
X335879872Y-48225000D01*
X336320128Y-48225000D01*
X336751925Y-48139110D01*
X337158669Y-47970631D01*
X337524729Y-47726038D01*
X337836038Y-47414729D01*
X338080631Y-47048669D01*
X338249110Y-46641925D01*
X338335000Y-46210128D01*
X338335000Y-45769872D01*
X338249110Y-45338075D01*
X338080631Y-44931331D01*
X337836038Y-44565271D01*
X337524729Y-44253962D01*
X337158669Y-44009369D01*
X336751925Y-43840890D01*
X336320128Y-43755000D01*
X335879872Y-43755000D01*
X335448075Y-43840890D01*
X335041331Y-44009369D01*
X334675271Y-44253962D01*
X334363962Y-44565271D01*
X334119369Y-44931331D01*
X333950890Y-45338075D01*
X333865000Y-45769872D01*
X319928622Y-45769872D01*
X319823822Y-45243007D01*
X319429197Y-44290298D01*
X318856290Y-43432882D01*
X318127118Y-42703710D01*
X317269702Y-42130803D01*
X316316993Y-41736178D01*
X315305603Y-41535000D01*
X314274397Y-41535000D01*
X313263007Y-41736178D01*
X312310298Y-42130803D01*
X311452882Y-42703710D01*
X310723710Y-43432882D01*
X310150803Y-44290298D01*
X309756178Y-45243007D01*
X309555000Y-46254397D01*
X295736194Y-46254397D01*
X295745000Y-46210128D01*
X295745000Y-45769872D01*
X295659110Y-45338075D01*
X295490631Y-44931331D01*
X295246038Y-44565271D01*
X294934729Y-44253962D01*
X294568669Y-44009369D01*
X294161925Y-43840890D01*
X293730128Y-43755000D01*
X293289872Y-43755000D01*
X292858075Y-43840890D01*
X292451331Y-44009369D01*
X292085271Y-44253962D01*
X291773962Y-44565271D01*
X291529369Y-44931331D01*
X291360890Y-45338075D01*
X291275000Y-45769872D01*
X257800151Y-45769872D01*
X257656654Y-45423440D01*
X257340926Y-44950920D01*
X256939080Y-44549074D01*
X256466560Y-44233346D01*
X255941523Y-44015869D01*
X255384148Y-43905000D01*
X254815852Y-43905000D01*
X254258477Y-44015869D01*
X253733440Y-44233346D01*
X253260920Y-44549074D01*
X252859074Y-44950920D01*
X252549383Y-45414406D01*
X252559256Y-36660000D01*
X349140001Y-36660000D01*
X349140001Y-45408517D01*
M02*
