G04 #@! TF.GenerationSoftware,KiCad,Pcbnew,(5.1.2)-2*
G04 #@! TF.CreationDate,2021-08-28T01:19:33-04:00*
G04 #@! TF.ProjectId,MAG_Plus,4d41475f-506c-4757-932e-6b696361645f,rev?*
G04 #@! TF.SameCoordinates,Original*
G04 #@! TF.FileFunction,Soldermask,Bot*
G04 #@! TF.FilePolarity,Negative*
%FSLAX46Y46*%
G04 Gerber Fmt 4.6, Leading zero omitted, Abs format (unit mm)*
G04 Created by KiCad (PCBNEW (5.1.2)-2) date 2021-08-28 01:19:33*
%MOMM*%
%LPD*%
G04 APERTURE LIST*
%ADD10C,0.100000*%
G04 APERTURE END LIST*
D10*
G36*
X316166646Y-103327735D02*
G01*
X316517248Y-103472959D01*
X317013075Y-103678337D01*
X317774840Y-104187333D01*
X318422667Y-104835160D01*
X318931663Y-105596925D01*
X319103881Y-106012697D01*
X319282265Y-106443354D01*
X319461000Y-107341915D01*
X319461000Y-108258085D01*
X319282265Y-109156646D01*
X319137041Y-109507248D01*
X318931663Y-110003075D01*
X318422667Y-110764840D01*
X317774840Y-111412667D01*
X317013075Y-111921663D01*
X316517248Y-112127041D01*
X316166646Y-112272265D01*
X315268085Y-112451000D01*
X314351915Y-112451000D01*
X313453354Y-112272265D01*
X313102751Y-112127041D01*
X312606925Y-111921663D01*
X311845160Y-111412667D01*
X311197333Y-110764840D01*
X310688337Y-110003075D01*
X310482960Y-109507249D01*
X310337735Y-109156646D01*
X310159000Y-108258085D01*
X310159000Y-107341915D01*
X310337735Y-106443354D01*
X310516119Y-106012697D01*
X310688337Y-105596925D01*
X311197333Y-104835160D01*
X311845160Y-104187333D01*
X312606925Y-103678337D01*
X313102751Y-103472960D01*
X313453354Y-103327735D01*
X314351915Y-103149000D01*
X315268085Y-103149000D01*
X316166646Y-103327735D01*
X316166646Y-103327735D01*
G37*
G36*
X336475256Y-107001298D02*
G01*
X336581579Y-107022447D01*
X336794037Y-107110450D01*
X336838396Y-107128824D01*
X336882042Y-107146903D01*
X337152451Y-107327585D01*
X337382415Y-107557549D01*
X337382416Y-107557551D01*
X337563098Y-107827960D01*
X337687553Y-108128422D01*
X337751000Y-108447389D01*
X337751000Y-108772611D01*
X337727663Y-108889932D01*
X337687553Y-109091579D01*
X337563097Y-109392042D01*
X337382415Y-109662451D01*
X337152451Y-109892415D01*
X336882042Y-110073097D01*
X336581579Y-110197553D01*
X336475256Y-110218702D01*
X336262611Y-110261000D01*
X335937389Y-110261000D01*
X335724744Y-110218702D01*
X335618421Y-110197553D01*
X335317958Y-110073097D01*
X335047549Y-109892415D01*
X334817585Y-109662451D01*
X334636903Y-109392042D01*
X334512447Y-109091579D01*
X334472337Y-108889932D01*
X334449000Y-108772611D01*
X334449000Y-108447389D01*
X334512447Y-108128422D01*
X334636902Y-107827960D01*
X334817584Y-107557551D01*
X334817585Y-107557549D01*
X335047549Y-107327585D01*
X335317958Y-107146903D01*
X335361605Y-107128824D01*
X335405963Y-107110450D01*
X335618421Y-107022447D01*
X335724744Y-107001298D01*
X335937389Y-106959000D01*
X336262611Y-106959000D01*
X336475256Y-107001298D01*
X336475256Y-107001298D01*
G37*
G36*
X293885256Y-107001298D02*
G01*
X293991579Y-107022447D01*
X294204037Y-107110450D01*
X294248396Y-107128824D01*
X294292042Y-107146903D01*
X294562451Y-107327585D01*
X294792415Y-107557549D01*
X294792416Y-107557551D01*
X294973098Y-107827960D01*
X295097553Y-108128422D01*
X295161000Y-108447389D01*
X295161000Y-108772611D01*
X295137663Y-108889932D01*
X295097553Y-109091579D01*
X294973097Y-109392042D01*
X294792415Y-109662451D01*
X294562451Y-109892415D01*
X294292042Y-110073097D01*
X293991579Y-110197553D01*
X293885256Y-110218702D01*
X293672611Y-110261000D01*
X293347389Y-110261000D01*
X293134744Y-110218702D01*
X293028421Y-110197553D01*
X292727958Y-110073097D01*
X292457549Y-109892415D01*
X292227585Y-109662451D01*
X292046903Y-109392042D01*
X291922447Y-109091579D01*
X291882337Y-108889932D01*
X291859000Y-108772611D01*
X291859000Y-108447389D01*
X291922447Y-108128422D01*
X292046902Y-107827960D01*
X292227584Y-107557551D01*
X292227585Y-107557549D01*
X292457549Y-107327585D01*
X292727958Y-107146903D01*
X292771605Y-107128824D01*
X292815963Y-107110450D01*
X293028421Y-107022447D01*
X293134744Y-107001298D01*
X293347389Y-106959000D01*
X293672611Y-106959000D01*
X293885256Y-107001298D01*
X293885256Y-107001298D01*
G37*
G36*
X347048903Y-105543213D02*
G01*
X347271177Y-105587426D01*
X347689932Y-105760880D01*
X348066802Y-106012696D01*
X348387304Y-106333198D01*
X348639120Y-106710068D01*
X348812574Y-107128823D01*
X348901000Y-107573371D01*
X348901000Y-108026629D01*
X348812574Y-108471177D01*
X348639120Y-108889932D01*
X348387304Y-109266802D01*
X348066802Y-109587304D01*
X347689932Y-109839120D01*
X347271177Y-110012574D01*
X347048903Y-110056787D01*
X346826630Y-110101000D01*
X346373370Y-110101000D01*
X346151097Y-110056787D01*
X345928823Y-110012574D01*
X345510068Y-109839120D01*
X345133198Y-109587304D01*
X344812696Y-109266802D01*
X344560880Y-108889932D01*
X344387426Y-108471177D01*
X344299000Y-108026629D01*
X344299000Y-107573371D01*
X344387426Y-107128823D01*
X344560880Y-106710068D01*
X344812696Y-106333198D01*
X345133198Y-106012696D01*
X345510068Y-105760880D01*
X345928823Y-105587426D01*
X346151097Y-105543213D01*
X346373370Y-105499000D01*
X346826630Y-105499000D01*
X347048903Y-105543213D01*
X347048903Y-105543213D01*
G37*
G36*
X316146646Y-42297735D02*
G01*
X316497249Y-42442960D01*
X316993075Y-42648337D01*
X317754840Y-43157333D01*
X318402667Y-43805160D01*
X318911663Y-44566925D01*
X319065180Y-44937549D01*
X319262265Y-45413354D01*
X319441000Y-46311915D01*
X319441000Y-47228085D01*
X319262265Y-48126646D01*
X319204210Y-48266802D01*
X318911663Y-48973075D01*
X318402667Y-49734840D01*
X317754840Y-50382667D01*
X316993075Y-50891663D01*
X316497249Y-51097040D01*
X316146646Y-51242265D01*
X315248085Y-51421000D01*
X314331915Y-51421000D01*
X313433354Y-51242265D01*
X313082751Y-51097040D01*
X312586925Y-50891663D01*
X311825160Y-50382667D01*
X311177333Y-49734840D01*
X310668337Y-48973075D01*
X310375790Y-48266802D01*
X310317735Y-48126646D01*
X310139000Y-47228085D01*
X310139000Y-46311915D01*
X310317735Y-45413354D01*
X310514820Y-44937549D01*
X310668337Y-44566925D01*
X311177333Y-43805160D01*
X311825160Y-43157333D01*
X312586925Y-42648337D01*
X313082751Y-42442960D01*
X313433354Y-42297735D01*
X314331915Y-42119000D01*
X315248085Y-42119000D01*
X316146646Y-42297735D01*
X316146646Y-42297735D01*
G37*
G36*
X346966902Y-44526902D02*
G01*
X347271177Y-44587426D01*
X347689932Y-44760880D01*
X348066802Y-45012696D01*
X348387304Y-45333198D01*
X348639120Y-45710068D01*
X348812574Y-46128823D01*
X348901000Y-46573371D01*
X348901000Y-47026629D01*
X348812574Y-47471177D01*
X348639120Y-47889932D01*
X348387304Y-48266802D01*
X348066802Y-48587304D01*
X347689932Y-48839120D01*
X347271177Y-49012574D01*
X347048903Y-49056787D01*
X346826630Y-49101000D01*
X346373370Y-49101000D01*
X346151097Y-49056787D01*
X345928823Y-49012574D01*
X345510068Y-48839120D01*
X345133198Y-48587304D01*
X344812696Y-48266802D01*
X344560880Y-47889932D01*
X344387426Y-47471177D01*
X344299000Y-47026629D01*
X344299000Y-46573371D01*
X344387426Y-46128823D01*
X344560880Y-45710068D01*
X344812696Y-45333198D01*
X345133198Y-45012696D01*
X345510068Y-44760880D01*
X345928823Y-44587426D01*
X346233098Y-44526902D01*
X346373370Y-44499000D01*
X346826630Y-44499000D01*
X346966902Y-44526902D01*
X346966902Y-44526902D01*
G37*
G36*
X255548903Y-44533213D02*
G01*
X255771177Y-44577426D01*
X256189932Y-44750880D01*
X256566802Y-45002696D01*
X256887304Y-45323198D01*
X257139120Y-45700068D01*
X257312574Y-46118823D01*
X257312574Y-46118824D01*
X257382742Y-46471579D01*
X257401000Y-46563371D01*
X257401000Y-47016629D01*
X257312574Y-47461177D01*
X257139120Y-47879932D01*
X256887304Y-48256802D01*
X256566802Y-48577304D01*
X256189932Y-48829120D01*
X255771177Y-49002574D01*
X255548903Y-49046787D01*
X255326630Y-49091000D01*
X254873370Y-49091000D01*
X254651097Y-49046787D01*
X254428823Y-49002574D01*
X254010068Y-48829120D01*
X253633198Y-48577304D01*
X253312696Y-48256802D01*
X253060880Y-47879932D01*
X252887426Y-47461177D01*
X252799000Y-47016629D01*
X252799000Y-46563371D01*
X252817259Y-46471579D01*
X252887426Y-46118824D01*
X252887426Y-46118823D01*
X253060880Y-45700068D01*
X253312696Y-45323198D01*
X253633198Y-45002696D01*
X254010068Y-44750880D01*
X254428823Y-44577426D01*
X254651097Y-44533213D01*
X254873370Y-44489000D01*
X255326630Y-44489000D01*
X255548903Y-44533213D01*
X255548903Y-44533213D01*
G37*
G36*
X293885256Y-44381298D02*
G01*
X293991579Y-44402447D01*
X294292042Y-44526903D01*
X294562451Y-44707585D01*
X294792415Y-44937549D01*
X294842627Y-45012697D01*
X294973098Y-45207960D01*
X295097553Y-45508422D01*
X295137664Y-45710070D01*
X295161000Y-45827391D01*
X295161000Y-46152609D01*
X295097553Y-46471579D01*
X294973097Y-46772042D01*
X294792415Y-47042451D01*
X294562451Y-47272415D01*
X294292042Y-47453097D01*
X294292041Y-47453098D01*
X294292040Y-47453098D01*
X294248393Y-47471177D01*
X293991579Y-47577553D01*
X293885256Y-47598702D01*
X293672611Y-47641000D01*
X293347389Y-47641000D01*
X293134744Y-47598702D01*
X293028421Y-47577553D01*
X292771607Y-47471177D01*
X292727960Y-47453098D01*
X292727959Y-47453098D01*
X292727958Y-47453097D01*
X292457549Y-47272415D01*
X292227585Y-47042451D01*
X292046903Y-46772042D01*
X291922447Y-46471579D01*
X291859000Y-46152609D01*
X291859000Y-45827391D01*
X291882337Y-45710070D01*
X291922447Y-45508422D01*
X292046902Y-45207960D01*
X292177373Y-45012697D01*
X292227585Y-44937549D01*
X292457549Y-44707585D01*
X292727958Y-44526903D01*
X293028421Y-44402447D01*
X293134744Y-44381298D01*
X293347389Y-44339000D01*
X293672611Y-44339000D01*
X293885256Y-44381298D01*
X293885256Y-44381298D01*
G37*
G36*
X336475256Y-44381298D02*
G01*
X336581579Y-44402447D01*
X336882042Y-44526903D01*
X337152451Y-44707585D01*
X337382415Y-44937549D01*
X337432627Y-45012697D01*
X337563098Y-45207960D01*
X337687553Y-45508422D01*
X337727664Y-45710070D01*
X337751000Y-45827391D01*
X337751000Y-46152609D01*
X337687553Y-46471579D01*
X337563097Y-46772042D01*
X337382415Y-47042451D01*
X337152451Y-47272415D01*
X336882042Y-47453097D01*
X336882041Y-47453098D01*
X336882040Y-47453098D01*
X336838393Y-47471177D01*
X336581579Y-47577553D01*
X336475256Y-47598702D01*
X336262611Y-47641000D01*
X335937389Y-47641000D01*
X335724744Y-47598702D01*
X335618421Y-47577553D01*
X335361607Y-47471177D01*
X335317960Y-47453098D01*
X335317959Y-47453098D01*
X335317958Y-47453097D01*
X335047549Y-47272415D01*
X334817585Y-47042451D01*
X334636903Y-46772042D01*
X334512447Y-46471579D01*
X334449000Y-46152609D01*
X334449000Y-45827391D01*
X334472337Y-45710070D01*
X334512447Y-45508422D01*
X334636902Y-45207960D01*
X334767373Y-45012697D01*
X334817585Y-44937549D01*
X335047549Y-44707585D01*
X335317958Y-44526903D01*
X335618421Y-44402447D01*
X335724744Y-44381298D01*
X335937389Y-44339000D01*
X336262611Y-44339000D01*
X336475256Y-44381298D01*
X336475256Y-44381298D01*
G37*
M02*
