M48
; DRILL file {KiCad (5.1.2)-2} date 10/11/2021 11:23:51
; FORMAT={-:-/ absolute / metric / decimal}
; #@! TF.CreationDate,2021-11-10T11:23:51-03:00
; #@! TF.GenerationSoftware,Kicad,Pcbnew,(5.1.2)-2
FMAT,2
METRIC
T1C0.400
T2C1.800
T3C2.700
T4C5.300
%
G90
G05
T1
X289.95Y-48.65
X295.98Y-95.27
X297.4Y-88.0
X301.4Y-61.6
X302.54Y-96.59
X302.54Y-101.93
X302.6Y-99.34
X303.9Y-59.75
X305.0Y-62.05
X308.19Y-85.5
X309.26Y-97.62
X310.475Y-94.97
T2
X336.1Y-45.99
X293.51Y-108.61
X293.51Y-45.99
X336.1Y-108.61
T3
X255.1Y-107.8
X346.6Y-46.8
X255.1Y-46.79
X346.6Y-107.8
T4
X283.86Y-108.36
T0
M30
