M48
; DRILL file {KiCad (5.1.2)-2} date 28/08/2021 01:19:30
; FORMAT={-:-/ absolute / metric / decimal}
; #@! TF.CreationDate,2021-08-28T01:19:30-04:00
; #@! TF.GenerationSoftware,Kicad,Pcbnew,(5.1.2)-2
FMAT,2
METRIC
T1C0.400
T2C1.800
T3C2.700
T4C5.300
%
G90
G05
T1
X295.98Y-95.27
X297.4Y-88.0
X298.75Y-55.06
X301.01Y-62.48
X302.54Y-96.59
X302.54Y-101.93
X302.6Y-99.34
X305.63Y-62.13
X305.67Y-59.62
X308.19Y-85.5
X309.26Y-97.62
X310.68Y-94.97
T2
X336.1Y-108.61
X293.51Y-108.61
X336.1Y-45.99
X293.51Y-45.99
T3
X346.6Y-46.8
X346.6Y-107.8
X255.1Y-46.79
T4
X314.81Y-107.8
X314.79Y-46.77
T0
M30
