G04 #@! TF.GenerationSoftware,KiCad,Pcbnew,(5.1.2)-2*
G04 #@! TF.CreationDate,2021-11-10T11:23:53-03:00*
G04 #@! TF.ProjectId,MAG_Plus,4d41475f-506c-4757-932e-6b696361645f,rev?*
G04 #@! TF.SameCoordinates,Original*
G04 #@! TF.FileFunction,Legend,Top*
G04 #@! TF.FilePolarity,Positive*
%FSLAX46Y46*%
G04 Gerber Fmt 4.6, Leading zero omitted, Abs format (unit mm)*
G04 Created by KiCad (PCBNEW (5.1.2)-2) date 2021-11-10 11:23:53*
%MOMM*%
%LPD*%
G04 APERTURE LIST*
%ADD10C,0.120000*%
%ADD11C,0.100000*%
%ADD12C,0.150000*%
G04 APERTURE END LIST*
D10*
X286500000Y-108000000D02*
G75*
G03X286500000Y-108000000I-2500000J0D01*
G01*
X291500000Y-108000000D02*
G75*
G03X291500000Y-108000000I-7500000J0D01*
G01*
D11*
G36*
X277740000Y-46550000D02*
G01*
X272740000Y-46550000D01*
X272740000Y-41550000D01*
X277740000Y-41550000D01*
X277740000Y-46550000D01*
G37*
X277740000Y-46550000D02*
X272740000Y-46550000D01*
X272740000Y-41550000D01*
X277740000Y-41550000D01*
X277740000Y-46550000D01*
G36*
X283740000Y-46550000D02*
G01*
X278740000Y-46550000D01*
X278740000Y-41550000D01*
X283740000Y-41550000D01*
X283740000Y-46550000D01*
G37*
X283740000Y-46550000D02*
X278740000Y-46550000D01*
X278740000Y-41550000D01*
X283740000Y-41550000D01*
X283740000Y-46550000D01*
G36*
X271740000Y-46550000D02*
G01*
X266740000Y-46550000D01*
X266740000Y-41550000D01*
X271740000Y-41550000D01*
X271740000Y-46550000D01*
G37*
X271740000Y-46550000D02*
X266740000Y-46550000D01*
X266740000Y-41550000D01*
X271740000Y-41550000D01*
X271740000Y-46550000D01*
G36*
X289740000Y-46550000D02*
G01*
X284740000Y-46550000D01*
X284740000Y-41550000D01*
X289740000Y-41550000D01*
X289740000Y-46550000D01*
G37*
X289740000Y-46550000D02*
X284740000Y-46550000D01*
X284740000Y-41550000D01*
X289740000Y-41550000D01*
X289740000Y-46550000D01*
D12*
X264956666Y-40604761D02*
X265099523Y-40652380D01*
X265337619Y-40652380D01*
X265432857Y-40604761D01*
X265480476Y-40557142D01*
X265528095Y-40461904D01*
X265528095Y-40366666D01*
X265480476Y-40271428D01*
X265432857Y-40223809D01*
X265337619Y-40176190D01*
X265147142Y-40128571D01*
X265051904Y-40080952D01*
X265004285Y-40033333D01*
X264956666Y-39938095D01*
X264956666Y-39842857D01*
X265004285Y-39747619D01*
X265051904Y-39700000D01*
X265147142Y-39652380D01*
X265385238Y-39652380D01*
X265528095Y-39700000D01*
X265956666Y-40652380D02*
X265956666Y-39652380D01*
X266337619Y-39652380D01*
X266432857Y-39700000D01*
X266480476Y-39747619D01*
X266528095Y-39842857D01*
X266528095Y-39985714D01*
X266480476Y-40080952D01*
X266432857Y-40128571D01*
X266337619Y-40176190D01*
X265956666Y-40176190D01*
X266956666Y-40128571D02*
X267290000Y-40128571D01*
X267432857Y-40652380D02*
X266956666Y-40652380D01*
X266956666Y-39652380D01*
X267432857Y-39652380D01*
X268337619Y-40652380D02*
X267861428Y-40652380D01*
X267861428Y-39652380D01*
X269432857Y-40271428D02*
X270194761Y-40271428D01*
X271432857Y-39652380D02*
X271432857Y-40461904D01*
X271480476Y-40557142D01*
X271528095Y-40604761D01*
X271623333Y-40652380D01*
X271813809Y-40652380D01*
X271909047Y-40604761D01*
X271956666Y-40557142D01*
X272004285Y-40461904D01*
X272004285Y-39652380D01*
X272480476Y-39985714D02*
X272480476Y-40652380D01*
X272480476Y-40080952D02*
X272528095Y-40033333D01*
X272623333Y-39985714D01*
X272766190Y-39985714D01*
X272861428Y-40033333D01*
X272909047Y-40128571D01*
X272909047Y-40652380D01*
X273385238Y-40652380D02*
X273385238Y-39985714D01*
X273385238Y-39652380D02*
X273337619Y-39700000D01*
X273385238Y-39747619D01*
X273432857Y-39700000D01*
X273385238Y-39652380D01*
X273385238Y-39747619D01*
X273766190Y-39985714D02*
X274004285Y-40652380D01*
X274242380Y-39985714D01*
X275004285Y-40604761D02*
X274909047Y-40652380D01*
X274718571Y-40652380D01*
X274623333Y-40604761D01*
X274575714Y-40509523D01*
X274575714Y-40128571D01*
X274623333Y-40033333D01*
X274718571Y-39985714D01*
X274909047Y-39985714D01*
X275004285Y-40033333D01*
X275051904Y-40128571D01*
X275051904Y-40223809D01*
X274575714Y-40319047D01*
X275480476Y-40652380D02*
X275480476Y-39985714D01*
X275480476Y-40176190D02*
X275528095Y-40080952D01*
X275575714Y-40033333D01*
X275670952Y-39985714D01*
X275766190Y-39985714D01*
X276051904Y-40604761D02*
X276147142Y-40652380D01*
X276337619Y-40652380D01*
X276432857Y-40604761D01*
X276480476Y-40509523D01*
X276480476Y-40461904D01*
X276432857Y-40366666D01*
X276337619Y-40319047D01*
X276194761Y-40319047D01*
X276099523Y-40271428D01*
X276051904Y-40176190D01*
X276051904Y-40128571D01*
X276099523Y-40033333D01*
X276194761Y-39985714D01*
X276337619Y-39985714D01*
X276432857Y-40033333D01*
X276909047Y-40652380D02*
X276909047Y-39985714D01*
X276909047Y-39652380D02*
X276861428Y-39700000D01*
X276909047Y-39747619D01*
X276956666Y-39700000D01*
X276909047Y-39652380D01*
X276909047Y-39747619D01*
X277242380Y-39985714D02*
X277623333Y-39985714D01*
X277385238Y-39652380D02*
X277385238Y-40509523D01*
X277432857Y-40604761D01*
X277528095Y-40652380D01*
X277623333Y-40652380D01*
X277861428Y-39985714D02*
X278099523Y-40652380D01*
X278337619Y-39985714D02*
X278099523Y-40652380D01*
X278004285Y-40890476D01*
X277956666Y-40938095D01*
X277861428Y-40985714D01*
X279623333Y-40652380D02*
X279528095Y-40604761D01*
X279480476Y-40557142D01*
X279432857Y-40461904D01*
X279432857Y-40176190D01*
X279480476Y-40080952D01*
X279528095Y-40033333D01*
X279623333Y-39985714D01*
X279766190Y-39985714D01*
X279861428Y-40033333D01*
X279909047Y-40080952D01*
X279956666Y-40176190D01*
X279956666Y-40461904D01*
X279909047Y-40557142D01*
X279861428Y-40604761D01*
X279766190Y-40652380D01*
X279623333Y-40652380D01*
X280242380Y-39985714D02*
X280623333Y-39985714D01*
X280385238Y-40652380D02*
X280385238Y-39795238D01*
X280432857Y-39700000D01*
X280528095Y-39652380D01*
X280623333Y-39652380D01*
X282290000Y-40557142D02*
X282242380Y-40604761D01*
X282099523Y-40652380D01*
X282004285Y-40652380D01*
X281861428Y-40604761D01*
X281766190Y-40509523D01*
X281718571Y-40414285D01*
X281670952Y-40223809D01*
X281670952Y-40080952D01*
X281718571Y-39890476D01*
X281766190Y-39795238D01*
X281861428Y-39700000D01*
X282004285Y-39652380D01*
X282099523Y-39652380D01*
X282242380Y-39700000D01*
X282290000Y-39747619D01*
X282718571Y-40652380D02*
X282718571Y-39652380D01*
X283147142Y-40652380D02*
X283147142Y-40128571D01*
X283099523Y-40033333D01*
X283004285Y-39985714D01*
X282861428Y-39985714D01*
X282766190Y-40033333D01*
X282718571Y-40080952D01*
X283623333Y-40652380D02*
X283623333Y-39985714D01*
X283623333Y-39652380D02*
X283575714Y-39700000D01*
X283623333Y-39747619D01*
X283670952Y-39700000D01*
X283623333Y-39652380D01*
X283623333Y-39747619D01*
X284242380Y-40652380D02*
X284147142Y-40604761D01*
X284099523Y-40509523D01*
X284099523Y-39652380D01*
X285004285Y-40604761D02*
X284909047Y-40652380D01*
X284718571Y-40652380D01*
X284623333Y-40604761D01*
X284575714Y-40509523D01*
X284575714Y-40128571D01*
X284623333Y-40033333D01*
X284718571Y-39985714D01*
X284909047Y-39985714D01*
X285004285Y-40033333D01*
X285051904Y-40128571D01*
X285051904Y-40223809D01*
X284575714Y-40319047D01*
X286242380Y-40271428D02*
X287004285Y-40271428D01*
X288194761Y-39747619D02*
X288242380Y-39700000D01*
X288337619Y-39652380D01*
X288575714Y-39652380D01*
X288670952Y-39700000D01*
X288718571Y-39747619D01*
X288766190Y-39842857D01*
X288766190Y-39938095D01*
X288718571Y-40080952D01*
X288147142Y-40652380D01*
X288766190Y-40652380D01*
X289385238Y-39652380D02*
X289480476Y-39652380D01*
X289575714Y-39700000D01*
X289623333Y-39747619D01*
X289670952Y-39842857D01*
X289718571Y-40033333D01*
X289718571Y-40271428D01*
X289670952Y-40461904D01*
X289623333Y-40557142D01*
X289575714Y-40604761D01*
X289480476Y-40652380D01*
X289385238Y-40652380D01*
X289290000Y-40604761D01*
X289242380Y-40557142D01*
X289194761Y-40461904D01*
X289147142Y-40271428D01*
X289147142Y-40033333D01*
X289194761Y-39842857D01*
X289242380Y-39747619D01*
X289290000Y-39700000D01*
X289385238Y-39652380D01*
X290099523Y-39747619D02*
X290147142Y-39700000D01*
X290242380Y-39652380D01*
X290480476Y-39652380D01*
X290575714Y-39700000D01*
X290623333Y-39747619D01*
X290670952Y-39842857D01*
X290670952Y-39938095D01*
X290623333Y-40080952D01*
X290051904Y-40652380D01*
X290670952Y-40652380D01*
X291623333Y-40652380D02*
X291051904Y-40652380D01*
X291337619Y-40652380D02*
X291337619Y-39652380D01*
X291242380Y-39795238D01*
X291147142Y-39890476D01*
X291051904Y-39938095D01*
X263237619Y-48354761D02*
X263380476Y-48402380D01*
X263618571Y-48402380D01*
X263713809Y-48354761D01*
X263761428Y-48307142D01*
X263809047Y-48211904D01*
X263809047Y-48116666D01*
X263761428Y-48021428D01*
X263713809Y-47973809D01*
X263618571Y-47926190D01*
X263428095Y-47878571D01*
X263332857Y-47830952D01*
X263285238Y-47783333D01*
X263237619Y-47688095D01*
X263237619Y-47592857D01*
X263285238Y-47497619D01*
X263332857Y-47450000D01*
X263428095Y-47402380D01*
X263666190Y-47402380D01*
X263809047Y-47450000D01*
X264618571Y-48354761D02*
X264523333Y-48402380D01*
X264332857Y-48402380D01*
X264237619Y-48354761D01*
X264190000Y-48259523D01*
X264190000Y-47878571D01*
X264237619Y-47783333D01*
X264332857Y-47735714D01*
X264523333Y-47735714D01*
X264618571Y-47783333D01*
X264666190Y-47878571D01*
X264666190Y-47973809D01*
X264190000Y-48069047D01*
X265094761Y-47735714D02*
X265094761Y-48402380D01*
X265094761Y-47830952D02*
X265142380Y-47783333D01*
X265237619Y-47735714D01*
X265380476Y-47735714D01*
X265475714Y-47783333D01*
X265523333Y-47878571D01*
X265523333Y-48402380D01*
X265951904Y-48354761D02*
X266047142Y-48402380D01*
X266237619Y-48402380D01*
X266332857Y-48354761D01*
X266380476Y-48259523D01*
X266380476Y-48211904D01*
X266332857Y-48116666D01*
X266237619Y-48069047D01*
X266094761Y-48069047D01*
X265999523Y-48021428D01*
X265951904Y-47926190D01*
X265951904Y-47878571D01*
X265999523Y-47783333D01*
X266094761Y-47735714D01*
X266237619Y-47735714D01*
X266332857Y-47783333D01*
X266951904Y-48402380D02*
X266856666Y-48354761D01*
X266809047Y-48307142D01*
X266761428Y-48211904D01*
X266761428Y-47926190D01*
X266809047Y-47830952D01*
X266856666Y-47783333D01*
X266951904Y-47735714D01*
X267094761Y-47735714D01*
X267190000Y-47783333D01*
X267237619Y-47830952D01*
X267285238Y-47926190D01*
X267285238Y-48211904D01*
X267237619Y-48307142D01*
X267190000Y-48354761D01*
X267094761Y-48402380D01*
X266951904Y-48402380D01*
X267713809Y-48402380D02*
X267713809Y-47735714D01*
X267713809Y-47926190D02*
X267761428Y-47830952D01*
X267809047Y-47783333D01*
X267904285Y-47735714D01*
X267999523Y-47735714D01*
X269428095Y-47878571D02*
X269570952Y-47926190D01*
X269618571Y-47973809D01*
X269666190Y-48069047D01*
X269666190Y-48211904D01*
X269618571Y-48307142D01*
X269570952Y-48354761D01*
X269475714Y-48402380D01*
X269094761Y-48402380D01*
X269094761Y-47402380D01*
X269428095Y-47402380D01*
X269523333Y-47450000D01*
X269570952Y-47497619D01*
X269618571Y-47592857D01*
X269618571Y-47688095D01*
X269570952Y-47783333D01*
X269523333Y-47830952D01*
X269428095Y-47878571D01*
X269094761Y-47878571D01*
X270237619Y-48402380D02*
X270142380Y-48354761D01*
X270094761Y-48307142D01*
X270047142Y-48211904D01*
X270047142Y-47926190D01*
X270094761Y-47830952D01*
X270142380Y-47783333D01*
X270237619Y-47735714D01*
X270380476Y-47735714D01*
X270475714Y-47783333D01*
X270523333Y-47830952D01*
X270570952Y-47926190D01*
X270570952Y-48211904D01*
X270523333Y-48307142D01*
X270475714Y-48354761D01*
X270380476Y-48402380D01*
X270237619Y-48402380D01*
X271428095Y-48402380D02*
X271428095Y-47878571D01*
X271380476Y-47783333D01*
X271285238Y-47735714D01*
X271094761Y-47735714D01*
X270999523Y-47783333D01*
X271428095Y-48354761D02*
X271332857Y-48402380D01*
X271094761Y-48402380D01*
X270999523Y-48354761D01*
X270951904Y-48259523D01*
X270951904Y-48164285D01*
X270999523Y-48069047D01*
X271094761Y-48021428D01*
X271332857Y-48021428D01*
X271428095Y-47973809D01*
X271904285Y-48402380D02*
X271904285Y-47735714D01*
X271904285Y-47926190D02*
X271951904Y-47830952D01*
X271999523Y-47783333D01*
X272094761Y-47735714D01*
X272190000Y-47735714D01*
X272951904Y-48402380D02*
X272951904Y-47402380D01*
X272951904Y-48354761D02*
X272856666Y-48402380D01*
X272666190Y-48402380D01*
X272570952Y-48354761D01*
X272523333Y-48307142D01*
X272475714Y-48211904D01*
X272475714Y-47926190D01*
X272523333Y-47830952D01*
X272570952Y-47783333D01*
X272666190Y-47735714D01*
X272856666Y-47735714D01*
X272951904Y-47783333D01*
X274190000Y-48402380D02*
X274190000Y-47402380D01*
X274570952Y-47402380D01*
X274666190Y-47450000D01*
X274713809Y-47497619D01*
X274761428Y-47592857D01*
X274761428Y-47735714D01*
X274713809Y-47830952D01*
X274666190Y-47878571D01*
X274570952Y-47926190D01*
X274190000Y-47926190D01*
X275618571Y-48402380D02*
X275618571Y-47878571D01*
X275570952Y-47783333D01*
X275475714Y-47735714D01*
X275285238Y-47735714D01*
X275190000Y-47783333D01*
X275618571Y-48354761D02*
X275523333Y-48402380D01*
X275285238Y-48402380D01*
X275190000Y-48354761D01*
X275142380Y-48259523D01*
X275142380Y-48164285D01*
X275190000Y-48069047D01*
X275285238Y-48021428D01*
X275523333Y-48021428D01*
X275618571Y-47973809D01*
X276094761Y-47735714D02*
X276094761Y-48402380D01*
X276094761Y-47830952D02*
X276142380Y-47783333D01*
X276237619Y-47735714D01*
X276380476Y-47735714D01*
X276475714Y-47783333D01*
X276523333Y-47878571D01*
X276523333Y-48402380D01*
X277380476Y-48354761D02*
X277285238Y-48402380D01*
X277094761Y-48402380D01*
X276999523Y-48354761D01*
X276951904Y-48259523D01*
X276951904Y-47878571D01*
X276999523Y-47783333D01*
X277094761Y-47735714D01*
X277285238Y-47735714D01*
X277380476Y-47783333D01*
X277428095Y-47878571D01*
X277428095Y-47973809D01*
X276951904Y-48069047D01*
X277999523Y-48402380D02*
X277904285Y-48354761D01*
X277856666Y-48259523D01*
X277856666Y-47402380D01*
X279475714Y-47878571D02*
X279618571Y-47926190D01*
X279666190Y-47973809D01*
X279713809Y-48069047D01*
X279713809Y-48211904D01*
X279666190Y-48307142D01*
X279618571Y-48354761D01*
X279523333Y-48402380D01*
X279142380Y-48402380D01*
X279142380Y-47402380D01*
X279475714Y-47402380D01*
X279570952Y-47450000D01*
X279618571Y-47497619D01*
X279666190Y-47592857D01*
X279666190Y-47688095D01*
X279618571Y-47783333D01*
X279570952Y-47830952D01*
X279475714Y-47878571D01*
X279142380Y-47878571D01*
X280904285Y-47878571D02*
X281237619Y-47878571D01*
X281380476Y-48402380D02*
X280904285Y-48402380D01*
X280904285Y-47402380D01*
X281380476Y-47402380D01*
X282523333Y-48354761D02*
X282666190Y-48402380D01*
X282904285Y-48402380D01*
X282999523Y-48354761D01*
X283047142Y-48307142D01*
X283094761Y-48211904D01*
X283094761Y-48116666D01*
X283047142Y-48021428D01*
X282999523Y-47973809D01*
X282904285Y-47926190D01*
X282713809Y-47878571D01*
X282618571Y-47830952D01*
X282570952Y-47783333D01*
X282523333Y-47688095D01*
X282523333Y-47592857D01*
X282570952Y-47497619D01*
X282618571Y-47450000D01*
X282713809Y-47402380D01*
X282951904Y-47402380D01*
X283094761Y-47450000D01*
X283428095Y-47402380D02*
X284047142Y-47402380D01*
X283713809Y-47783333D01*
X283856666Y-47783333D01*
X283951904Y-47830952D01*
X283999523Y-47878571D01*
X284047142Y-47973809D01*
X284047142Y-48211904D01*
X283999523Y-48307142D01*
X283951904Y-48354761D01*
X283856666Y-48402380D01*
X283570952Y-48402380D01*
X283475714Y-48354761D01*
X283428095Y-48307142D01*
X285094761Y-47402380D02*
X285428095Y-48402380D01*
X285761428Y-47402380D01*
X286618571Y-48402380D02*
X286047142Y-48402380D01*
X286332857Y-48402380D02*
X286332857Y-47402380D01*
X286237619Y-47545238D01*
X286142380Y-47640476D01*
X286047142Y-47688095D01*
X287047142Y-48307142D02*
X287094761Y-48354761D01*
X287047142Y-48402380D01*
X286999523Y-48354761D01*
X287047142Y-48307142D01*
X287047142Y-48402380D01*
X288047142Y-48402380D02*
X287475714Y-48402380D01*
X287761428Y-48402380D02*
X287761428Y-47402380D01*
X287666190Y-47545238D01*
X287570952Y-47640476D01*
X287475714Y-47688095D01*
X289190000Y-48354761D02*
X289332857Y-48402380D01*
X289570952Y-48402380D01*
X289666190Y-48354761D01*
X289713809Y-48307142D01*
X289761428Y-48211904D01*
X289761428Y-48116666D01*
X289713809Y-48021428D01*
X289666190Y-47973809D01*
X289570952Y-47926190D01*
X289380476Y-47878571D01*
X289285238Y-47830952D01*
X289237619Y-47783333D01*
X289190000Y-47688095D01*
X289190000Y-47592857D01*
X289237619Y-47497619D01*
X289285238Y-47450000D01*
X289380476Y-47402380D01*
X289618571Y-47402380D01*
X289761428Y-47450000D01*
X290570952Y-48354761D02*
X290475714Y-48402380D01*
X290285238Y-48402380D01*
X290190000Y-48354761D01*
X290142380Y-48259523D01*
X290142380Y-47878571D01*
X290190000Y-47783333D01*
X290285238Y-47735714D01*
X290475714Y-47735714D01*
X290570952Y-47783333D01*
X290618571Y-47878571D01*
X290618571Y-47973809D01*
X290142380Y-48069047D01*
X291047142Y-48402380D02*
X291047142Y-47735714D01*
X291047142Y-47926190D02*
X291094761Y-47830952D01*
X291142380Y-47783333D01*
X291237619Y-47735714D01*
X291332857Y-47735714D01*
X291666190Y-48402380D02*
X291666190Y-47735714D01*
X291666190Y-47402380D02*
X291618571Y-47450000D01*
X291666190Y-47497619D01*
X291713809Y-47450000D01*
X291666190Y-47402380D01*
X291666190Y-47497619D01*
X292570952Y-48402380D02*
X292570952Y-47878571D01*
X292523333Y-47783333D01*
X292428095Y-47735714D01*
X292237619Y-47735714D01*
X292142380Y-47783333D01*
X292570952Y-48354761D02*
X292475714Y-48402380D01*
X292237619Y-48402380D01*
X292142380Y-48354761D01*
X292094761Y-48259523D01*
X292094761Y-48164285D01*
X292142380Y-48069047D01*
X292237619Y-48021428D01*
X292475714Y-48021428D01*
X292570952Y-47973809D01*
X293190000Y-48402380D02*
X293094761Y-48354761D01*
X293047142Y-48259523D01*
X293047142Y-47402380D01*
D10*
X313200000Y-90000000D02*
X313200000Y-64600000D01*
X287800000Y-90000000D02*
X287800000Y-64600000D01*
X287800000Y-64600000D02*
X313200000Y-64600000D01*
X287800000Y-90000000D02*
X313200000Y-90000000D01*
X287030000Y-115400000D02*
X343400000Y-115400000D01*
X337800000Y-36000000D02*
X337800000Y-49800000D01*
X337800000Y-104800000D02*
X337800000Y-118600000D01*
X343400000Y-39200000D02*
X258300000Y-39200000D01*
X349800000Y-49800000D02*
X337800000Y-49800000D01*
X263900000Y-36000000D02*
X263900000Y-49800000D01*
X349800000Y-104800000D02*
X337800000Y-104800000D01*
X337800000Y-104800000D02*
X337800000Y-118600000D01*
X251900000Y-49800000D02*
X263900000Y-49800000D01*
X349800000Y-104800000D02*
X337800000Y-104800000D01*
X337800000Y-49800000D02*
X349800000Y-49800000D01*
X347850000Y-46800000D02*
G75*
G03X347850000Y-46800000I-1250000J0D01*
G01*
X343400000Y-36000000D02*
X343400000Y-118600000D01*
X256350000Y-46800000D02*
G75*
G03X256350000Y-46800000I-1250000J0D01*
G01*
X347850000Y-107800000D02*
G75*
G03X347850000Y-107800000I-1250000J0D01*
G01*
X285175000Y-52125000D02*
X285175000Y-51375000D01*
X284775000Y-56125000D02*
X290725000Y-56125000D01*
X284225000Y-53025000D02*
X282725000Y-53025000D01*
X284225000Y-52125000D02*
X284225000Y-53025000D01*
X285175000Y-52125000D02*
X284225000Y-52125000D01*
X291275000Y-53025000D02*
X292775000Y-53025000D01*
X291275000Y-52125000D02*
X291275000Y-53025000D01*
X290325000Y-52125000D02*
X291275000Y-52125000D01*
X309510000Y-64460000D02*
X309510000Y-67120000D01*
X291610000Y-64460000D02*
X291610000Y-67120000D01*
X309510000Y-67120000D02*
X306400000Y-67120000D01*
X308940000Y-64460000D02*
X308940000Y-62940000D01*
X309510000Y-64460000D02*
X308940000Y-64460000D01*
X292180000Y-67120000D02*
X291610000Y-67120000D01*
X304880000Y-67120000D02*
X301320000Y-67120000D01*
X299800000Y-67120000D02*
X296240000Y-67120000D01*
X294720000Y-67120000D02*
X291610000Y-67120000D01*
X307420000Y-64460000D02*
X303860000Y-64460000D01*
X302340000Y-64460000D02*
X298780000Y-64460000D01*
X297260000Y-64460000D02*
X293700000Y-64460000D01*
X303820000Y-90100000D02*
X307380000Y-90100000D01*
X298740000Y-90100000D02*
X302300000Y-90100000D01*
X293660000Y-90100000D02*
X297220000Y-90100000D01*
X306360000Y-87440000D02*
X309470000Y-87440000D01*
X301280000Y-87440000D02*
X304840000Y-87440000D01*
X296200000Y-87440000D02*
X299760000Y-87440000D01*
X308900000Y-87440000D02*
X309470000Y-87440000D01*
X291570000Y-90100000D02*
X292140000Y-90100000D01*
X292140000Y-90100000D02*
X292140000Y-91620000D01*
X291570000Y-87440000D02*
X294680000Y-87440000D01*
X309470000Y-90100000D02*
X309470000Y-87440000D01*
X291570000Y-90100000D02*
X291570000Y-87440000D01*
X304800000Y-93310000D02*
G75*
G02X305500000Y-92610000I700000J0D01*
G01*
X305500000Y-94610000D02*
G75*
G02X304800000Y-93910000I0J700000D01*
G01*
X308900000Y-93910000D02*
G75*
G02X308200000Y-94610000I-700000J0D01*
G01*
X308200000Y-92610000D02*
G75*
G02X308900000Y-93310000I0J-700000D01*
G01*
X305450000Y-92610000D02*
X308250000Y-92610000D01*
X308900000Y-93310000D02*
X308900000Y-93910000D01*
X308250000Y-94610000D02*
X305450000Y-94610000D01*
X304800000Y-93910000D02*
X304800000Y-93310000D01*
X305650000Y-94810000D02*
X305350000Y-95110000D01*
X305350000Y-95110000D02*
X305950000Y-95110000D01*
X305650000Y-94810000D02*
X305950000Y-95110000D01*
X305630000Y-97710000D02*
X305930000Y-98010000D01*
X305330000Y-98010000D02*
X305930000Y-98010000D01*
X305630000Y-97710000D02*
X305330000Y-98010000D01*
X304780000Y-96810000D02*
X304780000Y-96210000D01*
X308230000Y-97510000D02*
X305430000Y-97510000D01*
X308880000Y-96210000D02*
X308880000Y-96810000D01*
X305430000Y-95510000D02*
X308230000Y-95510000D01*
X308180000Y-95510000D02*
G75*
G02X308880000Y-96210000I0J-700000D01*
G01*
X308880000Y-96810000D02*
G75*
G02X308180000Y-97510000I-700000J0D01*
G01*
X305480000Y-97510000D02*
G75*
G02X304780000Y-96810000I0J700000D01*
G01*
X304780000Y-96210000D02*
G75*
G02X305480000Y-95510000I700000J0D01*
G01*
X307680000Y-61160000D02*
X307680000Y-61660000D01*
X308740000Y-61660000D02*
X308740000Y-61160000D01*
X303620000Y-61650000D02*
X303620000Y-61150000D01*
X302560000Y-61150000D02*
X302560000Y-61650000D01*
X297220000Y-93300000D02*
G75*
G02X297920000Y-92600000I700000J0D01*
G01*
X297920000Y-94600000D02*
G75*
G02X297220000Y-93900000I0J700000D01*
G01*
X301320000Y-93900000D02*
G75*
G02X300620000Y-94600000I-700000J0D01*
G01*
X300620000Y-92600000D02*
G75*
G02X301320000Y-93300000I0J-700000D01*
G01*
X297870000Y-92600000D02*
X300670000Y-92600000D01*
X301320000Y-93300000D02*
X301320000Y-93900000D01*
X300670000Y-94600000D02*
X297870000Y-94600000D01*
X297220000Y-93900000D02*
X297220000Y-93300000D01*
X298070000Y-94800000D02*
X297770000Y-95100000D01*
X297770000Y-95100000D02*
X298370000Y-95100000D01*
X298070000Y-94800000D02*
X298370000Y-95100000D01*
X298090000Y-100550000D02*
X298390000Y-100850000D01*
X297790000Y-100850000D02*
X298390000Y-100850000D01*
X298090000Y-100550000D02*
X297790000Y-100850000D01*
X297240000Y-99650000D02*
X297240000Y-99050000D01*
X300690000Y-100350000D02*
X297890000Y-100350000D01*
X301340000Y-99050000D02*
X301340000Y-99650000D01*
X297890000Y-98350000D02*
X300690000Y-98350000D01*
X300640000Y-98350000D02*
G75*
G02X301340000Y-99050000I0J-700000D01*
G01*
X301340000Y-99650000D02*
G75*
G02X300640000Y-100350000I-700000J0D01*
G01*
X297940000Y-100350000D02*
G75*
G02X297240000Y-99650000I0J700000D01*
G01*
X297240000Y-99050000D02*
G75*
G02X297940000Y-98350000I700000J0D01*
G01*
X297200000Y-96170000D02*
G75*
G02X297900000Y-95470000I700000J0D01*
G01*
X297900000Y-97470000D02*
G75*
G02X297200000Y-96770000I0J700000D01*
G01*
X301300000Y-96770000D02*
G75*
G02X300600000Y-97470000I-700000J0D01*
G01*
X300600000Y-95470000D02*
G75*
G02X301300000Y-96170000I0J-700000D01*
G01*
X297850000Y-95470000D02*
X300650000Y-95470000D01*
X301300000Y-96170000D02*
X301300000Y-96770000D01*
X300650000Y-97470000D02*
X297850000Y-97470000D01*
X297200000Y-96770000D02*
X297200000Y-96170000D01*
X298050000Y-97670000D02*
X297750000Y-97970000D01*
X297750000Y-97970000D02*
X298350000Y-97970000D01*
X298050000Y-97670000D02*
X298350000Y-97970000D01*
D12*
X302110000Y-75845000D02*
X302110000Y-74595000D01*
X298935000Y-75845000D02*
X298935000Y-79195000D01*
X302285000Y-75845000D02*
X302285000Y-79195000D01*
X298935000Y-75845000D02*
X299185000Y-75845000D01*
X298935000Y-79195000D02*
X299185000Y-79195000D01*
X302285000Y-79195000D02*
X302035000Y-79195000D01*
X302285000Y-75845000D02*
X302110000Y-75845000D01*
X282526666Y-103212380D02*
X282193333Y-102736190D01*
X281955238Y-103212380D02*
X281955238Y-102212380D01*
X282336190Y-102212380D01*
X282431428Y-102260000D01*
X282479047Y-102307619D01*
X282526666Y-102402857D01*
X282526666Y-102545714D01*
X282479047Y-102640952D01*
X282431428Y-102688571D01*
X282336190Y-102736190D01*
X281955238Y-102736190D01*
X282955238Y-102688571D02*
X283288571Y-102688571D01*
X283431428Y-103212380D02*
X282955238Y-103212380D01*
X282955238Y-102212380D01*
X283431428Y-102212380D01*
X284193333Y-102688571D02*
X283860000Y-102688571D01*
X283860000Y-103212380D02*
X283860000Y-102212380D01*
X284336190Y-102212380D01*
X284860000Y-102212380D02*
X284860000Y-102450476D01*
X284621904Y-102355238D02*
X284860000Y-102450476D01*
X285098095Y-102355238D01*
X284717142Y-102640952D02*
X284860000Y-102450476D01*
X285002857Y-102640952D01*
X285621904Y-102212380D02*
X285621904Y-102450476D01*
X285383809Y-102355238D02*
X285621904Y-102450476D01*
X285860000Y-102355238D01*
X285479047Y-102640952D02*
X285621904Y-102450476D01*
X285764761Y-102640952D01*
X253766666Y-105002380D02*
X253433333Y-104526190D01*
X253195238Y-105002380D02*
X253195238Y-104002380D01*
X253576190Y-104002380D01*
X253671428Y-104050000D01*
X253719047Y-104097619D01*
X253766666Y-104192857D01*
X253766666Y-104335714D01*
X253719047Y-104430952D01*
X253671428Y-104478571D01*
X253576190Y-104526190D01*
X253195238Y-104526190D01*
X254195238Y-104478571D02*
X254528571Y-104478571D01*
X254671428Y-105002380D02*
X254195238Y-105002380D01*
X254195238Y-104002380D01*
X254671428Y-104002380D01*
X255433333Y-104478571D02*
X255100000Y-104478571D01*
X255100000Y-105002380D02*
X255100000Y-104002380D01*
X255576190Y-104002380D01*
X256100000Y-104002380D02*
X256100000Y-104240476D01*
X255861904Y-104145238D02*
X256100000Y-104240476D01*
X256338095Y-104145238D01*
X255957142Y-104430952D02*
X256100000Y-104240476D01*
X256242857Y-104430952D01*
X256861904Y-104002380D02*
X256861904Y-104240476D01*
X256623809Y-104145238D02*
X256861904Y-104240476D01*
X257100000Y-104145238D01*
X256719047Y-104430952D02*
X256861904Y-104240476D01*
X257004761Y-104430952D01*
X345266666Y-44002380D02*
X344933333Y-43526190D01*
X344695238Y-44002380D02*
X344695238Y-43002380D01*
X345076190Y-43002380D01*
X345171428Y-43050000D01*
X345219047Y-43097619D01*
X345266666Y-43192857D01*
X345266666Y-43335714D01*
X345219047Y-43430952D01*
X345171428Y-43478571D01*
X345076190Y-43526190D01*
X344695238Y-43526190D01*
X345695238Y-43478571D02*
X346028571Y-43478571D01*
X346171428Y-44002380D02*
X345695238Y-44002380D01*
X345695238Y-43002380D01*
X346171428Y-43002380D01*
X346933333Y-43478571D02*
X346600000Y-43478571D01*
X346600000Y-44002380D02*
X346600000Y-43002380D01*
X347076190Y-43002380D01*
X347600000Y-43002380D02*
X347600000Y-43240476D01*
X347361904Y-43145238D02*
X347600000Y-43240476D01*
X347838095Y-43145238D01*
X347457142Y-43430952D02*
X347600000Y-43240476D01*
X347742857Y-43430952D01*
X348361904Y-43002380D02*
X348361904Y-43240476D01*
X348123809Y-43145238D02*
X348361904Y-43240476D01*
X348600000Y-43145238D01*
X348219047Y-43430952D02*
X348361904Y-43240476D01*
X348504761Y-43430952D01*
X253766666Y-43992380D02*
X253433333Y-43516190D01*
X253195238Y-43992380D02*
X253195238Y-42992380D01*
X253576190Y-42992380D01*
X253671428Y-43040000D01*
X253719047Y-43087619D01*
X253766666Y-43182857D01*
X253766666Y-43325714D01*
X253719047Y-43420952D01*
X253671428Y-43468571D01*
X253576190Y-43516190D01*
X253195238Y-43516190D01*
X254195238Y-43468571D02*
X254528571Y-43468571D01*
X254671428Y-43992380D02*
X254195238Y-43992380D01*
X254195238Y-42992380D01*
X254671428Y-42992380D01*
X255433333Y-43468571D02*
X255100000Y-43468571D01*
X255100000Y-43992380D02*
X255100000Y-42992380D01*
X255576190Y-42992380D01*
X256100000Y-42992380D02*
X256100000Y-43230476D01*
X255861904Y-43135238D02*
X256100000Y-43230476D01*
X256338095Y-43135238D01*
X255957142Y-43420952D02*
X256100000Y-43230476D01*
X256242857Y-43420952D01*
X256861904Y-42992380D02*
X256861904Y-43230476D01*
X256623809Y-43135238D02*
X256861904Y-43230476D01*
X257100000Y-43135238D01*
X256719047Y-43420952D02*
X256861904Y-43230476D01*
X257004761Y-43420952D01*
X345266666Y-105002380D02*
X344933333Y-104526190D01*
X344695238Y-105002380D02*
X344695238Y-104002380D01*
X345076190Y-104002380D01*
X345171428Y-104050000D01*
X345219047Y-104097619D01*
X345266666Y-104192857D01*
X345266666Y-104335714D01*
X345219047Y-104430952D01*
X345171428Y-104478571D01*
X345076190Y-104526190D01*
X344695238Y-104526190D01*
X345695238Y-104478571D02*
X346028571Y-104478571D01*
X346171428Y-105002380D02*
X345695238Y-105002380D01*
X345695238Y-104002380D01*
X346171428Y-104002380D01*
X346933333Y-104478571D02*
X346600000Y-104478571D01*
X346600000Y-105002380D02*
X346600000Y-104002380D01*
X347076190Y-104002380D01*
X347600000Y-104002380D02*
X347600000Y-104240476D01*
X347361904Y-104145238D02*
X347600000Y-104240476D01*
X347838095Y-104145238D01*
X347457142Y-104430952D02*
X347600000Y-104240476D01*
X347742857Y-104430952D01*
X348361904Y-104002380D02*
X348361904Y-104240476D01*
X348123809Y-104145238D02*
X348361904Y-104240476D01*
X348600000Y-104145238D01*
X348219047Y-104430952D02*
X348361904Y-104240476D01*
X348504761Y-104430952D01*
X333652380Y-47323333D02*
X333176190Y-47656666D01*
X333652380Y-47894761D02*
X332652380Y-47894761D01*
X332652380Y-47513809D01*
X332700000Y-47418571D01*
X332747619Y-47370952D01*
X332842857Y-47323333D01*
X332985714Y-47323333D01*
X333080952Y-47370952D01*
X333128571Y-47418571D01*
X333176190Y-47513809D01*
X333176190Y-47894761D01*
X333128571Y-46894761D02*
X333128571Y-46561428D01*
X333652380Y-46418571D02*
X333652380Y-46894761D01*
X332652380Y-46894761D01*
X332652380Y-46418571D01*
X333128571Y-45656666D02*
X333128571Y-45990000D01*
X333652380Y-45990000D02*
X332652380Y-45990000D01*
X332652380Y-45513809D01*
X332652380Y-44990000D02*
X332890476Y-44990000D01*
X332795238Y-45228095D02*
X332890476Y-44990000D01*
X332795238Y-44751904D01*
X333080952Y-45132857D02*
X332890476Y-44990000D01*
X333080952Y-44847142D01*
X332652380Y-44228095D02*
X332890476Y-44228095D01*
X332795238Y-44466190D02*
X332890476Y-44228095D01*
X332795238Y-43990000D01*
X333080952Y-44370952D02*
X332890476Y-44228095D01*
X333080952Y-44085238D01*
X291062380Y-109943333D02*
X290586190Y-110276666D01*
X291062380Y-110514761D02*
X290062380Y-110514761D01*
X290062380Y-110133809D01*
X290110000Y-110038571D01*
X290157619Y-109990952D01*
X290252857Y-109943333D01*
X290395714Y-109943333D01*
X290490952Y-109990952D01*
X290538571Y-110038571D01*
X290586190Y-110133809D01*
X290586190Y-110514761D01*
X290538571Y-109514761D02*
X290538571Y-109181428D01*
X291062380Y-109038571D02*
X291062380Y-109514761D01*
X290062380Y-109514761D01*
X290062380Y-109038571D01*
X290538571Y-108276666D02*
X290538571Y-108610000D01*
X291062380Y-108610000D02*
X290062380Y-108610000D01*
X290062380Y-108133809D01*
X290062380Y-107610000D02*
X290300476Y-107610000D01*
X290205238Y-107848095D02*
X290300476Y-107610000D01*
X290205238Y-107371904D01*
X290490952Y-107752857D02*
X290300476Y-107610000D01*
X290490952Y-107467142D01*
X290062380Y-106848095D02*
X290300476Y-106848095D01*
X290205238Y-107086190D02*
X290300476Y-106848095D01*
X290205238Y-106610000D01*
X290490952Y-106990952D02*
X290300476Y-106848095D01*
X290490952Y-106705238D01*
X291062380Y-47323333D02*
X290586190Y-47656666D01*
X291062380Y-47894761D02*
X290062380Y-47894761D01*
X290062380Y-47513809D01*
X290110000Y-47418571D01*
X290157619Y-47370952D01*
X290252857Y-47323333D01*
X290395714Y-47323333D01*
X290490952Y-47370952D01*
X290538571Y-47418571D01*
X290586190Y-47513809D01*
X290586190Y-47894761D01*
X290538571Y-46894761D02*
X290538571Y-46561428D01*
X291062380Y-46418571D02*
X291062380Y-46894761D01*
X290062380Y-46894761D01*
X290062380Y-46418571D01*
X290538571Y-45656666D02*
X290538571Y-45990000D01*
X291062380Y-45990000D02*
X290062380Y-45990000D01*
X290062380Y-45513809D01*
X290062380Y-44990000D02*
X290300476Y-44990000D01*
X290205238Y-45228095D02*
X290300476Y-44990000D01*
X290205238Y-44751904D01*
X290490952Y-45132857D02*
X290300476Y-44990000D01*
X290490952Y-44847142D01*
X290062380Y-44228095D02*
X290300476Y-44228095D01*
X290205238Y-44466190D02*
X290300476Y-44228095D01*
X290205238Y-43990000D01*
X290490952Y-44370952D02*
X290300476Y-44228095D01*
X290490952Y-44085238D01*
X333652380Y-109943333D02*
X333176190Y-110276666D01*
X333652380Y-110514761D02*
X332652380Y-110514761D01*
X332652380Y-110133809D01*
X332700000Y-110038571D01*
X332747619Y-109990952D01*
X332842857Y-109943333D01*
X332985714Y-109943333D01*
X333080952Y-109990952D01*
X333128571Y-110038571D01*
X333176190Y-110133809D01*
X333176190Y-110514761D01*
X333128571Y-109514761D02*
X333128571Y-109181428D01*
X333652380Y-109038571D02*
X333652380Y-109514761D01*
X332652380Y-109514761D01*
X332652380Y-109038571D01*
X333128571Y-108276666D02*
X333128571Y-108610000D01*
X333652380Y-108610000D02*
X332652380Y-108610000D01*
X332652380Y-108133809D01*
X332652380Y-107610000D02*
X332890476Y-107610000D01*
X332795238Y-107848095D02*
X332890476Y-107610000D01*
X332795238Y-107371904D01*
X333080952Y-107752857D02*
X332890476Y-107610000D01*
X333080952Y-107467142D01*
X332652380Y-106848095D02*
X332890476Y-106848095D01*
X332795238Y-107086190D02*
X332890476Y-106848095D01*
X332795238Y-106610000D01*
X333080952Y-106990952D02*
X332890476Y-106848095D01*
X333080952Y-106705238D01*
X286940476Y-49702380D02*
X286940476Y-50416666D01*
X286892857Y-50559523D01*
X286797619Y-50654761D01*
X286654761Y-50702380D01*
X286559523Y-50702380D01*
X287940476Y-50702380D02*
X287369047Y-50702380D01*
X287654761Y-50702380D02*
X287654761Y-49702380D01*
X287559523Y-49845238D01*
X287464285Y-49940476D01*
X287369047Y-49988095D01*
X288559523Y-49702380D02*
X288654761Y-49702380D01*
X288750000Y-49750000D01*
X288797619Y-49797619D01*
X288845238Y-49892857D01*
X288892857Y-50083333D01*
X288892857Y-50321428D01*
X288845238Y-50511904D01*
X288797619Y-50607142D01*
X288750000Y-50654761D01*
X288654761Y-50702380D01*
X288559523Y-50702380D01*
X288464285Y-50654761D01*
X288416666Y-50607142D01*
X288369047Y-50511904D01*
X288321428Y-50321428D01*
X288321428Y-50083333D01*
X288369047Y-49892857D01*
X288416666Y-49797619D01*
X288464285Y-49750000D01*
X288559523Y-49702380D01*
X309962380Y-66599523D02*
X310676666Y-66599523D01*
X310819523Y-66647142D01*
X310914761Y-66742380D01*
X310962380Y-66885238D01*
X310962380Y-66980476D01*
X310962380Y-65599523D02*
X310962380Y-66170952D01*
X310962380Y-65885238D02*
X309962380Y-65885238D01*
X310105238Y-65980476D01*
X310200476Y-66075714D01*
X310248095Y-66170952D01*
X310057619Y-65218571D02*
X310010000Y-65170952D01*
X309962380Y-65075714D01*
X309962380Y-64837619D01*
X310010000Y-64742380D01*
X310057619Y-64694761D01*
X310152857Y-64647142D01*
X310248095Y-64647142D01*
X310390952Y-64694761D01*
X310962380Y-65266190D01*
X310962380Y-64647142D01*
X290022380Y-89579523D02*
X290736666Y-89579523D01*
X290879523Y-89627142D01*
X290974761Y-89722380D01*
X291022380Y-89865238D01*
X291022380Y-89960476D01*
X291022380Y-88579523D02*
X291022380Y-89150952D01*
X291022380Y-88865238D02*
X290022380Y-88865238D01*
X290165238Y-88960476D01*
X290260476Y-89055714D01*
X290308095Y-89150952D01*
X290355714Y-87722380D02*
X291022380Y-87722380D01*
X289974761Y-87960476D02*
X290689047Y-88198571D01*
X290689047Y-87579523D01*
X310152380Y-95009523D02*
X310866666Y-95009523D01*
X311009523Y-95057142D01*
X311104761Y-95152380D01*
X311152380Y-95295238D01*
X311152380Y-95390476D01*
X311152380Y-94533333D02*
X310152380Y-94533333D01*
X310152380Y-94152380D01*
X310200000Y-94057142D01*
X310247619Y-94009523D01*
X310342857Y-93961904D01*
X310485714Y-93961904D01*
X310580952Y-94009523D01*
X310628571Y-94057142D01*
X310676190Y-94152380D01*
X310676190Y-94533333D01*
X311152380Y-93009523D02*
X311152380Y-93580952D01*
X311152380Y-93295238D02*
X310152380Y-93295238D01*
X310295238Y-93390476D01*
X310390476Y-93485714D01*
X310438095Y-93580952D01*
X311152380Y-92533333D02*
X311152380Y-92342857D01*
X311104761Y-92247619D01*
X311057142Y-92200000D01*
X310914285Y-92104761D01*
X310723809Y-92057142D01*
X310342857Y-92057142D01*
X310247619Y-92104761D01*
X310200000Y-92152380D01*
X310152380Y-92247619D01*
X310152380Y-92438095D01*
X310200000Y-92533333D01*
X310247619Y-92580952D01*
X310342857Y-92628571D01*
X310580952Y-92628571D01*
X310676190Y-92580952D01*
X310723809Y-92533333D01*
X310771428Y-92438095D01*
X310771428Y-92247619D01*
X310723809Y-92152380D01*
X310676190Y-92104761D01*
X310580952Y-92057142D01*
X308290476Y-98052380D02*
X308290476Y-98766666D01*
X308242857Y-98909523D01*
X308147619Y-99004761D01*
X308004761Y-99052380D01*
X307909523Y-99052380D01*
X308766666Y-99052380D02*
X308766666Y-98052380D01*
X309147619Y-98052380D01*
X309242857Y-98100000D01*
X309290476Y-98147619D01*
X309338095Y-98242857D01*
X309338095Y-98385714D01*
X309290476Y-98480952D01*
X309242857Y-98528571D01*
X309147619Y-98576190D01*
X308766666Y-98576190D01*
X309719047Y-98147619D02*
X309766666Y-98100000D01*
X309861904Y-98052380D01*
X310100000Y-98052380D01*
X310195238Y-98100000D01*
X310242857Y-98147619D01*
X310290476Y-98242857D01*
X310290476Y-98338095D01*
X310242857Y-98480952D01*
X309671428Y-99052380D01*
X310290476Y-99052380D01*
X311242857Y-99052380D02*
X310671428Y-99052380D01*
X310957142Y-99052380D02*
X310957142Y-98052380D01*
X310861904Y-98195238D01*
X310766666Y-98290476D01*
X310671428Y-98338095D01*
X310012380Y-62052857D02*
X309536190Y-62386190D01*
X310012380Y-62624285D02*
X309012380Y-62624285D01*
X309012380Y-62243333D01*
X309060000Y-62148095D01*
X309107619Y-62100476D01*
X309202857Y-62052857D01*
X309345714Y-62052857D01*
X309440952Y-62100476D01*
X309488571Y-62148095D01*
X309536190Y-62243333D01*
X309536190Y-62624285D01*
X310012380Y-61100476D02*
X310012380Y-61671904D01*
X310012380Y-61386190D02*
X309012380Y-61386190D01*
X309155238Y-61481428D01*
X309250476Y-61576666D01*
X309298095Y-61671904D01*
X309012380Y-60767142D02*
X309012380Y-60100476D01*
X310012380Y-60529047D01*
X304892380Y-62042857D02*
X304416190Y-62376190D01*
X304892380Y-62614285D02*
X303892380Y-62614285D01*
X303892380Y-62233333D01*
X303940000Y-62138095D01*
X303987619Y-62090476D01*
X304082857Y-62042857D01*
X304225714Y-62042857D01*
X304320952Y-62090476D01*
X304368571Y-62138095D01*
X304416190Y-62233333D01*
X304416190Y-62614285D01*
X304892380Y-61090476D02*
X304892380Y-61661904D01*
X304892380Y-61376190D02*
X303892380Y-61376190D01*
X304035238Y-61471428D01*
X304130476Y-61566666D01*
X304178095Y-61661904D01*
X304892380Y-60614285D02*
X304892380Y-60423809D01*
X304844761Y-60328571D01*
X304797142Y-60280952D01*
X304654285Y-60185714D01*
X304463809Y-60138095D01*
X304082857Y-60138095D01*
X303987619Y-60185714D01*
X303940000Y-60233333D01*
X303892380Y-60328571D01*
X303892380Y-60519047D01*
X303940000Y-60614285D01*
X303987619Y-60661904D01*
X304082857Y-60709523D01*
X304320952Y-60709523D01*
X304416190Y-60661904D01*
X304463809Y-60614285D01*
X304511428Y-60519047D01*
X304511428Y-60328571D01*
X304463809Y-60233333D01*
X304416190Y-60185714D01*
X304320952Y-60138095D01*
X302100476Y-93062380D02*
X302100476Y-93776666D01*
X302052857Y-93919523D01*
X301957619Y-94014761D01*
X301814761Y-94062380D01*
X301719523Y-94062380D01*
X302576666Y-94062380D02*
X302576666Y-93062380D01*
X302957619Y-93062380D01*
X303052857Y-93110000D01*
X303100476Y-93157619D01*
X303148095Y-93252857D01*
X303148095Y-93395714D01*
X303100476Y-93490952D01*
X303052857Y-93538571D01*
X302957619Y-93586190D01*
X302576666Y-93586190D01*
X303529047Y-93157619D02*
X303576666Y-93110000D01*
X303671904Y-93062380D01*
X303910000Y-93062380D01*
X304005238Y-93110000D01*
X304052857Y-93157619D01*
X304100476Y-93252857D01*
X304100476Y-93348095D01*
X304052857Y-93490952D01*
X303481428Y-94062380D01*
X304100476Y-94062380D01*
X305005238Y-93062380D02*
X304529047Y-93062380D01*
X304481428Y-93538571D01*
X304529047Y-93490952D01*
X304624285Y-93443333D01*
X304862380Y-93443333D01*
X304957619Y-93490952D01*
X305005238Y-93538571D01*
X305052857Y-93633809D01*
X305052857Y-93871904D01*
X305005238Y-93967142D01*
X304957619Y-94014761D01*
X304862380Y-94062380D01*
X304624285Y-94062380D01*
X304529047Y-94014761D01*
X304481428Y-93967142D01*
X302110476Y-98812380D02*
X302110476Y-99526666D01*
X302062857Y-99669523D01*
X301967619Y-99764761D01*
X301824761Y-99812380D01*
X301729523Y-99812380D01*
X302586666Y-99812380D02*
X302586666Y-98812380D01*
X302967619Y-98812380D01*
X303062857Y-98860000D01*
X303110476Y-98907619D01*
X303158095Y-99002857D01*
X303158095Y-99145714D01*
X303110476Y-99240952D01*
X303062857Y-99288571D01*
X302967619Y-99336190D01*
X302586666Y-99336190D01*
X303539047Y-98907619D02*
X303586666Y-98860000D01*
X303681904Y-98812380D01*
X303920000Y-98812380D01*
X304015238Y-98860000D01*
X304062857Y-98907619D01*
X304110476Y-99002857D01*
X304110476Y-99098095D01*
X304062857Y-99240952D01*
X303491428Y-99812380D01*
X304110476Y-99812380D01*
X304967619Y-98812380D02*
X304777142Y-98812380D01*
X304681904Y-98860000D01*
X304634285Y-98907619D01*
X304539047Y-99050476D01*
X304491428Y-99240952D01*
X304491428Y-99621904D01*
X304539047Y-99717142D01*
X304586666Y-99764761D01*
X304681904Y-99812380D01*
X304872380Y-99812380D01*
X304967619Y-99764761D01*
X305015238Y-99717142D01*
X305062857Y-99621904D01*
X305062857Y-99383809D01*
X305015238Y-99288571D01*
X304967619Y-99240952D01*
X304872380Y-99193333D01*
X304681904Y-99193333D01*
X304586666Y-99240952D01*
X304539047Y-99288571D01*
X304491428Y-99383809D01*
X302100476Y-95932380D02*
X302100476Y-96646666D01*
X302052857Y-96789523D01*
X301957619Y-96884761D01*
X301814761Y-96932380D01*
X301719523Y-96932380D01*
X302576666Y-96932380D02*
X302576666Y-95932380D01*
X302957619Y-95932380D01*
X303052857Y-95980000D01*
X303100476Y-96027619D01*
X303148095Y-96122857D01*
X303148095Y-96265714D01*
X303100476Y-96360952D01*
X303052857Y-96408571D01*
X302957619Y-96456190D01*
X302576666Y-96456190D01*
X303529047Y-96027619D02*
X303576666Y-95980000D01*
X303671904Y-95932380D01*
X303910000Y-95932380D01*
X304005238Y-95980000D01*
X304052857Y-96027619D01*
X304100476Y-96122857D01*
X304100476Y-96218095D01*
X304052857Y-96360952D01*
X303481428Y-96932380D01*
X304100476Y-96932380D01*
X304671904Y-96360952D02*
X304576666Y-96313333D01*
X304529047Y-96265714D01*
X304481428Y-96170476D01*
X304481428Y-96122857D01*
X304529047Y-96027619D01*
X304576666Y-95980000D01*
X304671904Y-95932380D01*
X304862380Y-95932380D01*
X304957619Y-95980000D01*
X305005238Y-96027619D01*
X305052857Y-96122857D01*
X305052857Y-96170476D01*
X305005238Y-96265714D01*
X304957619Y-96313333D01*
X304862380Y-96360952D01*
X304671904Y-96360952D01*
X304576666Y-96408571D01*
X304529047Y-96456190D01*
X304481428Y-96551428D01*
X304481428Y-96741904D01*
X304529047Y-96837142D01*
X304576666Y-96884761D01*
X304671904Y-96932380D01*
X304862380Y-96932380D01*
X304957619Y-96884761D01*
X305005238Y-96837142D01*
X305052857Y-96741904D01*
X305052857Y-96551428D01*
X305005238Y-96456190D01*
X304957619Y-96408571D01*
X304862380Y-96360952D01*
X302662380Y-78758095D02*
X303471904Y-78758095D01*
X303567142Y-78710476D01*
X303614761Y-78662857D01*
X303662380Y-78567619D01*
X303662380Y-78377142D01*
X303614761Y-78281904D01*
X303567142Y-78234285D01*
X303471904Y-78186666D01*
X302662380Y-78186666D01*
X303662380Y-77186666D02*
X303662380Y-77758095D01*
X303662380Y-77472380D02*
X302662380Y-77472380D01*
X302805238Y-77567619D01*
X302900476Y-77662857D01*
X302948095Y-77758095D01*
X302662380Y-76853333D02*
X302662380Y-76186666D01*
X303662380Y-76615238D01*
M02*
